<svg version="1.0" xmlns="http://www.w3.org/2000/svg" width="192" height="186" viewBox="0 0 1920 1860"><path d="M0 930V0h1920v1860H0V930z" fill="#050606"/><path d="M0 930V0h1920v1860H0V930zm802 267c-6-21-7-21-10 3-2 14-16 39-30 55-24 27-23 27 9-3 28-26 35-39 31-55zm79 2c11-11 19-23 17-25-3-2-15 7-28 21-28 30-19 34 11 4zm-18-89c4 0 7 8 7 19 0 20 46 36 56 20 3-5-6-9-20-9-25 0-31-12-27-47 3-20-1-17-49 34-30 31-33 37-10 15 20-17 39-32 43-32zm520 43c-13-2-33-2-45 0-13 2-3 4 22 4s35-2 23-4zm30-30c-18-2-48-2-65 0-18 2-4 4 32 4s50-2 33-4zm-845-30c-16-2-40-2-55 0-16 2-3 4 27 4s43-2 28-4zm840 0c-16-2-40-2-55 0-16 2-3 4 27 4s43-2 28-4zm-835-70c-18-2-48-2-65 0-18 2-4 4 32 4s50-2 33-4zm712-55l40-43-42 39-42 40-23-20-23-19 19 23c11 12 22 22 26 22 3 0 24-19 45-42zm-182-55c-13-2-33-2-45 0-13 2-3 4 22 4s35-2 23-4zm-10-30c-18-2-48-2-65 0-18 2-4 4 32 4s50-2 33-4zm0-30c-18-2-48-2-65 0-18 2-4 4 32 4s50-2 33-4zm69-433c-1-2-31 25-65 60l-62 64 65-59c36-33 64-62 62-65zm168-4c33-32 59-60 57-63-3-2-31 24-64 58l-59 61-32-16c-18-9-32-14-32-12 0 7 53 36 62 33 3-1 34-28 68-61z" fill="#0a222c"/><g fill="#302f2f"><path d="M0 930V0h1920v1860H0V930zm826 300c22 0 41-12 74-45l44-45h-32c-29 0-32-3-32-32v-32l-45 44c-31 30-45 52-45 71 0 14-11 38-25 53-34 37-32 46 3 13 18-17 39-27 58-27zm557-77c-13-2-33-2-45 0-13 2-3 4 22 4s35-2 23-4zm30-30c-18-2-48-2-65 0-18 2-4 4 32 4s50-2 33-4zm-840-30c-18-2-48-2-65 0-18 2-4 4 32 4s50-2 33-4zm840 0c-18-2-48-2-65 0-18 2-4 4 32 4s50-2 33-4zm-826-40c-4-3-10-3-14 0-3 4 0 7 7 7s10-3 7-7zm-14-30c-18-2-48-2-65 0-18 2-4 4 32 4s50-2 33-4zm712-55l40-43-42 39-42 40-23-20-23-19 19 23c11 12 22 22 26 22 3 0 24-19 45-42zm-182-55c-13-2-33-2-45 0-13 2-3 4 22 4s35-2 23-4zm-10-30c-18-2-48-2-65 0-18 2-4 4 32 4s50-2 33-4zm0-30c-18-2-48-2-65 0-18 2-4 4 32 4s50-2 33-4zM717 533c-4-3-7 0-7 7s3 10 7 7c3-4 3-10 0-14zm458-99c9 3 13 2 10-4-12-20-32-9-90 53l-60 62 62-59c42-40 66-57 78-52zm-458 59c-4-3-7 0-7 7s3 10 7 7c3-4 3-10 0-14zm613-77c33-32 59-60 57-63-3-2-31 24-64 58l-59 61-32-16c-18-9-32-14-32-12 0 7 53 36 62 33 3-1 34-28 68-61zm-603-43c-2-16-4-3-4 27s2 43 4 28c2-16 2-40 0-55z"/><path d="M800 1193c0-19 47-83 61-83 5 0 9 9 9 20 0 13 7 20 20 20 27 0 25 6-7 35-33 29-83 34-83 8z"/></g><g fill="#123f53"><path d="M0 930V0h1920v1860H0V930zm826 300c22 0 41-12 74-45l44-45h-32c-29 0-32-3-32-32v-32l-45 44c-31 30-45 52-45 71 0 14-11 38-25 53-34 37-32 46 3 13 18-17 39-27 58-27zm557-77c-13-2-33-2-45 0-13 2-3 4 22 4s35-2 23-4zm30-30c-18-2-48-2-65 0-18 2-4 4 32 4s50-2 33-4zm-840-30c-18-2-48-2-65 0-18 2-4 4 32 4s50-2 33-4zm840 0c-18-2-48-2-65 0-18 2-4 4 32 4s50-2 33-4zm-818-33c4-6-17-10-55-10s-59 4-55 10c3 6 28 10 55 10s52-4 55-10zm840 0c4-6-17-10-55-10s-59 4-55 10c3 6 28 10 55 10s52-4 55-10zm-862-37c-18-2-48-2-65 0-18 2-4 4 32 4s50-2 33-4zm712-55l40-43-42 39-42 40-23-20-23-19 19 23c11 12 22 22 26 22 3 0 24-19 45-42zm-182-55c-13-2-33-2-45 0-13 2-3 4 22 4s35-2 23-4zm-10-30c-18-2-48-2-65 0-18 2-4 4 32 4s50-2 33-4zm0-30c-18-2-48-2-65 0-18 2-4 4 32 4s50-2 33-4zm27-33c0-6-27-10-60-10s-60 4-60 10 27 10 60 10 60-4 60-10zM730 551c0-123-4-202-10-206-7-4-10 65-10 199 0 131 4 206 10 206s10-73 10-199zm374-67l51-57 54 28 54 27 56-56c32-31 60-53 64-50 4 4 7 0 7-9s-7-17-16-17c-8 0-13 4-10 8 3 5-19 32-49 62l-53 53-54-31-53-30-58 64c-32 35-55 64-51 64s30-25 58-56z"/><path d="M800 1193c0-19 47-83 61-83 5 0 9 9 9 20 0 14 7 20 22 20 21 0 21 1-7 30-32 34-85 42-85 13z"/></g><g fill="#525253"><path d="M0 930V0h1920v1860H0V930zm783 313c4-7 23-13 40-13 26 0 43-10 77-45l44-45h-32c-29 0-32-3-32-31v-32l-44 39c-33 29-44 47-45 70-1 19-11 39-26 54-14 13-25 28-25 33 0 11 31-11 43-30zm600-90c-13-2-33-2-45 0-13 2-3 4 22 4s35-2 23-4zm30-30c-18-2-48-2-65 0-18 2-4 4 32 4s50-2 33-4zm-840-30c-18-2-48-2-65 0-18 2-4 4 32 4s50-2 33-4zm840 0c-18-2-48-2-65 0-18 2-4 4 32 4s50-2 33-4zm-818-33c4-6-17-10-55-10s-59 4-55 10c3 6 28 10 55 10s52-4 55-10zm840 0c4-6-17-10-55-10s-59 4-55 10c3 6 28 10 55 10s52-4 55-10zm-862-37c-18-2-48-2-65 0-18 2-4 4 32 4s50-2 33-4zm712-55l40-43-42 39-42 40-23-20-23-19 19 23c11 12 22 22 26 22 3 0 24-19 45-42zm-182-55c-13-2-33-2-45 0-13 2-3 4 22 4s35-2 23-4zm-10-30c-18-2-48-2-65 0-18 2-4 4 32 4s50-2 33-4zm0-30c-18-2-48-2-65 0-18 2-4 4 32 4s50-2 33-4zm27-33c0-6-27-10-60-10s-60 4-60 10 27 10 60 10 60-4 60-10zM730 545c0-130-4-205-10-205s-10 75-10 205 4 205 10 205 10-75 10-205zm374-61l51-57 54 28 54 27 56-56c32-31 60-53 64-50 4 4 7 0 7-9s-7-17-16-17c-8 0-13 4-10 8 3 5-19 32-49 62l-53 53-54-31-53-30-58 64c-32 35-55 64-51 64s30-25 58-56z"/><path d="M810 1186c0-24 34-76 51-76 5 0 9 9 9 20 0 14 7 20 22 20 21 0 21 1-7 30-36 37-75 41-75 6z"/></g><g fill="#076d97"><path d="M0 930V0h1920v1860H0V930zm783 313c4-7 23-13 40-13 26 0 43-10 77-45l44-45h-32c-29 0-32-3-32-31v-32l-44 39c-33 29-44 47-45 70-1 19-11 39-26 54-14 13-25 28-25 33 0 11 31-11 43-30zm600-90c-13-2-33-2-45 0-13 2-3 4 22 4s35-2 23-4zm30-30c-18-2-48-2-65 0-18 2-4 4 32 4s50-2 33-4zm-818-33c-3-5-28-10-55-10s-52 5-55 10c-4 6 17 10 55 10s59-4 55-10zm840 0c-3-5-28-10-55-10s-52 5-55 10c-4 6 17 10 55 10s59-4 55-10zm-835-30c0-6-27-10-60-10s-60 4-60 10 27 10 60 10 60-4 60-10zm840 0c0-6-27-10-60-10s-60 4-60 10 27 10 60 10 60-4 60-10zm-867-37c-18-2-48-2-65 0-18 2-4 4 32 4s50-2 33-4zm709-40c21-20 38-42 38-47 0-6-18 7-40 29-39 38-40 38-60 20-11-10-20-14-20-10 0 10 30 45 39 45 3 0 22-17 43-37zm-179-70c-13-2-33-2-45 0-13 2-3 4 22 4s35-2 23-4zm-10-30c-18-2-48-2-65 0-18 2-4 4 32 4s50-2 33-4zm0-30c-18-2-48-2-65 0-18 2-4 4 32 4s50-2 33-4zm27-33c0-6-27-10-60-10s-60 4-60 10 27 10 60 10 60-4 60-10zM730 545c0-130-4-205-10-205s-10 75-10 205 4 205 10 205 10-75 10-205zm483-89l58 29 50-52c33-35 55-50 65-46 12 4 15 0 12-18-2-16-11-25-25-27-23-3-33 13-13 20 6 2-13 27-43 56l-53 52-56-30-55-30-57 64c-31 35-56 68-56 73 1 4 26-21 58-56l57-63 58 28z"/><path d="M810 1187c0-13 11-34 25-47 21-19 25-21 25-7 0 10 8 17 20 17 26 0 25 12-3 38-32 30-67 29-67-1z"/></g><g fill="#60676f"><path d="M0 930V0h1920v1860H0V930zm780 325c15-15 35-25 54-26 23-1 41-12 70-45l39-44h-32c-28 0-31-3-31-31v-32l-44 39c-32 29-44 47-45 69-1 18-13 41-33 62-21 22-27 33-17 33 9 0 26-11 39-25zm603-102c-13-2-33-2-45 0-13 2-3 4 22 4s35-2 23-4zm30-30c-18-2-48-2-65 0-18 2-4 4 32 4s50-2 33-4zm-818-33c-3-5-28-10-55-10s-52 5-55 10c-4 6 17 10 55 10s59-4 55-10zm840 0c-3-5-28-10-55-10s-52 5-55 10c-4 6 17 10 55 10s59-4 55-10zm-835-30c0-6-27-10-60-10s-60 4-60 10 27 10 60 10 60-4 60-10zm840 0c0-6-27-10-60-10s-60 4-60 10 27 10 60 10 60-4 60-10zm-867-37c-18-2-48-2-65 0-18 2-4 4 32 4s50-2 33-4zm709-40c21-20 38-42 38-47 0-6-18 7-40 29-39 38-40 38-60 20-11-10-20-14-20-10 0 10 30 45 39 45 3 0 22-17 43-37zm-179-70c-13-2-33-2-45 0-13 2-3 4 22 4s35-2 23-4zm-10-30c-18-2-48-2-65 0-18 2-4 4 32 4s50-2 33-4zm0-30c-18-2-48-2-65 0-18 2-4 4 32 4s50-2 33-4zm27-33c0-6-27-10-60-10s-60 4-60 10 27 10 60 10 60-4 60-10zM730 545c0-130-4-205-10-205s-10 75-10 205 4 205 10 205 10-75 10-205zm483-89l58 29 50-52c33-35 55-50 65-46 12 4 15 0 12-18-2-16-11-25-25-27-23-3-33 13-13 20 6 2-13 27-43 56l-53 52-56-30-55-30-57 64c-31 35-56 68-56 73 1 4 26-21 58-56l57-63 58 28z"/><path d="M810 1187c0-13 11-34 25-47 21-19 25-21 25-7 0 10 8 17 20 17 27 0 25 15-6 39-36 29-64 27-64-2z"/></g><g fill="#6e6f6f"><path d="M0 930V0h1920v1860H0V930zm780 325c15-15 35-25 54-26 23-1 41-12 70-45l39-44h-32c-28 0-31-3-31-31v-30l-45 38c-34 29-44 45-45 68 0 19-11 40-32 62s-27 33-17 33c9 0 26-11 39-25zm603-102c-13-2-33-2-45 0-13 2-3 4 22 4s35-2 23-4zm30-30c-18-2-48-2-65 0-18 2-4 4 32 4s50-2 33-4zm-813-33c0-5-24-10-54-10s-58 5-61 10c-4 6 17 10 54 10 34 0 61-4 61-10zm840 0c0-6-27-10-60-10s-60 4-60 10 27 10 60 10 60-4 60-10zm-840-30c0-6-27-10-60-10s-60 4-60 10 27 10 60 10 60-4 60-10zm840 0c0-6-27-10-60-10s-60 4-60 10 27 10 60 10 60-4 60-10zm-845-30c4-6-17-9-57-8l-63 1 50 7c28 4 53 8 57 8 4 1 10-2 13-8zm690-50c49-50 41-63-9-14-36 35-38 35-57 18-10-9-19-13-19-9 0 10 31 45 40 45 3 0 23-18 45-40zm-182-67c-13-2-33-2-45 0-13 2-3 4 22 4s35-2 23-4zm-10-30c-18-2-48-2-65 0-18 2-4 4 32 4s50-2 33-4zm22-33c-3-5-28-10-55-10s-52 5-55 10c-4 6 17 10 55 10s59-4 55-10zm5-30c0-6-27-10-60-10s-60 4-60 10 27 10 60 10 60-4 60-10zM730 545c0-130-4-205-10-205s-10 75-10 205 4 205 10 205 10-75 10-205zm475-92c26 15 53 27 59 27 7 0 34-22 60-49 30-30 54-47 63-44 11 4 14 0 11-18-2-16-11-25-27-27-19-3-23 0-17 14 5 13-6 31-40 65l-47 48-58-29-57-29-56 63c-31 35-56 68-56 73 1 4 27-21 59-56l58-65 48 27z"/><path d="M810 1187c0-13 11-34 25-47 21-19 25-21 25-7 0 10 8 17 20 17 27 0 25 15-6 39-36 29-64 27-64-2z"/></g><g fill="#1298c2"><path d="M0 930V0h1920v1860H0V930zm780 325c15-15 35-25 54-26 23-1 41-12 70-45l39-44h-32c-28 0-31-3-31-30 0-16-3-30-7-30s-24 17-45 37c-27 27-38 46-38 67 0 20-10 41-32 63-21 22-27 33-17 33 9 0 26-11 39-25zm603-102c-13-2-33-2-45 0-13 2-3 4 22 4s35-2 23-4zm30-30c-18-2-48-2-65 0-18 2-4 4 32 4s50-2 33-4zm-813-33c0-6-27-10-60-10s-60 4-60 10 27 10 60 10 60-4 60-10zm840 0c0-6-27-10-60-10s-60 4-60 10 27 10 60 10 60-4 60-10zm-840-30c0-6-27-10-60-10s-60 4-60 10 27 10 60 10 60-4 60-10zm840 0c0-6-27-10-60-10s-60 4-60 10 27 10 60 10 60-4 60-10zm-840-30c0-6-27-10-60-10s-60 4-60 10 27 10 60 10 60-4 60-10zm685-50c47-49 38-67-10-20-34 33-35 33-55 15-14-13-20-14-20-5 0 14 28 50 40 50 3 0 23-18 45-40zm-182-67c-13-2-33-2-45 0-13 2-3 4 22 4s35-2 23-4zm-10-30c-18-2-48-2-65 0-18 2-4 4 32 4s50-2 33-4zm27-33c0-6-27-10-60-10s-60 4-60 10 27 10 60 10 60-4 60-10zm0-30c0-6-27-10-60-10s-60 4-60 10 27 10 60 10 60-4 60-10zM730 550c0-133-4-210-10-210s-10 77-10 210 4 210 10 210 10-77 10-210zm483-91l53 30 53-53c33-34 59-52 68-49 11 4 14-1 11-18-2-16-11-25-27-27-18-3-22 0-18 11 3 9-14 33-44 63l-50 49-52-28-52-28-57 62c-32 34-58 67-58 73 1 6 28-18 60-52l59-64 54 31z"/><path d="M810 1187c0-13 11-34 25-47l25-23v22c0 18 4 22 20 18 28-7 25 8-6 32-36 29-64 27-64-2z"/></g><g fill="#0698d2"><path d="M0 930V0h1920v1860H0V930zm617 393c-4-3-7 0-7 7s3 10 7 7c3-4 3-10 0-14zm273-39c0-8-5-12-10-9-6 4-8 11-5 16 9 14 15 11 15-7zm-55-55c22-1 40-13 69-45l39-44h-32c-28 0-31-3-31-30 0-16-4-30-8-30-20 0-80 78-86 111-3 20-17 46-31 59-13 13-22 27-19 32 4 6 21-4 38-21 20-20 43-31 61-32zm-175-59c0-5-2-10-4-10-3 0-8 5-11 10-3 6-1 10 4 10 6 0 11-4 11-10zm723-17c-13-2-33-2-45 0-13 2-3 4 22 4s35-2 23-4zm30-30c-18-2-48-2-65 0-18 2-4 4 32 4s50-2 33-4zm-813-33c0-6-27-10-60-10s-60 4-60 10 27 10 60 10 60-4 60-10zm840 0c0-6-27-10-60-10s-60 4-60 10 27 10 60 10 60-4 60-10zm-840-30c0-6-27-10-60-10s-60 4-60 10 27 10 60 10 60-4 60-10zm840 0c0-6-27-10-60-10s-60 4-60 10 27 10 60 10 60-4 60-10zm-840-30c0-6-27-10-60-10s-60 4-60 10 27 10 60 10 60-4 60-10zm685-50c47-49 38-67-10-20-34 33-35 33-55 15-14-13-20-14-20-5 0 14 28 50 40 50 3 0 23-18 45-40zm-182-67c-13-2-33-2-45 0-13 2-3 4 22 4s35-2 23-4zm-10-30c-18-2-48-2-65 0-18 2-4 4 32 4s50-2 33-4zm27-33c0-6-27-10-60-10s-60 4-60 10 27 10 60 10 60-4 60-10zm0-30c0-6-27-10-60-10s-60 4-60 10 27 10 60 10 60-4 60-10zM730 550c0-133-4-210-10-210s-10 77-10 210 4 210 10 210 10-77 10-210zm377 53c-4-3-7 0-7 7s3 10 7 7c3-4 3-10 0-14zm58-22c3-5 1-12-5-16-5-3-10 1-10 9 0 18 6 21 15 7zm110-1c3-5 4-10 1-10s-8 5-11 10c-3 6-4 10-1 10s8-4 11-10zm-62-121l53 30 53-53c33-34 59-52 68-49 11 4 14-1 11-18-2-16-11-25-27-27-18-3-22 0-18 11 3 9-14 33-44 63l-50 49-52-28-52-28-57 62c-32 34-58 67-58 73 1 6 28-18 60-52l59-64 54 31zm29 69c-9-9-15-9-24 1s-9 12-1 7c6-3 15-1 18 5 4 5 10 8 13 4 3-3 0-11-6-17z"/><path d="M810 1187c0-13 11-34 25-47l25-23v22c0 18 4 22 20 18 28-7 25 8-6 32-36 29-64 27-64-2z"/></g><g fill="#12a3d8"><path d="M0 930V0h1920v1860H0V930zm811 467c59-26 101-131 67-165-9-9-3-21 27-52l39-40h-32c-29 0-32-3-32-30 0-16-3-30-7-30s-27 19-52 43c-24 23-41 37-38 31 4-7 0-15-9-18-51-20-124 16-153 77-33 67-24 121 26 161 60 47 98 52 164 23zm572-244c-13-2-33-2-45 0-13 2-3 4 22 4s35-2 23-4zm30-30c-18-2-48-2-65 0-18 2-4 4 32 4s50-2 33-4zm-813-33c0-6-27-10-60-10s-60 4-60 10 27 10 60 10 60-4 60-10zm840 0c0-6-27-10-60-10s-60 4-60 10 27 10 60 10 60-4 60-10zm-840-30c0-6-27-10-60-10s-60 4-60 10 27 10 60 10 60-4 60-10zm840 0c0-6-27-10-60-10s-60 4-60 10 27 10 60 10 60-4 60-10zm-840-30c0-6-27-10-60-10s-60 4-60 10 27 10 60 10 60-4 60-10zm685-50c47-49 38-67-10-20-34 33-35 33-55 15-14-13-20-14-20-5 0 14 28 50 40 50 3 0 23-18 45-40zm-182-67c-13-2-33-2-45 0-13 2-3 4 22 4s35-2 23-4zm-10-30c-18-2-48-2-65 0-18 2-4 4 32 4s50-2 33-4zm27-33c0-6-27-10-60-10s-60 4-60 10 27 10 60 10 60-4 60-10zm0-30c0-6-27-10-60-10s-60 4-60 10 27 10 60 10 60-4 60-10zM730 550c0-133-4-210-10-210s-10 77-10 210 4 210 10 210 10-77 10-210zm340 89c0-5-4-9-10-9-5 0-10 7-10 16 0 8 5 12 10 9 6-3 10-10 10-16zm66 5c-3-9-6-22-6-30s-7-14-15-14c-18 0-21 46-2 53 23 10 29 7 23-9zm164-40c0-42-1-44-20-34-21 11-24 29-14 67s34 15 34-33zm-110 7c0-30-4-40-20-44-17-4-20 0-20 32 0 40 6 51 27 51 8 0 13-13 13-39zm55-26c0-47-3-60-15-60-11 0-16 15-18 63-3 57-1 63 15 60 15-3 18-13 18-63zm109 49c14-38 4-124-15-124-5 0-9 32-9 70 0 66 10 90 24 54zm60 0c16-42 1-200-20-208-11-4-14 16-14 109 0 92 3 115 14 115 8 0 17-7 20-16zm-201-175l53 30 53-53c33-34 59-52 68-49 11 4 14-1 11-18-2-16-11-25-27-27-18-3-22 0-18 11 3 9-14 33-44 63l-50 49-52-28-52-28-57 62c-32 34-58 67-58 73 1 6 28-18 60-52l59-64 54 31z"/><path d="M658 1360c-46-50-52-102-15-151 37-52 106-76 135-47 21 21 13 31-19 24-67-13-121 53-98 122 24 71 130 76 163 8 12-26 14-41 6-60-9-24-7-26 15-26 21 0 25 5 25 30 0 79-57 140-131 140-36 0-47-6-81-40z"/><path d="M690 1328c-29-32-27-81 6-107 34-27 87-29 82-3-2 9-13 17-25 18-38 2-53 13-53 38 0 47 71 60 83 16 6-24-2-26-18-3-15 21-45 11-45-16 0-10 7-21 15-25 17-6 21 9 5 19-6 4-7 11-4 17 4 5 20-4 39-22 27-26 33-29 39-15 12 31 6 56-19 80-31 32-77 33-105 3zm120-137c0-11 11-33 25-48l24-28 1 24c0 18 4 22 20 18 28-7 25 8-6 32-34 27-64 27-64 2zm35-10c-3-6-11-11-17-11s-6 6 2 15c14 17 26 13 15-4z"/></g><g fill="#0c9deb"><path d="M0 930V0h1920v1860H0V930zm814 467c61-35 98-131 64-165-9-9-3-21 27-52l39-40h-32c-29 0-32-3-32-30 0-38-9-38-45 0-26 27-33 30-74 25-91-11-167 63-158 154 6 51 30 87 77 112 46 25 86 24 134-4zm569-244c-13-2-33-2-45 0-13 2-3 4 22 4s35-2 23-4zm30-30c-18-2-48-2-65 0-18 2-4 4 32 4s50-2 33-4zm-813-33c0-6-27-10-60-10s-60 4-60 10 27 10 60 10 60-4 60-10zm840 0c0-6-27-10-60-10s-60 4-60 10 27 10 60 10 60-4 60-10zm-840-30c0-6-27-10-60-10s-60 4-60 10 27 10 60 10 60-4 60-10zm840 0c0-6-27-10-60-10s-60 4-60 10 27 10 60 10 60-4 60-10zm-840-30c0-6-27-10-60-10s-60 4-60 10 27 10 60 10 60-4 60-10zm685-50c47-49 38-67-10-20-34 33-35 33-55 15-14-13-20-14-20-5 0 14 28 50 40 50 3 0 23-18 45-40zm-182-67c-13-2-33-2-45 0-13 2-3 4 22 4s35-2 23-4zm-10-30c-18-2-48-2-65 0-18 2-4 4 32 4s50-2 33-4zm27-33c0-6-27-10-60-10s-60 4-60 10 27 10 60 10 60-4 60-10zm0-30c0-6-27-10-60-10s-60 4-60 10 27 10 60 10 60-4 60-10zM730 550c0-133-4-210-10-210s-10 77-10 210 4 210 10 210 10-77 10-210zm350 90c0-13-7-20-20-20s-20 7-20 20 7 20 20 20 20-7 20-20zm56 4c-3-9-6-22-6-30s-7-14-15-14c-10 0-15 10-15 30 0 24 4 30 21 30 15 0 19-4 15-16zm54-34c0-43-3-50-20-50s-20 7-20 50 3 50 20 50 20-7 20-50zm58-17c-2-53-6-68-18-68s-16 16-18 68c-3 62-2 67 18 67 19 0 21-5 18-67zm52 17c0-38-4-50-15-50-21 0-28 23-21 65 11 56 36 46 36-15zm60-30c0-73-2-80-20-80s-20 7-20 80 2 80 20 80 20-7 20-80zm54 58c15-58 0-218-20-218-11 0-14 24-14 113 0 63 3 117 7 120 12 12 21 7 27-15zm-201-179l53 30 53-53c33-34 59-52 68-49 11 4 14-1 11-18-2-16-11-25-27-27-18-3-22 0-18 11 3 9-14 33-44 63l-50 49-52-28-52-28-57 62c-32 34-58 67-58 73 1 6 28-18 60-52l59-64 54 31z"/><path d="M693 1386c-62-28-85-98-52-163 10-21 31-44 46-50 36-17 93-17 93 0 0 9-11 12-35 9-45-5-95 40-95 88 0 36 27 93 40 85 5-3 12-1 15 5 4 6 24 10 46 8 55-3 84-36 84-94 0-32 4-44 15-44 10 0 15 10 14 33-1 54-14 81-47 104-43 30-85 36-124 19z"/><path d="M718 1343c-45-12-58-82-22-117 17-18 84-22 84-6 0 10-14 14-38 11-39-6-58 64-24 85 25 16 64-6 69-37l3-24-19 24c-12 15-24 22-35 18-19-7-21-33-4-43 7-5 9-2 5 8-11 30 7 28 39-3l31-30 7 25c8 31-5 59-36 80-23 16-30 17-60 9zm92-155c0-21 0-21 14-2 8 10 18 16 22 12 4-5 0-16-9-26-16-18-16-20 3-37 19-18 20-17 20 5 0 17 4 21 20 17 28-7 25 8-6 32-36 28-64 27-64-1z"/></g><g fill="#14abef"><path d="M0 930V0h1920v1860H0V930zm1167 503c-4-3-7 0-7 7s3 10 7 7c3-4 3-10 0-14zm70 0c-4-3-7 0-7 7s3 10 7 7c3-4 3-10 0-14zm-423-36c61-35 95-121 66-167-7-11 0-24 27-52l37-38h-32c-29 0-32-3-32-30 0-38-9-38-45 0-26 27-33 30-74 25-91-11-167 63-158 154 6 51 30 87 77 112 46 25 86 24 134-4zm333-4c-4-3-7 0-7 7s3 10 7 7c3-4 3-10 0-14zm110 0c-4-3-7 0-7 7s3 10 7 7c3-4 3-10 0-14zm-267-37c0-3-5-8-12-12s-8-3-4 4c7 12 16 16 16 8zm390 0c0-3-5-8-12-12s-8-3-4 4c7 12 16 16 16 8zm45-6c3-5 4-10 1-10s-8 5-11 10c-3 6-4 10-1 10s8-4 11-10zm-410-46c9 3 13 2 10-4-10-15-31-12-46 8-13 15-12 16 3 3 10-7 25-11 33-7zm42 9c-4-3-10-3-14 0-3 4 0 7 7 7s10-3 7-7zm328-13c3-5 4-10 1-10s-8 5-11 10c-3 6-4 10-1 10s8-4 11-10zm-195-134c0-3-5-8-12-12s-8-3-4 4c7 12 16 16 16 8zm45-16c3-5 4-10 1-10s-8 5-11 10c-3 6-4 10-1 10s8-4 11-10zm148 3c-13-2-33-2-45 0-13 2-3 4 22 4s35-2 23-4zm30-30c-18-2-48-2-65 0-18 2-4 4 32 4s50-2 33-4zm-186-20c-4-3-10-3-14 0-3 4 0 7 7 7s10-3 7-7zm-627-13c0-6-27-10-60-10s-60 4-60 10 27 10 60 10 60-4 60-10zm840 0c0-6-27-10-60-10s-60 4-60 10 27 10 60 10 60-4 60-10zm-840-30c0-6-27-10-60-10s-60 4-60 10 27 10 60 10 60-4 60-10zm840 0c0-6-27-10-60-10s-60 4-60 10 27 10 60 10 60-4 60-10zm-840-30c0-6-27-10-60-10s-60 4-60 10 27 10 60 10 60-4 60-10zm685-50c47-49 38-67-10-20-34 33-35 33-55 15-14-13-20-14-20-5 0 14 28 50 40 50 3 0 23-18 45-40zm-182-67c-13-2-33-2-45 0-13 2-3 4 22 4s35-2 23-4zm-10-30c-18-2-48-2-65 0-18 2-4 4 32 4s50-2 33-4zm27-33c0-6-27-10-60-10s-60 4-60 10 27 10 60 10 60-4 60-10zm0-30c0-6-27-10-60-10s-60 4-60 10 27 10 60 10 60-4 60-10zM730 550c0-133-4-210-10-210s-10 77-10 210 4 210 10 210 10-77 10-210zm350 90c0-13-7-20-20-20s-20 7-20 20 7 20 20 20 20-7 20-20zm56 4c-3-9-6-22-6-30s-7-14-15-14c-10 0-15 10-15 30 0 24 4 30 21 30 15 0 19-4 15-16zm54-34c0-43-3-50-20-50s-20 7-20 50 3 50 20 50 20-7 20-50zm58-17c-2-53-6-68-18-68s-16 15-18 68c-3 62-1 67 18 67s21-5 18-67zm52 17c0-38-4-50-15-50-21 0-28 23-21 65 11 56 36 46 36-15zm60-30c0-73-2-80-20-80s-20 7-20 80 2 80 20 80 20-7 20-80zm54 58c15-58 0-218-20-218-11 0-14 25-14 120 0 96 3 120 14 120 7 0 16-10 20-22zm-201-179l53 30 53-53c33-34 59-52 68-49 11 4 14-1 11-18-2-16-11-25-27-27-18-3-22 0-18 11 3 9-14 33-44 63l-50 49-52-28-52-28-57 62c-32 34-58 67-58 73 1 6 28-18 60-52l59-64 54 31zm-276-26c-4-3-7 0-7 7s3 10 7 7c3-4 3-10 0-14zm-6-70c13-16 12-17-3-4-10 7-18 15-18 17 0 8 8 3 21-13z"/><path d="M661 1359c-17-17-32-39-32-50-5-68-1-80 37-115 28-27 44-34 75-34 25 0 39 5 39 13 0 9-11 12-35 9-74-9-124 94-76 157 13 18 31 25 68 28 46 5 51 3 77-28 22-26 27-40 24-71-2-26 0-38 9-38s13 15 13 44c0 37-6 51-34 80-30 32-39 36-84 36-43 0-55-5-81-31z"/><path d="M714 1338c-66-31-41-128 33-128 18 0 33 5 33 10 0 6-15 10-34 10-29 0-36 5-45 30-9 26-7 34 10 51 34 34 82 9 77-40-2-13 3-26 10-28 19-7 15 61-5 79-25 22-55 28-79 16z"/><path d="M724 1285c-4-9-1-22 6-28 10-9 11-9 6 1-12 20 4 35 22 20 13-11 14-11 10 2-7 21-37 25-44 5zm86-97c0-12 1-19 3-17 1 2 9 12 16 22 12 14 11 17-3 17-10 0-16-8-16-22zm28-12c-16-23-16-25 2-41 19-17 20-17 20 5 0 17 4 21 20 17 25-6 26 5 2 26-23 21-23 21-44-7z"/></g><g fill="#959595"><path d="M0 930V0h1920v1860H0V930zm1170 512c0-10-5-23-11-29-9-9-8-18 5-37 20-31 46-33 70-7 14 16 15 23 6 41-19 35-6 50 44 50h45l3-52c3-56 3-56 60-42 23 5 29 2 40-21 11-25 10-29-11-46-22-18-26-18-48-4-33 22-43 12-43-46v-49h-49c-53 0-70-12-51-35 16-19 9-55-12-69-36-22-76 35-48 69 19 23 2 35-51 35h-49v49c0 51-13 72-33 52-16-16-52-14-67 4-31 37 33 88 67 54 20-20 33 1 33 52v49h50c41 0 50-3 50-18zm-356-45c61-35 95-121 66-167-7-11 0-24 27-52l37-38h-32c-29 0-32-3-32-30 0-38-9-38-45 0-26 27-33 30-74 25-91-11-167 63-158 154 6 51 30 87 77 112 46 25 86 24 134-4zm569-244c-13-2-33-2-45 0-13 2-3 4 22 4s35-2 23-4zm30-30c-18-2-48-2-65 0-18 2-4 4 32 4s50-2 33-4zm-813-33c0-6-27-10-60-10s-60 4-60 10 27 10 60 10 60-4 60-10zm840 0c0-6-27-10-60-10s-60 4-60 10 27 10 60 10 60-4 60-10zm-840-30c0-6-27-10-60-10s-60 4-60 10 27 10 60 10 60-4 60-10zm840 0c0-6-27-10-60-10s-60 4-60 10 27 10 60 10 60-4 60-10zm-840-30c0-6-27-10-60-10s-60 4-60 10 27 10 60 10 60-4 60-10zm685-50c47-49 38-67-10-20-34 33-35 33-55 15-14-13-20-14-20-5 0 14 28 50 40 50 3 0 23-18 45-40zm-182-67c-13-2-33-2-45 0-13 2-3 4 22 4s35-2 23-4zm-10-30c-18-2-48-2-65 0-18 2-4 4 32 4s50-2 33-4zm27-33c0-6-27-10-60-10s-60 4-60 10 27 10 60 10 60-4 60-10zm0-30c0-6-27-10-60-10s-60 4-60 10 27 10 60 10 60-4 60-10zM730 605V451l112-3 113-3-25-22-24-23 22-30 23-30H710v210c0 133 4 210 10 210s10-58 10-155zm350 35c0-13-7-20-20-20s-20 7-20 20 7 20 20 20 20-7 20-20zm56 4c-3-9-6-22-6-30s-7-14-15-14c-10 0-15 10-15 30 0 24 4 30 21 30 15 0 19-4 15-16zm54-34c0-43-3-50-20-50s-20 7-20 50 3 50 20 50 20-7 20-50zm58-17c-2-53-6-68-18-68s-16 15-18 68c-3 62-1 67 18 67s21-5 18-67zm52 17c0-38-4-50-15-50-21 0-28 23-21 65 11 56 36 46 36-15zm60-30c0-73-2-80-20-80s-20 7-20 80 2 80 20 80 20-7 20-80zm54 58c15-58 0-218-20-218-11 0-14 25-14 120 0 96 3 120 14 120 7 0 16-10 20-22zm-201-179l53 30 53-53c33-34 59-52 68-49 11 4 14-1 11-18-2-16-11-25-27-27-18-3-22 0-18 11 3 9-14 33-44 63l-50 49-52-28-52-28-57 62c-32 34-58 67-58 73 1 6 28-18 60-52l59-64 54 31z"/><path d="M842 1176l-23-22 21-19c20-18 20-18 20 5 0 17 4 21 20 17 25-6 26 5 3 25-16 14-20 14-41-6z"/></g><g fill="#5fc6e6"><path d="M0 930V0h1920v1860H0V930zm1170 512c0-10-5-23-11-29-9-9-8-18 5-37 20-31 46-33 70-7 14 16 15 23 6 41-19 35-6 50 44 50h45l3-52c3-56 3-56 60-42 23 5 29 2 40-21 11-25 10-29-11-46-22-18-26-18-48-4-33 22-43 12-43-46v-49h-49c-53 0-70-12-51-35 16-19 9-55-12-69-36-22-76 35-48 69 19 23 2 35-51 35h-49v49c0 51-13 72-33 52-16-16-52-14-67 4-31 37 33 88 67 54 20-20 33 1 33 52v49h50c41 0 50-3 50-18zm-356-45c61-35 95-121 66-167-7-11 0-24 27-52l37-38h-32c-30 0-32-2-32-37v-37l-38 37c-35 34-41 37-83 32-89-11-165 64-156 154 6 51 30 87 77 112 46 25 86 24 134-4zm586-237c0-5-19-10-42-9-37 1-39 2-18 9 36 12 60 12 60 0zm40-40c0-6-27-10-60-10s-60 4-60 10 27 10 60 10 60-4 60-10zm-840-30c0-6-27-10-60-10s-60 4-60 10 27 10 60 10 60-4 60-10zm840 0c0-6-27-10-60-10s-60 4-60 10 27 10 60 10 60-4 60-10zm-840-30c0-6-27-10-60-10s-60 4-60 10 27 10 60 10 60-4 60-10zm840 0c0-6-27-10-60-10s-60 4-60 10 27 10 60 10 60-4 60-10zm-840-30c0-6-27-10-60-10s-60 4-60 10 27 10 60 10 60-4 60-10zm685-50c47-49 38-67-10-20-34 33-35 33-55 15-14-13-20-14-20-5 0 14 28 50 40 50 3 0 23-18 45-40zm-165-60c0-5-18-10-40-10s-40 5-40 10c0 6 18 10 40 10s40-4 40-10zm0-40c0-6-27-10-60-10s-60 4-60 10 27 10 60 10 60-4 60-10zm0-30c0-6-27-10-60-10s-60 4-60 10 27 10 60 10 60-4 60-10zm0-30c0-6-27-10-60-10s-60 4-60 10 27 10 60 10 60-4 60-10zM730 605V451l112-3 113-3-25-22-24-23 22-30 23-30H710v210c0 133 4 210 10 210s10-58 10-155zm350 35c0-13-7-20-20-20s-20 7-20 20 7 20 20 20 20-7 20-20zm56 4c-3-9-6-22-6-30s-7-14-15-14c-10 0-15 10-15 30 0 24 4 30 21 30 15 0 19-4 15-16zm54-34c0-43-3-50-20-50s-20 7-20 50 3 50 20 50 20-7 20-50zm58-17c-2-53-6-68-18-68s-16 15-18 68c-3 62-1 67 18 67s21-5 18-67zm52 17c0-38-4-50-15-50-21 0-28 23-21 65 11 56 36 46 36-15zm60-30c0-73-2-80-20-80s-20 7-20 80 2 80 20 80 20-7 20-80zm54 58c15-58 0-218-20-218-11 0-14 25-14 120 0 96 3 120 14 120 7 0 16-10 20-22zm-200-176l53 26 53-53c30-31 58-51 66-48 10 4 14-3 14-21 0-21-5-26-26-26-18 0-25 4-21 14 3 8-16 34-44 62l-50 49-52-28-51-27-58 57c-32 32-58 64-58 72 0 9 26-11 60-44l60-59 54 26z"/><path d="M842 1176l-23-22 21-19c19-18 20-18 20 3 0 13 7 22 21 24 21 3 21 3 3 19-18 15-21 15-42-5z"/></g><g fill="#bebfbf"><path d="M0 930V0h1920v1860H0V930zm1175 520c4-6 1-17-5-25-28-34 12-91 48-69 21 14 28 50 12 69-19 23-2 35 51 35h49v-49c0-28 4-52 9-55 4-3 22 0 39 6 24 9 34 9 46-1 23-19 20-47-6-65-20-14-24-14-45 0-33 21-43 10-43-47v-49h-49c-53 0-70-12-51-35 28-34-12-91-47-69-22 14-29 50-13 69 19 23 2 35-51 35h-49v49c0 53-12 70-35 51-19-16-55-9-69 13-22 35 35 75 69 47 23-19 35-2 35 51v49h49c28 0 53-5 56-10zm-369-46c19-9 44-30 55-46 25-35 36-98 21-124-9-16-4-26 26-56l36-38h-32c-30 0-32-2-32-37v-37l-38 37c-35 34-41 37-83 32-35-5-53-1-84 17-100 58-97 198 6 250 43 22 81 23 125 2zm594-244c0-5-19-10-42-9-37 1-39 2-18 9 36 12 60 12 60 0zm40-40c0-6-27-10-60-10s-60 4-60 10 27 10 60 10 60-4 60-10zm-840-30c0-6-27-10-60-10s-60 4-60 10 27 10 60 10 60-4 60-10zm840 0c0-6-27-10-60-10s-60 4-60 10 27 10 60 10 60-4 60-10zm-840-30c0-6-27-10-60-10s-60 4-60 10 27 10 60 10 60-4 60-10zm840 0c0-6-27-10-60-10s-60 4-60 10 27 10 60 10 60-4 60-10zm-840-30c0-6-27-10-60-10s-60 4-60 10 27 10 60 10 60-4 60-10zm685-50c47-49 38-67-10-20-34 33-35 33-55 15-14-13-20-14-20-5 0 14 28 50 40 50 3 0 23-18 45-40zm-165-60c0-5-18-10-40-10s-40 5-40 10c0 6 18 10 40 10s40-4 40-10zm0-40c0-6-27-10-60-10s-60 4-60 10 27 10 60 10 60-4 60-10zm0-30c0-6-27-10-60-10s-60 4-60 10 27 10 60 10 60-4 60-10zm0-30c0-6-27-10-60-10s-60 4-60 10 27 10 60 10 60-4 60-10zM730 605V451l111-3 111-3-21-26c-20-26-20-27-1-44 11-10 20-22 20-27 0-4-54-8-120-8H710v210c0 133 4 210 10 210s10-58 10-155zm350 35c0-13-7-20-20-20s-20 7-20 20 7 20 20 20 20-7 20-20zm60-8c0-34-7-43-26-35-8 3-14 18-14 34 0 22 5 29 20 29s20-7 20-28zm50-22c0-43-3-50-20-50s-20 7-20 50 3 50 20 50 20-7 20-50zm58-17c-2-53-6-68-18-68s-16 15-18 68c-3 62-1 67 18 67s21-5 18-67zm52 16c0-43-3-50-17-47-14 2-19 15-21 51-3 42-1 47 17 47s21-6 21-51zm60-29c0-73-2-80-20-80s-20 7-20 80 2 80 20 80 20-7 20-80zm60-40c0-113-1-120-20-120s-20 7-20 120 1 120 20 120 20-7 20-120zm-206-78l53 26 53-53c30-31 58-51 66-48 10 4 14-3 14-21 0-21-5-26-26-26-18 0-25 4-21 14 3 8-16 34-44 62l-50 49-52-28-51-27-58 57c-32 32-58 64-58 72 0 9 26-11 60-44l60-59 54 26z"/><path d="M846 1173c-17-23-17-26-2-41s16-15 16 5c0 14 7 23 21 25 21 3 21 3 3 20-18 15-20 15-38-9z"/></g><g fill="#cfcfcf"><path d="M0 930V0h1920v1860H0V930zm1175 520c4-6 1-17-5-25-28-34 12-91 48-69 21 14 28 50 12 69-19 23-2 35 51 35h49v-49c0-28 4-52 9-55 4-3 22 0 39 6 24 9 34 9 46-1 23-19 20-47-6-65-20-14-24-14-45 0-33 21-43 10-43-47v-49h-49c-53 0-70-12-51-35 28-34-12-91-47-69-22 14-29 50-13 69 19 23 2 35-51 35h-49v49c0 53-12 70-35 51-19-16-55-9-69 13-22 35 35 75 69 47 23-19 35-2 35 51v49h49c28 0 53-5 56-10zm-347-58c42-31 66-85 59-137-6-38-3-45 28-75 39-37 37-50-6-50-26 0-29-3-29-32v-32l-38 37c-35 34-41 37-83 32-89-11-165 64-156 154 12 110 135 166 225 103zm570-234c-5-16-43-22-66-12-14 6-13 8 8 14 39 12 62 11 58-2zm42-38c0-6-27-10-60-10s-60 4-60 10 27 10 60 10 60-4 60-10zm-840-30c0-6-27-10-60-10s-60 4-60 10 27 10 60 10 60-4 60-10zm840 0c0-6-27-10-60-10s-60 4-60 10 27 10 60 10 60-4 60-10zm-840-30c0-6-27-10-60-10s-60 4-60 10 27 10 60 10 60-4 60-10zm840 0c0-6-27-10-60-10s-60 4-60 10 27 10 60 10 60-4 60-10zm-840-30c0-6-27-10-60-10s-60 4-60 10 27 10 60 10 60-4 60-10zm688-53c52-53 43-72-10-20-37 36-38 36-58 18-14-13-20-14-20-5 0 14 28 50 39 50 4 0 26-19 49-43zm-461-18c56-27 110-91 128-153 8-27 13-51 11-54-3-2-10 16-16 39-16 61-53 114-101 146-32 21-58 29-118 34l-76 6 64 1c48 2 76-4 108-19zm-214-10c-47-23-88-67-109-114-7-16-13-23-14-14-1 40 109 149 150 149 8 0-4-9-27-21zm102-9c-11-5-29-8-40-8-16 0-15 2 5 8 34 11 60 11 35 0zm99-20c7-7 1-7-19-1-54 17-61 21-25 16 19-3 39-10 44-15zm-189-9c-34-20-85-77-85-93 0-6-3-8-6-5-16 16 80 117 111 117 5 0-4-8-20-19zm495 9c0-5-18-10-40-10s-40 5-40 10c0 6 18 10 40 10s40-4 40-10zm-221-84c-2-2-19 14-38 37l-34 42 38-37c22-21 37-39 34-42zm189 54c17 0 32-4 32-10s-27-10-60-10-60 4-60 8c0 16 14 23 35 18 11-3 35-6 53-6zm112-29c0-5-9-7-20-4s-20 7-20 9 9 4 20 4 20-4 20-9zm200 5c0-2-18-6-40-8s-40 0-40 4c0 5 18 8 40 8s40-2 40-4zm-280-16c0-6-27-10-60-10s-60 4-60 10 27 10 60 10 60-4 60-10zm155-10c3-5 4-10 1-10s-8 5-11 10c-3 6-4 10-1 10s8-4 11-10zm-155-20c0-6-27-10-60-10s-60 4-60 10 27 10 60 10 60-4 60-10zm-633-52c-3-7-5-2-5 12s2 19 5 13c2-7 2-19 0-25zm40 10c-3-8-6-5-6 6-1 11 2 17 5 13 3-3 4-12 1-19zm390-10c-3-7-5-2-5 12s2 19 5 13c2-7 2-19 0-25zM730 605V451l111-3 111-3-21-26c-20-26-20-27-1-44 11-10 20-22 20-27 0-4-54-8-120-8H710v210c0 133 4 210 10 210s10-58 10-155zm228 83c-5-24-20-60-33-80-23-35-83-88-100-88-4 0 10 13 32 29 49 36 83 89 90 141 3 22 9 40 13 40s4-19-2-42zm69 35c-4-3-10-3-14 0-3 4 0 7 7 7s10-3 7-7zm-540-35c-3-7-5-2-5 12s2 19 5 13c2-7 2-19 0-25zm40 0c-3-8-6-5-6 6-1 11 2 17 5 13 3-3 4-12 1-19zm390 0c-3-8-6-5-6 6-1 11 2 17 5 13 3-3 4-12 1-19zM569 558c20-17 25-24 11-16-32 19-90 94-90 116 0 9 10-2 21-26 12-23 38-57 58-74zm30 29c18-15 37-27 43-27s8-3 5-6c-16-17-117 80-117 112 0 5 8-5 19-21 10-17 33-43 50-58zm481 53c0-13-7-20-20-20s-20 7-20 20 7 20 20 20 20-7 20-20zm60-8c0-34-7-43-26-35-8 3-14 18-14 34 0 22 5 29 20 29s20-7 20-28zm50-22c0-43-3-50-20-50s-20 7-20 50 3 50 20 50 20-7 20-50zm58-17c-2-53-6-68-18-68s-16 15-18 68c-3 62-1 67 18 67s21-5 18-67zm52 16c0-43-3-50-17-47-14 2-19 15-21 51-3 42-1 47 17 47s21-6 21-51zm60-29c0-73-2-80-20-80s-20 7-20 80 2 80 20 80 20-7 20-80zm60-40c0-113-1-120-20-120s-20 7-20 120 1 120 20 120 20-7 20-120zm-555 62l-38-37 34 42c19 23 36 39 38 37 3-3-12-21-34-42zm-50-42c-3-5-12-10-18-10-7 0-6 4 3 10 19 12 23 12 15 0zm-128-16c-3-3-12-4-19-1-8 3-5 6 6 6 11 1 17-2 13-5zm90 0c-3-3-12-4-19-1-8 3-5 6 6 6 11 1 17-2 13-5zm436-81l51 27 56-54c30-29 61-52 68-49s12-5 12-21c0-21-5-26-26-26-18 0-25 4-21 14 3 7-16 34-43 61l-49 48-53-26-53-26-62 61c-34 34-59 66-56 71s32-17 65-50l59-58 52 28zm-524 41c10-9-35-3-49 6-11 8-7 9 15 4 17-4 32-8 34-10zm111 6c-8-5-26-9-40-9-23 1-23 2 5 9 43 11 52 11 35 0z"/><path d="M845 1170c-18-19-18-22-2-37 16-16 17-16 17 4 0 12 7 23 17 25 14 3 14 4 1 15-12 11-18 9-33-7z"/></g><g fill="#e4e2e4"><path d="M0 930V0h1920v1860H0V930zm1175 520c4-6 1-17-5-25-28-34 12-91 48-69 21 14 28 50 12 69-19 23-2 35 51 35h49v-49c0-28 4-52 9-55 4-3 22 0 39 6 24 9 34 9 46-1 23-19 20-47-6-65-20-14-24-14-45 0-33 21-43 10-43-47v-49h-49c-53 0-70-12-51-35 28-34-12-91-47-69-22 14-29 50-13 69 19 23 2 35-51 35h-49v49c0 53-12 70-35 51-19-16-55-9-69 13-22 35 35 75 69 47 23-19 35-2 35 51v49h49c28 0 53-5 56-10zm-347-58c42-31 66-85 59-137-6-38-3-45 28-75 19-19 35-38 35-42s-15-8-34-8c-33 0-34-2-31-30 5-39-4-38-45 5-32 33-37 35-80 30-90-11-166 63-157 154 12 110 135 166 225 103zm572-237c0-8 9-15 20-15s20-7 20-15c0-12-13-15-59-15-55 0-58 1-58 24 0 17 6 26 21 29 43 9 56 7 56-8zm-797-54c5 0 5-5 2-11-8-13-125-13-125-1s77 20 123 12zm837-11c0-6-27-10-60-10s-60 4-60 10 27 10 60 10 60-4 60-10zm-830-30c0-6-28-10-65-10s-65 4-65 10 28 10 65 10 65-4 65-10zm830 0c0-6-27-10-60-10s-60 4-60 10 27 10 60 10 60-4 60-10zm-835-29c3-5 2-11-2-13-15-8-123 4-123 13 0 12 117 12 125 0zm683-54c52-53 43-72-10-20-37 36-38 36-58 18-14-13-20-14-20-5 0 14 28 50 39 50 4 0 26-19 49-43zm-496 1c73-22 168-128 168-188 0-19 6-20 95-20h95v50c0 49 1 50 30 50 27 0 30-3 30-30 0-34 15-40 23-10 3 12 14 20 27 20s24-8 27-20c8-30 23-24 23 10 0 29 1 30 50 30h50v-49c0-41 3-50 21-54 15-4 20-12 17-29l-3-23-242-3c-236-2-243-3-243-23 0-61-89-160-162-180-24-6-49-13-55-15-7-2-13-12-13-23 0-19 8-21 111-23l111-3-21-26c-20-26-20-27-1-44 11-10 20-22 20-27 0-4-54-8-120-8H710v75c0 73 0 75-27 81-81 17-149 68-186 138-29 57-29 156 1 212 26 50 99 117 144 131 45 15 103 15 150 1zm328-78v-30h-60c-47 0-60 3-60 15 0 8 9 15 20 15s20 7 20 15c0 11 11 15 40 15 38 0 40-2 40-30zm0-50c0-6-27-10-60-10s-60 4-60 10 27 10 60 10 60-4 60-10zm0-30c0-6-27-10-60-10s-60 4-60 10 27 10 60 10 60-4 60-10zm-40-180c0-13-7-20-20-20s-20 7-20 20 7 20 20 20 20-7 20-20zm60-8c0-34-7-43-26-35-8 3-14 18-14 34 0 22 5 29 20 29s20-7 20-28zm50-22c0-43-3-50-20-50s-20 7-20 50 3 50 20 50 20-7 20-50zm58-17c-2-53-6-68-18-68s-16 15-18 68c-3 62-1 67 18 67s21-5 18-67zm52 16c0-43-3-50-17-47-14 2-19 15-21 51-3 42-1 47 17 47s21-6 21-51zm60-29c0-73-2-80-20-80s-20 7-20 80 2 80 20 80 20-7 20-80zm60-40c0-113-1-120-20-120s-20 7-20 120 1 120 20 120 20-7 20-120zm-316-47l56-58 51 28 52 29 58-58c33-32 59-53 59-46s5 12 10 12c6 0 10-13 10-30 0-25-4-30-24-30-26 0-44 16-26 22 6 2-12 25-39 52l-50 49-54-27-55-27-59 62c-61 63-71 79-55 79 6 0 35-26 66-57z"/><path d="M845 1170c-18-19-18-22-2-37 16-16 17-16 17 4 0 12 7 23 17 25 14 3 14 4 1 15-12 11-18 9-33-7zM635 954c-154-56-195-266-74-381 36-34 95-63 129-63s22 19-18 30c-63 16-105 51-134 109-35 69-35 113 0 182 40 79 96 114 183 114 56 0 72-4 108-29 47-33 85-92 95-148 4-21 11-38 16-38 16 0 11 62-9 105-50 108-181 161-296 119z"/><path d="M640 914c-71-31-110-92-110-174 0-78 35-137 102-171 74-38 78-33 78 86 0 63 4 105 10 105s10-42 10-105c0-99 1-105 20-105 24 0 76 25 104 49 73 65 73 216-1 283-51 46-147 61-213 32zm528-106l-3-53-97-3c-54-1-98-7-98-12 0-6 89-10 230-10 205 0 270 7 210 23-17 4-20 14-20 56 0 28-4 51-10 51-5 0-10-13-10-30 0-16-4-30-10-30-5 0-10 14-10 30 0 40-18 38-22-2-2-26-8-34-26-36-17-3-25 2-29 17-3 12-9 21-13 21s-10-9-13-21c-4-15-12-20-29-17-18 2-24 10-26 36-5 51-21 37-24-20zm192-48c0-6-31-10-74-10-41 0-78 5-81 10-4 6 23 10 74 10 47 0 81-4 81-10z"/><path d="M920 693c0-55-87-140-162-157-34-8-37-26-5-26 61 1 152 71 181 142 20 47 20 58 1 58-8 0-15-7-15-17z"/></g><g fill="#d5e8f0"><path d="M0 930V0h1920v1860H0V930zm1175 520c4-6 1-17-5-25-28-34 12-91 48-69 21 14 28 50 12 69-19 23-2 35 51 35h49v-49c0-28 4-52 9-55 4-3 22 0 39 6 24 9 34 9 46-1 23-19 20-47-6-65-20-14-24-14-45 0-33 21-43 10-43-47v-49h-49c-53 0-70-12-51-35 28-34-12-91-47-69-22 14-29 50-13 69 19 23 2 35-51 35h-49v49c0 53-12 70-35 51-19-16-55-9-69 13-22 35 35 75 69 47 23-19 35-2 35 51v49h49c28 0 53-5 56-10zm-362-50c24-13 56-20 92-20 53 0 54-1 44-23-23-51 35-108 82-79 16 10 18 7 21-41l3-52 48-3c39-3 48-6 43-18-3-9-6-21-6-28 0-8-35-47-77-89l-77-75-45 39-46 38-22-37c-28-46-29-58-3-72 30-16 78-87 90-132l11-38h179v55c0 54 0 55 30 55 28 0 30-3 30-35 0-19 5-35 10-35 6 0 10 9 10 20 0 16 7 20 30 20s30-4 30-20c0-11 5-20 10-20 6 0 10 16 10 35v35h100v-55c0-48 2-55 20-55 16 0 20-7 20-30v-30H971l-11-38c-22-84-106-162-192-177-28-5-38-12-38-26 0-17 11-19 111-21l111-3-20-25-20-25 20-22c12-13 20-25 17-27-2-2-57-6-122-8l-117-3v153l-37 7c-163 30-251 210-175 356 15 30 46 67 68 84 35 27 39 34 31 53-8 17-20 22-66 24-74 4-67 22 11 29l63 6-67 1c-38 1-68 6-68 12s30 11 68 12l67 2-67 3c-71 4-90 19-38 30 17 3 30 7 30 10 0 2-12 27-26 55-21 42-24 55-15 74 6 13 19 24 30 24 10 0 25 7 32 16 12 14 10 19-15 39-44 35-30 55 38 54 38-1 54-5 49-13-3-6 5-1 18 11 51 46 113 54 172 23zm586-245c0-5 9-12 21-15 43-10 18-25-42-25-58 0-62 1-61 23 0 12 1 23 2 25 3 7 81 0 80-8zm46-65c-3-5-35-10-71-10s-64 4-64 10 30 10 71 10c44 0 68-4 64-10zm5-30c0-6-30-10-70-10s-70 4-70 10 30 10 70 10 70-4 70-10zm-147-32c12-15 17-31 13-49-3-16-1-29 6-31 7-3 8-10 4-17-5-7-14-10-21-7-8 3-19-2-25-10-20-23-68-17-95 12-33 35-32 78 1 111 21 21 32 24 62 19 21-3 45-15 55-28zm-179-128c0-24-2-25-62-25-62 0-84 14-40 27 13 3 19 6 15 7-5 1-5 6-2 12 4 5 25 9 48 7 37-3 42-6 41-28zm1-50c-3-5-35-10-71-10s-64 4-64 10 30 10 71 10c44 0 68-4 64-10zm5-30c0-6-30-10-70-10s-70 4-70 10 30 10 70 10 70-4 70-10zm-50-180c0-13-7-20-20-20s-20 7-20 20 7 20 20 20 20-7 20-20zm60-8c0-34-7-43-26-35-8 3-14 18-14 34 0 22 5 29 20 29s20-7 20-28zm50-22c0-43-3-50-20-50s-20 7-20 50 3 50 20 50 20-7 20-50zm58-17c-2-53-6-68-18-68s-16 15-18 68c-3 62-1 67 18 67s21-5 18-67zm52 16c0-43-3-50-17-47-14 2-19 15-21 51-3 42-1 47 17 47s21-6 21-51zm60-29c0-73-2-80-20-80s-20 7-20 80 2 80 20 80 20-7 20-80zm60-39c0-93-3-120-14-124-8-3-17-3-20 0-3 4-6 60-6 125 0 111 1 118 20 118s20-7 20-119zm-315-47l50-56 58 28 57 28 48-52c35-39 52-51 65-47 14 6 17 1 17-24 0-28-3-31-30-31-16 0-30 5-30 10 0 6 5 10 12 10s-10 22-37 50c-53 54-66 56-114 19-13-11-31-19-40-19-14 0-131 120-131 134 0 20 32-1 75-50z"/><path d="M590 1280c0-7 3-10 7-7 3 4 3 10 0 14-4 3-7 0-7-7zm305-80c10-11 20-20 23-20s-3 9-13 20-20 20-23 20 3-9 13-20zm-32-25c0-8 7-15 15-15 12 0 12 3 2 15-7 8-13 15-15 15-1 0-2-7-2-15zm72-15c3-5 8-10 11-10s2 5-1 10c-3 6-8 10-11 10s-2-4 1-10zm-105-4c0-2 8-10 18-17 15-13 16-12 3 4s-21 21-21 13zm-19-33c7-12 15-20 18-17 3 2-3 12-13 22-17 16-18 16-5-5zm-108-20c4-3 10-3 14 0 3 4 0 7-7 7s-10-3-7-7zm142-13c3-5 8-10 11-10s2 5-1 10c-3 6-8 10-11 10s-2-4 1-10zM576 919c-37-29-75-98-82-150-16-116 65-228 184-254 49-10 38 9-12 23-161 43-208 249-83 359 21 18 37 35 37 38 0 11-18 4-44-16zm254 13c0-4 14-21 31-38 37-34 68-97 69-136 0-16 5-28 11-28 15 0 4 71-17 114-26 50-94 114-94 88z"/><path d="M592 878c-100-105-71-258 60-313 21-8 42-15 48-15s10 39 10 105c0 101-1 108-37 180-21 41-40 75-43 75s-20-15-38-32zm178-50c-39-72-40-75-40-175 0-114 0-114 65-84 65 29 115 104 115 171 0 52-61 160-91 160-4 0-26-33-49-72zm400-28v-50h-100c-60 0-100-4-100-10s83-10 230-10 230 4 230 10-9 10-20 10c-17 0-20 7-20 50 0 28-4 50-10 50-5 0-10-13-10-30 0-16-4-30-10-30-5 0-10 14-10 30 0 17-4 30-10 30-5 0-10-13-10-30 0-27-3-30-30-30-23 0-30 4-30 20 0 11-4 20-10 20-5 0-10-9-10-20 0-16-7-20-30-20-27 0-30 3-30 30 0 17-4 30-10 30-5 0-10-22-10-50zm190-40c0-6-33-10-80-10s-80 4-80 10 33 10 80 10 80-4 80-10z"/><path d="M916 666c-22-57-83-113-141-128-51-14-62-33-12-23 91 20 152 77 178 167 12 45-7 32-25-16zm309 314c-3-6 1-7 9-4 18 7 21 14 7 14-6 0-13-4-16-10z"/></g><g fill="#fdfdfd"><path d="M0 930V0h1920v1860H0V930zm1180 511c0-9-5-22-11-28-20-20-1-53 31-53s51 33 31 53c-14 14-14 47-1 48 6 0 31 1 58 1l47 1 3-52c2-35 7-51 17-51 8 0 17 5 20 10 10 16 33 12 55-10 19-19 19-22 5-50-17-33-21-35-62-19-15 6-30 9-32 7s-4-25-5-53l-1-50-55-2c-30-1-56-2-58-2-1-1 5-13 14-27 16-24 16-27-3-52-11-15-26-27-33-27s-22 12-33 27c-19 25-19 28-4 52 21 31 11 38-51 35l-47-3-3 58c-2 43-6 55-15 48-7-5-24-12-39-16-21-5-30-2-38 13-26 50 8 94 57 72 34-15 33-16 33 38v50l48 3c59 4 72 0 72-21zm-355-41c20-13 47-20 82-20 51 0 52-1 42-23-23-51 35-108 82-79 16 10 18 7 21-41l3-52 55-5c33-3 50-8 43-13s-13-16-13-26-35-52-77-94l-77-75-45 39-46 38-22-37c-28-46-29-58-3-72 30-16 78-87 90-132l11-38h179v55c0 54 0 55 30 55 28 0 30-3 30-35 0-19 5-35 10-35 6 0 10 9 10 20 0 16 7 20 30 20s30-4 30-20c0-11 5-20 10-20 6 0 10 16 10 35v35h100v-55c0-48 2-55 20-55 16 0 20-7 20-30v-30H971l-11-38c-22-84-106-162-192-177-23-4-38-13-38-21 0-11 24-14 115-14 70 0 115-4 115-10 0-5-3-10-8-10-4 0-13-10-21-21-11-19-10-25 8-50 12-15 21-29 21-31s-56-3-125-3H710v153l-37 7c-163 30-251 210-175 356 15 30 46 67 68 84 35 27 39 34 31 53-8 17-20 22-66 24-74 4-67 22 11 29l63 6-67 1c-38 1-68 6-68 12s30 11 68 12l67 2-67 3c-71 4-90 19-38 30 17 3 30 7 30 10 0 2-12 27-26 55-21 42-24 55-15 74 6 13 19 24 30 24 10 0 25 7 32 16 12 14 10 19-15 39-44 35-30 55 41 56 38 0 68 7 88 19 42 26 121 26 160 0zm574-245c0-5 9-12 21-15 43-10 18-25-42-25-58 0-62 1-61 23 0 12 1 23 2 25 3 7 81 0 80-8zm46-65c-3-5-35-10-71-10s-64 4-64 10 30 10 71 10c44 0 68-4 64-10zm5-30c0-6-30-10-70-10s-70 4-70 10 30 10 70 10 70-4 70-10zm-147-32c12-15 17-31 13-49-3-16-1-29 6-31 7-3 8-10 4-17-5-7-14-10-21-7-8 3-19-2-25-10-20-23-68-17-95 12-33 35-32 78 1 111 21 21 32 24 62 19 21-3 45-15 55-28zm-179-128c0-24-2-25-62-25-62 0-84 14-40 27 13 3 19 6 15 7-5 1-5 6-2 12 4 5 25 9 48 7 37-3 42-6 41-28zm1-50c-3-5-35-10-71-10s-64 4-64 10 30 10 71 10c44 0 68-4 64-10zm5-30c0-6-30-10-70-10s-70 4-70 10 30 10 70 10 70-4 70-10zm-54-195c-7-19-47-7-44 14 4 21 42 32 46 14 2-8 1-20-2-28zm62 2c-2-22-9-31-24-33-18-3-21 1-18 34 2 20 3 38 3 39 1 0 10-1 22-4 16-4 19-12 17-36zm110-31c-3-65-5-71-25-74-17-3-23 2-23 16 0 15-5 18-25 14-24-4-25-3-25 50 0 30 2 57 4 59 3 2 25 4 51 5h46l-3-70zm172-56c0-92-3-119-14-123-8-3-17-3-20 0-3 4-6 59-6 124 0 113 6 137 33 122 4-2 7-57 7-123zm-118 69c2-34-1-53-9-56-23-9-33 8-33 58 0 41 3 49 19 49s20-9 23-51zm58-33c0-75-2-84-17-81-10 2-20 4-23 4-3 1-5 13-4 29 1 15 3 51 3 80 1 45 4 52 21 52 18 0 20-7 20-84zm-255-82l50-56 58 28 57 28 48-52c35-39 52-51 65-47 14 6 17 1 17-24 0-28-3-31-30-31-16 0-30 5-30 10 0 6 5 10 12 10s-10 22-37 50c-53 54-66 56-114 19-13-11-31-19-40-19-14 0-131 120-131 134 0 20 32-1 75-50z"/><path d="M895 1200c10-11 20-20 23-20s-3 9-13 20-20 20-23 20 3-9 13-20zm-32-25c0-8 7-15 15-15 12 0 12 3 2 15-7 8-13 15-15 15-1 0-2-7-2-15zm72-15c3-5 8-10 11-10s2 5-1 10c-3 6-8 10-11 10s-2-4 1-10zm-105-4c0-2 8-10 18-17 15-13 16-12 3 4s-21 21-21 13zm-30-20c0-2 8-10 18-17 15-13 16-12 3 4s-21 21-21 13zm45-46c3-5 8-10 11-10s2 5-1 10c-3 6-8 10-11 10s-2-4 1-10zM576 919c-37-29-75-98-82-150-16-116 65-228 184-254 49-10 38 9-12 23-161 43-208 249-83 359 21 18 37 35 37 38 0 11-18 4-44-16zm254 13c0-4 14-21 31-38 37-34 68-97 69-136 0-16 5-28 11-28 15 0 4 71-17 114-26 50-94 114-94 88z"/><path d="M592 878c-100-105-71-258 60-313 21-8 42-15 48-15s10 39 10 105c0 101-1 108-37 180-21 41-40 75-43 75s-20-15-38-32zm178-50c-39-72-40-75-40-175 0-114 0-114 65-84 65 29 115 104 115 171 0 52-61 160-91 160-4 0-26-33-49-72zm400-28v-50h-100c-60 0-100-4-100-10s83-10 230-10 230 4 230 10-9 10-20 10c-17 0-20 7-20 50 0 28-4 50-10 50-5 0-10-13-10-30 0-16-4-30-10-30-5 0-10 14-10 30 0 17-4 30-10 30-5 0-10-13-10-30 0-27-3-30-30-30-23 0-30 4-30 20 0 11-4 20-10 20-5 0-10-9-10-20 0-16-7-20-30-20-27 0-30 3-30 30 0 17-4 30-10 30-5 0-10-22-10-50zm190-40c0-6-33-10-80-10s-80 4-80 10 33 10 80 10 80-4 80-10z"/><path d="M916 666c-22-57-83-113-141-128-51-14-62-33-12-23 91 20 152 77 178 167 12 45-7 32-25-16zm309 314c-3-6 1-7 9-4 18 7 21 14 7 14-6 0-13-4-16-10z"/></g></svg>