<svg version="1.0" xmlns="http://www.w3.org/2000/svg" width="192" height="186" viewBox="0 0 1920 1860"><path d="M0 930V0h1920v1860H0V930z" fill="#101314"/><path d="M0 930V0h1920v1860H0V930zm1117 514c-3-3-12-4-19-1-8 3-5 6 6 6 11 1 17-2 13-5zm100 0c-3-3-12-4-19-1-8 3-5 6 6 6 11 1 17-2 13-5zm30-11c-4-3-10-3-14 0-3 4 0 7 7 7s10-3 7-7zm-187-7c0-2-7-7-16-10-8-3-12-2-9 4 6 10 25 14 25 6zm235-16c3-5 4-10 1-10s-8 5-11 10c-3 6-4 10-1 10s8-4 11-10zm-275-3c0-2-15-16-32-33l-33-29 29 33c28 30 36 37 36 29zm315-27c10-11 16-20 13-20s-13 9-23 20-16 20-13 20 13-9 23-20zm35-50c6-11 8-20 6-20-3 0-10 9-16 20s-8 20-6 20c3 0 10-9 16-20zm-422-15c-6-14-13-23-15-21-5 5 15 46 22 46 3 0-1-11-7-25zm-92-5c0-9-7-16-16-16s-16 7-16 16 7 16 16 16 16-7 16-16zm531-27c-4-3-7 0-7 7s3 10 7 7c3-4 3-10 0-14zm-460-25c-3-8-6-5-6 6-1 11 2 17 5 13 3-3 4-12 1-19zm470-20c-3-7-5-2-5 12s2 19 5 13c2-7 2-19 0-25zm-210-34c-3-3-12-4-19-1-8 3-5 6 6 6 11 1 17-2 13-5zm40-11c-4-3-10-3-14 0-3 4 0 7 7 7s10-3 7-7zm40-9c-3-3-12-4-19-1-8 3-5 6 6 6 11 1 17-2 13-5zm130-26c-3-7-5-2-5 12s2 19 5 13c2-7 2-19 0-25zm-90 16c-3-3-12-4-19-1-8 3-5 6 6 6 11 1 17-2 13-5zm-380-26c-3-8-6-5-6 6-1 11 2 17 5 13 3-3 4-12 1-19zm448-47c-21-43-29-39-8 4 9 19 18 33 21 31 2-2-4-18-13-35zm-426-1c11-24 11-24-3-6-9 11-16 24-16 30 0 12 5 7 19-24zm208-77c-2-16-4-5-4 22 0 28 2 40 4 28 2-13 2-35 0-50zm-117-16c29-20 20-23-12-4-25 14-68 55-68 64 0 4 12-5 28-19 15-14 38-32 52-41zm297 31c-13-13-36-29-52-36-35-16-33-13 20 27 48 35 63 40 32 9zm100-25c-3-10-5-4-5 12 0 17 2 24 5 18 2-7 2-21 0-30zm-190-30c-4-3-10-3-14 0-3 4 0 7 7 7s10-3 7-7zm-114-10c-7-2-19-2-25 0-7 3-2 5 12 5s19-2 13-5zm80 0c-7-2-21-2-30 0-10 3-4 5 12 5 17 0 24-2 18-5zm224-575c-2-18-4-4-4 32s2 50 4 33c2-18 2-48 0-65zm-870-35c-11-10-26 8-20 23 5 15 7 14 15-1 6-9 7-19 5-22zm77 5c-9-14-23 2-17 18 4 12 8 13 14 3 4-7 5-17 3-21zm79 17c4-8 2-17-3-20-6-4-10 3-10 14 0 25 6 27 13 6zm81-17c-3-4-11-5-19-2-11 5-12 9-2 19 12 13 31-1 21-17zm83-5c-11-10-26 8-20 23 5 15 7 14 15-1 6-9 7-19 5-22zm77 5c-9-14-23 2-17 18 4 12 8 13 14 3 4-7 5-17 3-21zm79 17c4-8 2-17-3-20-6-4-10 3-10 14 0 25 6 27 13 6zm80 0c4-8 2-17-3-20-6-4-10 3-10 14 0 25 6 27 13 6zm84-22c-11-10-26 8-20 23 5 15 7 14 15-1 6-9 7-19 5-22zm77 5c-9-14-23 2-17 18 4 12 8 13 14 3 4-7 5-17 3-21zm79 17c4-8 2-17-3-20-6-4-10 3-10 14 0 25 6 27 13 6zm-876-12c-4-3-10-3-14 0-3 4 0 7 7 7s10-3 7-7z" fill="#111c21"/><path d="M0 930V0h1920v1860H0V930zm1076 500c-58-23-80-41-118-99-30-47-38-49-14-3 29 56 119 121 166 121 8 0-7-8-34-19zm141 14c-3-3-12-4-19-1-8 3-5 6 6 6 11 1 17-2 13-5zm30-11c-4-3-10-3-14 0-3 4 0 7 7 7s10-3 7-7zm89-55c22-23 54-80 54-95 0-4-13 15-30 43-16 29-45 62-65 74-19 12-35 24-35 26 0 10 56-25 76-48zm-480-68c0-9-7-16-16-16s-16 7-16 16 7 16 16 16 16-7 16-16zm71-62c-3-7-5-2-5 12s2 19 5 13c2-7 2-19 0-25zm470-70c-2-18-4-4-4 32s2 50 4 33c2-18 2-48 0-65zm-480 20c-3-7-5-2-5 12s2 19 5 13c2-7 2-19 0-25zm-304 15c-7-2-21-2-30 0-10 3-4 5 12 5 17 0 24-2 18-5zm602-13c14-7 9-8-17-4l-37 6-4-103-3-104-2 108c-2 105-2 107 21 106 12 0 31-4 42-9zm85-20c20-6 21-8 5-8-11 0-31 4-45 8-20 6-21 8-5 8 11 0 31-4 45-8zm-687-7c-7-2-19-2-25 0-7 3-2 5 12 5s19-2 13-5zm314-25c-3-7-5-2-5 12s2 19 5 13c2-7 2-19 0-25zm449-47c-9-17-16-33-16-36 1-4-9-15-22-25l-23-19 57-1c46 0 57 3 61 18 3 9 5-137 6-325l1-343h-35c-22 0-38-6-44-18-10-16-10-16-11 1 0 23-55 23-69 0-10-17-10-17-11 0 0 12-8 17-30 17-17 0-33-7-39-17-10-17-10-17-11 0 0 12-8 17-30 17-17 0-33-7-39-17-10-17-10-17-11 0 0 12-8 17-30 17-17 0-33-7-39-17-10-17-10-17-11 0 0 23-55 23-69 0-9-16-10-16-11-1 0 24-135 24-150 0-9-16-9-16-10 1 0 12-8 17-30 17-17 0-33-7-39-17-10-17-10-17-11 0 0 23-55 23-69 0-10-17-10-17-11 0 0 15-7 18-37 16-21-1-57-1-81 0l-42 1v340c1 200 5 340 10 340s7-7 4-15c-5-13 27-15 257-15 252 1 263 1 244 18-20 18-55 73-55 88 0 4 13-13 29-39 36-55 91-94 152-106 35-7 38-9 15-10-16-1-48 8-71 19-39 19-59 20-306 18l-264-3-3-312-2-313h35c26 0 35 4 36 18 1 16 2 16 6 0 3-13 15-18 39-18 25 0 34 4 35 18 1 16 2 16 6 0 3-13 15-18 39-18 25 0 34 4 35 18 1 16 2 16 6 0 3-13 15-18 39-18 25 0 34 4 35 18 1 16 2 16 6 0 3-13 15-18 39-18 25 0 34 4 35 18 1 16 2 16 6 0 3-13 15-18 39-18 25 0 34 4 35 18 1 16 2 16 6 0 3-13 15-18 39-18 25 0 34 4 35 18 1 16 2 16 6 0 6-25 73-25 74 0 1 16 2 16 6 0 6-25 73-25 74 0 1 16 2 16 6 0 6-25 73-25 74 0 1 16 2 16 6 0 3-13 15-18 39-18 25 0 34 4 35 18 1 16 2 16 6-1 3-12 15-17 39-17h34v630h-66c-36 0-74-5-85-10-32-18-21-4 19 22 21 14 49 46 62 71s26 44 28 42-4-17-12-34zm-129-118c-4-3-10-3-14 0-3 4 0 7 7 7s10-3 7-7zm-34-10c-7-2-21-2-30 0-10 3-4 5 12 5 17 0 24-2 18-5z" fill="#2d2d2d"/><g fill="#063b4e"><path d="M0 930V0h1920v1860H0V930zm1255 505c120-49 179-203 125-324-11-24-20-45-20-47s18-4 40-4h40V370h-35c-22 0-38-6-44-17-10-17-10-17-11 0 0 23-55 23-69 0-10-17-10-17-11 0 0 23-55 23-69 0-10-17-10-17-11 0 0 23-55 23-69-1-10-16-10-16-11 1 0 23-55 23-69 0-10-17-10-17-11 0 0 23-55 23-69 0-10-17-10-17-11 0 0 23-55 23-69-1-10-16-10-16-11 1 0 23-55 23-69-1-10-16-10-16-11 1 0 12-8 17-30 17-17 0-33-7-39-17-10-17-10-17-11 0 0 12-8 17-30 17-17 0-33-7-39-17-10-17-10-17-11 0 0 12-8 17-30 17-17 0-33-7-39-17-10-17-10-17-11 0 0 13-9 17-40 17h-40l2 343 3 342 242 3 242 2-22 48c-28 63-28 152 1 208 36 71 98 116 187 137 27 7 93-2 130-18zm-399-125c0-9-7-16-16-16s-16 7-16 16 7 16 16 16 16-7 16-16zm-208-57c-15-2-42-2-60 0s-6 4 27 4 48-2 33-4zm90-40c-32-2-86-2-120 0-35 2-9 3 57 3s94-1 63-3zm0-40c-32-2-86-2-120 0-35 2-9 3 57 3s94-1 63-3zm0-40c-32-2-86-2-120 0-35 2-9 3 57 3s94-1 63-3z"/><path d="M1098 1436c-259-71-211-457 56-456 138 1 236 96 236 230 0 155-145 267-292 226zm157-245c39-11 63-20 55-20s-40 6-70 14-60 15-67 15c-9 0-13-30-16-102l-3-103-2 108c-2 124-9 118 103 88z"/><path d="M484 1041c-17-17 27-21 258-21 191 0 259 3 251 11-11 11-499 20-509 10zm848-7c-15-12-9-13 41-14 41 0 57 4 55 12-6 16-75 18-96 2zm-845-31c-4-3-7-145-7-315V380h34c24 0 36 5 39 18 4 16 5 16 6 0 1-25 68-25 74 0 4 16 5 16 6 0 1-14 10-18 35-18 24 0 36 5 39 18 4 16 5 16 6 0 1-25 68-25 74 0 4 16 5 16 6 0 1-25 68-25 74 0 4 16 5 16 6 0 1-25 68-25 74-1 4 17 5 17 6 1 1-25 68-25 74 0 4 16 5 16 6 0 1-25 68-25 74 0 4 16 5 16 6 0 1-14 10-18 35-18 24 0 36 5 39 18 4 16 5 16 6 0 1-25 68-25 74 0 4 16 5 16 6 0 1-14 10-18 35-18 24 0 36 5 39 18 4 16 5 16 6 0 1-14 10-18 36-18h35v630h-63c-43 0-75-6-102-20s-59-20-105-20-78 6-105 20c-36 18-59 20-300 20-144 0-265-3-268-7z"/></g><g fill="#403f43"><path d="M0 930V0h1920v1860H0V930zm1255 505c120-49 179-203 125-324-11-24-20-45-20-47s18-4 40-4h40V370h-35c-22 0-38-6-44-17-10-17-10-17-11 0 0 23-55 23-69 0-10-17-10-17-11 0 0 23-55 23-69 0-10-17-10-17-11 0 0 23-55 23-69-1-10-16-10-16-11 1 0 23-55 23-69 0-10-17-10-17-11 0 0 23-55 23-69 0-10-17-10-17-11 0 0 23-55 23-69-1-10-16-10-16-11 1 0 23-55 23-69-1-10-16-10-16-11 1 0 12-8 17-30 17-17 0-33-7-39-17-10-17-10-17-11 0 0 12-8 17-30 17-17 0-33-7-39-17-10-17-10-17-11 0 0 12-8 17-30 17-17 0-33-7-39-17-10-17-10-17-11 0 0 13-9 17-40 17h-40l2 343 3 342 242 3 242 2-22 48c-28 63-28 152 1 208 36 71 98 116 187 137 27 7 93-2 130-18zm-399-125c0-9-7-16-16-16s-16 7-16 16 7 16 16 16 16-7 16-16zm-208-57c-15-2-42-2-60 0s-6 4 27 4 48-2 33-4zm90-40c-32-2-86-2-120 0-35 2-9 3 57 3s94-1 63-3zm0-40c-32-2-86-2-120 0-35 2-9 3 57 3s94-1 63-3zm0-40c-32-2-86-2-120 0-35 2-9 3 57 3s94-1 63-3z"/><path d="M1098 1436c-259-71-211-457 56-456 138 1 236 96 236 230 0 155-145 267-292 226zm146-240c37-8 71-17 74-20 14-15-9-13-67 4-99 31-95 35-87-74 5-62 4-96-3-101-8-4-11 28-11 99 0 78 3 106 13 106 6 0 43-6 81-14z"/><path d="M484 1041c-17-17 27-21 258-21 191 0 259 3 251 11-11 11-499 20-509 10zm848-7c-15-12-9-13 41-14 41 0 57 4 55 12-6 16-75 18-96 2zm-845-31c-9-8-9-431 0-540l6-83h28c19 0 29 5 29 15 0 8 5 15 10 15 6 0 10-7 10-15 0-10 10-15 30-15s30 5 30 15c0 8 5 15 10 15 6 0 10-7 10-15 0-10 10-15 30-15s30 5 30 15c0 8 5 15 10 15 6 0 10-7 10-15 0-10 10-15 30-15s30 5 30 15c0 8 5 15 10 15 6 0 10-7 10-15 0-10 10-15 30-15s30 5 30 15c0 8 5 15 10 15 6 0 10-7 10-15 0-10 10-15 30-15s30 5 30 15c0 8 5 15 10 15 6 0 10-7 10-15 0-10 10-15 30-15s30 5 30 15c0 8 5 15 10 15 6 0 10-7 10-15 0-10 10-15 30-15s30 5 30 15c0 8 5 15 10 15 6 0 10-7 10-15 0-10 10-15 30-15s30 5 30 15c0 8 5 15 10 15 6 0 10-7 10-15 0-10 10-15 30-15s30 5 30 15c0 8 5 15 10 15 6 0 10-7 10-15 0-10 10-15 30-15s30 5 30 15c0 8 5 15 10 15 6 0 10-7 10-15 0-10 10-15 30-15h30v630h-63c-43 0-75-6-102-20s-59-20-105-20-78 6-105 20c-36 18-59 20-300 20-144 0-265-3-268-7z"/></g><g fill="#4d4d4c"><path d="M0 930V0h1920v1860H0V930zm1256 505c47-20 100-71 123-120 28-59 28-151 1-207-11-23-20-43-20-45s18-3 40-3h40V364l-36 4c-30 4-36 1-41-19l-6-23-8 22c-11 30-59 30-67 0-5-21-5-21-13-1-10 28-59 28-67 0-5-20-5-20-13 1-12 31-59 30-67 0-5-20-6-20-12-3-4 10-18 20-34 22-22 3-29-1-33-19-6-20-7-20-13-3-4 10-18 20-33 22-21 3-30-2-37-19-8-22-9-22-9-2-1 18-6 21-33 19-20-1-34-9-38-21-6-17-7-17-12 2-7 29-58 31-66 2-5-20-6-20-12-4-4 11-18 20-34 22-22 2-29-2-34-18l-5-22-8 22c-11 30-59 30-67 0-5-21-5-21-13-1-10 28-59 28-67 0-5-20-6-20-12-1-7 19-10 21-55 23l-25 1 2 343 3 342 243 3 242 2-22 43c-30 57-31 156-1 212 64 120 198 170 319 120zm-400-124c0-9-8-17-17-17-10 0-17 7-16 16 1 22 33 23 33 1zm-186-60c0-10-95-9-106 2-4 4 18 7 49 7 32 0 57-4 57-9zm120-41c0-6-45-10-115-10s-115 4-115 10 45 10 115 10 115-4 115-10zm0-40c0-6-45-10-115-10s-115 4-115 10 45 10 115 10 115-4 115-10zm0-39c0-5-52-9-115-10-74-1-115 2-115 9 0 6 42 10 115 10 63 0 115-4 115-9z"/><path d="M1047 1414c-162-84-161-321 2-406 157-82 340 25 341 200 0 91-49 170-132 213-55 28-149 25-211-7zm228-224c23 0 52-16 44-24-3-3-33 4-68 14-99 31-95 35-87-74 5-62 4-96-3-101-8-4-11 29-11 104v109l53-14c28-7 61-14 72-14zm-790-160c4-6 102-10 261-10 168 0 253 3 249 10-4 6-102 10-261 10-168 0-253-3-249-10z"/><path d="M1325 1030c-4-6 15-10 49-10 31 0 56 5 56 10 0 6-22 10-49 10-28 0-53-4-56-10zm-841-29c-6-7-5-447 3-538l6-83h28c19 0 29 5 29 15 0 8 5 15 10 15 6 0 10-7 10-15 0-10 10-15 30-15s30 5 30 15c0 8 5 15 10 15 6 0 10-7 10-15 0-10 10-15 30-15s30 5 30 15c0 8 5 15 10 15 6 0 10-7 10-15 0-10 10-15 30-15s30 5 30 15c0 8 5 15 10 15 6 0 10-7 10-15 0-10 10-15 30-15s30 5 30 15c0 8 5 15 10 15 6 0 10-7 10-15 0-10 10-15 30-15s30 5 30 15c0 8 5 15 10 15 6 0 10-7 10-15 0-10 10-15 30-15s30 5 30 15c0 8 5 15 10 15 6 0 10-7 10-15 0-10 10-15 30-15s30 5 30 15c0 8 5 15 10 15 6 0 10-7 10-15 0-10 10-15 30-15s30 5 30 15c0 8 5 15 10 15 6 0 10-7 10-15 0-10 10-15 30-15s30 5 30 15c0 8 5 15 10 15 6 0 10-7 10-15 0-10 10-15 30-15s30 5 30 15c0 8 5 15 10 15 6 0 10-7 10-15 0-10 10-15 30-15h30l-2 311-3 311-60 2c-39 1-75-5-103-17-54-23-145-24-201-1-37 14-82 17-308 18-145 1-266-1-269-3z"/></g><g fill="#615c5b"><path d="M0 930V0h1920v1860H0V930zm1229 514c158-46 217-214 133-376-2-5 14-8 36-8 32 0 41-4 45-21 3-12 5-168 4-348l-2-326-34-3c-19-2-41-11-48-20-11-16-12-16-13 1 0 12-8 17-26 17-15 0-33-8-40-17-13-17-13-17-14 0 0 13-8 17-36 17-19 0-33-4-29-9 3-5 1-12-5-16-5-3-10 1-10 9 0 22-49 21-66-1-13-17-13-17-14 0 0 12-8 17-26 17-15 0-33-8-40-17-13-17-13-17-14 0 0 12-8 17-26 17-15 0-33-8-40-17-13-17-13-17-14 0 0 23-48 23-66-1-13-16-13-16-14 1 0 23-48 23-66-1-13-16-13-16-14 1 0 12-8 17-26 17-15 0-33-8-40-17-13-17-13-17-14 0 0 23-48 23-66-1-13-16-13-16-14 1 0 23-48 23-66-1-12-16-13-16-14 0 0 12-10 18-37 20l-38 3-3 348-2 347h490l-22 43c-58 110-7 265 107 325 64 33 112 38 184 16zm-373-133c0-9-8-17-17-17-10 0-17 7-16 16 1 22 33 23 33 1zm-181-61c-3-5-31-10-61-10s-54 5-54 10c0 6 27 10 61 10 37 0 58-4 54-10zm120-40c-4-6-55-10-121-10-69 0-114 4-114 10s47 10 121 10c77 0 118-4 114-10zm0-40c-4-6-55-10-121-10-69 0-114 4-114 10s47 10 121 10c77 0 118-4 114-10zm0-40c-4-6-55-10-121-10-69 0-114 4-114 10s47 10 121 10c77 0 118-4 114-10z"/><path d="M1043 1410c-117-67-150-209-77-327l30-48-253 3c-178 2-253 0-253-8s79-11 263-10c245 1 265 0 307-19 155-71 330 40 330 209 0 179-192 289-347 200zm205-215c35-7 66-16 69-19 16-15-8-14-71 5-37 11-71 18-74 14-4-3-5-48-4-100 2-57-1-96-8-100s-10 33-10 110c0 107 1 117 18 110 9-3 45-12 80-20z"/><path d="M1325 1030c-4-6 15-10 49-10 31 0 56 5 56 10 0 6-22 10-49 10-28 0-53-4-56-10zm-835-32c0-7-1-501 0-555v-63h30c20 0 30 5 30 15 0 8 5 15 10 15 6 0 10-7 10-15 0-10 10-15 30-15s30 5 30 15c0 8 5 15 10 15 6 0 10-7 10-15 0-10 10-15 30-15s30 5 30 15c0 8 5 15 10 15 6 0 10-7 10-15 0-10 10-15 30-15s30 5 30 15c0 8 5 15 10 15 6 0 10-7 10-15 0-10 10-15 30-15s30 5 30 15c0 8 5 15 10 15 6 0 10-7 10-15 0-10 10-15 30-15s30 5 30 15c0 8 5 15 10 15 6 0 10-7 10-15 0-10 10-15 30-15s30 5 30 15c0 8 5 15 10 15 6 0 10-7 10-15 0-10 10-15 30-15s30 5 30 15c0 8 5 15 10 15 6 0 10-7 10-15 0-10 10-15 30-15s30 5 30 15c0 8 5 15 10 15 6 0 10-7 10-15 0-10 10-15 30-15s30 5 30 15c0 8 5 15 10 15 6 0 10-7 10-15 0-10 10-15 30-15s30 5 30 15c0 8 5 15 10 15 6 0 10-7 10-15 0-10 10-15 30-15h30v620h-69c-41 0-84-7-107-17-50-21-150-21-192 1-26 14-71 16-302 16-148 0-270-1-270-2z"/></g><g fill="#6e6e6e"><path d="M0 930V0h1920v1860H0V930zm1229 514c141-41 213-201 153-336l-20-47 41-3 42-3V365l-34-3c-19-2-41-11-48-20-11-16-12-16-13 1 0 23-48 23-66 0-13-17-13-17-14 0 0 23-48 23-66-1-13-16-13-16-14 1 0 23-48 23-66 0-13-17-13-17-14 0 0 12-8 17-26 17-15 0-33-8-40-17-13-17-13-17-14 0 0 23-48 23-66-1-13-16-13-16-14 1 0 22-60 25-60 2 0-8-4-15-10-15-5 0-10 7-10 15 0 21-50 19-66-2-13-17-13-17-14 0 0 12-8 17-26 17-15 0-33-8-40-17-13-17-13-17-14 0 0 23-48 23-66-1-13-16-13-16-14 1 0 23-48 23-66 0-13-17-13-17-14 0 0 13-9 17-40 17h-40v700h490l-22 43c-16 31-22 59-22 107-1 111 61 196 171 236 50 17 79 17 142-2zm-373-134c0-12-7-18-18-17-10 1-18 8-18 17s8 16 18 17c11 1 18-5 18-17zm-181-60c-3-5-31-10-61-10s-54 5-54 10c0 6 27 10 61 10 37 0 58-4 54-10zm120-40c-4-6-55-10-121-10-69 0-114 4-114 10s47 10 121 10c77 0 118-4 114-10zm0-40c-4-6-55-10-121-10-69 0-114 4-114 10s47 10 121 10c77 0 118-4 114-10zm0-40c-4-6-55-10-121-10-69 0-114 4-114 10s47 10 121 10c77 0 118-4 114-10z"/><path d="M1049 1412c-77-40-119-111-119-199 0-143 107-241 250-231 185 13 277 242 152 380-74 83-184 102-283 50zm200-216c34-8 66-17 69-20 13-14-7-14-48-2-25 7-57 16-72 20l-28 6v-99c0-56-4-103-10-106-6-4-10 35-10 110 0 106 2 116 18 111 9-3 46-12 81-20z"/><path d="M490 1030c0-6 90-10 251-10 164 0 248 3 244 10-4 6-98 10-251 10-156 0-244-4-244-10zm835 0c-4-6 15-10 49-10 31 0 56 5 56 10 0 6-22 10-49 10-28 0-53-4-56-10zM490 690V380h30c20 0 30 5 30 15 0 8 5 15 10 15 6 0 10-7 10-15 0-10 10-15 30-15s30 5 30 15c0 8 5 15 10 15 6 0 10-7 10-15 0-10 10-15 30-15s30 5 30 15c0 8 5 15 10 15 6 0 10-7 10-15 0-10 10-15 30-15s30 5 30 15c0 8 5 15 10 15 6 0 10-7 10-15 0-10 10-15 30-15s30 5 30 15c0 8 5 15 10 15 6 0 10-7 10-15 0-10 10-15 30-15s30 5 30 15c0 8 5 15 10 15 6 0 10-7 10-15 0-10 10-15 30-15s30 5 30 15c0 8 5 15 10 15 6 0 10-7 10-15 0-10 10-15 30-15s30 5 30 15c0 8 5 15 10 15 6 0 10-7 10-15 0-10 10-15 30-15s30 5 30 15c0 8 5 15 10 15 6 0 10-7 10-15 0-10 10-15 30-15s30 5 30 15c0 8 5 15 10 15 6 0 10-7 10-15 0-10 10-15 30-15s30 5 30 15c0 8 5 15 10 15 6 0 10-7 10-15 0-10 10-15 30-15h30v620h-65c-40 0-90-8-127-21-67-22-128-20-180 7-21 11-85 14-298 14H490V690z"/></g><g fill="#7f7f83"><path d="M0 930V0h1920v1860H0V930zm1267 502c59-31 110-92 129-157 18-62 14-104-16-172l-18-42 41-3 42-3V365l-37-3c-25-2-38-8-38-18 0-8-4-14-10-14-5 0-10 7-10 15 0 10-10 15-30 15s-30-5-30-15c0-8-4-15-10-15-5 0-10 7-10 15 0 10-10 15-30 15s-30-5-30-15c0-8-4-15-10-15-5 0-10 7-10 15 0 10-10 15-30 15s-30-5-30-15c0-8-4-15-10-15-5 0-10 7-10 15 0 10-10 15-30 15s-30-5-30-15c0-8-4-15-10-15-5 0-10 7-10 15 0 10-10 15-30 15s-30-5-30-15c0-8-4-15-10-15-5 0-10 7-10 15 0 10-10 15-30 15s-30-5-30-15c0-8-4-15-10-15-5 0-10 7-10 15 0 10-10 15-30 15s-30-5-30-15c0-8-4-15-10-15-5 0-10 7-10 15 0 10-10 15-30 15s-30-5-30-15c0-8-4-15-10-15-5 0-10 7-10 15 0 10-10 15-30 15s-30-5-30-15c0-8-4-15-10-15-5 0-10 7-10 15 0 10-10 15-30 15s-30-5-30-15c0-8-4-15-10-15-5 0-10 7-10 15 0 11-11 15-40 15h-40v700h487l-20 41c-84 170 51 370 239 355 28-2 69-13 91-24zm-410-121c1-14-4-19-18-18-24 2-26 37-1 37 10 0 18-8 19-19zm-177-61c0-6-27-10-60-10s-60 4-60 10 27 10 60 10 60-4 60-10zm120-40c0-6-47-10-120-10s-120 4-120 10 47 10 120 10 120-4 120-10zm0-40c0-6-47-10-120-10s-120 4-120 10 47 10 120 10 120-4 120-10zm0-40c0-6-47-10-120-10s-120 4-120 10 47 10 120 10 120-4 120-10z"/><path d="M1065 1421c-84-38-135-117-135-211 0-206 244-308 389-162 66 67 86 145 59 233-15 52-73 117-122 140-53 24-139 24-191 0zm184-225c34-8 66-17 69-20 13-14-7-14-48-2-25 7-57 16-72 20l-28 6v-99c0-56-4-103-10-106-6-4-10 35-10 110 0 106 2 116 18 111 9-3 46-12 81-20zm-759-166c0-6 90-10 251-10 164 0 248 3 244 10-4 6-98 10-251 10-156 0-244-4-244-10zm835 0c-4-6 15-10 49-10 31 0 56 5 56 10 0 6-22 10-49 10-28 0-53-4-56-10z"/><path d="M490 690V380h30c20 0 30 5 30 15 0 8 5 15 10 15 6 0 10-7 10-15 0-10 10-15 30-15s30 5 30 15c0 8 5 15 10 15 6 0 10-7 10-15 0-10 10-15 30-15s30 5 30 15c0 8 5 15 10 15 6 0 10-7 10-15 0-10 10-15 30-15s30 5 30 15c0 8 5 15 10 15 6 0 10-7 10-15 0-10 10-15 30-15s30 5 30 15c0 8 5 15 10 15 6 0 10-7 10-15 0-10 10-15 30-15s30 5 30 15c0 8 5 15 10 15 6 0 10-7 10-15 0-10 10-15 30-15s30 5 30 15c0 8 5 15 10 15 6 0 10-7 10-15 0-10 10-15 30-15s30 5 30 15c0 8 5 15 10 15 6 0 10-7 10-15 0-10 10-15 30-15s30 5 30 15c0 8 5 15 10 15 6 0 10-7 10-15 0-10 10-15 30-15s30 5 30 15c0 8 5 15 10 15 6 0 10-7 10-15 0-10 10-15 30-15s30 5 30 15c0 8 5 15 10 15 6 0 10-7 10-15 0-10 10-15 30-15h30v620h-70c-47 0-82-6-103-17-44-23-152-23-194 0-28 15-66 17-303 17H490V690z"/></g><g fill="#0babd6"><path d="M0 930V0h1920v1860H0V930zm1266 502c46-24 95-74 120-122 25-50 24-143-3-202l-22-48h89l-2-347-3-348-37-3c-25-2-38-8-38-18 0-8-4-14-10-14-5 0-10 7-10 15 0 10-10 15-30 15s-30-5-30-15c0-8-4-15-10-15-5 0-10 7-10 15 0 10-10 15-30 15s-30-5-30-15c0-8-4-15-10-15-5 0-10 7-10 15 0 10-10 15-30 15s-30-5-30-15c0-8-4-15-10-15-5 0-10 7-10 15 0 10-10 15-30 15s-30-5-30-15c0-8-4-15-10-15-5 0-10 7-10 15 0 10-10 15-30 15s-30-5-30-15c0-8-4-15-10-15-5 0-10 7-10 15 0 10-10 15-30 15s-30-5-30-15c0-8-4-15-10-15-5 0-10 7-10 15 0 10-10 15-30 15s-30-5-30-15c0-8-4-15-10-15-5 0-10 7-10 15 0 10-10 15-30 15s-30-5-30-15c0-8-4-15-10-15-5 0-10 7-10 15 0 10-10 15-30 15s-30-5-30-15c0-8-4-15-10-15-5 0-10 7-10 15 0 10-10 15-30 15s-30-5-30-15c0-8-4-15-10-15-5 0-10 7-10 15 0 11-11 15-40 15h-40v700h487l-20 41c-84 171 50 370 239 355 28-2 69-13 90-24zm-409-121c1-13-5-18-21-18-15 0-22 6-22 18 0 13 7 19 21 19 13 0 21-7 22-19zm-177-61c0-6-27-10-60-10s-60 4-60 10 27 10 60 10 60-4 60-10zm120-40c0-6-47-10-120-10s-120 4-120 10 47 10 120 10 120-4 120-10zm0-40c0-6-47-10-120-10s-120 4-120 10 47 10 120 10 120-4 120-10zm0-40c0-6-47-10-120-10s-120 4-120 10 47 10 120 10 120-4 120-10z"/><path d="M1065 1421c-84-39-135-120-135-213 1-244 333-315 436-94 40 85 28 175-33 245-66 77-179 103-268 62zm173-221c61-12 91-25 81-34-3-3-37 3-75 14s-70 20-71 20c-2 0-3-47-3-105 0-63-4-105-10-105s-10 45-10 116c0 95 2 115 14 111 8-3 41-11 74-17zm-748-170c0-6 90-10 251-10 164 0 248 3 244 10-4 6-98 10-251 10-156 0-244-4-244-10zm845 0c-4-6 13-10 44-10 28 0 51 5 51 10 0 6-20 10-44 10-25 0-48-4-51-10z"/><path d="M490 690V380h30c20 0 30 5 30 15 0 8 5 15 10 15 6 0 10-7 10-15 0-10 10-15 30-15s30 5 30 15c0 8 5 15 10 15 6 0 10-7 10-15 0-10 10-15 30-15s30 5 30 15c0 8 5 15 10 15 6 0 10-7 10-15 0-10 10-15 30-15s30 5 30 15c0 8 5 15 10 15 6 0 10-7 10-15 0-10 10-15 30-15s30 5 30 15c0 8 5 15 10 15 6 0 10-7 10-15 0-10 10-15 30-15s30 5 30 15c0 8 5 15 10 15 6 0 10-7 10-15 0-10 10-15 30-15s30 5 30 15c0 8 5 15 10 15 6 0 10-7 10-15 0-10 10-15 30-15s30 5 30 15c0 8 5 15 10 15 6 0 10-7 10-15 0-10 10-15 30-15s30 5 30 15c0 8 5 15 10 15 6 0 10-7 10-15 0-10 10-15 30-15s30 5 30 15c0 8 5 15 10 15 6 0 10-7 10-15 0-10 10-15 30-15s30 5 30 15c0 8 5 15 10 15 6 0 10-7 10-15 0-10 10-15 30-15h30v620h-70c-48 0-81-6-103-17-43-23-151-24-196 0-30 15-67 17-303 17H490V690z"/></g><g fill="#8f8f8f"><path d="M0 930V0h1920v1860H0V930zm1266 502c46-24 95-74 120-122 25-50 24-143-3-202l-22-48h89l-2-347-3-348-37-3c-25-2-38-8-38-18 0-8-4-14-10-14-5 0-10 7-10 15 0 10-10 15-30 15s-30-5-30-15c0-8-4-15-10-15-5 0-10 7-10 15 0 10-10 15-30 15s-30-5-30-15c0-8-4-15-10-15-5 0-10 7-10 15 0 10-10 15-30 15s-30-5-30-15c0-8-4-15-10-15-5 0-10 7-10 15 0 10-10 15-30 15s-30-5-30-15c0-8-4-15-10-15-5 0-10 7-10 15 0 10-10 15-30 15s-30-5-30-15c0-8-4-15-10-15-5 0-10 7-10 15 0 10-10 15-30 15s-30-5-30-15c0-8-4-15-10-15-5 0-10 7-10 15 0 10-10 15-30 15s-30-5-30-15c0-8-4-15-10-15-5 0-10 7-10 15 0 10-10 15-30 15s-30-5-30-15c0-8-4-15-10-15-5 0-10 7-10 15 0 10-10 15-30 15s-30-5-30-15c0-8-4-15-10-15-5 0-10 7-10 15 0 10-10 15-30 15s-30-5-30-15c0-8-4-15-10-15-5 0-10 7-10 15 0 11-11 15-40 15h-40v700h487l-20 41c-84 171 50 370 239 355 28-2 69-13 90-24zm-756-37c0-8-7-15-15-15-16 0-20 12-8 23 11 12 23 8 23-8zm347-84c1-13-5-18-21-18-15 0-22 6-22 18 0 13 7 19 21 19 13 0 21-7 22-19zm-177-61c0-6-27-10-60-10s-60 4-60 10 27 10 60 10 60-4 60-10zm120-40c0-6-47-10-120-10s-120 4-120 10 47 10 120 10 120-4 120-10zm0-40c0-6-47-10-120-10s-120 4-120 10 47 10 120 10 120-4 120-10zm0-40c0-6-47-10-120-10s-120 4-120 10 47 10 120 10 120-4 120-10z"/><path d="M1065 1421c-84-39-135-120-135-213 1-244 333-315 436-94 40 85 28 175-33 245-66 77-179 103-268 62zm211-56c71-54 95-164 55-243-22-42-43-63-88-86-50-25-63-21-63 18 0 28 5 36 30 46 17 7 40 24 51 39l21 26-29 11c-15 6-40 14-55 18l-28 6v-105c0-63-4-105-10-105s-10 45-10 116c0 115 0 115 23 109 12-4 29-8 37-10s27-6 43-9c26-6 27-5 27 30 0 29-7 44-36 70-30 29-43 34-82 34-27 0-57-7-70-16-21-15-25-15-43 2-36 32-16 61 55 80 56 14 130 1 172-31z"/><path d="M1298 1153c7-3 16-2 19 1 4 3-2 6-13 5-11 0-14-3-6-6zm-808-123c0-6 90-10 251-10 164 0 248 3 244 10-4 6-98 10-251 10-156 0-244-4-244-10zm845 0c-4-6 13-10 44-10 28 0 51 5 51 10 0 6-20 10-44 10-25 0-48-4-51-10zM490 690V380h24c15 0 26 7 29 20 7 26 27 26 27-1 0-16 5-20 28-17 15 2 27 9 27 17s6 16 13 18c7 3 12-4 12-16 0-16 6-21 29-21 21 0 28 5 27 16 0 9 5 19 12 21 7 3 12-4 12-16 0-29 46-29 55-1 8 26 25 26 25 0 0-14 7-20 24-20 15 0 26 7 29 20 7 26 27 26 27-1 0-16 5-20 28-17 15 2 27 9 27 17s6 16 13 19c7 2 12-5 12-17 0-16 6-21 29-21 21 0 28 5 27 16 0 9 5 19 12 21 7 3 12-4 12-16 0-29 45-29 53 0 6 23 27 17 27-7 0-23 47-18 53 6 7 26 27 26 27-1 0-16 5-20 28-17 15 2 27 9 27 17s6 16 13 18c7 3 12-4 12-16 0-16 6-21 29-21 21 0 28 5 27 16 0 9 5 19 12 21 7 3 12-4 12-16 0-15 6-21 24-21 21 0 24 5 29 47 2 27 5 166 6 311l2 262h-71c-48 0-81-6-103-17-43-23-151-24-196 0-30 15-67 17-303 17H490V690zm218 160c1-27-3-30-29-30s-29 3-29 30c0 26 4 30 28 30 25 0 29-4 30-30zm2-80c0-27-3-30-30-30s-30 3-30 30 3 30 30 30 30-3 30-30zm0-80c0-27-3-30-30-30s-30 3-30 30 3 30 30 30 30-3 30-30zm171-27c13-16 12-17-3-4-10 7-18 15-18 17 0 8 8 3 21-13zm-173-55c3-25 0-28-27-28-28 0-31 3-31 31 0 27 3 30 28 27 21-2 28-9 30-30zM567 433c-4-3-10-3-14 0-3 4 0 7 7 7s10-3 7-7z"/></g><g fill="#14b4e8"><path d="M0 930V0h1920v1860H0V930zm1264 505c48-23 91-66 119-119 30-57 30-155-1-213l-22-43h90V360h-40c-29 0-40-4-40-15 0-8-4-15-10-15-5 0-10 7-10 15 0 10-10 15-30 15s-30-5-30-15c0-8-4-15-10-15-5 0-10 7-10 15 0 10-10 15-30 15s-30-5-30-15c0-8-4-15-10-15-5 0-10 7-10 15 0 10-10 15-30 15s-30-5-30-15c0-8-4-15-10-15-5 0-10 7-10 15 0 10-10 15-30 15s-30-5-30-15c0-8-4-15-10-15-5 0-10 7-10 15 0 10-10 15-30 15s-30-5-30-15c0-8-4-15-10-15-5 0-10 7-10 15 0 10-10 15-30 15s-30-5-30-15c0-8-4-15-10-15-5 0-10 7-10 15 0 10-10 15-30 15s-30-5-30-15c0-8-4-15-10-15-5 0-10 7-10 15 0 10-10 15-30 15s-30-5-30-15c0-8-4-15-10-15-5 0-10 7-10 15 0 10-10 15-30 15s-30-5-30-15c0-8-4-15-10-15-5 0-10 7-10 15 0 10-10 15-30 15s-30-5-30-15c0-8-4-15-10-15-5 0-10 7-10 15 0 11-11 15-40 15h-40v700h489l-22 38c-17 29-22 53-22 112 0 64 4 82 28 122 31 53 79 93 134 114 47 18 138 12 187-11zm-754-40c0-8-7-15-15-15-16 0-20 12-8 23 11 12 23 8 23-8zm350-82c0-17-6-23-23-23-19 0-23 5-21 23 1 12 3 22 3 22 1 1 10 1 21 1 14 0 20-7 20-23zm-180-63c0-6-27-10-60-10s-60 4-60 10 27 10 60 10 60-4 60-10zm120-40c0-6-47-10-120-10s-120 4-120 10 47 10 120 10 120-4 120-10zm0-40c0-6-47-10-120-10s-120 4-120 10 47 10 120 10 120-4 120-10zm0-40c0-6-47-10-120-10s-120 4-120 10 47 10 120 10 120-4 120-10z"/><path d="M1065 1421c-84-39-135-120-135-213 1-164 172-274 320-207 92 42 134 107 134 209 0 77-25 133-79 178-65 53-166 67-240 33zm211-56c71-54 95-164 55-243-22-42-43-63-88-86-50-25-63-21-63 18 0 28 5 36 30 46 29 12 75 59 66 67-2 2-27 10-55 18l-51 13v-104c0-63-4-104-10-104s-10 45-10 115c0 63 3 115 8 115 4 0 32-7 62-15s56-15 58-15c1 0 2 16 2 36 0 29-8 44-36 70-30 29-43 34-82 34-27 0-57-7-70-16-21-15-25-15-43 2-36 32-16 61 55 80 56 14 130 1 172-31z"/><path d="M1298 1153c7-3 16-2 19 1 4 3-2 6-13 5-11 0-14-3-6-6zm-808-123c0-6 90-10 251-10 164 0 248 3 244 10-4 6-98 10-251 10-156 0-244-4-244-10zm845 0c-4-6 13-10 44-10 28 0 51 5 51 10 0 6-20 10-44 10-25 0-48-4-51-10zM490 690V380h24c15 0 26 7 29 20 7 26 27 26 27-1 0-16 5-20 28-17 15 2 27 9 27 17s6 16 13 18c7 3 12-4 12-16 0-16 6-21 29-21 21 0 28 5 27 16 0 9 5 19 12 21 7 3 12-4 12-16 0-29 46-29 55-1 8 26 25 26 25 0 0-14 7-20 24-20 15 0 26 7 29 20 7 26 27 26 27-1 0-16 5-20 28-17 15 2 27 9 27 17s6 16 13 19c7 2 12-5 12-17 0-16 6-21 29-21 21 0 28 5 27 16 0 9 5 19 12 21 7 3 12-4 12-16 0-29 45-29 53 0 6 23 27 17 27-7 0-23 47-18 53 6 7 26 27 26 27-1 0-16 5-20 28-17 15 2 27 9 27 17s6 16 13 18c7 3 12-4 12-16 0-16 6-21 29-21 21 0 28 5 27 16 0 9 5 19 12 21 7 3 12-4 12-16 0-15 6-21 24-21 21 0 24 5 29 47 2 27 5 166 6 311l2 262h-71c-45 0-82-6-102-16-52-27-126-29-188-5-51 19-75 21-317 21H490V690zm218 160c1-27-3-30-29-30s-29 3-29 30c0 26 4 30 28 30 25 0 29-4 30-30zm2-80c0-27-3-30-30-30s-30 3-30 30 3 30 30 30 30-3 30-30zm0-80c0-27-3-30-30-30s-30 3-30 30 3 30 30 30 30-3 30-30zm171-27c13-16 12-17-3-4-10 7-18 15-18 17 0 8 8 3 21-13zm-173-55c3-25 0-28-27-28-28 0-31 3-31 31 0 27 3 30 28 27 21-2 28-9 30-30zM567 433c-4-3-10-3-14 0-3 4 0 7 7 7s10-3 7-7z"/></g><g fill="#1dbfed"><path d="M0 930V0h1920v1860H0V930zm1264 505c48-23 91-66 119-119 30-57 30-155-1-213l-22-43h90V360h-40c-29 0-40-4-40-15 0-8-4-15-10-15-5 0-10 7-10 15 0 10-10 15-30 15s-30-5-30-15c0-8-4-15-10-15-5 0-10 7-10 15 0 10-10 15-30 15s-30-5-30-15c0-8-4-15-10-15-5 0-10 7-10 15 0 10-10 15-30 15s-30-5-30-15c0-8-4-15-10-15-5 0-10 7-10 15 0 10-10 15-30 15s-30-5-30-15c0-8-4-15-10-15-5 0-10 7-10 15 0 10-10 15-30 15s-30-5-30-15c0-8-4-15-10-15-5 0-10 7-10 15 0 10-10 15-30 15s-30-5-30-15c0-8-4-15-10-15-5 0-10 7-10 15 0 10-10 15-30 15s-30-5-30-15c0-8-4-15-10-15-5 0-10 7-10 15 0 10-10 15-30 15s-30-5-30-15c0-8-4-15-10-15-5 0-10 7-10 15 0 10-10 15-30 15s-30-5-30-15c0-8-4-15-10-15-5 0-10 7-10 15 0 10-10 15-30 15s-30-5-30-15c0-8-4-15-10-15-5 0-10 7-10 15 0 11-11 15-40 15h-40v700h489l-22 38c-17 29-22 53-22 112 0 64 4 82 28 122 31 53 79 93 134 114 47 18 138 12 187-11zm-754-45c0-13-5-18-15-14-8 4-15 12-15 20s7 14 15 14 15-9 15-20zm80 5c0-8-7-15-15-15-26 0-18 20 13 29 1 1 2-6 2-14zm270-82c0-17-6-23-23-23-19 0-23 5-21 23 1 12 3 22 3 22 1 1 10 1 21 1 14 0 20-7 20-23zm-180-63c0-6-27-10-60-10s-60 4-60 10 27 10 60 10 60-4 60-10zm120-40c0-6-47-10-120-10s-120 4-120 10 47 10 120 10 120-4 120-10zm0-40c0-6-47-10-120-10s-120 4-120 10 47 10 120 10 120-4 120-10zm0-40c0-6-47-10-120-10s-120 4-120 10 47 10 120 10 120-4 120-10z"/><path d="M1065 1421c-84-39-135-120-135-213 1-164 172-274 320-207 92 42 134 107 134 209 0 77-25 133-79 178-65 53-166 67-240 33zm135-22c122-28 188-166 131-277-28-55-92-102-141-102-11 0-20-7-20-15s-4-15-10-15-10 45-10 115c0 63 3 115 8 115 4 0 32-7 62-15s56-15 58-15c1 0 2 11 2 25 0 35-24 79-54 99-32 21-105 21-134 0-21-15-25-15-43 2-10 9-19 22-19 29 0 26 52 53 120 64 3 0 25-4 50-10z"/><path d="M1170 1145c0-32 4-55 10-55 22 0 68 30 83 54l17 25-43 11c-23 6-48 13-54 15-9 3-13-11-13-50zm-680-115c0-6 90-10 251-10 164 0 248 3 244 10-4 6-98 10-251 10-156 0-244-4-244-10zm845 0c-4-6 13-10 44-10 28 0 51 5 51 10 0 6-20 10-44 10-25 0-48-4-51-10zM492 688c1-172 3-289 5-260l4 52h929v520h-70c-45 0-82-6-102-16-52-27-126-29-188-5-51 19-75 21-317 21H490l2-312zm218 162c0-27-3-30-30-30s-30 3-30 30 3 30 30 30 30-3 30-30zm0-80c0-27-3-30-30-30s-30 3-30 30 3 30 30 30 30-3 30-30zm420-37c0-4-11 4-24 16-16 15-29 20-38 15-10-6-10-4 1 9 13 16 15 15 37-8 13-15 24-29 24-32zm-420-43c0-27-3-30-30-30s-30 3-30 30 3 30 30 30 30-3 30-30zm161-17l24-28-27 24c-16 13-32 20-39 16-8-5-10-4-5 3 11 18 20 15 47-15zm-161-63c0-27-3-30-30-30s-30 3-30 30 3 30 30 30 30-3 30-30zm544 2c2-4-4-8-14-8s-16 4-14 8c3 4 9 8 14 8s11-4 14-8zm30-28c3-8 2-12-4-9s-10 10-10 16c0 14 7 11 14-7z"/><path d="M625 430c3-5 8-10 11-10s2 5-1 10c-3 6-8 10-11 10s-2-4 1-10zm251 1c-4-6-2-11 3-11 6 0 12-10 12-22 1-17 3-18 6-6 6 23-12 55-21 39zm69-1c3-5 8-10 11-10 2 0 4 5 4 10 0 6-5 10-11 10-5 0-7-4-4-10zm170 0c-3-5-1-10 4-10 6 0 11 5 11 10 0 6-2 10-4 10-3 0-8-4-11-10zm80 0c-3-5-1-10 4-10 6 0 11 5 11 10 0 6-2 10-4 10-3 0-8-4-11-10zm75 0c0-7 3-10 7-7 3 4 3 10 0 14-4 3-7 0-7-7zm-557-7c4-3 10-3 14 0 3 4 0 7-7 7s-10-3-7-7zm80 0c4-3 10-3 14 0 3 4 0 7-7 7s-10-3-7-7zm181-8c-3-8-4-20-2-27 3-7 7-1 10 15 6 29 1 36-8 12zm54 8c7-3 16-2 19 1 4 3-2 6-13 5-11 0-14-3-6-6zm320 0c7-3 16-2 19 1 4 3-2 6-13 5-11 0-14-3-6-6zm-776-23c0-14 2-19 5-12 2 6 2 18 0 25-3 6-5 1-5-13zm79-6c0-11 3-14 6-6 3 7 2 16-1 19-3 4-6-2-5-13zm79 3c0-10 8-17 18-17 9 0 13 4 7 8-5 4-13 11-17 16-5 5-8 2-8-7zm81-3c0-11 3-14 6-6 3 7 2 16-1 19-3 4-6-2-5-13zm240 0c0-11 3-14 6-6 3 7 2 16-1 19-3 4-6-2-5-13zm80 0c0-11 3-14 6-6 3 7 2 16-1 19-3 4-6-2-5-13zm80 0c0-11 3-14 6-6 3 7 2 16-1 19-3 4-6-2-5-13zm80 0c0-11 3-14 6-6 3 7 2 16-1 19-3 4-6-2-5-13zm80 0c0-11 3-14 6-6 3 7 2 16-1 19-3 4-6-2-5-13zm-361-4c0-7 3-10 7-7 3 4 3 10 0 14-4 3-7 0-7-7zm-487-7c4-3 10-3 14 0 3 4 0 7-7 7s-10-3-7-7zm320 0c4-3 10-3 14 0 3 4 0 7-7 7s-10-3-7-7zm320 0c4-3 10-3 14 0 3 4 0 7-7 7s-10-3-7-7z"/></g><g fill="#34c5eb"><path d="M0 930V0h1920v1860H0V930zm1264 505c48-23 91-66 119-119 30-57 30-155-1-213l-22-43h90V360h-40c-29 0-40-4-40-15 0-8-4-15-10-15-5 0-10 7-10 15 0 10-10 15-30 15s-30-5-30-15c0-8-4-15-10-15-5 0-10 7-10 15 0 10-10 15-30 15s-30-5-30-15c0-8-4-15-10-15-5 0-10 7-10 15 0 10-10 15-30 15s-30-5-30-15c0-8-4-15-10-15-5 0-10 7-10 15 0 10-10 15-30 15s-30-5-30-15c0-8-4-15-10-15-5 0-10 7-10 15 0 10-10 15-30 15s-30-5-30-15c0-8-4-15-10-15-5 0-10 7-10 15 0 10-10 15-30 15s-30-5-30-15c0-8-4-15-10-15-5 0-10 7-10 15 0 10-10 15-30 15s-30-5-30-15c0-8-4-15-10-15-5 0-10 7-10 15 0 10-10 15-30 15s-30-5-30-15c0-8-4-15-10-15-5 0-10 7-10 15 0 10-10 15-30 15s-30-5-30-15c0-8-4-15-10-15-5 0-10 7-10 15 0 10-10 15-30 15s-30-5-30-15c0-8-4-15-10-15-5 0-10 7-10 15 0 11-11 15-40 15h-40v700h489l-22 38c-17 29-22 53-22 112 0 64 4 82 28 122 31 53 79 93 134 114 47 18 138 12 187-11zm-749-45c0-8-8-16-17-18-13-2-18 3-18 18s5 20 18 18c9-2 17-10 17-18zm75 0c0-13-5-18-15-14-8 4-15 12-15 20s7 14 15 14 15-9 15-20zm270-77c0-17-6-23-23-23-19 0-23 5-21 23 1 12 3 22 3 22 1 1 10 1 21 1 14 0 20-7 20-23zm-180-63c0-6-27-10-60-10s-60 4-60 10 27 10 60 10 60-4 60-10zm120-40c0-6-47-10-120-10s-120 4-120 10 47 10 120 10 120-4 120-10zm0-40c0-6-47-10-120-10s-120 4-120 10 47 10 120 10 120-4 120-10zm0-40c0-6-47-10-120-10s-120 4-120 10 47 10 120 10 120-4 120-10z"/><path d="M1065 1421c-84-39-135-120-135-213 1-164 172-274 320-207 92 42 134 107 134 209 0 77-25 133-79 178-65 53-166 67-240 33zm185-36c64-34 101-98 102-176 0-88-66-173-144-186-23-3-38-11-38-19s-4-14-10-14-10 45-10 115c0 63 3 115 8 115 4 0 32-7 62-15s56-15 58-15c1 0 2 11 2 25 0 35-24 79-54 99-32 21-105 21-135 0-22-16-24-15-50 10l-26 27 25 19c52 39 150 46 210 15z"/><path d="M1170 1144c0-31 4-54 10-54 22 0 70 31 81 51 13 26 6 33-48 47l-43 10v-54zm-680-114c0-6 90-10 251-10 164 0 248 3 244 10-4 6-98 10-251 10-156 0-244-4-244-10zm845 0c-4-6 13-10 44-10 28 0 51 5 51 10 0 6-20 10-44 10-25 0-48-4-51-10zM490 743V485l470 3 470 2v510h-70c-45 0-82-6-102-16-52-27-126-29-188-5-51 19-75 21-317 21H490V743zm220 107c0-27-3-30-30-30s-30 3-30 30 3 30 30 30 30-3 30-30zm0-80c0-27-3-30-30-30s-30 3-30 30 3 30 30 30 30-3 30-30zm420-33c0-6-11 0-24 12-16 15-29 20-38 15-10-6-10-4 1 9 13 17 15 16 38-4 12-13 23-27 23-32zm-420-47c0-27-3-30-30-30s-30 3-30 30 3 30 30 30 30-3 30-30zm161-17l24-28-27 24c-16 13-32 20-39 16-8-5-10-4-5 3 11 18 20 15 47-15zm-161-63c0-27-3-30-30-30s-30 3-30 30 3 30 30 30 30-3 30-30zm580-33c0-6-11 0-24 12-16 15-29 20-38 15-10-6-10-4 1 9 13 17 15 16 38-4 12-13 23-27 23-32z"/></g><g fill="#9ba6aa"><path d="M0 930V0h1920v1860H0V930zm1264 505c48-23 91-66 119-119 30-57 30-155-1-213l-22-43h90V360h-40c-29 0-40-4-40-15 0-8-4-15-10-15-5 0-10 7-10 15 0 10-10 15-30 15s-30-5-30-15c0-8-4-15-10-15-5 0-10 7-10 15 0 10-10 15-30 15s-30-5-30-15c0-8-4-15-10-15-5 0-10 7-10 15 0 10-10 15-30 15s-30-5-30-15c0-8-4-15-10-15-5 0-10 7-10 15 0 10-10 15-30 15s-30-5-30-15c0-8-4-15-10-15-5 0-10 7-10 15 0 10-10 15-30 15s-30-5-30-15c0-8-4-15-10-15-5 0-10 7-10 15 0 10-10 15-30 15s-30-5-30-15c0-8-4-15-10-15-5 0-10 7-10 15 0 10-10 15-30 15s-30-5-30-15c0-8-4-15-10-15-5 0-10 7-10 15 0 10-10 15-30 15s-30-5-30-15c0-8-4-15-10-15-5 0-10 7-10 15 0 10-10 15-30 15s-30-5-30-15c0-8-4-15-10-15-5 0-10 7-10 15 0 10-10 15-30 15s-30-5-30-15c0-8-4-15-10-15-5 0-10 7-10 15 0 11-11 15-40 15h-40v700h489l-22 38c-17 29-22 53-22 112 0 64 4 82 28 122 31 53 79 93 134 114 47 18 138 12 187-11zm-746-42c-5-26-38-29-38-4 0 15 6 21 21 21 14 0 19-5 17-17zm77-3c0-8-8-16-17-18-13-2-18 3-18 18s5 20 18 18c9-2 17-10 17-18zm265-77c0-17-6-23-23-23-19 0-23 5-21 23 1 12 3 22 3 22 1 1 10 1 21 1 14 0 20-7 20-23zm-180-63c0-6-27-10-60-10s-60 4-60 10 27 10 60 10 60-4 60-10zm120-40c0-6-47-10-120-10s-120 4-120 10 47 10 120 10 120-4 120-10zm0-40c0-6-47-10-120-10s-120 4-120 10 47 10 120 10 120-4 120-10zm0-40c0-6-47-10-120-10s-120 4-120 10 47 10 120 10 120-4 120-10z"/><path d="M1065 1421c-84-39-135-120-135-213 1-164 172-274 320-207 92 42 134 107 134 209 0 77-25 133-79 178-65 53-166 67-240 33zm148-22c114-31 175-173 121-280-20-40-79-87-124-99-22-6-40-15-40-20 0-6-4-10-10-10s-10 45-10 115c0 63 3 115 8 115 4 0 32-7 62-15s56-15 58-15c1 0 2 11 2 25 0 88-102 143-184 100-28-15-31-15-55 10l-26 27 24 16c56 40 110 49 174 31z"/><path d="M1170 1144c0-32 4-54 11-54 18 0 65 31 78 52 16 25 8 32-46 46l-43 10v-54zm-680-114c0-6 90-10 251-10 164 0 248 3 244 10-4 6-98 10-251 10-156 0-244-4-244-10zm845 0c-4-6 13-10 44-10 28 0 51 5 51 10 0 6-20 10-44 10-25 0-48-4-51-10zM490 745V490h940v510h-70c-45 0-82-6-102-16-52-27-126-29-188-5-51 19-75 21-317 21H490V745zm220 105c0-27-3-30-30-30s-30 3-30 30 3 30 30 30 30-3 30-30zm0-80c0-27-3-30-30-30s-30 3-30 30 3 30 30 30 30-3 30-30zm405-10c16-16 24-30 18-30-5 0-18 9-28 20-13 14-25 18-39 14-18-6-19-5-7 10 18 22 23 21 56-14zm-405-70c0-27-3-30-30-30s-30 3-30 30 3 30 30 30 30-3 30-30zm185-38c-3-3-16 5-29 17-16 15-29 20-38 15-11-6-11-5 0 8 12 15 16 14 43-9 16-15 27-29 24-31zm-185-42c0-27-3-30-30-30s-30 3-30 30 3 30 30 30 30-3 30-30zm557-2c13-12 23-26 23-31 0-6-11 0-24 12-14 13-29 20-35 16-12-7-15 7-4 18 10 11 15 9 40-15z"/></g><g fill="#92b9c7"><path d="M0 930V0h1920v1860H0V930zm1268 506c123-64 174-215 112-336l-20-40h90V360h-40c-29 0-40-4-40-15 0-8-4-15-10-15-5 0-10 7-10 15 0 10-10 15-30 15s-30-5-30-15c0-8-4-15-10-15-5 0-10 7-10 15 0 10-10 15-30 15s-30-5-30-15c0-8-4-15-10-15-5 0-10 7-10 15 0 10-10 15-30 15s-30-5-30-15c0-8-4-15-10-15-5 0-10 7-10 15 0 10-10 15-30 15s-30-5-30-15c0-8-4-15-10-15-5 0-10 7-10 15 0 10-10 15-30 15s-30-5-30-15c0-8-4-15-10-15-5 0-10 7-10 15 0 10-10 15-30 15s-30-5-30-15c0-8-4-15-10-15-5 0-10 7-10 15 0 10-10 15-30 15s-30-5-30-15c0-8-4-15-10-15-5 0-10 7-10 15 0 10-10 15-30 15s-30-5-30-15c0-8-4-15-10-15-5 0-10 7-10 15 0 10-10 15-30 15s-30-5-30-15c0-8-4-15-10-15-5 0-10 7-10 15 0 10-10 15-30 15s-30-5-30-15c0-8-4-15-10-15-5 0-10 7-10 15 0 11-11 15-40 15h-40v700h487l-23 47c-64 125 5 288 142 339 49 18 148 13 192-10zm-750-43c-5-26-38-29-38-4 0 15 6 21 21 21 14 0 19-5 17-17zm77-3c0-8-8-16-17-18-13-2-18 3-18 18s5 20 18 18c9-2 17-10 17-18zm265-77c0-17-6-23-23-23-19 0-23 5-21 23 1 12 3 22 3 22 1 1 10 1 21 1 14 0 20-7 20-23zm-180-63c0-6-27-10-60-10s-60 4-60 10 27 10 60 10 60-4 60-10zm120-40c0-6-47-10-120-10s-120 4-120 10 47 10 120 10 120-4 120-10zm0-40c0-6-47-10-120-10s-120 4-120 10 47 10 120 10 120-4 120-10zm0-40c0-6-47-10-120-10s-120 4-120 10 47 10 120 10 120-4 120-10z"/><path d="M1080 1427c-53-17-126-93-140-147-56-211 161-376 343-260 80 51 122 156 98 246-35 129-171 202-301 161zm133-28c114-31 175-173 121-280-20-40-79-87-124-99-22-6-40-15-40-20 0-6-4-10-10-10s-10 45-10 115c0 63 3 115 8 115 4 0 32-7 62-15s56-15 58-15c1 0 2 11 2 25 0 88-102 143-184 100-28-15-31-15-55 10l-26 27 24 16c56 40 110 49 174 31z"/><path d="M1170 1144c0-32 4-54 11-54 18 0 65 31 78 52 16 25 8 32-46 46l-43 10v-54zm-680-114c0-6 90-10 251-10 164 0 248 3 244 10-4 6-98 10-251 10-156 0-244-4-244-10zm845 0c-4-6 13-10 44-10 28 0 51 5 51 10 0 6-20 10-44 10-25 0-48-4-51-10zM490 745V490h940v510h-68c-46 0-80-6-103-17-46-24-162-24-206 0-28 15-66 17-298 17H490V745zm220 105c0-27-3-30-30-30s-30 3-30 30 3 30 30 30 30-3 30-30zm0-80c0-27-3-30-30-30s-30 3-30 30 3 30 30 30 30-3 30-30zm405-10c16-16 24-30 18-30-5 0-18 9-28 20-13 14-25 18-39 14-18-6-19-5-7 10 18 22 23 21 56-14zm-405-70c0-27-3-30-30-30s-30 3-30 30 3 30 30 30 30-3 30-30zm185-38c-3-3-16 5-29 17-16 15-29 20-38 15-11-6-11-5 0 8 12 15 16 14 43-9 16-15 27-29 24-31zm-185-42c0-27-3-30-30-30s-30 3-30 30 3 30 30 30 30-3 30-30zm557-2c13-12 23-26 23-31 0-6-11 0-24 12-14 13-29 20-35 16-12-7-15 7-4 18 10 11 15 9 40-15z"/></g><g fill="#5fcae9"><path d="M0 930V0h1920v1860H0V930zm1268 506c123-64 174-215 112-336l-20-40h90V360h-40c-29 0-40-4-40-15 0-8-4-15-10-15-5 0-10 7-10 15 0 10-10 15-30 15s-30-5-30-15c0-8-4-15-10-15-5 0-10 7-10 15 0 10-10 15-30 15s-30-5-30-15c0-8-4-15-10-15-5 0-10 7-10 15 0 10-10 15-30 15s-30-5-30-15c0-8-4-15-10-15-5 0-10 7-10 15 0 10-10 15-30 15s-30-5-30-15c0-8-4-15-10-15-5 0-10 7-10 15 0 10-10 15-30 15s-30-5-30-15c0-8-4-15-10-15-5 0-10 7-10 15 0 10-10 15-30 15s-30-5-30-15c0-8-4-15-10-15-5 0-10 7-10 15 0 10-10 15-30 15s-30-5-30-15c0-8-4-15-10-15-5 0-10 7-10 15 0 10-10 15-30 15s-30-5-30-15c0-8-4-15-10-15-5 0-10 7-10 15 0 10-10 15-30 15s-30-5-30-15c0-8-4-15-10-15-5 0-10 7-10 15 0 10-10 15-30 15s-30-5-30-15c0-8-4-15-10-15-5 0-10 7-10 15 0 11-11 15-40 15h-40v700h487l-23 47c-64 125 5 288 142 339 49 18 148 13 192-10zm-750-43c-5-26-38-29-38-4 0 15 6 21 21 21 14 0 19-5 17-17zm77-3c0-8-8-16-17-18-13-2-18 3-18 18s5 20 18 18c9-2 17-10 17-18zm265-77c0-17-6-23-23-23-19 0-23 5-21 23 1 12 3 22 3 22 1 1 10 1 21 1 14 0 20-7 20-23zm-180-63c0-6-27-10-60-10s-60 4-60 10 27 10 60 10 60-4 60-10zm120-40c0-6-47-10-120-10s-120 4-120 10 47 10 120 10 120-4 120-10zm0-40c0-6-47-10-120-10s-120 4-120 10 47 10 120 10 120-4 120-10zm0-40c0-6-47-10-120-10s-120 4-120 10 47 10 120 10 120-4 120-10z"/><path d="M1080 1427c-53-17-126-93-140-147-56-211 161-376 343-260 80 51 122 156 98 246-35 129-171 202-301 161zm133-28c114-31 175-173 121-280-20-40-79-87-124-99-22-6-40-15-40-20 0-6-4-10-10-10s-10 45-10 115c0 63 3 115 8 115 4 0 32-7 62-15s56-15 58-15c1 0 2 11 2 25 0 88-102 143-184 100-28-15-31-15-55 10-22 22-24 27-11 40 19 18 87 43 120 44 14 1 42-4 63-10z"/><path d="M1170 1144c0-32 4-54 11-54 18 0 65 31 78 52 16 25 8 32-46 46l-43 10v-54zm-680-114c0-6 90-10 251-10 164 0 248 3 244 10-4 6-98 10-251 10-156 0-244-4-244-10zm845 0c-4-6 13-10 44-10 28 0 51 5 51 10 0 6-20 10-44 10-25 0-48-4-51-10zM490 745V490h940v510h-68c-46 0-80-6-103-17-46-24-162-24-206 0-28 15-66 17-298 17H490V745zm220 110c0-33-2-35-35-35-32 0-35 3-35 28 0 16 3 32 7 35 3 4 19 7 35 7 25 0 28-3 28-35zm2-62c9-38-2-53-38-53-31 0-34 3-34 28 0 36 6 42 41 42 17 0 28-6 31-17zm403-33c19-20 24-30 14-30-8 0-20 9-27 21-9 15-19 18-35 13-19-6-20-5-8 10 18 22 23 21 56-14zm-405-65c0-33-2-35-35-35-32 0-35 3-35 28 0 16 3 32 7 35 3 4 19 7 35 7 25 0 28-3 28-35zm183-47c-3-6-15 2-28 18-15 19-26 25-36 19-12-7-12-6-1 7 12 15 16 15 42-9 16-14 27-30 23-35zm-183-35c0-37-12-47-46-39-18 5-24 13-24 35 0 35 7 42 42 39 24-2 28-6 28-35zm557-5c13-12 23-26 23-31 0-6-11 0-24 12-14 13-29 20-35 16-12-7-15 7-4 18 10 11 15 9 40-15z"/></g><g fill="#b6b7b8"><path d="M0 930V0h1920v1860H0V930zm1268 506c123-64 174-215 112-336l-20-40h90V360h-40c-29 0-40-4-40-15 0-8-4-15-10-15-5 0-10 7-10 15 0 10-10 15-30 15s-30-5-30-15c0-8-4-15-10-15-5 0-10 7-10 15 0 10-10 15-30 15s-30-5-30-15c0-8-4-15-10-15-5 0-10 7-10 15 0 10-10 15-30 15s-30-5-30-15c0-8-4-15-10-15-5 0-10 7-10 15 0 10-10 15-30 15s-30-5-30-15c0-8-4-15-10-15-5 0-10 7-10 15 0 10-10 15-30 15s-30-5-30-15c0-8-4-15-10-15-5 0-10 7-10 15 0 10-10 15-30 15s-30-5-30-15c0-8-4-15-10-15-5 0-10 7-10 15 0 10-10 15-30 15s-30-5-30-15c0-8-4-15-10-15-5 0-10 7-10 15 0 10-10 15-30 15s-30-5-30-15c0-8-4-15-10-15-5 0-10 7-10 15 0 10-10 15-30 15s-30-5-30-15c0-8-4-15-10-15-5 0-10 7-10 15 0 10-10 15-30 15s-30-5-30-15c0-8-4-15-10-15-5 0-10 7-10 15 0 11-11 15-40 15h-40v700h487l-23 47c-64 125 5 288 142 339 49 18 148 13 192-10zm-748-46c0-13-7-20-20-20s-20 7-20 20 7 20 20 20 20-7 20-20zm80 0c0-13-7-20-20-20s-20 7-20 20 7 20 20 20 20-7 20-20zm260-77c0-17-6-23-23-23-19 0-23 5-21 23 1 12 3 22 3 22 1 1 10 1 21 1 14 0 20-7 20-23zm-180-63c0-6-27-10-60-10s-60 4-60 10 27 10 60 10 60-4 60-10zm120-40c0-6-47-10-120-10s-120 4-120 10 47 10 120 10 120-4 120-10zm0-40c0-6-47-10-120-10s-120 4-120 10 47 10 120 10 120-4 120-10zm0-40c0-6-47-10-120-10s-120 4-120 10 47 10 120 10 120-4 120-10z"/><path d="M1080 1427c-53-17-126-93-140-147-56-211 161-376 343-260 80 51 122 156 98 246-35 129-171 202-301 161zm189-50c46-30 91-114 91-167 0-57-45-136-93-164-23-14-54-28-69-31-16-4-28-11-28-16s-4-9-10-9-10 45-10 115c0 63 3 115 8 115 4 0 32-7 62-15s56-15 58-15c11 0-3 54-21 81-39 59-102 75-158 42-29-17-30-17-55 9-31 31-26 43 30 69 56 27 143 20 195-14z"/><path d="M1170 1143c0-52 1-54 23-48 28 8 82 65 70 75-4 4-27 12-50 18l-43 10v-55zm-680-113c0-6 90-10 251-10 164 0 248 3 244 10-4 6-98 10-251 10-156 0-244-4-244-10zm845 0c-4-6 13-10 44-10 28 0 51 5 51 10 0 6-20 10-44 10-25 0-48-4-51-10zM490 745V490h940v510h-68c-46 0-80-6-103-17-46-24-162-24-206 0-28 15-66 17-298 17H490V745zm220 110c0-33-2-35-35-35-32 0-35 3-35 28 0 16 3 32 7 35 3 4 19 7 35 7 25 0 28-3 28-35zm2-62c9-38-2-53-38-53-31 0-34 3-34 28 0 36 6 42 41 42 17 0 28-6 31-17zm403-33c19-20 24-30 14-30-8 0-20 9-27 21-9 15-19 18-35 13-19-6-20-5-8 10 18 22 23 21 56-14zm-405-65c0-33-2-35-35-35-32 0-35 3-35 28 0 16 3 32 7 35 3 4 19 7 35 7 25 0 28-3 28-35zm164-14c15-16 23-32 18-35s-17 6-27 20c-13 21-19 23-31 13-19-16-30-4-14 16 17 21 22 19 54-14zm-164-68c0-37-12-47-46-39-18 5-24 13-24 35 0 35 7 42 42 39 24-2 28-6 28-35zm565-13c16-16 24-30 18-30-5 0-18 9-28 20-13 14-25 18-39 14-18-6-19-5-7 10 18 22 23 21 56-14z"/></g><g fill="#afbdc4"><path d="M0 930V0h1920v1860H0V930zm1284 496c114-67 156-209 98-328l-19-38h87V360h-40c-29 0-40-4-40-15 0-8-4-15-10-15-5 0-10 7-10 15 0 10-10 15-30 15s-30-5-30-15c0-8-4-15-10-15-5 0-10 7-10 15 0 10-10 15-30 15s-30-5-30-15c0-8-4-15-10-15-5 0-10 7-10 15 0 10-10 15-30 15s-30-5-30-15c0-8-4-15-10-15-5 0-10 7-10 15 0 10-10 15-30 15s-30-5-30-15c0-8-4-15-10-15-5 0-10 7-10 15 0 10-10 15-30 15s-30-5-30-15c0-8-4-15-10-15-5 0-10 7-10 15 0 10-10 15-30 15s-30-5-30-15c0-8-4-15-10-15-5 0-10 7-10 15 0 10-10 15-30 15s-30-5-30-15c0-8-4-15-10-15-5 0-10 7-10 15 0 10-10 15-30 15s-30-5-30-15c0-8-4-15-10-15-5 0-10 7-10 15 0 10-10 15-30 15s-30-5-30-15c0-8-4-15-10-15-5 0-10 7-10 15 0 10-10 15-30 15s-30-5-30-15c0-8-4-15-10-15-5 0-10 7-10 15 0 11-11 15-40 15h-40v700h240c132 0 240 2 240 4s-9 23-20 47c-39 86-18 202 48 273 15 16 50 39 77 53 68 33 162 28 229-11zm-764-36c0-13-7-20-20-20s-20 7-20 20 7 20 20 20 20-7 20-20zm80 0c0-13-7-20-20-20s-20 7-20 20 7 20 20 20 20-7 20-20zm260-80c0-21-4-26-22-25-16 1-22 8-21 23 1 29 0 28 23 28 15 0 20-7 20-26zm-180-60c0-6-27-10-60-10s-60 4-60 10 27 10 60 10 60-4 60-10zm120-40c0-6-47-10-120-10s-120 4-120 10 47 10 120 10 120-4 120-10zm0-40c0-6-47-10-120-10s-120 4-120 10 47 10 120 10 120-4 120-10zm0-40c0-6-47-10-120-10s-120 4-120 10 47 10 120 10 120-4 120-10z"/><path d="M1080 1427c-49-16-123-93-138-143-47-158 56-298 218-299 54 0 73 5 113 28 149 88 150 306 3 392-53 31-140 41-196 22zm189-50c46-30 91-114 91-167 0-57-45-136-93-164-23-13-53-27-67-31s-28-13-32-19c-16-25-23 12-20 112 2 59 4 108 6 110 4 3 84-14 109-24 25-9 22 36-6 77-39 59-102 75-158 42-29-17-30-17-55 9-31 31-26 43 30 69 56 27 143 20 195-14z"/><path d="M1170 1143c0-52 1-54 23-48 28 8 82 65 70 75-4 4-27 12-50 18l-43 10v-55zm-680-113c0-6 90-10 251-10 164 0 248 3 244 10-4 6-98 10-251 10-156 0-244-4-244-10zm845 0c-4-6 13-10 45-10s49 4 45 10c-3 6-24 10-45 10s-42-4-45-10zM490 745V490h940v510h-62c-39 0-83-8-116-20-66-25-135-25-191 0-39 18-66 20-307 20H490V745zm222 115c6-37 3-40-39-40-30 0-33 3-33 28 0 36 6 42 41 42 22 0 27-5 31-30zm0-67c9-38-2-53-38-53-31 0-34 3-34 28 0 36 6 42 41 42 17 0 28-6 31-17zm403-33c19-20 24-30 14-30-8 0-20 9-27 21-9 15-19 18-35 13-19-6-20-5-8 10 18 22 23 21 56-14zm-405-65c0-33-2-35-35-35-32 0-35 3-35 28 0 16 3 32 7 35 3 4 19 7 35 7 25 0 28-3 28-35zm164-14c15-16 23-32 18-35s-17 6-27 20c-13 21-19 23-31 13-19-16-30-4-14 16 17 21 22 19 54-14zm-164-68c0-37-12-47-46-39-18 5-24 13-24 35 0 35 7 42 42 39 24-2 28-6 28-35zm565-13c16-16 24-30 18-30-5 0-18 9-28 20-13 14-25 18-39 14-18-6-19-5-7 10 18 22 23 21 56-14z"/></g><g fill="#c8c1bf"><path d="M0 930V0h1920v1860H0V930zm1285 496c112-66 155-209 98-326l-20-40h87V360h-40c-29 0-40-4-40-15 0-8-4-15-10-15-5 0-10 7-10 15 0 10-10 15-30 15s-30-5-30-15c0-8-4-15-10-15-5 0-10 7-10 15 0 10-10 15-30 15s-30-5-30-15c0-8-4-15-10-15-5 0-10 7-10 15 0 10-10 15-30 15s-30-5-30-15c0-8-4-15-10-15-5 0-10 7-10 15 0 10-10 15-30 15s-30-5-30-15c0-8-4-15-10-15-5 0-10 7-10 15 0 10-10 15-30 15s-30-5-30-15c0-8-4-15-10-15-5 0-10 7-10 15 0 10-10 15-30 15s-30-5-30-15c0-8-4-15-10-15-5 0-10 7-10 15 0 10-10 15-30 15s-30-5-30-15c0-8-4-15-10-15-5 0-10 7-10 15 0 10-10 15-30 15s-30-5-30-15c0-8-4-15-10-15-5 0-10 7-10 15 0 10-10 15-30 15s-30-5-30-15c0-8-4-15-10-15-5 0-10 7-10 15 0 10-10 15-30 15s-30-5-30-15c0-8-4-15-10-15-5 0-10 7-10 15 0 11-11 15-40 15h-40v700h240c132 0 240 2 240 4s-9 23-20 47c-39 86-18 202 48 273 15 16 50 39 77 53 68 33 162 28 230-11zm-765-36c0-13-7-20-20-20s-20 7-20 20 7 20 20 20 20-7 20-20zm80 0c0-13-7-20-20-20s-20 7-20 20 7 20 20 20 20-7 20-20zm260-80c0-21-4-26-22-25-16 1-22 8-21 23 1 29 0 28 23 28 15 0 20-7 20-26zm-180-60c0-6-27-10-60-10s-60 4-60 10 27 10 60 10 60-4 60-10zm120-40c0-6-47-10-120-10s-120 4-120 10 47 10 120 10 120-4 120-10zm0-40c0-6-47-10-120-10s-120 4-120 10 47 10 120 10 120-4 120-10zm0-40c0-6-47-10-120-10s-120 4-120 10 47 10 120 10 120-4 120-10z"/><path d="M1080 1427c-49-16-123-93-138-143-47-158 56-298 218-299 54 0 73 5 113 28 149 88 150 306 3 392-53 31-140 41-196 22zm189-50c46-30 91-114 91-167 0-57-45-136-93-164-23-13-53-27-67-31s-28-13-32-19c-16-25-23 12-20 112 2 59 4 108 6 110 4 3 84-14 109-24 25-9 22 36-6 77-39 59-102 75-158 42-29-17-30-17-55 9-31 31-26 43 30 69 56 27 143 20 195-14z"/><path d="M1170 1143c0-52 1-54 23-48 28 8 82 65 70 75-4 4-27 12-50 18l-43 10v-55zm-680-113c0-6 90-10 251-10 164 0 248 3 244 10-4 6-98 10-251 10-156 0-244-4-244-10zm845 0c-4-6 13-10 45-10s49 4 45 10c-3 6-24 10-45 10s-42-4-45-10zM490 745V490h940v510h-62c-39 0-83-8-116-20-66-25-135-25-191 0-39 18-66 20-307 20H490V745zm227-17l1-158h-76v161l-1 160 37-3 37-3 2-157zm396 36c15-15 24-31 20-37-3-6-14 1-26 17-14 20-24 25-40 20-19-6-20-5-8 10 18 22 24 20 54-10zm-239-83c15-16 23-32 18-35s-17 6-27 20c-13 21-19 23-31 13-19-16-30-4-14 16 17 21 22 19 54-14zm400-78c17-16 23-29 16-31-6-2-18 5-27 17-11 16-21 20-36 15-19-6-20-5-8 10 18 22 24 21 55-11z"/></g><g fill="#b8c8cb"><path d="M0 930V0h1920v1860H0V930zm1268 504c124-62 176-210 115-333l-20-41h87V360h-40c-29 0-40-4-40-15 0-8-4-15-10-15-5 0-10 7-10 15 0 10-10 15-30 15s-30-5-30-15c0-8-4-15-10-15-5 0-10 7-10 15 0 10-10 15-30 15s-30-5-30-15c0-8-4-15-10-15-5 0-10 7-10 15 0 10-10 15-30 15s-30-5-30-15c0-8-4-15-10-15-5 0-10 7-10 15 0 10-10 15-30 15s-30-5-30-15c0-8-4-15-10-15-5 0-10 7-10 15 0 10-10 15-30 15s-30-5-30-15c0-8-4-15-10-15-5 0-10 7-10 15 0 10-10 15-30 15s-30-5-30-15c0-8-4-15-10-15-5 0-10 7-10 15 0 10-10 15-30 15s-30-5-30-15c0-8-4-15-10-15-5 0-10 7-10 15 0 10-10 15-30 15s-30-5-30-15c0-8-4-15-10-15-5 0-10 7-10 15 0 10-10 15-30 15s-30-5-30-15c0-8-4-15-10-15-5 0-10 7-10 15 0 10-10 15-30 15s-30-5-30-15c0-8-4-15-10-15-5 0-10 7-10 15 0 11-11 15-40 15h-40v700h240c132 0 240 2 240 4s-9 23-20 47c-38 84-22 190 39 260 74 87 198 113 299 63zm-748-44c0-13-7-20-20-20s-20 7-20 20 7 20 20 20 20-7 20-20zm80 0c0-13-7-20-20-20s-20 7-20 20 7 20 20 20 20-7 20-20zm70 0c0-5-7-10-15-10s-15 5-15 10c0 6 7 10 15 10s15-4 15-10zm194-81c0-18-5-23-23-23s-24 6-27 26c-2 23 1 26 24 24 20-3 26-9 26-27zm-184-59c0-6-27-10-60-10s-60 4-60 10 27 10 60 10 60-4 60-10zm120-40c0-6-48-10-125-10s-125 4-125 10 48 10 125 10 125-4 125-10zm0-40c0-6-48-10-125-10s-125 4-125 10 48 10 125 10 125-4 125-10zm0-40c0-6-48-10-125-10s-125 4-125 10 48 10 125 10 125-4 125-10z"/><path d="M1088 1426c-101-37-158-118-158-220 0-46 30-119 63-154 57-61 154-84 237-57 145 48 201 220 115 348-52 76-173 115-257 83zm181-49c46-30 91-114 91-167 0-57-45-136-93-164-23-13-53-27-67-31s-28-13-32-19c-19-27-28 23-22 119 4 55 8 101 9 103 2 2 30-3 64-11 58-14 61-13 61 5 0 51-50 106-104 115-88 14-163-69-136-151 11-33 60-86 81-86 5 0 9-16 9-36 0-34-1-36-27-30-70 17-134 98-136 172-2 62 10 107 25 98 7-4 8-3 4 4-11 18 35 73 79 94 55 26 142 19 194-15z"/><path d="M1020 1326c0-2 7-7 16-10 8-3 12-2 9 4-6 10-25 14-25 6zm6-38c3-5 10-6 15-3 13 9 11 12-6 12-8 0-12-4-9-9zm144-149c0-47 1-50 23-44 12 4 35 21 51 38l29 31-29 13c-16 6-39 12-51 13-21 0-23-5-23-51zm-175-9c3-5 8-10 11-10s2 5-1 10c-3 6-8 10-11 10s-2-4 1-10zm-505-100c0-6 99-10 253-10 163 0 247 4 237 10-20 13-490 12-490 0zm845 0c-4-6 12-10 39-10 25 0 46 5 46 10 0 6-18 10-39 10-22 0-43-4-46-10zM490 745V490h940v510h-62c-39 0-83-8-116-20-66-25-135-25-191 0-39 18-66 20-307 20H490V745zm227-17l2-158h-78l1 161v160l36-3 37-3 2-157zm90 155c-4-3-10-3-14 0-3 4 0 7 7 7s10-3 7-7zm80 0c-4-3-10-3-14 0-3 4 0 7 7 7s10-3 7-7zm80 0c-4-3-10-3-14 0-3 4 0 7 7 7s10-3 7-7zm80 0c-4-3-10-3-14 0-3 4 0 7 7 7s10-3 7-7zm80 0c-4-3-10-3-14 0-3 4 0 7 7 7s10-3 7-7zm-85-85c-9-9-12-7-12 12s3 21 12 12 9-15 0-24zm83 22c3-5 1-10-4-10-6 0-11 5-11 10 0 6 2 10 4 10 3 0 8-4 11-10zm-328-17c-4-3-7 0-7 7s3 10 7 7c3-4 3-10 0-14zm93 13c0-3-4-8-10-11-5-3-10-1-10 4 0 6 5 11 10 11 6 0 10-2 10-4zm80 0c0-3-4-8-10-11-5-3-10-1-10 4 0 6 5 11 10 11 6 0 10-2 10-4zm237-3c-4-3-10-3-14 0-3 4 0 7 7 7s10-3 7-7zm70-10c-4-3-7 0-7 7s3 10 7 7c3-4 3-10 0-14zm-147-58c5-6 2-19-6-29-13-19-14-19-14 6 0 31-21 51-46 42-18-6-18-6-2 11 14 15 20 16 32 5 14-10 16-9 17 6 1 13 3 10 6-6 3-14 9-30 13-35zm147-12c-3-10-5-2-5 17s2 27 5 18c2-10 2-26 0-35zm-392 8c3-5 1-12-5-16-5-3-10 1-10 9 0 18 6 21 15 7zm-88-18c-4-3-7 0-7 7s3 10 7 7c3-4 3-10 0-14zm160 0c-4-3-7 0-7 7s3 10 7 7c3-4 3-10 0-14zm90 10c-4-3-10-3-14 0-3 4 0 7 7 7s10-3 7-7zm150-10c-4-3-7 0-7 7s3 10 7 7c3-4 3-10 0-14zm-341-24c4-8 9-7 16 2 8 11 9 10 5-3-3-9 1-22 8-28 8-7 12-16 9-21-8-13-24-11-24 4 0 23-22 38-37 25-18-15-29-2-13 17 15 18 26 19 36 4zm-59-16c-4-3-7 0-7 7s3 10 7 7c3-4 3-10 0-14zm173-27c0-3-4-8-10-11-5-3-10-1-10 4 0 6 5 11 10 11 6 0 10-2 10-4zm80 0c0-3-4-8-10-11-5-3-10-1-10 4 0 6 5 11 10 11 6 0 10-2 10-4zm80 0c0-3-4-8-10-11-5-3-10-1-10 4 0 6 5 11 10 11 6 0 10-2 10-4zm67-18c-3-8-6-5-6 6-1 11 2 17 5 13 3-3 4-12 1-19zm80 0c-3-8-6-5-6 6-1 11 2 17 5 13 3-3 4-12 1-19zm-470 5c-4-3-10-3-14 0-3 4 0 7 7 7s10-3 7-7zm467-40c17-16 23-29 16-31-6-2-18 5-27 17-11 16-21 20-36 15-19-6-20-5-8 10 18 22 24 21 55-11zm-467-30c-4-3-10-3-14 0-3 4 0 7 7 7s10-3 7-7zm80 0c-4-3-10-3-14 0-3 4 0 7 7 7s10-3 7-7zm80 0c-4-3-10-3-14 0-3 4 0 7 7 7s10-3 7-7zm80 0c-4-3-10-3-14 0-3 4 0 7 7 7s10-3 7-7zm80 0c-4-3-10-3-14 0-3 4 0 7 7 7s10-3 7-7zm80 0c-4-3-10-3-14 0-3 4 0 7 7 7s10-3 7-7z"/></g><g fill="#ccc"><path d="M0 930V0h1920v1860H0V930zm1268 504c124-62 176-210 115-333l-20-41h87V360h-40c-29 0-40-4-40-15 0-8-4-15-10-15-5 0-10 7-10 15 0 10-10 15-30 15s-30-5-30-15c0-8-4-15-10-15-5 0-10 7-10 15 0 10-10 15-30 15s-30-5-30-15c0-8-4-15-10-15-5 0-10 7-10 15 0 10-10 15-30 15s-30-5-30-15c0-8-4-15-10-15-5 0-10 7-10 15 0 10-10 15-30 15s-30-5-30-15c0-8-4-15-10-15-5 0-10 7-10 15 0 10-10 15-30 15s-30-5-30-15c0-8-4-15-10-15-5 0-10 7-10 15 0 10-10 15-30 15s-30-5-30-15c0-8-4-15-10-15-5 0-10 7-10 15 0 10-10 15-30 15s-30-5-30-15c0-8-4-15-10-15-5 0-10 7-10 15 0 10-10 15-30 15s-30-5-30-15c0-8-4-15-10-15-5 0-10 7-10 15 0 10-10 15-30 15s-30-5-30-15c0-8-4-15-10-15-5 0-10 7-10 15 0 10-10 15-30 15s-30-5-30-15c0-8-4-15-10-15-5 0-10 7-10 15 0 11-11 15-40 15h-40v700h240c132 0 240 2 240 4s-9 23-20 47c-38 84-22 190 39 260 74 87 198 113 299 63zm-748-44c0-13-7-20-20-20s-20 7-20 20 7 20 20 20 20-7 20-20zm80 0c0-13-7-20-20-20s-20 7-20 20 7 20 20 20 20-7 20-20zm70 0c0-5-7-10-15-10s-15 5-15 10c0 6 7 10 15 10s15-4 15-10zm194-81c0-18-5-23-23-23s-24 6-27 26c-2 23 1 26 24 24 20-3 26-9 26-27zm-184-59c0-6-27-10-60-10s-60 4-60 10 27 10 60 10 60-4 60-10zm120-40c0-6-48-10-125-10s-125 4-125 10 48 10 125 10 125-4 125-10zm0-40c0-6-48-10-125-10s-125 4-125 10 48 10 125 10 125-4 125-10zm0-40c0-6-48-10-125-10s-125 4-125 10 48 10 125 10 125-4 125-10z"/><path d="M1088 1426c-101-37-158-118-158-220 0-46 30-119 63-154 57-61 154-84 237-57 145 48 201 220 115 348-52 76-173 115-257 83zm181-49c46-30 91-114 91-167 0-57-45-136-93-164-23-13-53-27-67-31s-28-13-32-19c-19-27-28 23-22 119 4 55 8 101 9 103 2 2 30-3 64-11 61-14 61-14 61 8 0 29-39 87-70 102-64 32-150-6-171-76-10-33-9-45 7-78 11-21 33-47 51-58 26-16 32-27 33-54 0-31-2-33-27-27-70 17-134 98-136 172-2 62 10 107 25 98 7-4 8-3 4 4-11 18 35 73 79 94 55 26 142 19 194-15z"/><path d="M1023 1323c4-3 10-3 14 0 3 4 0 7-7 7s-10-3-7-7zm147-184c0-47 1-50 23-44 12 4 35 21 51 38l29 31-29 13c-16 6-39 12-51 13-21 0-23-5-23-51zm-175-9c3-5 8-10 11-10s2 5-1 10c-3 6-8 10-11 10s-2-4 1-10zm-505-100c0-6 99-10 253-10 163 0 247 4 237 10-20 13-490 12-490 0zm845 0c-4-6 12-10 39-10 25 0 46 5 46 10 0 6-18 10-39 10-22 0-43-4-46-10zM490 745V490h940v510h-65c-42 0-78-6-98-16-53-28-146-30-202-5-45 20-64 21-311 21H490V745zm231 108c1-21 1-55 0-75-2-26 1-38 11-38s10-2 0-8c-8-6-11-32-10-85l3-77h-85v320h40c39 0 40-1 41-37zm86 30c-4-3-10-3-14 0-3 4 0 7 7 7s10-3 7-7zm80 0c-4-3-10-3-14 0-3 4 0 7 7 7s10-3 7-7zm80 0c-4-3-10-3-14 0-3 4 0 7 7 7s10-3 7-7zm80 0c-4-3-10-3-14 0-3 4 0 7 7 7s10-3 7-7zm80 0c-4-3-10-3-14 0-3 4 0 7 7 7s10-3 7-7zm-83-88c-7-18-8-18-14 1-9 23-1 39 11 27 6-6 6-18 3-28zm79 1c-3-13 0-33 7-45 9-17 8-25-5-37-13-14-15-13-15 9 0 31-21 49-46 41-18-6-18-6-2 11 14 15 20 16 32 5 14-11 16-8 16 19 0 18 4 30 9 27 4-3 6-16 4-30zm-326 7c-4-3-7 0-7 7s3 10 7 7c3-4 3-10 0-14zm93 13c0-3-4-8-10-11-5-3-10-1-10 4 0 6 5 11 10 11 6 0 10-2 10-4zm80 0c0-3-4-8-10-11-5-3-10-1-10 4 0 6 5 11 10 11 6 0 10-2 10-4zm237-3c-4-3-10-3-14 0-3 4 0 7 7 7s10-3 7-7zm70-10c-4-3-7 0-7 7s3 10 7 7c3-4 3-10 0-14zm0-70c-3-10-5-2-5 17s2 27 5 18c2-10 2-26 0-35zm-392 8c3-5 1-12-5-16-5-3-10 1-10 9 0 18 6 21 15 7zm158-16c-7-21-13-19-13 6 0 11 4 18 10 14 5-3 7-12 3-20zm-246-2c-4-3-7 0-7 7s3 10 7 7c3-4 3-10 0-14zm160 0c-4-3-7 0-7 7s3 10 7 7c3-4 3-10 0-14zm140 10c-4-3-10-3-14 0-3 4 0 7 7 7s10-3 7-7zm100-10c-4-3-7 0-7 7s3 10 7 7c3-4 3-10 0-14zm-341-24c4-8 9-7 16 2 8 11 9 10 5-3-3-9 1-22 8-28 8-7 12-16 9-21-8-13-24-11-24 4 0 23-22 38-37 25-18-15-29-2-13 17 15 18 26 19 36 4zm-59-16c-4-3-7 0-7 7s3 10 7 7c3-4 3-10 0-14zm13-34c0-5-4-9-10-9-5 0-10 7-10 16 0 8 5 12 10 9 6-3 10-10 10-16zm160 7c0-3-4-8-10-11-5-3-10-1-10 4 0 6 5 11 10 11 6 0 10-2 10-4zm80 0c0-3-4-8-10-11-5-3-10-1-10 4 0 6 5 11 10 11 6 0 10-2 10-4zm80 0c0-3-4-8-10-11-5-3-10-1-10 4 0 6 5 11 10 11 6 0 10-2 10-4zm67-18c-3-8-6-5-6 6-1 11 2 17 5 13 3-3 4-12 1-19zm80-10c-3-7-5-2-5 12s2 19 5 13c2-7 2-19 0-25zm-6-19c30-21 38-39 16-39-7 0-18 9-25 21-9 15-19 18-35 13-19-6-20-5-8 10 17 20 17 20 52-5zm-66-29c3-5 1-10-4-10-6 0-11 5-11 10 0 6 2 10 4 10 3 0 8-4 11-10zm-398-7c-4-3-10-3-14 0-3 4 0 7 7 7s10-3 7-7zm80 0c-4-3-10-3-14 0-3 4 0 7 7 7s10-3 7-7zm80 0c-4-3-10-3-14 0-3 4 0 7 7 7s10-3 7-7zm80 0c-4-3-10-3-14 0-3 4 0 7 7 7s10-3 7-7zm80 0c-4-3-10-3-14 0-3 4 0 7 7 7s10-3 7-7z"/></g><g fill="#a0ddf0"><path d="M0 930V0h1920v1860H0V930zm1271 502c62-32 113-94 130-155 15-55 6-139-20-183l-20-34h89V360h-40c-29 0-40-4-40-15 0-8-4-15-10-15-5 0-10 7-10 15 0 10-10 15-30 15s-30-5-30-15c0-8-4-15-10-15-5 0-10 7-10 15 0 10-10 15-30 15s-30-5-30-15c0-8-4-15-10-15-5 0-10 7-10 15 0 10-10 15-30 15s-30-5-30-15c0-8-4-15-10-15-5 0-10 7-10 15 0 10-10 15-30 15s-30-5-30-15c0-8-4-15-10-15-5 0-10 7-10 15 0 10-10 15-30 15s-30-5-30-15c0-8-4-15-10-15-5 0-10 7-10 15 0 10-10 15-30 15s-30-5-30-15c0-8-4-15-10-15-5 0-10 7-10 15 0 10-10 15-30 15s-30-5-30-15c0-8-4-15-10-15-5 0-10 7-10 15 0 10-10 15-30 15s-30-5-30-15c0-8-4-15-10-15-5 0-10 7-10 15 0 10-10 15-30 15s-30-5-30-15c0-8-4-15-10-15-5 0-10 7-10 15 0 10-10 15-30 15s-30-5-30-15c0-8-4-15-10-15-5 0-10 7-10 15 0 11-11 15-40 15h-40v700h240c132 0 240 2 240 3 0 2-8 19-17 38-23 46-28 129-12 187 16 57 96 142 149 159 67 21 143 16 201-15zm-751-42c0-13-7-20-20-20s-20 7-20 20 7 20 20 20 20-7 20-20zm80 0c0-13-7-20-20-20s-20 7-20 20 7 20 20 20 20-7 20-20zm78 3c-5-26-38-29-38-4 0 15 6 21 21 21 14 0 19-5 17-17zm186-84c0-18-5-23-23-23s-24 6-27 26c-2 23 1 26 24 24 20-3 26-9 26-27zm-184-59c0-6-26-10-59-10s-63 5-66 10c-4 6 18 10 59 10 37 0 66-4 66-10zm120-40c0-6-48-10-125-10s-125 4-125 10 48 10 125 10 125-4 125-10zm0-40c0-6-48-10-125-10s-125 4-125 10 48 10 125 10 125-4 125-10zm0-40c0-6-48-10-125-10s-125 4-125 10 48 10 125 10 125-4 125-10z"/><path d="M1086 1426c-180-67-209-305-49-406 56-36 110-45 172-30 157 37 226 215 136 352-50 76-173 116-259 84zm183-49c46-30 91-114 91-167 0-57-45-136-93-164-23-13-53-27-67-31s-28-13-32-19c-6-8-10-8-15 0-5 5-30 18-56 28-135 51-177 197-89 315 55 74 179 92 261 38z"/><path d="M1096 1311c-55-36-71-102-41-161 14-28 60-60 85-60 6 0 10 26 10 65 0 73-2 72 78 51 51-14 52-14 52 8 0 30-39 87-70 103-36 18-81 16-114-6z"/><path d="M1170 1140c0-49 1-51 23-45 12 4 35 20 51 37 32 35 27 41-36 53l-38 7v-52zM490 745V490h940v510h-64c-42 0-79-7-107-20-27-12-66-20-99-20s-72 8-99 20c-39 18-66 20-307 20H490V745zm791 33c1-157 2-170 13-187 5-8 4-17-5-22-8-6-152-8-334-7l-320 3-3 167-2 167 325 1h325l1-122z"/><path d="M720 850c0-28 3-30 35-30s35 2 35 30-3 30-35 30-35-2-35-30zm89 23c-9-49-6-53 27-53 31 0 34 3 34 30s-3 30-30 30c-16 0-31-3-31-7zm79-10c-8-30 2-43 33-43 26 0 29 4 29 30s-3 30-29 30c-19 0-30-6-33-17zm72-13c0-28 3-30 35-30s35 2 35 30-3 30-35 30-35-2-35-30zm82 0c2-27 6-30 35-30 30 0 33 3 33 30 0 28-3 30-35 30-33 0-35-2-33-30zm83 20c-14-22 6-50 36-50 26 0 29 3 29 30s-3 30-29 30c-17 0-33-5-36-10zm84-2c0-7-2-21-4-30-3-14 4-18 31-18 31 0 34 3 34 30s-3 30-30 30c-17 0-30-5-31-12zm-149-67c-16-6-25-31-12-31 4 0 13 5 20 12 8 8 15 8 27-2s15-10 15 3c0 17-28 27-50 18zm-340-31c0-28 3-30 35-30s35 2 35 30-3 30-35 30-35-2-35-30zm85 20c-14-22 6-50 36-50 26 0 29 3 29 30s-3 30-29 30c-17 0-33-5-36-10zm79-6c3-9 6-22 6-30 0-9 11-14 30-14 27 0 30 3 30 30 0 28-3 30-36 30-29 0-35-3-30-16zm78-14c2-27 6-30 35-30 30 0 33 3 33 30 0 28-3 30-35 30-33 0-35-2-33-30zm165 23c-2-5-2-14-1-20 1-7 2-17 3-23 0-5 15-10 31-10 27 0 30 3 30 30s-3 30-29 30c-17 0-32-3-34-7zm77-15c3-13 5-26 5-30 1-5 15-8 31-8 27 0 30 3 30 30 0 28-3 30-35 30-31 0-34-3-31-22z"/><path d="M1054 755c-18-13-16-14 20-15 33 0 37 2 26 15-15 19-21 19-46 0zm-334-65c0-28 3-30 35-30s35 2 35 30-3 30-35 30-35-2-35-30zm86 14c-13-34-7-44 30-44 31 0 35 2 24 15-10 12-16 13-27 4-20-17-30-1-10 18 13 13 19 14 31 3 13-10 16-10 16 4 0 22-56 22-64 0zm78-6c3-13 5-26 5-30 1-5 15-8 31-8 27 0 30 3 30 30 0 28-3 30-35 30-31 0-34-3-31-22zm78-8c-2-28 0-30 33-30 32 0 35 2 35 30 0 27-3 30-33 30-29 0-33-3-35-30zm81 0c2-27 6-30 35-30s32 3 32 30c0 28-3 30-35 30s-34-2-32-30zm82 13c2-10 4-24 4-30 1-8 14-13 31-13 27 0 30 3 30 30s-3 30-34 30c-27 0-34-4-31-17zm81 5c-11-35-2-48 31-48 30 0 33 3 33 30s-3 30-30 30c-17 0-32-6-34-12zm-317-62c-1-1-2-16-4-33-2-31 0-33 31-33s34 3 34 29c0 24-5 29-30 33-16 3-31 4-31 4zm-169-36c0-28 3-30 35-30s35 2 35 30-3 30-35 30-35-2-35-30zm80 0c0-28 3-30 35-30s35 2 35 30-3 30-35 30-35-2-35-30zm162 0c-1-28 2-30 34-30 31 0 34 2 34 30 0 27-3 30-33 30-31 0-34-3-35-30zm80 0c2-27 6-30 35-30 30 0 33 3 33 30 0 28-3 30-35 30-33 0-35-2-33-30zm78 0c0-28 3-30 35-30s35 2 35 30-3 30-35 30-35-2-35-30zm83 15c0-17 13-20 22-5 4 6 15 8 26 5 11-4 19-2 19 4s-15 11-33 11c-23 0-34-5-34-15zm14-22c-27-7-10-23 25-23 26 0 29 2 18 15-7 8-15 14-19 14-3-1-14-3-24-6z"/></g><g fill="#e1dddf"><path d="M0 930V0h1920v1860H0V930zm1271 502c62-32 113-94 130-155 15-55 6-139-20-183l-20-34h89V360h-40c-29 0-40-4-40-15 0-8-4-15-10-15-5 0-10 7-10 15 0 10-10 15-30 15s-30-5-30-15c0-8-4-15-10-15-5 0-10 7-10 15 0 10-10 15-30 15s-30-5-30-15c0-8-4-15-10-15-5 0-10 7-10 15 0 10-10 15-30 15s-30-5-30-15c0-8-4-15-10-15-5 0-10 7-10 15 0 10-10 15-30 15s-30-5-30-15c0-8-4-15-10-15-5 0-10 7-10 15 0 10-10 15-30 15s-30-5-30-15c0-8-4-15-10-15-5 0-10 7-10 15 0 10-10 15-30 15s-30-5-30-15c0-8-4-15-10-15-5 0-10 7-10 15 0 10-10 15-30 15s-30-5-30-15c0-8-4-15-10-15-5 0-10 7-10 15 0 10-10 15-30 15s-30-5-30-15c0-8-4-15-10-15-5 0-10 7-10 15 0 10-10 15-30 15s-30-5-30-15c0-8-4-15-10-15-5 0-10 7-10 15 0 10-10 15-30 15s-30-5-30-15c0-8-4-15-10-15-5 0-10 7-10 15 0 11-11 15-40 15h-40v700h240c132 0 240 2 240 3 0 2-8 19-17 38-23 46-28 129-12 187 16 57 96 142 149 159 67 21 143 16 201-15zm-751-42c0-13-7-20-20-20s-20 7-20 20 7 20 20 20 20-7 20-20zm80 0c0-13-7-20-20-20s-20 7-20 20 7 20 20 20 20-7 20-20zm78 3c-5-26-38-29-38-4 0 15 6 21 21 21 14 0 19-5 17-17zm186-84c0-18-5-23-23-23s-24 6-27 26c-2 23 1 26 24 24 20-3 26-9 26-27zm-184-59c0-6-26-10-59-10s-63 5-66 10c-4 6 18 10 59 10 37 0 66-4 66-10zm120-40c0-6-48-10-125-10s-125 4-125 10 48 10 125 10 125-4 125-10zm0-40c0-6-48-10-125-10s-125 4-125 10 48 10 125 10 125-4 125-10zm0-40c0-6-48-10-125-10s-125 4-125 10 48 10 125 10 125-4 125-10z"/><path d="M1086 1426c-180-67-209-305-49-406 56-36 110-45 172-30 157 37 226 215 136 352-50 76-173 116-259 84zm162-35c122-62 150-218 58-319-25-29-88-62-115-62-11 0-22-6-24-12-4-9-8-10-14-2-4 5-30 18-56 28-80 30-137 107-137 186 0 69 53 153 115 185 42 21 128 19 173-4z"/><path d="M1104 1310c-62-31-82-96-49-160 14-28 60-60 85-60 6 0 10 27 10 66v67l30-7c17-3 44-9 60-12 28-6 30-5 30 23 0 41-33 80-78 93-47 13-40 13-88-10z"/><path d="M1170 1142c0-45 2-50 20-45 11 3 35 19 52 35 36 34 31 41-34 53l-38 7v-50zM490 745V490h940v510h-64c-42 0-79-7-107-20-27-12-66-20-99-20s-72 8-99 20c-39 18-66 20-307 20H490V745zm791 33c1-157 2-170 13-186 5-8 4-18-2-24s-129-8-333-6l-324 3-3 167-2 167 325 1h325l1-122z"/><path d="M720 850c0-28 3-30 35-30s35 2 35 30-3 30-35 30-35-2-35-30zm89 23c-9-49-6-53 27-53 31 0 34 3 34 30s-3 30-30 30c-16 0-31-3-31-7zm79-10c-8-30 2-43 33-43 26 0 29 4 29 30s-3 30-29 30c-19 0-30-6-33-17zm72-13c0-28 3-30 35-30s35 2 35 30-3 30-35 30-35-2-35-30zm82 0c2-27 6-30 35-30 30 0 33 3 33 30 0 28-3 30-35 30-33 0-35-2-33-30zm83 20c-14-22 6-50 36-50 26 0 29 3 29 30s-3 30-29 30c-17 0-33-5-36-10zm84-2c0-7-2-21-4-30-3-14 4-18 31-18 31 0 34 3 34 30s-3 30-30 30c-17 0-30-5-31-12zm-149-67c-16-6-25-31-12-31 4 0 13 5 20 12 8 8 15 8 27-2s15-10 15 3c0 17-28 27-50 18zm-340-31c0-28 3-30 35-30s35 2 35 30-3 30-35 30-35-2-35-30zm85 20c-14-22 6-50 36-50 26 0 29 3 29 30s-3 30-29 30c-17 0-33-5-36-10zm79-6c3-9 6-22 6-30 0-9 11-14 30-14 27 0 30 3 30 30 0 28-3 30-36 30-29 0-35-3-30-16zm78-14c2-27 6-30 35-30 30 0 33 3 33 30 0 28-3 30-35 30-33 0-35-2-33-30zm167 25c-9-35 5-55 37-55 20 0 24 5 24 30 0 27-3 30-30 30-16 0-31-2-31-5zm75-17c3-13 5-26 5-30 1-5 15-8 31-8 27 0 30 3 30 30 0 28-3 30-35 30-31 0-34-3-31-22zm-149-28c-16-7-12-9 18-9 23-1 36 3 32 9-7 12-23 12-50 0zm-335-60c0-28 3-30 35-30s35 2 35 30-3 30-35 30-35-2-35-30zm86 14c-13-33-6-44 25-44 18 0 28 4 24 10s-15 8-26 5c-23-8-25 7-4 25 12 10 18 10 30 0s15-10 15 4c0 22-56 22-64 0zm78-6c3-13 5-26 5-30 1-5 15-8 31-8 27 0 30 3 30 30 0 28-3 30-35 30-31 0-34-3-31-22zm78-8c-2-28 0-30 33-30 32 0 35 2 35 30 0 27-3 30-33 30-29 0-33-3-35-30zm81 0c2-27 6-30 35-30s32 3 32 30c0 28-3 30-35 30s-34-2-32-30zm82 13c2-10 4-24 4-30 1-8 14-13 31-13 27 0 30 3 30 30s-3 30-34 30c-27 0-34-4-31-17zm81 5c-11-35-2-48 31-48 30 0 33 3 33 30s-3 30-30 30c-17 0-32-6-34-12zm-486-98c0-28 3-30 35-30s35 2 35 30-3 30-35 30-35-2-35-30zm80 0c0-28 3-30 35-30s35 2 35 30-3 30-35 30-35-2-35-30zm84 0c0-27 3-30 33-30s33 3 33 30-3 30-33 30-33-3-33-30zm78 0c-1-28 2-30 34-30 31 0 34 2 34 30 0 27-3 30-33 30-31 0-34-3-35-30zm80 0c2-27 6-30 35-30 30 0 33 3 33 30 0 28-3 30-35 30-33 0-35-2-33-30zm78 0c0-28 3-30 35-30s35 2 35 30-3 30-35 30-35-2-35-30zm83 15c0-17 13-20 22-5 4 6 15 8 26 5 11-4 19-2 19 4s-15 11-33 11c-23 0-34-5-34-15zm3-37c3-4 17-8 31-8 15 0 23 3 19 8-10 10-56 10-50 0z"/></g><g fill="#fefefe"><path d="M0 930V0h1920v1860H0V930zm1254 516c126-52 191-213 136-335-11-24-20-45-20-47s18-4 40-4h40V360h-40c-33 0-40-3-40-20 0-26-20-26-27 0-7 28-53 28-53 0 0-26-20-26-27 0-6 24-53 29-53 6 0-24-21-30-27-7-3 14-13 21-28 21s-25-7-28-21c-6-23-27-17-27 7 0 8-10 14-25 14-18 0-25-5-25-20 0-11-5-20-11-20s-13 9-16 20c-3 13-14 20-29 20-17 0-24-6-24-20 0-11-5-20-11-20s-13 9-16 20c-6 24-53 29-53 6 0-24-21-30-27-7-7 29-53 30-53 1 0-26-20-26-27 0-7 28-53 28-53 0 0-11-5-20-11-20s-13 9-16 20c-3 13-14 20-29 20-17 0-24-6-24-20 0-26-20-26-27 0-6 24-53 29-53 6 0-24-21-30-27-7-4 17-13 21-44 21h-39v700h489l-21 46c-25 57-26 144-4 199 22 52 80 112 131 136 48 22 151 25 199 5zm-734-56c0-13-7-20-20-20s-20 7-20 20 7 20 20 20 20-7 20-20zm80 0c0-13-7-20-20-20s-20 7-20 20 7 20 20 20 20-7 20-20zm80 0c0-13-7-20-18-20-24 0-32 8-25 26 8 22 43 17 43-6zm78 3c-5-26-38-29-38-4 0 15 6 21 21 21 14 0 19-5 17-17zm106-82c0-19-6-24-27-27-24-2-27 1-27 26s3 29 27 27c22-2 27-7 27-26zm-184-61c0-6-28-10-65-10s-65 4-65 10 28 10 65 10 65-4 65-10zm58-30c34 0 62-4 62-10s-37-10-90-10-90-4-90-10 37-10 90-10 90-4 90-10-37-10-90-10-90-4-90-10 37-10 90-10 90-4 90-10-37-10-90-10c-73 0-90-3-90-15s-14-15-70-15h-70v143l98-6c53-4 125-7 160-7z"/><path d="M1099 1426c-62-16-104-48-136-104-56-95-26-233 63-294 45-31 126-54 118-33-3 7-17 15-32 18-41 9-86 41-118 83-26 34-29 45-29 113 0 85 16 118 82 168 71 54 196 40 260-29 73-78 69-214-9-284-30-28-82-54-108-54-11 0-20-7-20-15 0-29 92 6 143 54 67 61 87 171 48 257-26 57-92 110-153 123-57 13-51 13-109-3z"/><path d="M1115 1316c-50-22-70-52-70-106 0-52 18-81 67-106l28-15v134l43-7c23-3 52-9 65-12 19-6 22-3 22 23 0 41-33 80-78 93-45 12-40 12-77-4z"/><path d="M1170 1141c0-44 2-49 20-44 11 3 35 19 52 35 36 34 31 40-34 52l-38 7v-50zM490 745V490h930v498c0 4-25 8-56 10-41 2-71-3-105-17-61-27-134-27-201-1-48 18-77 20-310 20H490V745zm802-7c2-90 2-166 0-170-2-5-151-8-333-8H630v340h659l3-162z"/><path d="M730 850c0-27 3-30 30-30s30 3 30 30-3 30-30 30-30-3-30-30zm80 0c0-27 3-30 30-30s30 3 30 30-3 30-30 30-30-3-30-30zm80 0c0-27 3-30 30-30s30 3 30 30-3 30-30 30-30-3-30-30zm80 0c0-27 3-30 30-30s30 3 30 30-3 30-30 30-30-3-30-30zm80 0c0-27 3-30 30-30s30 3 30 30-3 30-30 30-30-3-30-30zm80 0c0-27 3-30 30-30s30 3 30 30-3 30-30 30-30-3-30-30zm80 0c0-27 3-30 30-30s30 3 30 30-3 30-30 30-30-3-30-30zm-480-80c0-27 3-30 30-30s30 3 30 30-3 30-30 30-30-3-30-30zm80 0c0-27 3-30 30-30s30 3 30 30-3 30-30 30-30-3-30-30zm80 0c0-27 3-30 30-30s30 3 30 30-3 30-30 30-30-3-30-30zm80 0c0-27 3-30 30-30s30 3 30 30-3 30-30 30-30-3-30-30zm80 14c0-8 5-12 10-9 6 3 10 10 10 16 0 5-4 9-10 9-5 0-10-7-10-16zm40 7c0-6 5-13 10-16 6-3 10 1 10 9 0 9-4 16-10 16-5 0-10-4-10-9zm42-18c2-22 9-29 31-31 24-3 27 0 27 27 0 28-3 31-31 31-27 0-30-3-27-27zm78-3c0-27 3-30 30-30s30 3 30 30-3 30-30 30-30-3-30-30zm-150-20c-12-8-9-10 13-10 16 0 26 4 22 10-8 12-16 12-35 0zm-330-60c0-27 3-30 30-30s30 3 30 30-3 30-30 30-30-3-30-30zm80 14c0-14 3-14 15-4s18 10 30 0 15-10 15 4c0 11-9 16-30 16s-30-5-30-16zm80-14c0-27 3-30 30-30s30 3 30 30-3 30-30 30-30-3-30-30zm80 0c0-27 3-30 30-30s30 3 30 30-3 30-30 30-30-3-30-30zm80 0c0-27 3-30 30-30s30 3 30 30-3 30-30 30-30-3-30-30zm80 0c0-27 3-30 30-30s30 3 30 30-3 30-30 30-30-3-30-30zm80 0c0-27 3-30 30-30s30 3 30 30-3 30-30 30-30-3-30-30zm-390-20c-12-8-9-10 13-10 16 0 26 4 22 10-8 12-16 12-35 0zm-90-60c0-27 3-30 30-30s30 3 30 30-3 30-30 30-30-3-30-30zm80 0c0-27 3-30 30-30s30 3 30 30-3 30-30 30-30-3-30-30zm80 0c0-27 3-30 30-30s30 3 30 30-3 30-30 30-30-3-30-30zm80 0c0-27 3-30 30-30s30 3 30 30-3 30-30 30-30-3-30-30zm80 0c0-27 3-30 30-30s30 3 30 30-3 30-30 30-30-3-30-30zm80 0c0-27 3-30 30-30s30 3 30 30-3 30-30 30-30-3-30-30zm80 14c0-13 3-14 14-5 7 6 21 9 30 5 9-3 16-1 16 5s-13 11-30 11c-21 0-30-5-30-16zm10-34c-12-8-9-10 13-10 16 0 26 4 22 10-8 12-16 12-35 0z"/></g></svg>