<svg version="1.0" xmlns="http://www.w3.org/2000/svg" width="192" height="186" viewBox="0 0 1920 1860"><path d="M0 930V0h1920v1860H0V930z" fill="#000206"/><path d="M0 930V0h1920v1860H0V930zm917 524c-3-3-12-4-19-1-8 3-5 6 6 6 11 1 17-2 13-5zm110-1c-4-3-10-3-14 0-3 4 0 7 7 7s10-3 7-7zm-148-7c-10-9-69-36-69-32 0 7 52 35 64 36 5 0 7-2 5-4zm197-12c18-14 18-14-6-3-31 14-36 19-24 19 6 0 19-7 30-16zm39-24c3-5 4-10 1-10s-8 5-11 10c-3 6-4 10-1 10s8-4 11-10zm-315-3c0-2-12-14-27-28l-28-24 24 28c23 25 31 32 31 24zm371-54c13-16 12-17-3-4-10 7-18 15-18 17 0 8 8 3 21-13zm-421-7c0-3-5-8-12-12s-8-3-4 4c7 12 16 16 16 8zm-73-43c-4-3-7 0-7 7s3 10 7 7c3-4 3-10 0-14zm50 0c-4-3-7 0-7 7s3 10 7 7c3-4 3-10 0-14zm480-40c-4-3-7 0-7 7s3 10 7 7c3-4 3-10 0-14zm-489-2c11-7 11-9-1-14-9-3-18 1-21 9-6 16 2 18 22 5zm530-18c-54-2-142-2-195 0-54 1-10 3 97 3s151-2 98-3zm119-10c-4-3-10-3-14 0-3 4 0 7 7 7s10-3 7-7zm30-10c-4-3-10-3-14 0-3 4 0 7 7 7s10-3 7-7zm-424-170c-7-2-19-2-25 0-7 3-2 5 12 5s19-2 13-5zm34-10c-4-3-10-3-14 0-3 4 0 7 7 7s10-3 7-7zm-107-6c0-2-12-14-27-28l-28-24 24 28c23 25 31 32 31 24zm145-17c10-11 16-20 13-20s-13 9-23 20-16 20-13 20 13-9 23-20zm352-27c-4-3-7 0-7 7s3 10 7 7c3-4 3-10 0-14zm-547-29c0-8-5-12-10-9-6 4-8 11-5 16 9 14 15 11 15-7zm547-11c-4-3-7 0-7 7s3 10 7 7c3-4 3-10 0-14zm0-40c-4-3-7 0-7 7s3 10 7 7c3-4 3-10 0-14zm-312-13c3-5 2-10-4-10-5 0-13 5-16 10-3 6-2 10 4 10 5 0 13-4 16-10zm312-27c-4-3-7 0-7 7s3 10 7 7c3-4 3-10 0-14zm-327 3c0-3-5-8-12-12s-8-3-4 4c7 12 16 16 16 8zm-189-33c13-16 12-17-3-4-10 7-18 15-18 17 0 8 8 3 21-13zm149-7c0-3-5-8-12-12s-8-3-4 4c7 12 16 16 16 8zm-52-23c-10-2-26-2-35 0-10 3-2 5 17 5s27-2 18-5zm419-90c-3-10-5-4-5 12 0 17 2 24 5 18 2-7 2-21 0-30zm-124-40c-56-2-151-2-210 0-59 1-13 3 102 3 116 0 164-2 108-3zm-57-150c-2-2-11 0-20 3-14 5-15 9-5 15 12 7 34-10 25-18zm-509-5c-3-8-6-5-6 6-1 11 2 17 5 13 3-3 4-12 1-19zm490-25c-4-3-7 0-7 7s3 10 7 7c3-4 3-10 0-14zm-480-10c-4-3-7 0-7 7s3 10 7 7c3-4 3-10 0-14zm53-68c42-48 42-48 6-15-21 19-42 44-48 55s-9 18-6 15c2-3 24-27 48-55zm410 41c0-3-5-8-12-12s-8-3-4 4c7 12 16 16 16 8zm-20-29c0-2-12-14-27-28l-28-24 24 28c23 25 31 32 31 24zm-60-51c0-3-5-8-12-12s-8-3-4 4c7 12 16 16 16 8zm-53-33c-4-3-10-3-14 0-3 4 0 7 7 7s10-3 7-7zm-150-10c-4-3-10-3-14 0-3 4 0 7 7 7s10-3 7-7zm120 0c-4-3-10-3-14 0-3 4 0 7 7 7s10-3 7-7z" fill="#061535"/><path d="M0 930V0h1920v1860H0V930zm1055 516c50-21 97-60 119-98 16-27 12-25-24 15-57 64-90 80-185 87l-80 7 68 1c40 1 82-4 102-12zm-222-26c-54-31-84-65-109-125-15-36-15-37 8-30 22 6 22 5-2-9-18-10-27-11-32-3-4 6-4 14 0 17s14 21 23 40c24 51 66 98 108 120 58 30 61 23 4-10zm-143-135c0-5-5-3-10 5s-10 20-10 25c0 6 5 3 10-5s10-19 10-25zm520-17c0-14 12-18 68-21 37-2-21-3-128-3-108 0-140 2-71 3l123 4-6 32c-4 23-3 28 4 17 5-8 10-23 10-32zm157-35c-4-3-10-3-14 0-3 4 0 7 7 7s10-3 7-7zm47-13c25-9 37-40 16-40-5 0-7 6-4 13 3 8-7 18-23 24-15 6-25 11-21 12s18-3 32-9zm-406-37c-10-2-26-2-35 0-10 3-2 5 17 5s27-2 18-5zm180 0c-21-2-55-2-75 0-21 2-4 4 37 4s58-2 38-4zm130 0c-15-2-42-2-60 0s-6 4 27 4 48-2 33-4zm49 0c-4-3-10-3-14 0-3 4 0 7 7 7s10-3 7-7zm30-115c-2-24-4-7-4 37s2 63 4 43c2-21 2-57 0-80zm-424-15c-7-2-19-2-25 0-7 3-2 5 12 5s19-2 13-5zm-58-15c-11-6-29-18-40-27-12-9-8-4 7 12 16 15 34 27 41 27 6 0 3-6-8-12zm131-22c19-19 34-40 34-47-1-8-8-1-16 14s-30 37-47 47c-18 11-26 20-18 20 7 0 28-15 47-34zm351-23c-4-3-7 0-7 7s3 10 7 7c3-4 3-10 0-14zm-542-19c13-5 14-8 3-15-19-12-25-11-32 6-6 16 3 19 29 9zm542-21c-4-3-7 0-7 7s3 10 7 7c3-4 3-10 0-14zm0-40c-4-3-7 0-7 7s3 10 7 7c3-4 3-10 0-14zm-544-23c3-11 1-18-4-14-5 3-9 12-9 20 0 20 7 17 13-6zm238 3c13-15 12-15-11-3-34 17-36 20-18 20 9 0 22-7 29-17zm-544 1c-3-3-12-4-19-1-8 3-5 6 6 6 11 1 17-2 13-5zm850-21c-4-3-7 0-7 7s3 10 7 7c3-4 3-10 0-14zm-337-13c-22-41-111-65-150-40-10 6-3 8 22 3 50-7 84 2 110 32s32 32 18 5zm-513-6c-3-3-12-4-19-1-8 3-5 6 6 6 11 1 17-2 13-5zm334-11c13-16 12-17-3-4-10 7-18 15-18 17 0 8 8 3 21-13zm503-150c-13-10-70-12-223-11l-206 3 204 2c130 2 209 7 218 14 8 7 14 38 15 83l2 71 3-75c3-62 1-77-13-87zM537 813c-4-3-10-3-14 0-3 4 0 7 7 7s10-3 7-7zm10-39c-3-3-12-4-19-1-8 3-5 6 6 6 11 1 17-2 13-5zm0-40c-3-3-12-4-19-1-8 3-5 6 6 6 11 1 17-2 13-5zm0-40c-3-3-12-4-19-1-8 3-5 6 6 6 11 1 17-2 13-5zm689-189c13-27 13-28 0-10-31 40-38 46-52 41-39-16-45-15-14 2 38 22 39 21 66-33zm-529 23c-3-8-6-5-6 6-1 11 2 17 5 13 3-3 4-12 1-19zm490-25c-4-3-7 0-7 7s3 10 7 7c3-4 3-10 0-14zm-423-81c36-39 70-59 123-71 28-7 31-9 13-10-29-1-95 29-127 57-27 24-73 91-73 106 1 6 8-2 17-19 8-16 29-45 47-63zm405 46c-18-36-61-78-94-94-17-8-22-9-11-2 45 31 78 62 92 89 8 16 17 29 20 29 2 0-1-10-7-22zm-132-115c-4-3-10-3-14 0-3 4 0 7 7 7s10-3 7-7zm-34-10c-7-2-19-2-25 0-7 3-2 5 12 5s19-2 13-5z" fill="#0b1f45"/><path d="M0 930V0h1920v1860H0V930zm1078 503c59-28 117-96 128-150 6-32 7-32 73-36 36-2-22-3-129-3-108 0-140 2-71 3l123 4-6 32c-8 40-50 93-105 132-36 25-54 30-117 33-65 4-81 1-128-22-56-28-97-71-122-131-16-40-14-41 26-20 17 9 30 13 30 10 0-2-17-13-38-24l-39-20-16 35c-21 44-21 59-1 20l16-29 17 39c38 83 110 140 196 154 57 9 102 2 163-27zm289-200c-4-3-10-3-14 0-3 4 0 7 7 7s10-3 7-7zm47-13c31-11 34-36 6-43-16-4-20-15-23-78l-3-74-2 77-2 78-217 3-218 2 238 3c130 1 237 6 237 10 0 5-12 13-27 19-16 6-25 11-21 12s18-3 32-9zm-461-170c-41-9-79-34-93-60-8-15-8-20 2-20 7 0 5-5-6-11-14-9-20-8-27 2-13 20-11 29 4 23 7-2 19 6 26 19 15 28 65 56 101 55 21 0 20-1-7-8zm93-34c19-19 34-40 34-47-1-8-8-1-16 14s-30 37-47 47c-18 11-26 20-18 20 7 0 28-15 47-34zm351-23c-4-3-7 0-7 7s3 10 7 7c3-4 3-10 0-14zm0-40c-4-3-7 0-7 7s3 10 7 7c3-4 3-10 0-14zm0-40c-4-3-7 0-7 7s3 10 7 7c3-4 3-10 0-14zm-307-13c10-19 9-19-15-8-19 8-22 14-13 20 17 10 16 11 28-12zm-460-2c0-5-34-8-75-8s-75 3-75 8c0 4 34 7 75 7s75-3 75-7zm271-64c48-24 94-18 135 19 30 26 35 28 25 10-15-29-61-53-101-53-56 0-120 48-120 90 0 8 8 0 17-18s29-40 44-48zm496 39c-4-3-7 0-7 7s3 10 7 7c3-4 3-10 0-14zm-667-15c0-5-56-8-125-8s-125 3-125 8c0 4 56 7 125 7s125-3 125-7zm659-164c-9-11-51-14-223-12l-211 3 204 2c130 2 209 7 218 14 8 7 14 38 15 83l2 71 3-73c3-47 0-79-8-88zM730 818c0-5-56-8-125-8s-125 3-125 8c0 4 56 7 125 7s125-3 125-7zm0-40c0-5-56-8-125-8s-125 3-125 8c0 4 56 7 125 7s125-3 125-7zm0-40c0-5-56-8-125-8s-125 3-125 8c0 4 56 7 125 7s125-3 125-7zm0-40c0-5-56-8-125-8s-125 3-125 8c0 4 56 7 125 7s125-3 125-7zm500-178c11-22 17-40 12-40-4 0-13 12-18 28l-10 27-26-50c-49-95-132-148-233-147-63 0-118 17-163 53-30 23-82 96-82 113 1 6 9-5 20-25 23-44 81-96 129-116 20-9 63-15 96-15 102-1 179 50 230 150 21 42 15 48-24 27-17-8-31-13-31-10s67 43 77 45c2 0 12-18 23-40zm-523 8c-3-8-6-5-6 6-1 11 2 17 5 13 3-3 4-12 1-19z" fill="#112952"/><path d="M0 930V0h1920v1860H0V930zm1080 505c63-32 102-79 130-157 9-26 13-28 72-29 71 0 151-26 156-50 2-10-6-19-18-22-18-4-20-14-22-79l-2-73-5 75-6 75-215 5-215 5 240 5 240 5-45 22c-41 21-61 23-240 25-148 2-165 3-72 5 136 4 137 4 103 72-23 44-81 98-127 117-44 19-146 18-192-1-63-27-142-115-142-160 0-14 3-14 33 1 17 9 28 12 22 6-5-6-23-18-39-26-29-15-30-14-48 15-10 16-18 35-18 42 1 6 8-1 16-17l16-29 18 40c63 141 222 197 360 128zm-70-390c30-16 70-60 70-79 0-6-9 3-20 21-42 70-125 79-183 21-24-23-27-32-16-38 11-7 10-10-5-16-11-4-21-2-27 7-13 20-11 29 4 23 8-3 18 6 24 19 12 26 66 56 101 57 13 0 36-7 52-15zm387-52c-4-3-7 0-7 7s3 10 7 7c3-4 3-10 0-14zm0-40c-4-3-7 0-7 7s3 10 7 7c3-4 3-10 0-14zm0-40c-4-3-7 0-7 7s3 10 7 7c3-4 3-10 0-14zm-317-35c-11-4-20-12-20-18 0-20-65-50-108-50-37 0-50 6-78 34-19 19-34 42-34 53 0 12 6 7 17-15 40-82 160-82 204 0 10 18 9 20-7 14-17-5-17-5 1 9s21 14 33-2c11-15 9-18-8-25zm-450 22c0-6-32-10-75-10s-75 4-75 10 32 10 75 10 75-4 75-10zm767-27c-4-3-7 0-7 7s3 10 7 7c3-4 3-10 0-14zm-667-13c0-6-48-10-125-10s-125 4-125 10 48 10 125 10 125-4 125-10zm659-166c-9-11-51-14-223-12l-211 3 204 2c130 2 209 7 218 14 8 7 14 38 15 83l2 71 3-73c3-47 0-79-8-88zM730 820c0-6-48-10-125-10s-125 4-125 10 48 10 125 10 125-4 125-10zm0-40c0-6-48-10-125-10s-125 4-125 10 48 10 125 10 125-4 125-10zm0-40c0-6-48-10-125-10s-125 4-125 10 48 10 125 10 125-4 125-10zm0-40c0-6-48-10-125-10s-125 4-125 10 48 10 125 10 125-4 125-10zm500-180c11-22 16-40 11-40s-14 12-19 28l-9 27-26-51c-75-148-245-193-382-102-48 32-105 116-104 153 0 11 9-2 19-29 40-101 122-156 236-156 108 0 187 53 229 154 17 41 16 42-28 20-36-19-31-10 10 17 39 24 40 24 63-21z" fill="#1c3d69"/><path d="M0 930V0h1920v1860H0V930zm1076 508c64-29 113-91 138-170 4-15 17-18 68-19 81 0 152-26 156-57 3-17-2-22-17-22-19 0-21-6-23-72l-2-73-3 73c-2 39-7 72-11 72s-100 1-214 2c-115 0-208 5-208 9 0 5 107 10 238 11l237 3-48 23c-45 20-65 22-240 24-146 2-163 3-69 5 136 4 137 5 103 71-54 104-181 155-302 122-46-13-127-84-145-127-21-48-18-55 16-38 17 9 30 12 30 7s-16-16-37-26c-39-19-39-19-69 37-8 15-10 27-5 27s13-9 16-20c9-30 20-25 40 20 32 71 98 121 190 144 35 8 116-4 161-26zm-66-393c30-16 70-60 70-79 0-6-11 6-25 26-31 45-74 62-126 48-43-12-88-59-67-71 9-6 8-10-6-15-11-4-21-2-27 7-13 20-11 29 4 23 8-3 18 6 25 21 13 27 61 54 100 55 13 0 36-7 52-15zm387-52c-4-3-7 0-7 7s3 10 7 7c3-4 3-10 0-14zm0-40c-4-3-7 0-7 7s3 10 7 7c3-4 3-10 0-14zm0-40c-4-3-7 0-7 7s3 10 7 7c3-4 3-10 0-14zm-306-31c-6-2-26-19-45-38-30-30-40-34-86-34s-56 4-86 34c-19 19-34 42-33 53 0 13 5 9 16-13 34-68 120-85 175-34 26 23 30 32 19 39s-10 11 5 19c15 9 22 7 32-6 8-10 9-18 3-20zm-461 18c0-6-32-10-75-10s-75 4-75 10 32 10 75 10 75-4 75-10zm767-27c-4-3-7 0-7 7s3 10 7 7c3-4 3-10 0-14zm-667-13c0-6-48-10-125-10s-125 4-125 10 48 10 125 10 125-4 125-10zm659-166c-9-11-51-14-223-12l-211 3 204 2c130 2 209 7 218 14 8 7 14 38 15 83l2 71 3-73c3-47 0-79-8-88zM730 820c0-6-48-10-125-10s-125 4-125 10 48 10 125 10 125-4 125-10zm0-40c0-6-48-10-125-10s-125 4-125 10 48 10 125 10 125-4 125-10zm0-40c0-6-48-10-125-10s-125 4-125 10 48 10 125 10 125-4 125-10zm0-40c0-6-48-10-125-10s-125 4-125 10 48 10 125 10 125-4 125-10zm500-180c11-22 16-40 11-40s-13 9-16 20c-9 27-22 25-29-3-9-38-82-113-133-138-107-52-250-15-320 82-18 26-35 62-38 80-5 33-5 32 10-7 54-142 217-206 353-138 56 28 92 67 117 127 17 42 16 43-28 21-36-19-31-10 10 17 39 24 40 24 63-21z" fill="#254874"/><path d="M0 930V0h1920v1860H0V930zm1076 509c53-26 107-86 130-146l17-43 61-1c79 0 150-27 154-57 3-17-2-22-17-22-19 0-21-6-23-72l-2-73-3 73-4 72h-214c-134 0-215 4-215 10s91 11 238 12l237 3-40 20c-35 17-67 21-240 25-161 5-176 6-77 8 76 1 122 6 122 12s-6 25-13 43c-48 113-181 172-308 137-46-13-115-72-139-121-28-53-25-62 10-44 17 9 30 12 30 7 0-7-62-42-75-42-3 0-14 18-25 40s-16 40-11 40 13-9 16-20c9-29 19-25 38 18 24 55 87 112 149 134 64 22 137 18 204-13zm-60-395c33-16 64-58 64-86-1-7-9 2-18 19-40 74-123 88-183 32-32-30-33-32-14-39s19-7-4-15c-16-5-26-3-32 6-12 19-11 32 1 24 5-3 17 6 27 21 32 50 100 66 159 38zm381-51c-4-3-7 0-7 7s3 10 7 7c3-4 3-10 0-14zm0-40c-4-3-7 0-7 7s3 10 7 7c3-4 3-10 0-14zm0-40c-4-3-7 0-7 7s3 10 7 7c3-4 3-10 0-14zm-306-31c-6-2-26-19-45-38-30-30-40-34-86-34s-56 4-86 34c-19 19-34 42-34 53 0 13 5 9 20-14 29-48 63-67 112-60 48 6 103 52 79 66-11 7-10 11 5 19 15 9 22 7 32-6 8-10 9-18 3-20zm-461 18c0-6-32-10-75-10s-75 4-75 10 32 10 75 10 75-4 75-10zm767-27c-4-3-7 0-7 7s3 10 7 7c3-4 3-10 0-14zm-667-13c0-6-48-10-125-10s-125 4-125 10 48 10 125 10 125-4 125-10zm659-166c-9-11-51-14-223-12l-211 3 204 2c130 2 209 7 218 14 8 7 14 38 15 83l2 71 3-73c3-47 0-79-8-88zM730 820c0-6-48-10-125-10s-125 4-125 10 48 10 125 10 125-4 125-10zm0-40c0-6-48-10-125-10s-125 4-125 10 48 10 125 10 125-4 125-10zm0-40c0-6-48-10-125-10s-125 4-125 10 48 10 125 10 125-4 125-10zm0-40c0-6-48-10-125-10s-125 4-125 10 48 10 125 10 125-4 125-10zm500-180c11-22 16-40 11-40s-13 9-16 20c-9 29-19 25-33-14-7-18-34-54-61-79-60-56-137-82-211-72-98 14-203 103-215 185-6 35-5 34 13-8 28-66 65-107 123-136 90-44 203-31 276 32 32 28 73 92 73 114 0 17-2 18-30 3-16-9-30-12-30-7 0 8 56 40 72 41 4 1 17-17 28-39z" fill="#13588b"/><path d="M0 930V0h1920v1860H0V930zm1070 514c49-20 113-90 136-150l17-44 61-1c79 0 150-27 154-57 3-17-2-22-17-22-19 0-21-6-23-72l-2-73-3 73-4 72h-214c-134 0-215 4-215 10s91 11 238 12l237 3-40 20c-35 17-67 21-245 25-171 5-184 6-76 8l128 2-6 28c-11 45-59 105-108 135-119 74-286 29-349-94-27-53-24-62 11-44 17 9 30 12 30 7 0-7-62-42-75-42-3 0-14 18-25 40s-16 40-11 40 13-9 16-20c9-30 19-25 39 20 29 67 95 121 171 141 41 11 126 2 175-17zm-54-400c33-16 64-58 64-86-1-7-9 2-18 19-40 74-123 88-183 32-32-30-33-32-14-39s19-7-4-15c-16-5-26-3-32 6-12 19-11 32 1 24 5-3 17 6 27 21 32 50 100 66 159 38zm381-51c-4-3-7 0-7 7s3 10 7 7c3-4 3-10 0-14zm0-40c-4-3-7 0-7 7s3 10 7 7c3-4 3-10 0-14zm0-40c-4-3-7 0-7 7s3 10 7 7c3-4 3-10 0-14zm-306-31c-6-2-26-19-45-38-30-30-40-34-86-34s-56 4-86 34c-19 19-34 42-34 53 0 13 5 9 20-14 29-48 63-67 112-60 48 6 103 52 79 66-11 7-10 11 5 19 15 9 22 7 32-6 8-10 9-18 3-20zm-461 18c0-6-32-10-75-10s-75 4-75 10 32 10 75 10 75-4 75-10zm767-27c-4-3-7 0-7 7s3 10 7 7c3-4 3-10 0-14zm-667-13c0-6-48-10-125-10s-125 4-125 10 48 10 125 10 125-4 125-10zm673-79c5-57 3-66-18-87-23-23-31-24-137-23-62 1-153 4-203 8-75 7-55 8 117 9 239 2 228-3 228 103 0 78 6 74 13-10zm-673 39c0-6-48-10-125-10s-125 4-125 10 48 10 125 10 125-4 125-10zm0-40c0-6-48-10-125-10s-125 4-125 10 48 10 125 10 125-4 125-10zm0-40c0-6-48-10-125-10s-125 4-125 10 48 10 125 10 125-4 125-10zm0-40c0-6-48-10-125-10s-125 4-125 10 48 10 125 10 125-4 125-10zm503-180c8-22 12-40 7-40s-12 9-15 20c-9 29-19 25-33-14-7-18-34-54-61-79-60-56-137-82-211-72-98 14-203 103-215 185-6 35-5 34 13-8 28-66 65-107 123-136 90-44 203-31 276 32 32 28 73 92 73 114 0 17-2 18-30 3-16-9-30-12-30-7 0 9 58 40 76 41 6 1 18-17 27-39z" fill="#0074ac"/><path d="M0 930V0h1920v1860H0V930zm1078 513c50-24 89-67 119-134l28-59h60c78-1 149-28 153-58 3-17-2-22-17-22-19 0-21-6-23-72l-2-73-3 73-4 72h-214c-129 0-216 4-220 10s81 11 237 12l243 3-40 20c-36 18-60 20-237 20-127 0-197 4-195 10 1 6 47 9 120 7 74-2 117 0 117 7 0 45-68 129-132 162-115 59-271 11-328-102-28-53-26-62 10-44 17 9 30 12 30 7 0-7-62-42-75-42-3 0-14 18-25 40s-16 40-11 40 13-9 16-20c8-26 22-25 31 3 12 39 63 105 97 126 19 11 51 25 73 30 50 13 149 4 192-16zm-62-399c33-16 64-58 64-86-1-7-9 2-18 19-40 74-123 88-183 32-32-30-33-32-14-39s19-7-4-15c-16-5-26-3-32 6-12 19-11 32 1 24 5-3 17 6 27 21 32 50 100 66 159 38zm381-51c-4-3-7 0-7 7s3 10 7 7c3-4 3-10 0-14zm0-40c-4-3-7 0-7 7s3 10 7 7c3-4 3-10 0-14zm0-40c-4-3-7 0-7 7s3 10 7 7c3-4 3-10 0-14zm-306-31c-6-2-26-19-45-38-30-30-40-34-86-34s-56 4-86 34c-19 19-34 42-34 53 0 13 5 9 20-14 29-48 63-67 112-60 48 6 103 52 79 66-11 7-10 11 5 19 15 9 22 7 32-6 8-10 9-18 3-20zm-461 18c0-6-32-10-75-10s-75 4-75 10 32 10 75 10 75-4 75-10zm767-27c-4-3-7 0-7 7s3 10 7 7c3-4 3-10 0-14zm-667-13c0-6-48-10-125-10s-125 4-125 10 48 10 125 10 125-4 125-10zm673-83c6-59 4-70-13-87-18-18-33-20-142-19-68 1-161 4-208 8l-85 6 109 8c60 4 155 7 211 7h102l7 46c3 26 6 60 6 77 0 50 7 26 13-46zm-673 43c0-6-48-10-125-10s-125 4-125 10 48 10 125 10 125-4 125-10zm0-40c0-6-48-10-125-10s-125 4-125 10 48 10 125 10 125-4 125-10zm0-40c0-6-48-10-125-10s-125 4-125 10 48 10 125 10 125-4 125-10zm0-40c0-6-48-10-125-10s-125 4-125 10 48 10 125 10 125-4 125-10zm504-182c8-21 11-38 6-38s-12 9-15 20c-9 29-19 25-33-14-7-18-34-54-61-79-60-56-137-82-211-72-98 14-203 103-215 185-6 35-5 34 13-8 28-66 65-107 123-136 90-44 203-31 276 32 32 28 73 92 73 114 0 17-2 18-30 3-43-22-37-4 8 22 42 24 44 23 66-29z" fill="#4c6f97"/><path d="M0 930V0h1920v1860H0V930zm1077 513c51-24 99-77 124-139l23-54h65c81 0 151-28 151-60 0-13-7-20-20-20-18 0-20-7-22-72l-2-73-3 73-4 72h-214c-129 0-216 4-220 10s81 11 237 12l243 3-40 20c-36 18-60 20-237 20-127 0-197 4-195 10 1 6 47 9 120 7 74-2 117 0 117 7 0 45-68 129-132 162-115 59-271 11-328-102-23-44-26-66-7-52 18 15 47 23 47 15 0-7-63-42-75-42-3 0-14 18-25 40-12 24-16 40-9 40 6 0 13-9 16-20 6-21 23-28 23-8 0 21 62 108 93 130 68 49 196 58 274 21zm-58-397c32-17 61-57 61-83-1-16-2-16-12 2-27 49-61 75-100 75-64 0-132-49-97-71 8-4 4-9-10-14-25-8-41 1-41 21 0 8 4 13 9 9 6-3 15 4 21 15 28 52 113 75 169 46zm378-53c-4-3-7 0-7 7s3 10 7 7c3-4 3-10 0-14zm0-40c-4-3-7 0-7 7s3 10 7 7c3-4 3-10 0-14zm0-40c-4-3-7 0-7 7s3 10 7 7c3-4 3-10 0-14zm-304-13c3-11 1-20-5-20-5 0-21-13-34-30-44-52-126-58-176-13-26 23-52 73-38 73 5 0 10-4 10-9s12-23 26-40c43-51 123-51 170 1 16 16 16 21 4 29-13 8-13 10 0 19 23 15 37 12 43-10zm-463 0c0-6-32-10-75-10s-75 4-75 10 32 10 75 10 75-4 75-10zm767-27c-4-3-7 0-7 7s3 10 7 7c3-4 3-10 0-14zm-662-13c4-6-40-10-124-10-81 0-131 4-131 10s48 10 124 10c73 0 127-4 131-10zm668-83c6-59 4-70-13-87-18-18-33-20-142-19-68 1-161 4-208 8l-85 6 109 8c60 4 155 7 211 7h102l7 46c3 26 6 60 6 77 0 50 7 26 13-46zm-668 43c4-6-40-10-124-10-81 0-131 4-131 10s48 10 124 10c73 0 127-4 131-10zm-5-40c0-6-48-10-125-10s-125 4-125 10 48 10 125 10 125-4 125-10zm5-40c4-6-40-10-124-10-81 0-131 4-131 10s48 10 124 10c73 0 127-4 131-10zm-5-40c0-6-48-10-125-10s-125 4-125 10 48 10 125 10 125-4 125-10zm504-182c8-21 11-38 6-38s-12 9-15 20c-9 29-19 25-33-14-40-110-195-180-314-141-88 28-155 93-178 173-12 43 3 41 18-2 23-62 68-113 127-141 49-25 64-27 126-23 79 6 129 33 180 98 35 45 48 86 25 77-9-4-23-10-31-13-30-12-14 12 23 33 42 24 44 23 66-29z" fill="#5b7da3"/><path d="M0 930V0h1920v1860H0V930zm1076 514c52-25 100-78 125-140l23-54h65c81 0 151-28 151-60 0-13-7-20-20-20-18 0-20-7-22-72l-2-73-3 73-4 72h-214c-129 0-216 4-220 10s81 11 237 12l243 3-40 20c-36 18-60 20-235 20-123 0-195 4-195 10s44 9 118 7 117 0 117 7c0 45-68 129-132 162-115 59-271 11-328-102-26-50-26-64 2-45 25 18 38 20 38 8 0-7-63-42-75-42-3 0-14 18-25 40-21 40-10 58 11 19 10-20 12-20 29 19 26 59 91 118 147 137 58 18 158 13 209-11zm-57-398c32-17 61-57 61-83 0-13-6-9-19 13-38 62-99 81-160 49-32-16-47-45-30-56 8-4 4-9-10-14-25-8-41 1-41 21 0 8 4 13 8 10 5-3 19 8 31 25 36 49 104 63 160 35zm378-53c-4-3-7 0-7 7s3 10 7 7c3-4 3-10 0-14zm0-40c-4-3-7 0-7 7s3 10 7 7c3-4 3-10 0-14zm0-40c-4-3-7 0-7 7s3 10 7 7c3-4 3-10 0-14zm-307 3c0-2 3-11 6-20s1-16-6-16c-6 0-23-13-36-30-14-16-43-35-64-41-33-10-44-9-83 10-42 20-85 77-70 91 3 3 8-1 10-8 12-32 57-72 89-78 40-7 89 10 109 39 12 16 12 23 2 29-9 6-9 10 3 18 15 10 40 14 40 6zm-450-16c0-6-33-10-80-10s-80 4-80 10 33 10 80 10 80-4 80-10zm757-27c-4-3-7 0-7 7s3 10 7 7c3-4 3-10 0-14zm-657-13c0-6-50-10-130-10s-130 4-130 10 50 10 130 10 130-4 130-10zm663-83c6-59 4-70-13-87-18-18-33-20-142-19-68 1-161 4-208 8l-85 6 109 8c60 4 155 7 211 7h102l7 46c3 26 6 60 6 77 0 50 7 26 13-46zm-663 43c0-6-50-10-130-10s-130 4-130 10 50 10 130 10 130-4 130-10zm0-40c0-6-50-10-130-10s-130 4-130 10 50 10 130 10 130-4 130-10zm0-40c0-6-50-10-130-10s-130 4-130 10 50 10 130 10 130-4 130-10zm0-40c0-6-50-10-130-10s-130 4-130 10 50 10 130 10 130-4 130-10zm490-172c23-48 23-48 11-48-5 0-13 9-16 20-7 22-25 27-25 7 0-7-13-34-29-60-35-54-113-103-180-113-95-14-203 34-256 114-29 45-47 99-35 107 5 3 11-8 15-24 11-51 61-118 109-146 55-32 145-43 202-25 68 22 141 90 159 149 6 20 4 23-9 18-9-4-23-10-31-13-30-12-14 12 23 33 20 12 38 22 39 23 2 0 12-19 23-42z" fill="#00a0d6"/><g fill="#5d89ae"><path d="M0 930V0h1920v1860H0V930zm1072 527c9-1 14-5 11-10s3-6 14-3c13 4 26-1 38-14 10-11 15-20 12-20-4 0 7-21 23-47 16-25 34-61 41-80l11-33h66c82 0 152-28 152-60 0-13-7-20-20-20-18 0-20-7-22-72l-2-73-3 73-4 72h-204c-129 0-222 5-250 12-60 16-105 63-112 117-4 32-10 41-25 41-14 0-18 5-15 14 13 32-25 2-43-35-26-50-25-64 2-45 25 18 38 20 38 8 0-7-63-42-75-42-3 0-14 18-25 40-21 40-10 58 11 19 11-20 12-20 29 18 10 23 23 44 29 47 6 4 11 18 11 31 0 36 42 63 96 63 25 0 49 3 52 7 4 4 39 4 77 0 39-4 78-8 87-8zm288-314c0-5-60-7-132-5-249 4-273 8-70 10 111 1 202-1 202-5zm-341-97c32-17 61-57 61-83 0-13-6-9-19 13-38 62-99 81-160 49-32-16-47-45-30-56 8-4 4-9-10-14-25-8-41 1-41 21 0 8 4 13 8 10 5-3 19 8 31 25 36 49 104 63 160 35zm378-53c-4-3-7 0-7 7s3 10 7 7c3-4 3-10 0-14zm0-40c-4-3-7 0-7 7s3 10 7 7c3-4 3-10 0-14zm0-40c-4-3-7 0-7 7s3 10 7 7c3-4 3-10 0-14zm-307 3c0-2 3-11 6-20s1-16-6-16c-6 0-23-13-36-30-14-16-43-35-64-41-33-10-44-9-83 10-42 20-85 77-70 91 3 3 8-1 10-8 12-32 57-72 89-78 40-7 89 10 109 39 12 16 12 23 2 29-9 6-9 10 3 18 15 10 40 14 40 6zm-450-16c0-6-33-10-80-10s-80 4-80 10 33 10 80 10 80-4 80-10zm757-27c-4-3-7 0-7 7s3 10 7 7c3-4 3-10 0-14zm-657-13c0-6-50-10-130-10s-130 4-130 10 50 10 130 10 130-4 130-10zm674-120c23-27 27-52 11-76-9-13-21-24-28-24s-22-22-35-50c-20-43-28-50-60-57-20-4-45-6-54-4-19 2-24-14-8-24 13-8 13-25 1-25-5 0-13 9-16 20-7 22-25 27-25 7 0-7-13-34-29-60-35-54-113-103-180-113-95-14-203 34-256 114-29 45-47 99-35 107 5 3 11-8 15-24 11-51 61-118 109-146 55-32 145-43 202-25 68 22 141 90 159 149 6 20 4 23-9 18-9-4-23-10-31-13-26-11-16 12 11 25 25 11 25 13 10 30-9 10-16 32-16 49 0 42-26 55-120 63l-75 6 68 1c51 2 67 5 67 17 0 10-17 15-67 18l-68 3 75 2c42 1 80 6 85 11 6 5 69 11 140 13l130 3 5 50 4 50 4-50c2-27 9-57 16-65zm-674 80c0-6-50-10-130-10s-130 4-130 10 50 10 130 10 130-4 130-10zm0-40c0-6-50-10-130-10s-130 4-130 10 50 10 130 10 130-4 130-10zm0-40c0-6-50-10-130-10s-130 4-130 10 50 10 130 10 130-4 130-10zm0-40c0-6-50-10-130-10s-130 4-130 10 50 10 130 10 130-4 130-10zm-46-222c13-18 11-24-16-64-38-56-70-78-100-69-32 10-58 35-58 55 0 9-11 27-25 40-23 22-24 25-9 41 14 15 32 18 105 18 78 0 91-3 103-21z"/><path d="M814 1438c-4-7-3-8 4-4s12 9 12 12c0 8-9 4-16-8zm84-5c6-2 18-2 25 0 6 3 1 5-13 5s-19-2-12-5zm105 0c4-3 10-3 14 0 3 4 0 7-7 7s-10-3-7-7zm37-7c0-2 7-7 16-10 8-3 12-2 9 4-6 10-25 14-25 6zm-266-18c-4-7-3-8 4-4 12 7 16 16 8 16-3 0-8-5-12-12zm345-30c24-27 22-48-5-48-15 0-46-59-38-72 8-12 124-10 124 2 0 27-31 78-66 110-23 21-29 24-15 8zm-76-115c4-3 10-3 14 0 3 4 0 7-7 7s-10-3-7-7zm-18-33c-38-5-42-7-17-8 34-2 44-18 15-25-10-3 79-5 197-6 127-1 210 3 205 8-6 5-32 16-58 25-50 17-239 20-342 6zm339-522c-4-7-3-8 4-4 12 7 16 16 8 16-3 0-8-5-12-12z"/></g><g fill="#01b4e9"><path d="M0 930V0h1920v1860H0V930zm1072 527c9-1 14-5 11-10s3-6 14-3c13 4 26-1 38-14 10-11 15-20 12-20-4 0 7-21 23-47 16-25 34-61 41-80l11-33h66c82 0 152-28 152-60 0-13-7-20-19-20-16 0-19-9-20-67-2-90-11-94-11-5v72h-205c-128 0-222 5-250 12-60 16-105 63-112 117-4 32-10 41-25 41-14 0-18 5-15 14 13 33-25 2-44-36-23-45-20-55 9-39 25 13 32 14 32 3 0-7-63-42-75-42-3 0-14 18-25 40-21 40-10 58 11 19 11-20 12-20 29 18 10 23 23 44 29 47 6 4 11 18 11 31 0 36 42 63 96 63 25 0 49 3 52 7 4 4 39 4 77 0 39-4 78-8 87-8zm288-314c0-5-60-7-132-5-249 4-273 8-70 10 111 1 202-1 202-5zm-341-97c34-18 64-61 58-84-3-13-6-11-15 9-25 61-100 86-161 54-31-15-49-47-31-53 6-2 4-9-7-17-13-9-22-10-30-3-14 12-18 42-5 34 5-3 19 8 31 25 36 49 104 63 160 35zm386-46c3-5 1-10-4-10-6 0-11 5-11 10 0 6 2 10 4 10 3 0 8-4 11-10zm5-34c0-3-4-8-10-11-5-3-10-1-10 4 0 6 5 11 10 11 6 0 10-2 10-4zm0-40c0-3-4-8-10-11-5-3-10-1-10 4 0 6 5 11 10 11 6 0 10-2 10-4zm-320-10c0-2 3-11 6-20s1-16-6-16c-6 0-23-13-36-30-14-16-43-35-64-41-33-10-44-9-83 10-42 20-85 77-70 91 3 3 8-2 11-10 9-25 58-69 86-76 37-9 73 3 103 32 21 21 23 28 12 35-12 8-12 11 1 19 15 10 40 14 40 6zm-450-16c0-6-33-10-80-10s-80 4-80 10 33 10 80 10 80-4 80-10zm765-20c3-5 1-10-4-10-6 0-11 5-11 10 0 6 2 10 4 10 3 0 8-4 11-10zm-665-20c0-6-50-10-130-10s-130 4-130 10 50 10 130 10 130-4 130-10zm662-54c-2-19 6-50 18-75 21-39 21-43 6-66-9-14-22-25-29-25s-22-22-35-50c-20-43-28-50-60-57-20-4-45-6-54-4-19 2-24-14-8-24 12-8 13-25 2-25-5 0-13 10-18 21-9 19-13 16-44-37-60-102-172-150-285-125-89 20-170 95-194 179-15 52 3 45 22-9 32-88 108-146 203-156 103-11 200 41 245 129 23 45 20 55-9 39-25-13-32-14-32-3 0 5 12 14 26 21 25 11 25 13 10 30-9 10-16 32-16 49 0 42-27 55-118 57-95 3-107 15-14 15 56 0 72 3 72 15 0 10-17 15-67 18l-68 3 75 2c42 1 80 6 85 11 6 5 69 11 140 13l130 3 3 49c2 26 6 45 10 42 3-4 5-22 4-40zm-662 14c0-6-50-10-130-10s-130 4-130 10 50 10 130 10 130-4 130-10zm0-40c0-6-50-10-130-10s-130 4-130 10 50 10 130 10 130-4 130-10zm0-40c0-6-50-10-130-10s-130 4-130 10 50 10 130 10 130-4 130-10zm0-40c0-6-50-10-130-10s-130 4-130 10 50 10 130 10 130-4 130-10zm-46-222c13-18 11-24-16-64-38-56-70-78-100-69-32 10-58 35-58 55 0 9-11 27-25 40-23 22-24 25-9 41 14 15 32 18 105 18 78 0 91-3 103-21z"/><path d="M814 1438c-4-7-3-8 4-4s12 9 12 12c0 8-9 4-16-8zm84-5c6-2 18-2 25 0 6 3 1 5-13 5s-19-2-12-5zm105 0c4-3 10-3 14 0 3 4 0 7-7 7s-10-3-7-7zm37-7c0-2 7-7 16-10 8-3 12-2 9 4-6 10-25 14-25 6zm-266-18c-4-7-3-8 4-4 12 7 16 16 8 16-3 0-8-5-12-12zm345-30c24-27 22-48-5-48-15 0-46-59-38-72 7-11 124-10 124 1 0 25-33 80-67 111-21 20-28 24-14 8zm-76-115c4-3 10-3 14 0 3 4 0 7-7 7s-10-3-7-7zm-18-33c-38-5-42-7-17-8 34-2 44-18 15-25-10-3 79-5 197-6 127-1 210 3 205 8-6 5-32 16-58 25-50 17-239 20-342 6zm339-522c-4-7-3-8 4-4 12 7 16 16 8 16-3 0-8-5-12-12z"/></g><g fill="#7091b3"><path d="M0 930V0h1920v1860H0V930zm1123 518c10-5 22-20 27-34 6-14 25-56 42-94l33-70h65c80-1 150-28 150-60 0-13-7-20-19-20-16 0-19-9-20-67-2-90-11-95-11-5v71l-227 3c-201 3-233 5-267 22-42 21-82 78-78 111 2 13-7 26-28 37l-30 17-21-40c-23-46-20-56 9-40 25 13 32 14 32 3 0-7-63-42-75-42-3 0-14 18-25 40-21 40-10 58 11 19 11-20 12-20 29 18 10 23 23 44 29 47 6 4 11 20 11 35 0 41 27 59 95 64 83 6 246-3 268-15zm247-358c0-33-4-60-10-60-5 0-10 25-10 55v55l-197 3-198 2 208 3 207 2v-60zm-351-44c34-18 64-61 58-84-3-13-6-11-15 9-25 61-100 86-161 54-31-15-49-47-31-53 6-2 4-9-7-17-13-9-22-10-30-3-14 12-18 42-5 34 5-3 19 8 31 25 36 49 104 63 160 35zm351-46c0-5-4-10-10-10-5 0-10 5-10 10 0 6 5 10 10 10 6 0 10-4 10-10zm35 0c3-5 1-10-4-10-6 0-11 5-11 10 0 6 2 10 4 10 3 0 8-4 11-10zm-35-40c0-5-4-10-10-10-5 0-10 5-10 10 0 6 5 10 10 10 6 0 10-4 10-10zm40 6c0-3-4-8-10-11-5-3-10-1-10 4 0 6 5 11 10 11 6 0 10-2 10-4zm-40-46c0-5-4-10-10-10-5 0-10 5-10 10 0 6 5 10 10 10 6 0 10-4 10-10zm40 6c0-3-4-8-10-11-5-3-10-1-10 4 0 6 5 11 10 11 6 0 10-2 10-4zm-320-10c0-2 3-11 6-20s1-16-6-16c-6 0-23-13-36-30-14-16-43-35-64-41-33-10-44-9-83 10-42 20-85 77-70 91 3 3 8-2 11-10 9-25 58-69 86-76 37-9 73 3 103 32 21 21 23 28 12 35-12 8-12 11 1 19 15 10 40 14 40 6zm-450-16c0-6-33-10-80-10s-80 4-80 10 33 10 80 10 80-4 80-10zm730-20c0-5-4-10-10-10-5 0-10 5-10 10 0 6 5 10 10 10 6 0 10-4 10-10zm35 0c3-5 1-10-4-10-6 0-11 5-11 10 0 6 2 10 4 10 3 0 8-4 11-10zm-665-20c0-6-50-10-130-10s-130 4-130 10 50 10 130 10 130-4 130-10zm630-55c0-25 5-45 10-45 6 0 10 21 10 47 0 25 3 43 7 39s6-22 5-40c-2-19 6-50 18-75 21-39 21-43 6-66-9-14-23-25-30-25-8 0-17-12-21-27-12-55-62-93-123-93-20 0-23-3-14-12 14-14 16-28 4-28-5 0-13 10-18 21-9 19-13 16-44-37-60-102-172-150-285-125-89 20-170 95-194 179-15 52 3 45 22-9 32-88 108-146 203-156 103-11 200 41 245 129 23 45 20 55-9 39-25-13-32-14-32-3 0 5 12 14 26 21 25 11 25 13 10 30-9 10-16 28-16 40s-11 32-24 44c-20 18-38 22-95 23-39 0-74 4-78 7-3 4 26 7 65 7 56 0 72 3 72 15 0 10-17 15-67 18l-68 3 70 2c43 2 78 8 89 17 15 11 48 15 128 15h108v45c0 25 5 45 10 45 6 0 10-20 10-45zm-630 15c0-6-50-10-130-10s-130 4-130 10 50 10 130 10 130-4 130-10zm0-40c0-6-50-10-130-10s-130 4-130 10 50 10 130 10 130-4 130-10zm0-40c0-6-50-10-130-10s-130 4-130 10 50 10 130 10 130-4 130-10zm0-40c0-6-50-10-130-10s-130 4-130 10 50 10 130 10 130-4 130-10zm-44-225c15-24 15-26-22-70-39-49-62-65-89-65-24 0-75 39-75 57 0 8-9 26-20 40-19 24-19 27-4 45 14 15 32 18 105 18 83 0 90-2 105-25z"/><path d="M1111 1315c-47-54-42-65 29-65 42 0 60 4 60 13-1 20-34 80-46 84-6 2-25-12-43-32zm-60-94c-10-10-25-21-32-24-8-3 83-6 201-6 127-1 210 3 205 8-28 26-111 41-230 41-109 0-127-2-144-19z"/></g><g fill="#83a1bf"><path d="M0 930V0h1920v1860H0V930zm1126 515c12-8 25-26 28-41 4-15 15-39 25-53s24-43 30-63l13-38 66-1c38 0 87-8 112-17 50-19 66-50 31-59-19-5-21-13-21-74 0-39-4-69-10-69s-10 30-10 69v70l-227 3c-201 3-233 5-267 22-42 21-82 78-78 111 2 13-7 25-26 36-27 15-30 15-41-3-23-37-33-71-19-65 7 3 21 8 31 12 33 13 17-11-18-28-20-9-38-17-40-17-3 0-14 18-25 40-20 40-11 59 10 20 10-19 14-15 40 36 17 31 30 64 30 73 0 31 33 50 95 54 97 7 248-3 271-18zm244-355c0-33-4-60-10-60-5 0-10 25-10 55v55l-197 3-198 2 208 3 207 2v-60zm-343-50c36-22 56-53 50-78-3-13-6-11-15 9-29 72-118 92-174 38-23-21-29-32-20-36 10-4 7-9-8-20-19-13-24-13-31-2-11 18-12 42-1 35 5-3 19 8 31 25 38 52 111 64 168 29zm343-40c0-5-4-10-10-10-5 0-10 5-10 10 0 6 5 10 10 10 6 0 10-4 10-10zm40 0c0-5-4-10-10-10-5 0-10 5-10 10 0 6 5 10 10 10 6 0 10-4 10-10zm-40-40c0-5-4-10-10-10-5 0-10 5-10 10 0 6 5 10 10 10 6 0 10-4 10-10zm40 0c0-5-4-10-10-10-5 0-10 5-10 10 0 6 5 10 10 10 6 0 10-4 10-10zm-40-40c0-5-4-10-10-10-5 0-10 5-10 10 0 6 5 10 10 10 6 0 10-4 10-10zm40 0c0-5-4-10-10-10-5 0-10 5-10 10 0 6 5 10 10 10 6 0 10-4 10-10zm-316-16c9-23 7-36-4-29-6 3-22-7-35-24-65-77-183-54-218 42-3 9-2 17 4 17 5 0 14-11 19-25 11-29 65-65 98-65 49 0 122 60 89 73-9 4-8 8 3 16 21 15 37 13 44-5zm-454-4c0-6-33-10-80-10s-80 4-80 10 33 10 80 10 80-4 80-10zm730-20c0-5-4-10-10-10-5 0-10 5-10 10 0 6 5 10 10 10 6 0 10-4 10-10zm40 1c0-6-4-13-10-16-5-3-10 1-10 9 0 9 5 16 10 16 6 0 10-4 10-9zm-670-21c0-6-50-10-130-10s-130 4-130 10 50 10 130 10 130-4 130-10zm630-55c0-25 5-45 10-45 6 0 10 20 10 45s5 45 10 45c6 0 10-22 10-48 0-27 7-63 16-81 14-29 14-34 0-56-9-14-23-25-30-25-8 0-17-13-21-28-9-43-50-81-96-88-33-6-39-10-34-25 9-26-10-24-22 3-8 20-12 17-41-36-83-147-273-179-402-69-52 45-112 163-82 163 4 0 15-22 24-48 19-53 71-113 120-138 17-9 57-19 90-21 99-10 195 42 239 130 23 44 20 54-9 38-25-13-32-14-32-3 0 5 12 14 26 21 25 11 25 13 10 30-9 10-16 27-16 39 0 44-33 62-114 62-41 0-78 5-81 10-4 6 20 10 64 10 56 0 71 3 71 15 0 10-17 15-67 18l-68 3 70 2c43 2 78 8 89 17 15 11 48 15 128 15h108v45c0 25 5 45 10 45 6 0 10-20 10-45zm-630 15c0-6-50-10-130-10s-130 4-130 10 50 10 130 10 130-4 130-10zm0-40c0-6-50-10-130-10s-130 4-130 10 50 10 130 10 130-4 130-10zm0-40c0-6-50-10-130-10s-130 4-130 10 50 10 130 10 130-4 130-10zm0-40c0-6-50-10-130-10s-130 4-130 10 50 10 130 10 130-4 130-10zm-44-225c15-24 15-26-22-70-39-49-62-65-89-65-24 0-75 39-75 57 0 8-9 26-20 40-19 24-19 27-4 45 14 15 32 18 105 18 83 0 90-2 105-25z"/><path d="M1111 1315c-47-54-42-65 29-65 35 0 60 4 60 10 0 18-40 90-49 90-5 0-23-16-40-35zm-59-93c-11-11-26-22-33-25-8-3 83-6 201-6h215l-40 22c-35 19-59 22-182 25-130 4-143 2-161-16z"/></g><g fill="#2cccf9"><path d="M0 930V0h1920v1860H0V930zm1126 515c12-8 25-26 28-40 4-15 18-43 31-63s27-49 30-64c7-27 9-28 75-28 46 0 84-7 114-20 49-20 61-48 26-57-22-6-24-30-22-282 1-101 5-143 17-168 15-31 15-36 1-59-9-13-23-24-30-24-8 0-17-13-21-28-9-43-50-81-95-88-36-6-39-9-33-32 7-31-14-21-26 11-7 19-11 16-34-30-100-196-384-186-476 17-22 48-26 70-13 70 4 0 15-21 24-47 36-100 122-158 233-158 101 1 173 44 217 128 22 44 19 54-10 38-25-13-32-14-32-3 0 5 12 14 26 21 25 11 25 13 10 30-9 10-16 27-16 39 0 44-33 62-114 62-41 0-78 5-81 10-4 6 20 10 64 10 56 0 71 3 71 15 0 10-17 15-67 18l-68 3 70 2c43 2 78 8 89 17 15 11 48 15 128 15h108v45c0 25 5 45 10 45 6 0 10-20 10-45s5-45 10-45c6 0 10 75 10 204v205l-227 3c-201 3-233 5-267 22-42 21-82 78-78 111 2 13-7 25-26 36-27 15-30 15-41-3-23-37-33-71-19-65 7 3 21 8 31 12 29 12 19-9-14-27-17-10-34-18-39-18-13 0-51 71-44 82 4 6 13 0 21-16l14-26 29 56c17 31 30 64 30 73 0 31 33 50 95 54 97 7 248-3 271-18zm244-355c0-33-4-60-10-60-5 0-10 25-10 55v55l-197 3-198 2 208 3 207 2v-60zm-343-50c36-21 69-75 53-85-6-3-14 5-19 18s-22 34-38 47c-38 30-104 23-141-14-15-14-21-26-14-26 19 0 14-18-9-31-17-9-23-8-30 2-11 17-12 40-1 37 4-1 23 14 44 35 31 31 43 37 80 37 25 0 56-8 75-20zm343-40c0-5-4-10-10-10-5 0-10 5-10 10 0 6 5 10 10 10 6 0 10-4 10-10zm0-40c0-5-4-10-10-10-5 0-10 5-10 10 0 6 5 10 10 10 6 0 10-4 10-10zm0-40c0-5-4-10-10-10-5 0-10 5-10 10 0 6 5 10 10 10 6 0 10-4 10-10zm-276-16c9-24 7-36-4-29-6 4-20-5-31-19-24-31-69-56-99-56-37 0-89 31-110 65-22 36-24 45-10 45 5 0 16-13 25-30 33-64 120-76 173-23 20 20 22 27 11 34-12 8-12 11 1 19 22 14 37 12 44-6zm-454-4c0-6-35-10-85-10s-85 4-85 10 35 10 85 10 85-4 85-10zm730-20c0-5-4-10-10-10-5 0-10 5-10 10 0 6 5 10 10 10 6 0 10-4 10-10zm-630-20c0-6-52-10-135-10s-135 4-135 10 52 10 135 10 135-4 135-10zm0-40c0-6-52-10-135-10s-135 4-135 10 52 10 135 10 135-4 135-10zm0-40c0-6-52-10-135-10s-135 4-135 10 52 10 135 10 135-4 135-10zm0-40c0-6-52-10-135-10s-135 4-135 10 52 10 135 10 135-4 135-10zm0-40c0-6-52-10-135-10s-135 4-135 10 52 10 135 10 135-4 135-10zm-44-225c15-24 15-26-22-70-39-49-62-65-89-65-24 0-75 39-75 57 0 8-9 26-20 40-19 24-19 27-4 45 14 15 32 18 105 18 83 0 90-2 105-25z"/><path d="M1111 1314c-18-20-30-41-28-47 2-7 29-13 61-15 56-3 57-2 51 20-12 37-35 78-44 78-5 0-23-16-40-36zm-59-92c-11-11-26-22-33-25-8-3 83-5 201-5h215l-45 21c-37 17-68 22-182 24-124 3-139 2-156-15z"/></g><g fill="#91b0cb"><path d="M0 930V0h1920v1860H0V930zm1127 514c13-8 26-27 29-42 4-15 17-43 30-62s26-47 29-62c7-27 9-28 75-28 46 0 84-7 114-20 49-20 61-48 26-57-22-6-24-30-22-281 1-102 5-138 17-154 22-32 19-53-14-90-15-18-31-43-35-56-11-32-68-72-105-72-29 0-31-2-25-26 8-33-13-24-25 9-7 19-11 16-34-30-100-196-384-186-476 17-22 48-26 70-13 70 4 0 15-21 24-47 36-100 122-158 233-158 101 1 173 44 217 128 22 44 19 54-10 38-25-13-32-14-32-3 0 5 12 14 26 20l25 12-20 26c-12 15-21 36-21 47 0 33-30 46-107 47-39 0-75 5-78 10-4 6 20 10 64 10 41 0 71 4 71 10s-30 10-71 10c-44 0-68 4-64 10 3 6 37 10 74 10 49 0 72 4 81 15 10 12 37 15 126 15h114v45c0 25 5 45 10 45 6 0 10-20 10-45s5-45 10-45c6 0 10 75 10 205v205h-212c-122 0-230 5-253 11-55 15-104 64-111 111-4 23-15 43-28 52-20 13-24 12-35-6-23-37-33-71-19-65 7 3 21 8 31 12 29 12 19-9-14-27-17-10-34-18-39-18-13 0-51 71-44 82 4 6 13 0 21-16l14-27 25 48c13 26 24 55 24 64s9 28 20 42c18 22 31 27 83 30 103 7 250-3 274-19zm243-349c0-37-4-65-10-65-5 0-10 25-10 55v55h-201c-131 0-198 3-194 10 4 6 85 10 211 10h204v-65zm-343-55c36-21 69-75 53-85-6-3-14 5-19 18s-22 34-38 47c-38 30-104 23-141-14-15-14-21-26-14-26 19 0 14-18-9-31-17-9-23-8-30 2-11 17-12 40-1 37 4-1 23 14 44 35 31 31 43 37 80 37 25 0 56-8 75-20zm343-40c0-5-4-10-10-10-5 0-10 5-10 10 0 6 5 10 10 10 6 0 10-4 10-10zm0-40c0-5-4-10-10-10-5 0-10 5-10 10 0 6 5 10 10 10 6 0 10-4 10-10zm0-40c0-5-4-10-10-10-5 0-10 5-10 10 0 6 5 10 10 10 6 0 10-4 10-10zm-276-16c9-24 7-36-4-29-6 4-20-5-31-19-24-31-69-56-99-56-37 0-89 31-110 65-22 36-24 45-10 45 5 0 16-13 25-30 33-64 120-76 173-23 20 20 22 27 11 34-12 8-12 11 1 19 22 14 37 12 44-6zm-454-4c0-6-35-10-85-10s-85 4-85 10 35 10 85 10 85-4 85-10zm730-20c0-5-4-10-10-10-5 0-10 5-10 10 0 6 5 10 10 10 6 0 10-4 10-10zm-630-20c0-6-52-10-135-10s-135 4-135 10 52 10 135 10 135-4 135-10zm0-40c0-6-52-10-135-10s-135 4-135 10 52 10 135 10 135-4 135-10zm0-40c0-6-52-10-135-10s-135 4-135 10 52 10 135 10 135-4 135-10zm0-40c0-6-52-10-135-10s-135 4-135 10 52 10 135 10 135-4 135-10zm0-40c0-6-52-10-135-10s-135 4-135 10 52 10 135 10 135-4 135-10zm-39-227c8-21 6-30-11-48-11-12-20-26-20-32 0-20-52-53-83-53-33 0-77 33-77 58 0 7-9 25-20 39-15 19-17 30-9 44 8 17 22 19 110 19 98 0 100 0 110-27z"/><path d="M1123 1322c-17-15-33-36-35-47-3-18 3-20 55-23 57-3 58-2 52 20-8 24-34 78-38 78-1 0-16-13-34-28zm-76-107l-28-25 208 1 208 1-45 21c-38 17-67 21-180 24-132 3-136 2-163-22z"/></g><g fill="#acc1d7"><path d="M0 930V0h1920v1860H0V930zm1127 514c13-8 26-27 29-42 4-15 15-37 25-50s23-38 29-56c10-33 12-33 78-38 84-6 162-38 162-67 0-14-6-21-20-21-18 0-20-7-21-72-5-216 1-339 16-361 22-31 19-52-14-89-15-18-31-43-35-56-11-32-68-72-105-72-29 0-31-2-25-28l5-27-19 23c-25 28-28 28-36-4-4-14-28-47-54-73-135-135-353-94-431 79-22 48-26 70-13 70 4 0 15-22 25-49 24-67 98-135 168-151 121-29 246 33 289 144 9 24 8 27-5 22-8-3-22-9-30-12-26-11-16 12 11 24l25 12-20 26c-12 15-21 36-21 47 0 33-30 46-107 47-39 0-75 4-78 10-4 6 20 10 64 10 41 0 71 4 71 10s-30 10-71 10c-44 0-68 4-64 10 3 6 37 10 74 10 49 0 72 4 81 15 10 12 37 15 126 15h114v380h-201c-131 0-198 3-194 10 4 6 85 10 211 10h204V960c0-110 3-200 8-200 4 0 7 92 7 205v205h-210c-120 0-227 5-250 11-55 15-104 64-111 111-4 23-15 43-29 52-22 15-24 14-44-26-23-48-22-54 9-38 11 6 26 9 33 7 14-5-51-47-74-47-14 0-49 57-49 80 0 18 19 10 25-10 3-11 9-20 13-20 10 0 52 82 52 101 0 9 9 28 20 42 17 21 31 27 78 30 99 7 255-3 279-19zm-107-397c23-12 70-71 70-88 0-19-21-8-30 15-21 57-91 81-149 52-32-17-59-46-42-46 18 0 12-19-10-31-17-9-23-8-30 2-13 21-11 39 5 39 8 0 18 9 21 20 14 43 110 65 165 37zM918 833c29-12 43-13 74-4 43 13 75 50 55 63-9 6-9 10 3 18 22 14 37 12 44-6 9-23 7-36-4-29-5 3-16-5-25-19-36-55-120-69-180-30-30 20-59 70-49 86 4 6 15-4 26-26 13-25 32-43 56-53zm-278 67c0-6-35-10-85-10s-85 4-85 10 35 10 85 10 85-4 85-10zm100-40c0-6-52-10-135-10s-135 4-135 10 52 10 135 10 135-4 135-10zm0-40c0-6-52-10-135-10s-135 4-135 10 52 10 135 10 135-4 135-10zm0-40c0-6-52-10-135-10s-135 4-135 10 52 10 135 10 135-4 135-10zm0-40c0-6-52-10-135-10s-135 4-135 10 52 10 135 10 135-4 135-10zm0-40c0-6-52-10-135-10s-135 4-135 10 52 10 135 10 135-4 135-10zm-39-227c8-21 6-30-11-48-11-12-20-26-20-32 0-20-52-53-83-53-33 0-77 33-77 58 0 7-9 25-20 39-15 19-17 30-9 44 8 17 22 19 110 19 98 0 100 0 110-27z"/><path d="M1124 1322c-17-15-34-35-37-44-6-16 1-18 53-18h60l-15 38c-23 52-26 54-61 24zm-83-112l-23-20 208 1 209 1-40 19c-34 15-63 18-185 18-129 0-148-2-169-19z"/></g><g fill="#bdd0e1"><path d="M0 930V0h1920v1860H0V930zm1127 514c13-8 26-27 29-42 4-15 15-37 25-50s23-38 29-56c10-33 12-33 78-38 84-6 162-38 162-67 0-14-6-21-20-21-19 0-20-7-20-207 1-167 4-212 15-227 22-29 18-51-14-88-15-18-31-43-35-56-11-32-68-72-105-72-29 0-31-2-25-25 7-30-12-34-21-5-8 27-21 25-29-3-9-35-63-94-112-123-33-19-64-28-113-32-89-6-154 21-216 90-25 28-45 44-45 36s-9-23-20-33-20-24-20-31c0-21-51-54-83-54-33 0-77 33-77 58 0 7-9 25-20 39-15 19-17 30-9 44 8 17 22 19 107 19 65 0 102-4 111-13 10-10 10-7 2 16-14 35-14 57-1 57 5 0 15-18 21-40 15-51 70-115 120-141 94-48 209-30 283 45 24 23 48 57 54 74 12 35 10 37-20 21-29-16-36 0-9 20 23 18 23 19 7 42-9 13-16 33-16 45 0 29-34 43-115 46-89 4-88 21 2 29l68 5-73 2c-94 2-87 22 7 22 49 0 72 4 81 15 10 12 37 15 125 15h113v190l1 190h-200c-131 0-198 3-194 10 4 6 85 10 210 10h204l4-127 3-128 2 133 2 132h-207c-118 0-225 5-248 11-55 15-104 64-112 112-5 32-25 57-47 57-3 0-15-19-27-41-19-39-20-41-2-34 67 27 73 9 8-23l-45-22-20 40c-11 21-20 44-20 50 0 18 18 11 25-10 3-11 9-20 13-20 9 1 52 86 52 104 0 7 9 25 20 39 17 21 31 27 78 30 100 8 255-3 279-19zm123-390c0-2-16-4-35-4s-35 4-35 8 16 6 35 4 35-6 35-8zm50 6c0-5-5-10-11-10-5 0-7 5-4 10 3 6 8 10 11 10 2 0 4-4 4-10zm-266-21c30-23 61-77 51-87-4-4-12 1-19 12-28 46-49 65-77 71-21 5-34 3-39-5-4-7-15-10-23-7-22 8-73-33-55-45 10-7 9-11-6-23-27-20-31-19-44 10-9 20-9 25 2 25 7 0 19 7 26 15 11 13-6 15-143 15H552l-4-55-3-55h48c26 0 47-4 47-10 0-5-19-10-42-10-24 0-50-5-58-10-10-7 19-10 93-10 59 0 107-4 107-9 0-9-192-19-242-12-35 4-37 21-3 21 14 0 25 5 25 10 0 6-11 10-25 10s-25 5-25 10c0 6 11 10 25 10 24 0 25 2 25 70v70l198 3c108 1 218 3 243 5 34 1 53-3 73-19zm293 14c-4-3-10-3-14 0-3 4 0 7 7 7s10-3 7-7zm-127-33c0-5-5-10-11-10-5 0-7 5-4 10 3 6 8 10 11 10 2 0 4-4 4-10zm227-7c-4-3-7 0-7 7s3 10 7 7c3-4 3-10 0-14zm-154 0c-13-2-33-2-45 0-13 2-3 4 22 4s35-2 23-4zm-73-33c0-5-5-10-11-10-5 0-7 5-4 10 3 6 8 10 11 10 2 0 4-4 4-10zm227-7c-4-3-7 0-7 7s3 10 7 7c3-4 3-10 0-14zm-154 0c-13-2-33-2-45 0-13 2-3 4 22 4s35-2 23-4zm-86-40c-4-3-7 0-7 7s3 10 7 7c3-4 3-10 0-14zm76 0c-13-2-33-2-45 0-13 2-3 4 22 4s35-2 23-4zm64 1c-3-3-12-4-19-1-8 3-5 6 6 6 11 1 17-2 13-5zM917 834c44-19 83-11 118 23 19 20 23 28 13 35-10 6-10 10 2 18 22 14 37 12 44-6 9-23 7-36-3-30-5 3-16-5-24-18-36-54-125-69-183-31-28 18-58 71-48 87 4 6 15-4 26-26 13-24 32-43 55-52zm510 59c-4-3-7 0-7 7s3 10 7 7c3-4 3-10 0-14zm-220 1c-3-3-12-4-19-1-8 3-5 6 6 6 11 1 17-2 13-5zm30-1c-4-3-10-3-14 0-3 4 0 7 7 7s10-3 7-7zm81 0c-10-2-28-2-40 0-13 2-5 4 17 4 22 1 32-1 23-4zm109-40c-4-3-7 0-7 7s3 10 7 7c3-4 3-10 0-14zm-129 0c-21-2-57-2-80 0-24 2-7 4 37 4s63-2 43-4zm-558-33c0-6-38-10-92-10-51 0-100-5-108-10-10-7 19-10 93-10 64 0 107-4 107-10s-38-10-94-10c-53 0-98-4-101-10-4-6 30-10 94-10 61 0 101-4 101-10s-38-10-92-10c-51 0-100-5-108-10-10-7 19-10 93-10 64 0 107-4 107-10s-38-10-95-10h-95V590h200c171 0 200-2 200-15s-30-15-202-14c-127 0-207 4-215 11-8 6-13 33-13 64 0 51-1 54-25 54-14 0-25 5-25 10 0 6 11 10 25 10s25 5 25 10c0 6-11 10-25 10s-25 5-25 10c0 6 11 10 25 10s25 5 25 10c0 6-11 10-25 10s-25 5-25 10c0 6 11 10 25 10s25 5 25 10c0 6-11 10-25 10s-25 5-25 10c0 6 52 10 135 10s135-4 135-10z"/><path d="M1124 1322c-17-15-34-35-37-44-6-16 1-18 53-18h60l-15 38c-23 52-26 54-61 24zm-83-112l-23-20h201c111 0 201 2 201 6 0 3-16 12-35 20-25 10-74 14-177 14-127-1-146-3-167-20zm332-380c0-41 2-58 4-37 2 20 2 54 0 75-2 20-4 3-4-38z"/></g><g fill="#cacadc"><path d="M0 930V0h1920v1860H0V930zm1122 519c10-5 37-50 60-99l43-90h55c74-1 164-37 168-68 3-17-2-22-17-22-19 0-21-6-21-69 0-46 4-71 13-74 9-4 8-8-3-16-13-10-13-12 0-21s13-11 0-20-13-11 0-20 13-11 0-20-13-11 0-20 13-11 0-20-13-11 0-21c11-8 12-12 3-16-18-7-16-93 2-117 22-29 18-51-14-88-15-18-31-43-35-56-11-32-68-72-105-72-29 0-31-2-25-25 8-31-9-33-23-2-10 21-11 20-31-18-43-84-121-135-218-143-97-7-176 28-236 106-16 20-28 29-28 20 0-8-9-23-20-33s-20-24-20-31c0-21-51-54-83-54-33 0-77 33-77 58 0 7-9 25-20 39-15 19-17 30-9 44 8 17 22 19 107 19 57 0 103-5 109-11 8-8 8 1 0 30l-11 41h-67c-97 0-99 2-99 71 0 56-1 59-25 59-14 0-25 5-25 10 0 6 11 10 25 10s25 5 25 10c0 6-11 10-25 10s-25 5-25 10c0 6 11 10 25 10s25 5 25 10c0 6-11 10-25 10s-25 5-25 10c0 6 11 10 25 10s25 5 25 10c0 6-11 10-25 10s-25 5-25 10c0 6 11 10 25 10s25 5 25 10c0 6-11 10-25 10s-25 5-25 10c0 6 11 10 25 10s25 5 25 10c0 6-11 10-25 10s-25 5-25 10c0 6 11 10 25 10 24 0 25 2 25 70v70h168c93 0 203 3 244 6l75 7 36-34c41-39 57-79 33-79-9 0-16 6-16 14 0 25-44 66-77 72-22 4-33 3-33-5 0-6-13-11-28-11-16 0-37-9-47-20s-13-20-7-20c19 0 14-18-9-30-17-9-23-8-35 7-17 23-17 33 0 33 7 0 19 7 26 15 11 13-6 15-144 15H550V910h45c25 0 45-4 45-10 0-5-20-10-45-10s-45-4-45-10 38-10 95-10 95-4 95-10-38-10-95-10-95-4-95-10 38-10 95-10 95-4 95-10-38-10-95-10-95-4-95-10 38-10 95-10 95-4 95-10-38-10-95-10-95-4-95-10 38-10 95-10 95-4 95-10-38-10-95-10-95-4-95-10 38-10 95-10 95-4 95-10-38-10-95-10h-95V590h200c171 0 200-2 200-15s-20-15-121-15c-135 0-130 3-92-75 36-72 135-135 212-135 59 0 132 31 175 74 48 47 79 114 48 101-9-4-26-9-37-12-16-4-14 0 9 20 27 24 28 26 12 48-9 13-16 32-16 43 0 33-30 45-113 46-58 0-78 3-75 13 3 7 32 14 74 18l69 5-73 2c-94 2-87 22 7 22 49 0 72 4 81 15 10 12 37 15 126 15h114v90h-85c-54 0-85 4-85 11s29 9 85 7c63-2 85 0 85 10 0 9-24 12-85 12-50 0-85 4-85 10s35 10 85 10c61 0 85 3 85 13 0 9-22 11-85 9-56-2-85 0-85 7s31 11 85 11c50 0 85 4 85 10s-35 10-85 10-85 4-85 10 35 10 85 10c61 0 85 3 85 13 0 9-22 11-85 9-56-2-85 0-85 7s31 11 85 11h85v110h-201c-131 0-198 3-194 10 4 6 85 10 210 10h204l4-67 3-68 2 73 2 72h-207c-118 0-225 5-248 11-55 15-104 64-112 112-5 32-25 57-47 57-3 0-15-19-27-41-19-39-20-41-2-34 67 27 73 9 8-23l-45-22-20 40c-11 21-20 44-20 50 0 18 18 11 25-10 3-11 9-20 13-20 8 1 47 82 57 116 9 36 38 53 95 57 79 6 250-2 272-14zm208-389c0-6-32-10-75-10s-75 4-75 10 32 10 75 10 75-4 75-10zm-230-177c0-7-6-13-13-13s-18-9-25-21c-16-24-70-49-109-49-52 0-123 63-123 110 0 22 22 9 31-19 23-67 117-86 170-35 21 20 26 30 17 35-10 6-8 12 7 23 18 13 21 13 33-1 6-9 12-23 12-30z"/><path d="M1124 1322c-17-15-34-35-37-44-6-16 1-18 53-18h60l-15 38c-23 52-26 54-61 24zm-83-112l-23-20h201c111 0 201 2 201 6 0 3-16 12-35 20-25 10-74 14-177 14-127-1-146-3-167-20zm332-225c0-22 2-30 4-17 2 12 2 30 0 40-3 9-5-1-4-23zm-2-61c0-11 3-14 6-6 3 7 2 16-1 19-3 4-6-2-5-13zm0-50c0-11 3-14 6-6 3 7 2 16-1 19-3 4-6-2-5-13zm2-69c0-27 2-38 4-22 2 15 2 37 0 50-2 12-4 0-4-28z"/></g><g fill="#cedcea"><path d="M0 930V0h1920v1860H0V930zm1122 519c10-5 37-50 60-99l43-90h55c74-1 164-37 168-68 3-17-2-22-17-22-19 0-21-6-21-69 0-46 4-71 13-74 9-4 8-8-3-16-13-10-13-12 0-21s13-11 0-20-13-11 0-20 13-11 0-20-13-11 0-20 13-11 0-20-13-11 0-21c11-8 12-12 3-16-18-7-16-93 2-117 22-29 18-51-14-88-15-18-31-43-35-56-11-32-68-72-105-72-29 0-31-2-25-25 8-31-9-33-23-2-10 21-11 20-31-18-43-84-121-135-218-143-97-7-176 28-236 106-16 20-28 29-28 20 0-8-9-23-20-33s-20-24-20-31c0-21-51-54-83-54-33 0-77 33-77 58 0 7-9 25-20 39-15 19-17 30-9 44 8 17 22 19 107 19 57 0 103-5 109-11 8-8 8 1 0 30l-11 41h-67c-97 0-99 2-99 71 0 56-1 59-25 59-14 0-25 5-25 10 0 6 11 10 25 10s25 5 25 10c0 6-11 10-25 10s-25 5-25 10c0 6 11 10 25 10s25 5 25 10c0 6-11 10-25 10s-25 5-25 10c0 6 11 10 25 10s25 5 25 10c0 6-11 10-25 10s-25 5-25 10c0 6 11 10 25 10s25 5 25 10c0 6-11 10-25 10s-25 5-25 10c0 6 11 10 25 10s25 5 25 10c0 6-11 10-25 10s-25 5-25 10c0 6 11 10 25 10 24 0 25 2 25 70v70h168c93 0 203 3 244 6l75 7 36-34c41-39 57-79 33-79-9 0-16 6-16 14 0 25-44 66-77 72-22 4-33 3-33-5 0-6-13-11-28-11-16 0-37-9-47-20s-13-20-7-20c19 0 14-18-9-30-17-9-23-8-35 7-17 23-17 33 0 33 7 0 19 7 26 15 11 13-6 15-144 15H550V910h45c25 0 45-4 45-10 0-5-20-10-45-10s-45-4-45-10 38-10 95-10 95-4 95-10-38-10-95-10-95-4-95-10 38-10 95-10 95-4 95-10-38-10-95-10-95-4-95-10 38-10 95-10 95-4 95-10-38-10-95-10-95-4-95-10 38-10 95-10 95-4 95-10-38-10-95-10-95-4-95-10 38-10 95-10 95-4 95-10-38-10-95-10h-95V590h200c171 0 200-2 200-15s-20-15-121-15c-135 0-130 3-92-75 36-72 135-135 212-135 59 0 132 31 175 74 48 48 80 114 46 96-10-5-27-10-37-10-14 1-12 5 11 24 27 23 28 25 12 47-9 13-16 32-16 43 0 33-30 45-113 46-58 0-78 3-75 13 3 7 32 14 74 18l69 5-73 2c-94 2-87 22 7 22 49 0 72 4 81 15 10 12 37 15 126 15h114v90h-85c-50 0-85 4-85 10s35 10 85 10 85 4 85 10-35 10-85 10-85 4-85 10 35 10 85 10 85 4 85 10-35 10-85 10-85 4-85 10 35 10 85 10 85 4 85 10-35 10-85 10-85 4-85 10 35 10 85 10 85 4 85 10-35 10-85 10-85 4-85 10 35 10 85 10h85v110h-201c-131 0-198 3-194 10 4 6 85 10 210 10h204l4-67 3-68 2 73 2 72h-207c-118 0-225 5-248 11-55 15-104 64-112 112-5 32-25 57-47 57-3 0-15-19-27-41-19-39-20-41-2-34 67 27 73 9 8-23l-45-22-20 40c-11 21-20 44-20 50 0 18 18 11 25-10 3-11 9-20 13-20 8 1 47 82 57 116 9 36 38 53 95 57 79 6 250-2 272-14zm208-389c0-6-32-10-75-10s-75 4-75 10 32 10 75 10 75-4 75-10zm-230-177c0-7-6-13-13-13s-18-9-25-21c-16-24-70-49-109-49-52 0-123 63-123 110 0 22 22 9 31-19 23-67 117-86 170-35 21 20 26 30 17 35-10 6-8 12 7 23 18 13 21 13 33-1 6-9 12-23 12-30z"/><path d="M1124 1322c-17-15-34-35-37-44-6-16 1-18 53-18h60l-15 38c-23 52-26 54-61 24zm-83-112l-23-20h201c111 0 201 2 201 6 0 3-16 12-35 20-25 10-74 14-177 14-127-1-146-3-167-20zm329-210c0-7 3-10 7-7 3 4 3 10 0 14-4 3-7 0-7-7zm0-40c0-7 3-10 7-7 3 4 3 10 0 14-4 3-7 0-7-7zm0-40c0-7 3-10 7-7 3 4 3 10 0 14-4 3-7 0-7-7zm0-40c0-7 3-10 7-7 3 4 3 10 0 14-4 3-7 0-7-7zm3-75c0-27 2-38 4-22 2 15 2 37 0 50-2 12-4 0-4-28z"/></g><g fill="#d7e7f2"><path d="M0 930V0h1920v1860H0V930zm1125 515c11-7 38-51 60-98l40-84 70-5c83-6 155-37 155-68 0-13-7-20-20-20-18 0-20-7-20-66 0-52 4-70 18-80 16-13 16-13 0-14-10 0-18-3-18-6 0-4 8-13 18-20 16-13 16-13 0-14-22 0-24-20-3-20 8 0 15-4 15-10 0-5-7-10-15-10s-15-4-15-10c0-5 7-10 15-10s15-4 15-10c0-5-7-10-15-10s-15-4-15-10c0-5 7-10 15-10s15-4 15-10c0-5-7-10-15-10-20 0-20-88 0-114 22-29 18-51-14-88-15-18-31-43-35-56-11-32-68-72-105-72-29 0-31-2-25-25 8-31-9-33-23-2-10 21-11 20-31-18-90-175-336-196-454-38-16 20-28 30-28 21 0-8-9-23-20-33s-20-24-20-31c0-21-51-54-83-54-33 0-77 33-77 58 0 7-9 25-20 39-15 19-17 30-9 44 8 17 22 19 107 19 57 0 103-5 109-11 8-8 8 0 0 28l-10 38-63-3c-90-5-104 5-104 78 0 57-1 60-25 60-14 0-25 5-25 10 0 6 11 10 25 10s25 5 25 10c0 6-11 10-25 10s-25 5-25 10c0 6 11 10 25 10s25 5 25 10c0 6-11 10-25 10s-25 5-25 10c0 6 11 10 25 10s25 5 25 10c0 6-11 10-25 10s-25 5-25 10c0 6 11 10 25 10s25 5 25 10c0 6-11 10-25 10s-25 5-25 10c0 6 11 10 25 10s25 5 25 10c0 6-11 10-25 10s-25 5-25 10c0 6 12 10 26 10 25 0 25 1 23 73l-2 72 189 2c104 1 199 3 212 3 16 0 22 6 22 21 0 16-5 20-20 16-11-3-18-1-14 4 11 18 43 9 46-13 2-16 12-24 37-29 37-8 85-51 96-86 4-17 2-23-8-23-8 0-18 11-21 25-4 14-21 34-39 45-34 21-73 27-62 10 4-6-8-10-28-10-38 0-61-19-51-43 3-10-3-20-17-27-19-11-25-10-36 6-17 23-17 34 1 34 7 0 19 7 26 15 11 13-6 15-144 15H550V910h45c25 0 45-4 45-10 0-5-20-10-45-10s-45-4-45-10 38-10 95-10 95-4 95-10-38-10-95-10-95-4-95-10 38-10 95-10 95-4 95-10-38-10-95-10-95-4-95-10 38-10 95-10 95-4 95-10-38-10-95-10-95-4-95-10 38-10 95-10 95-4 95-10-38-10-95-10-95-4-95-10 38-10 95-10 95-4 95-10-38-10-95-10h-95V590h206c190 0 205-1 202-18-3-15-19-18-125-22l-123-5 24-50c83-180 334-190 429-17l27 50-29-11c-17-6-34-7-38-3-4 5-3 11 3 13s19 10 29 17c17 12 17 15 2 37-10 13-17 32-17 43 0 33-30 45-113 46-58 0-78 3-75 13 3 7 32 14 74 18l69 5-73 2c-94 2-87 22 7 22 49 0 72 4 81 15 10 12 37 15 126 15h114v90h-85c-50 0-85 4-85 10s35 10 85 10 85 4 85 10-35 10-85 10-85 4-85 10 35 10 85 10 85 4 85 10-35 10-85 10-85 4-85 10 35 10 85 10 85 4 85 10-35 10-85 10-85 4-85 10 35 10 85 10 85 4 85 10-35 10-85 10-85 4-85 10 35 10 85 10h85v110h-201c-131 0-198 3-194 10 4 6 85 10 210 10h204l4-67 3-68 2 73 2 72h-207c-118 0-225 5-248 11-55 15-104 64-112 112-5 32-25 57-47 57-3 0-15-18-26-40s-16-40-11-40 13 5 16 10c7 12 45 14 45 2 0-4-20-18-45-30l-45-22-22 45c-23 47-16 75 9 38 15-22 15-22 39 23 13 25 24 51 24 58s9 25 20 39c16 21 32 27 73 30 91 8 260-3 282-18zm-278-342c-4-3-10-3-14 0-3 4 0 7 7 7s10-3 7-7zm483-43c0-6-32-10-75-10s-75 4-75 10 32 10 75 10 75-4 75-10zm-230-171c0-11-6-19-14-19s-16-7-20-15c-9-24-68-55-104-55-59 0-114 40-127 93-9 34 12 37 25 3 26-69 111-89 170-40 24 21 28 29 18 36s-9 11 6 23c23 17 46 4 46-26z"/><path d="M1124 1322c-17-15-34-35-37-44-6-16 1-18 53-18h60l-12 28c-27 61-30 63-64 34zm-83-112l-23-20h203c115 0 199 4 194 9-25 22-88 31-214 31-120-1-139-3-160-20zm329-210c0-7 3-10 7-7 3 4 3 10 0 14-4 3-7 0-7-7zm0-40c0-7 3-10 7-7 3 4 3 10 0 14-4 3-7 0-7-7zm0-40c0-7 3-10 7-7 3 4 3 10 0 14-4 3-7 0-7-7zm0-40c0-7 3-10 7-7 3 4 3 10 0 14-4 3-7 0-7-7zm3-75c0-27 2-38 4-22 2 15 2 37 0 50-2 12-4 0-4-28z"/></g><g fill="#fff"><path d="M0 930V0h1920v1860H0V930zm1110 525c16-8 39-33 50-55l40-80c11-21 20-44 20-50s25-10 59-10c36 0 81-8 115-21 46-18 56-26 56-45 0-17-6-24-20-24-18 0-20-7-20-70 0-56 3-70 15-70 8 0 15-4 15-10 0-5-7-10-15-10s-15-4-15-10c0-5 7-10 15-10s15-4 15-10c0-5-7-10-15-10s-15-4-15-10c0-5 7-10 15-10s15-4 15-10c0-5-7-10-15-10s-15-4-15-10c0-5 7-10 15-10s15-4 15-10c0-5-7-10-15-10s-15-4-15-10c0-5 7-10 15-10s15-4 15-10c0-5-7-10-15-10-20 0-20-88 0-114 25-32 19-70-15-94-16-13-30-31-30-42 0-10-5-22-11-25-6-4-8-14-5-22s1-11-5-8c-5 4-20 0-33-8-12-8-33-17-47-19-16-2-24-9-24-22 0-28-24-31-34-4-8 22-9 21-29-18-27-53-104-121-151-134-20-5-64-10-97-10-79 0-154 37-201 99-18 23-33 36-33 28s-7-20-15-27c-9-7-22-27-30-44s-29-37-46-45c-27-12-36-12-64 2-18 9-36 26-40 39s-17 33-28 46c-20 21-20 25-6 50 15 27 17 27 115 27 99 0 100 0 96 23-4 20-10 22-75 22-91 0-107 13-107 87 0 46-2 53-20 53-11 0-20 5-20 10 0 6 9 10 20 10s20 5 20 10c0 6-9 10-20 10s-20 5-20 10c0 6 9 10 20 10s20 5 20 10c0 6-9 10-20 10s-20 5-20 10c0 6 9 10 20 10s20 5 20 10c0 6-9 10-20 10s-20 5-20 10c0 6 9 10 20 10s20 5 20 10c0 6-9 10-20 10s-20 5-20 10c0 6 9 10 20 10s20 5 20 10c0 6-9 10-20 10s-20 5-20 10c0 6 9 10 20 10 18 0 20 7 20 69s-2 69-22 74c-33 9-8 31 59 51 47 14 90 16 233 14 167-3 175-4 178-23 2-13 20-28 51-42 53-25 95-83 74-104-9-9-15-3-27 25-20 48-80 78-100 50-9-12-21-15-36-11-31 8-51-9-44-38 8-32-33-46-53-19-15 21-12 39 7 39 7 0 15 5 17 10 2 6-50 9-147 7l-150-3v-99h45c25 0 45-4 45-10 0-5-20-10-45-10s-45-4-45-10 38-10 95-10 95-4 95-10-38-10-95-10-95-4-95-10 38-10 95-10 95-4 95-10-38-10-95-10-95-4-95-10 38-10 95-10 95-4 95-10-38-10-95-10-95-4-95-10 38-10 95-10 95-4 95-10-38-10-95-10-95-4-95-10 38-10 95-10 95-4 95-10-38-10-95-10h-95v-90l203-2c201-3 202-3 205-25 3-23 2-23-117-23-140 0-142-2-92-83 103-161 334-147 422 26l20 38-30-15c-22-12-32-13-37-4-4 6-3 13 3 15s19 10 29 17c18 14 18 15 1 33-9 11-17 27-17 36s-10 25-22 37c-18 16-35 20-95 20-58 0-73 3-73 15s16 15 73 17l72 2-72 3c-50 3-73 8-73 16 0 9 20 12 73 11 54-2 76 2 90 14 14 13 39 15 129 13 100-2 110-1 104 14-3 9-6 30-6 46v29h-85c-50 0-85 4-85 10s35 10 85 10 85 4 85 10-35 10-85 10-85 4-85 10 35 10 85 10 85 4 85 10-35 10-85 10-85 4-85 10 35 10 85 10 85 4 85 10-35 10-85 10-85 4-85 10 35 10 85 10 85 4 85 10-35 10-85 10-85 4-85 10 35 10 84 10c58 0 85 4 88 13 8 19 1 78-10 89-5 5-86 8-196 6-121-2-185 0-183 7 2 6 84 11 210 13l206 2 4-67 3-68 2 72 2 71-237 4c-232 3-239 4-271 27-32 22-75 99-69 122 1 6-8 15-20 20-19 7-25 4-39-22-18-36-14-45 14-30 19 10 32 6 32-10 0-8-89-54-94-48-1 2-10 23-21 47-19 45-13 70 11 38 7-11 15-18 17-15 20 26 47 85 47 104 0 15 11 30 32 43 28 18 50 21 165 21 102 1 140-2 163-14zm230-395c0-6-35-10-85-10s-85 4-85 10 35 10 85 10 85-4 85-10zm-242-155c15-33 15-35-1-35-8 0-22-9-33-21-57-63-146-65-201-5-32 34-44 76-23 76 6 0 15-11 20-24 14-37 58-66 100-66 46 0 97 35 80 55-8 10-5 17 12 29 30 21 33 20 46-9z"/><path d="M1150 1345c0-5-13-17-29-26-15-9-30-26-34-38-5-20-1-21 49-21 37 0 54 4 54 13-1 15-39 86-40 72zm-108-135l-23-19 28 4c15 2 102 4 193 5 149 1 162 3 135 15-21 10-73 14-170 14-123 0-143-2-163-19zm328-210c0-7 3-10 7-7 3 4 3 10 0 14-4 3-7 0-7-7zm0-40c0-7 3-10 7-7 3 4 3 10 0 14-4 3-7 0-7-7zm0-40c0-7 3-10 7-7 3 4 3 10 0 14-4 3-7 0-7-7zm0-40c0-7 3-10 7-7 3 4 3 10 0 14-4 3-7 0-7-7zm3-75c0-27 2-38 4-22 2 15 2 37 0 50-2 12-4 0-4-28z"/></g></svg>