<svg version="1.0" xmlns="http://www.w3.org/2000/svg" width="192" height="186" viewBox="0 0 1920 1860"><path d="M0 930V0h1920v1860H0V930z" fill="#070808"/><g fill="#313232"><path d="M0 930V0h1920v1860H0V930zm477 308c-2-13-4-5-4 17-1 22 1 32 4 23 2-10 2-28 0-40zm40 30c-3-8-6-5-6 6-1 11 2 17 5 13 3-3 4-12 1-19zm40-60c-2-18-4-6-4 27s2 48 4 33 2-42 0-60zm40 30c-2-13-4-5-4 17-1 22 1 32 4 23 2-10 2-28 0-40zm40 30c-3-8-6-5-6 6-1 11 2 17 5 13 3-3 4-12 1-19zm40-30c-2-13-4-5-4 17-1 22 1 32 4 23 2-10 2-28 0-40zm40 30c-3-8-6-5-6 6-1 11 2 17 5 13 3-3 4-12 1-19zm40-30c-2-13-4-5-4 17-1 22 1 32 4 23 2-10 2-28 0-40zm40-30c-2-18-4-6-4 27s2 48 4 33 2-42 0-60zm40-90c-2-35-3-9-3 57s1 94 3 63c2-32 2-86 0-120zm40 30c-2-29-3-8-3 47s1 79 3 53 2-71 0-100zm40 30c-2-24-4-7-4 37s2 63 4 43c2-21 2-57 0-80zm40 60c-2-13-4-5-4 17-1 22 1 32 4 23 2-10 2-28 0-40zm40-30c-2-18-4-6-4 27s2 48 4 33 2-42 0-60zm40 30c-2-13-4-5-4 17-1 22 1 32 4 23 2-10 2-28 0-40zm40 15c-3-10-5-4-5 12 0 17 2 24 5 18 2-7 2-21 0-30zm40 20c-4-3-7 0-7 7s3 10 7 7c3-4 3-10 0-14zm40-5c-3-8-6-5-6 6-1 11 2 17 5 13 3-3 4-12 1-19zm40-30c-2-13-4-5-4 17-1 22 1 32 4 23 2-10 2-28 0-40zm-650-225c-4-3-10-3-14 0-3 4 0 7 7 7s10-3 7-7zm523-86c0-2-12-14-27-28l-28-24 24 28c23 25 31 32 31 24zm268-14c-10-2-28-2-40 0-13 2-5 4 17 4 22 1 32-1 23-4zm-53-74c22-41 11-36-14 7-12 19-16 32-11 29 6-3 17-19 25-36zm85 21c-6-11-13-20-16-20-2 0 0 9 6 20s13 20 16 20c2 0 0-9-6-20zm-845-30c3-5 4-10 1-10s-8 5-11 10c-3 6-4 10-1 10s8-4 11-10zm825-4c0-3-5-8-12-12s-8-3-4 4c7 12 16 16 16 8zm90-291V410h-410v250h410V535z"/><path d="M1040 535V420h390v230h-390V535zm198 38c-21-2-57-2-80 0-24 2-7 4 37 4s63-2 43-4zm0-40c-21-2-57-2-80 0-24 2-7 4 37 4s63-2 43-4zm0-40c-21-2-57-2-80 0-24 2-7 4 37 4s63-2 43-4z"/></g><g fill="#0a596f"><path d="M0 930V0h1920v1860H0V930zm477 308c-2-13-4-5-4 17-1 22 1 32 4 23 2-10 2-28 0-40zm40 30c-3-8-6-5-6 6-1 11 2 17 5 13 3-3 4-12 1-19zm40-60c-2-18-4-6-4 27s2 48 4 33 2-42 0-60zm40 30c-2-13-4-5-4 17-1 22 1 32 4 23 2-10 2-28 0-40zm40 30c-3-8-6-5-6 6-1 11 2 17 5 13 3-3 4-12 1-19zm40-30c-2-13-4-5-4 17-1 22 1 32 4 23 2-10 2-28 0-40zm40 30c-3-8-6-5-6 6-1 11 2 17 5 13 3-3 4-12 1-19zm40-30c-2-13-4-5-4 17-1 22 1 32 4 23 2-10 2-28 0-40zm40-30c-2-18-4-6-4 27s2 48 4 33 2-42 0-60zm40-90c-2-35-3-9-3 57s1 94 3 63c2-32 2-86 0-120zm40 30c-2-29-3-8-3 47s1 79 3 53 2-71 0-100zm40 30c-2-24-4-7-4 37s2 63 4 43c2-21 2-57 0-80zm40 60c-2-13-4-5-4 17-1 22 1 32 4 23 2-10 2-28 0-40zm40-30c-2-18-4-6-4 27s2 48 4 33 2-42 0-60zm40 30c-2-13-4-5-4 17-1 22 1 32 4 23 2-10 2-28 0-40zm40 15c-3-10-5-4-5 12 0 17 2 24 5 18 2-7 2-21 0-30zm40 20c-4-3-7 0-7 7s3 10 7 7c3-4 3-10 0-14zm40-5c-3-8-6-5-6 6-1 11 2 17 5 13 3-3 4-12 1-19zm40-30c-2-13-4-5-4 17-1 22 1 32 4 23 2-10 2-28 0-40zm-650-225c-4-3-10-3-14 0-3 4 0 7 7 7s10-3 7-7zm70 0c-4-3-10-3-14 0-3 4 0 7 7 7s10-3 7-7zm60-40c-4-3-10-3-14 0-3 4 0 7 7 7s10-3 7-7zm-190-20c-4-3-7 0-7 7s3 10 7 7c3-4 3-10 0-14zm568-53c-10-11-23-20-28-20-6 0 0 11 13 25 27 29 42 25 15-5zm283 13c-10-2-28-2-40 0-13 2-5 4 17 4 22 1 32-1 23-4zm-651-20c-4-3-7 0-7 7s3 10 7 7c3-4 3-10 0-14zm-202-3c3-5 1-10-4-10-6 0-11 5-11 10 0 6 2 10 4 10 3 0 8-4 11-10zm798-46c10-19 13-33 7-29-14 9-42 65-32 65 5 0 16-16 25-36zm82 7c-8-17-20-33-26-37-11-7 5 29 24 54 17 21 18 13 2-17zm-708-18c-4-3-7 0-7 7s3 10 7 7c3-4 3-10 0-14zm-132-3c3-5 4-10 1-10s-8 5-11 10c-3 6-4 10-1 10s8-4 11-10zm72-27c-4-3-10-3-14 0-3 4 0 7 7 7s10-3 7-7zm843-268V410h-410v250h410V535z"/><path d="M1040 535V420h390v230h-390V535zm203 38c-24-2-62-2-85 0-24 2-5 4 42 4s66-2 43-4zm0-40c-24-2-62-2-85 0-24 2-5 4 42 4s66-2 43-4zm0-40c-24-2-62-2-85 0-24 2-5 4 42 4s66-2 43-4z"/></g><g fill="#515251"><path d="M0 930V0h1920v1860H0V930zm477 308c-2-13-4-5-4 17-1 22 1 32 4 23 2-10 2-28 0-40zm40 30c-3-8-6-5-6 6-1 11 2 17 5 13 3-3 4-12 1-19zm40-60c-2-18-4-6-4 27s2 48 4 33 2-42 0-60zm40 30c-2-13-4-5-4 17-1 22 1 32 4 23 2-10 2-28 0-40zm40 30c-3-8-6-5-6 6-1 11 2 17 5 13 3-3 4-12 1-19zm40-30c-2-13-4-5-4 17-1 22 1 32 4 23 2-10 2-28 0-40zm40 30c-3-8-6-5-6 6-1 11 2 17 5 13 3-3 4-12 1-19zm40-30c-2-13-4-5-4 17-1 22 1 32 4 23 2-10 2-28 0-40zm40-30c-2-18-4-6-4 27s2 48 4 33 2-42 0-60zm40-90c-2-35-3-9-3 57s1 94 3 63c2-32 2-86 0-120zm40 30c-2-29-3-8-3 47s1 79 3 53 2-71 0-100zm40 30c-2-24-4-7-4 37s2 63 4 43c2-21 2-57 0-80zm40 60c-2-13-4-5-4 17-1 22 1 32 4 23 2-10 2-28 0-40zm40-30c-2-18-4-6-4 27s2 48 4 33 2-42 0-60zm40 30c-2-13-4-5-4 17-1 22 1 32 4 23 2-10 2-28 0-40zm40 15c-3-10-5-4-5 12 0 17 2 24 5 18 2-7 2-21 0-30zm40 20c-4-3-7 0-7 7s3 10 7 7c3-4 3-10 0-14zm40-5c-3-8-6-5-6 6-1 11 2 17 5 13 3-3 4-12 1-19zm40-30c-2-13-4-5-4 17-1 22 1 32 4 23 2-10 2-28 0-40zm-650-225c-4-3-10-3-14 0-3 4 0 7 7 7s10-3 7-7zm70 0c-4-3-10-3-14 0-3 4 0 7 7 7s10-3 7-7zm60-40c-4-3-10-3-14 0-3 4 0 7 7 7s10-3 7-7zm-190-20c-4-3-7 0-7 7s3 10 7 7c3-4 3-10 0-14zm568-53c-10-11-23-20-28-20-6 0 0 11 13 25 27 29 42 25 15-5zm288 13c-13-2-33-2-45 0-13 2-3 4 22 4s35-2 23-4zm-656-20c-4-3-7 0-7 7s3 10 7 7c3-4 3-10 0-14zm-202-3c3-5 1-10-4-10-6 0-11 5-11 10 0 6 2 10 4 10 3 0 8-4 11-10zm798-46c10-19 13-33 7-29-14 9-42 65-32 65 5 0 16-16 25-36zm82 7c-8-17-20-33-26-37-11-7 5 29 24 54 17 21 18 13 2-17zm-708-18c-4-3-7 0-7 7s3 10 7 7c3-4 3-10 0-14zm-132-3c3-5 4-10 1-10s-8 5-11 10c-3 6-4 10-1 10s8-4 11-10zm72-27c-4-3-10-3-14 0-3 4 0 7 7 7s10-3 7-7zm843-268V410h-410v250h410V535z"/><path d="M1063 643c-22-4-23-8-23-114V420h390v230l-172-1c-95-1-183-4-195-6zm180-70c-24-2-62-2-85 0-24 2-5 4 42 4s66-2 43-4zm0-40c-24-2-62-2-85 0-24 2-5 4 42 4s66-2 43-4zm0-40c-24-2-62-2-85 0-24 2-5 4 42 4s66-2 43-4z"/></g><g fill="#037797"><path d="M0 930V0h1920v1860H0V930zm477 298c-2-13-4-3-4 22s2 35 4 23c2-13 2-33 0-45zm40 30c-3-7-5-2-5 12s2 19 5 13c2-7 2-19 0-25zm40-60c-2-18-4-4-4 32s2 50 4 33c2-18 2-48 0-65zm40 30c-2-13-4-3-4 22s2 35 4 23c2-13 2-33 0-45zm40 30c-3-7-5-2-5 12s2 19 5 13c2-7 2-19 0-25zm40-30c-2-13-4-3-4 22s2 35 4 23c2-13 2-33 0-45zm40 30c-3-7-5-2-5 12s2 19 5 13c2-7 2-19 0-25zm40-30c-2-13-4-3-4 22s2 35 4 23c2-13 2-33 0-45zm40-30c-2-18-4-4-4 32s2 50 4 33c2-18 2-48 0-65zm40-90c-2-35-3-7-3 62s1 97 3 63c2-35 2-91 0-125zm40 30c-2-29-3-6-3 52s1 81 3 53c2-29 2-77 0-105zm40 30c-2-24-4-5-4 42s2 66 4 43c2-24 2-62 0-85zm40 60c-2-13-4-3-4 22s2 35 4 23c2-13 2-33 0-45zm40-30c-2-18-4-4-4 32s2 50 4 33c2-18 2-48 0-65zm40 30c-2-13-4-3-4 22s2 35 4 23c2-13 2-33 0-45zm40 25c-3-10-5-4-5 12 0 17 2 24 5 18 2-7 2-21 0-30zm40 20c-4-3-7 0-7 7s3 10 7 7c3-4 3-10 0-14zm40-5c-3-8-6-5-6 6-1 11 2 17 5 13 3-3 4-12 1-19zm40-40c-2-13-4-3-4 22s2 35 4 23c2-13 2-33 0-45zm-582-208c3-5 1-10-4-10-6 0-11 5-11 10 0 6 2 10 4 10 3 0 8-4 11-10zm-65-4c0-3-4-8-10-11-5-3-10-1-10 4 0 6 5 11 10 11 6 0 10-2 10-4zm130-46c0-5-2-10-4-10-3 0-8 5-11 10-3 6-1 10 4 10 6 0 11-4 11-10zm-180-4c0-3-4-8-10-11-5-3-10-1-10 4 0 6 5 11 10 11 6 0 10-2 10-4zm555-66c-10-11-23-20-28-20-6 0 0 11 13 25 27 29 42 25 15-5zm288 13c-13-2-33-2-45 0-13 2-3 4 22 4s35-2 23-4zm-643-7c0-3-4-8-10-11-5-3-10-1-10 4 0 6 5 11 10 11 6 0 10-2 10-4zm-210-16c0-5-4-10-10-10-5 0-10 5-10 10 0 6 5 10 10 10 6 0 10-4 10-10zm791-37c7-16 15-31 17-35 2-5 0-8-5-8s-17 16-26 35c-20 41-7 48 14 8zm82-8c-9-19-20-35-25-35-4 0 0 16 9 35s20 35 25 35c4 0 0-16-9-35zm-703-5c0-5-5-10-11-10-5 0-7 5-4 10 3 6 8 10 11 10 2 0 4-4 4-10zm-135-10c3-5 1-10-4-10-6 0-11 5-11 10 0 6 2 10 4 10 3 0 8-4 11-10zm75-20c0-5-4-10-10-10-5 0-10 5-10 10 0 6 5 10 10 10 6 0 10-4 10-10zm840-275V410h-410v250h410V535z"/><path d="M1063 643c-22-4-23-8-23-114V420h390v230l-172-1c-95-1-183-4-195-6zm180-70c-24-2-62-2-85 0-24 2-5 4 42 4s66-2 43-4zm0-40c-24-2-62-2-85 0-24 2-5 4 42 4s66-2 43-4zm0-40c-24-2-62-2-85 0-24 2-5 4 42 4s66-2 43-4z"/></g><g fill="#6f6f6f"><path d="M0 930V0h1920v1860H0V930zm477 298c-2-13-4-3-4 22s2 35 4 23c2-13 2-33 0-45zm40 30c-3-7-5-2-5 12s2 19 5 13c2-7 2-19 0-25zm40-60c-2-18-4-4-4 32s2 50 4 33c2-18 2-48 0-65zm40 30c-2-13-4-3-4 22s2 35 4 23c2-13 2-33 0-45zm40 30c-3-7-5-2-5 12s2 19 5 13c2-7 2-19 0-25zm40-30c-2-13-4-3-4 22s2 35 4 23c2-13 2-33 0-45zm40 30c-3-7-5-2-5 12s2 19 5 13c2-7 2-19 0-25zm40-30c-2-13-4-3-4 22s2 35 4 23c2-13 2-33 0-45zm40-30c-2-18-4-4-4 32s2 50 4 33c2-18 2-48 0-65zm40-90c-2-35-3-7-3 62s1 97 3 63c2-35 2-91 0-125zm40 30c-2-29-3-6-3 52s1 81 3 53c2-29 2-77 0-105zm40 30c-2-24-4-5-4 42s2 66 4 43c2-24 2-62 0-85zm40 60c-2-13-4-3-4 22s2 35 4 23c2-13 2-33 0-45zm40-30c-2-18-4-4-4 32s2 50 4 33c2-18 2-48 0-65zm40 30c-2-13-4-3-4 22s2 35 4 23c2-13 2-33 0-45zm40 25c-3-10-5-4-5 12 0 17 2 24 5 18 2-7 2-21 0-30zm40 20c-4-3-7 0-7 7s3 10 7 7c3-4 3-10 0-14zm40-5c-3-8-6-5-6 6-1 11 2 17 5 13 3-3 4-12 1-19zm40-40c-2-13-4-3-4 22s2 35 4 23c2-13 2-33 0-45zm-582-208c3-5 1-10-4-10-6 0-11 5-11 10 0 6 2 10 4 10 3 0 8-4 11-10zm-65-4c0-3-4-8-10-11-5-3-10-1-10 4 0 6 5 11 10 11 6 0 10-2 10-4zm130-46c0-5-2-10-4-10-3 0-8 5-11 10-3 6-1 10 4 10 6 0 11-4 11-10zm-180-4c0-3-4-8-10-11-5-3-10-1-10 4 0 6 5 11 10 11 6 0 10-2 10-4zm555-66c-10-11-23-20-28-20-6 0 0 11 13 25 27 29 42 25 15-5zm288 13c-13-2-33-2-45 0-13 2-3 4 22 4s35-2 23-4zm-643-7c0-3-4-8-10-11-5-3-10-1-10 4 0 6 5 11 10 11 6 0 10-2 10-4zm-210-16c0-5-4-10-10-10-5 0-10 5-10 10 0 6 5 10 10 10 6 0 10-4 10-10zm870-50c-12-23-24-40-26-37-3 3 4 24 16 47s24 40 26 37c3-3-4-24-16-47zm-76 5c11-19 17-38 13-41-3-3-15 12-27 35-25 50-12 55 14 6zm-624-5c0-5-5-10-11-10-5 0-7 5-4 10 3 6 8 10 11 10 2 0 4-4 4-10zm-135-10c3-5 1-10-4-10-6 0-11 5-11 10 0 6 2 10 4 10 3 0 8-4 11-10zm75-20c0-5-4-10-10-10-5 0-10 5-10 10 0 6 5 10 10 10 6 0 10-4 10-10zm840-275V410h-410v48c0 27-3 83-6 125l-7 77h423V535z"/><path d="M1068 643c-12-3-18-14-18-31 0-15-3-64-7-109l-6-83h393v230l-172-1c-95-1-181-3-190-6zm175-70c-24-2-62-2-85 0-24 2-5 4 42 4s66-2 43-4zm0-40c-24-2-62-2-85 0-24 2-5 4 42 4s66-2 43-4zm0-40c-24-2-62-2-85 0-24 2-5 4 42 4s66-2 43-4z"/></g><g fill="#168dae"><path d="M0 930V0h1920v1860H0V930zm477 298c-2-13-4-3-4 22s2 35 4 23c2-13 2-33 0-45zm40 30c-3-7-5-2-5 12s2 19 5 13c2-7 2-19 0-25zm40-60c-2-18-4-4-4 32s2 50 4 33c2-18 2-48 0-65zm40 30c-2-13-4-3-4 22s2 35 4 23c2-13 2-33 0-45zm40 30c-3-7-5-2-5 12s2 19 5 13c2-7 2-19 0-25zm40-30c-2-13-4-3-4 22s2 35 4 23c2-13 2-33 0-45zm40 30c-3-7-5-2-5 12s2 19 5 13c2-7 2-19 0-25zm40-30c-2-13-4-3-4 22s2 35 4 23c2-13 2-33 0-45zm40-30c-2-18-4-4-4 32s2 50 4 33c2-18 2-48 0-65zm40-90c-2-35-3-7-3 62s1 97 3 63c2-35 2-91 0-125zm40 30c-2-29-3-6-3 52s1 81 3 53c2-29 2-77 0-105zm40 30c-2-24-4-5-4 42s2 66 4 43c2-24 2-62 0-85zm40 60c-2-13-4-3-4 22s2 35 4 23c2-13 2-33 0-45zm40-30c-2-18-4-4-4 32s2 50 4 33c2-18 2-48 0-65zm40 30c-2-13-4-3-4 22s2 35 4 23c2-13 2-33 0-45zm40 25c-3-10-5-4-5 12 0 17 2 24 5 18 2-7 2-21 0-30zm40 20c-4-3-7 0-7 7s3 10 7 7c3-4 3-10 0-14zm40-5c-3-8-6-5-6 6-1 11 2 17 5 13 3-3 4-12 1-19zm40-40c-2-13-4-3-4 22s2 35 4 23c2-13 2-33 0-45zm-582-208c3-5 1-10-4-10-6 0-11 5-11 10 0 6 2 10 4 10 3 0 8-4 11-10zm-65-4c0-3-4-8-10-11-5-3-10-1-10 4 0 6 5 11 10 11 6 0 10-2 10-4zm130-47c0-6-4-7-10-4-5 3-10 11-10 16 0 6 5 7 10 4 6-3 10-11 10-16zm-180-3c0-3-4-8-10-11-5-3-10-1-10 4 0 6 5 11 10 11 6 0 10-2 10-4zm555-66c-10-11-23-20-28-20-6 0 0 11 13 25 27 29 42 25 15-5zm295 20c11-7 2-10-33-10-30 0-46 4-42 10 8 13 55 13 75 0zm-655-9c3-5 1-12-5-16-5-3-10 1-10 9 0 18 6 21 15 7zm-205-21c0-5-4-10-10-10-5 0-10 5-10 10 0 6 5 10 10 10 6 0 10-4 10-10zm789-36c12-20 20-42 18-48-3-9-47 63-47 79 0 12 9 3 29-31zm80-18c-29-50-36-38-8 16 12 23 24 38 26 32s-6-28-18-48zm-694 4c-3-5-11-10-16-10-6 0-7 5-4 10 3 6 11 10 16 10 6 0 7-4 4-10zm-140-10c3-5 1-10-4-10-6 0-11 5-11 10 0 6 2 10 4 10 3 0 8-4 11-10zm75-20c0-5-4-10-10-10-5 0-10 5-10 10 0 6 5 10 10 10 6 0 10-4 10-10zm840-275V410h-410v48c0 27-3 83-6 125l-7 77h423V535z"/><path d="M1083 643c-28-4-33-8-33-31 0-15-3-64-7-109l-6-83h394l-3 113-3 112-155 1c-85 1-170-1-187-3zm192-73c-7-12-99-12-135 0-17 5 1 8 58 9 53 1 81-3 77-9zm0-40c-7-12-99-12-135 0-17 5 1 8 58 9 53 1 81-3 77-9zm0-40c-7-12-99-12-135 0-17 5 1 8 58 9 53 1 81-3 77-9z"/></g><g fill="#767c82"><path d="M0 930V0h1920v1860H0V930zm477 298c-2-13-4-3-4 22s2 35 4 23c2-13 2-33 0-45zm40 30c-3-7-5-2-5 12s2 19 5 13c2-7 2-19 0-25zm40-60c-2-18-4-4-4 32s2 50 4 33c2-18 2-48 0-65zm40 30c-2-13-4-3-4 22s2 35 4 23c2-13 2-33 0-45zm40 30c-3-7-5-2-5 12s2 19 5 13c2-7 2-19 0-25zm40-30c-2-13-4-3-4 22s2 35 4 23c2-13 2-33 0-45zm40 30c-3-7-5-2-5 12s2 19 5 13c2-7 2-19 0-25zm40-30c-2-13-4-3-4 22s2 35 4 23c2-13 2-33 0-45zm40-30c-2-18-4-4-4 32s2 50 4 33c2-18 2-48 0-65zm40-90c-2-35-3-7-3 62s1 97 3 63c2-35 2-91 0-125zm40 30c-2-29-3-6-3 52s1 81 3 53c2-29 2-77 0-105zm40 30c-2-24-4-5-4 42s2 66 4 43c2-24 2-62 0-85zm40 60c-2-13-4-3-4 22s2 35 4 23c2-13 2-33 0-45zm40-30c-2-18-4-4-4 32s2 50 4 33c2-18 2-48 0-65zm40 30c-2-13-4-3-4 22s2 35 4 23c2-13 2-33 0-45zm40 25c-3-10-5-4-5 12 0 17 2 24 5 18 2-7 2-21 0-30zm40 20c-4-3-7 0-7 7s3 10 7 7c3-4 3-10 0-14zm40-5c-3-8-6-5-6 6-1 11 2 17 5 13 3-3 4-12 1-19zm40-40c-2-13-4-3-4 22s2 35 4 23c2-13 2-33 0-45zm-582-208c3-5 1-10-4-10-6 0-11 5-11 10 0 6 2 10 4 10 3 0 8-4 11-10zm-65-4c0-3-4-8-10-11-5-3-10-1-10 4 0 6 5 11 10 11 6 0 10-2 10-4zm130-47c0-6-4-7-10-4-5 3-10 11-10 16 0 6 5 7 10 4 6-3 10-11 10-16zm-180-3c0-3-4-8-10-11-5-3-10-1-10 4 0 6 5 11 10 11 6 0 10-2 10-4zm555-66c-10-11-23-20-28-20-6 0 0 11 13 25 27 29 42 25 15-5zm295 20c11-7 2-10-33-10-30 0-46 4-42 10 8 13 55 13 75 0zm-655-9c3-5 1-12-5-16-5-3-10 1-10 9 0 18 6 21 15 7zm-205-21c0-5-4-10-10-10-5 0-10 5-10 10 0 6 5 10 10 10 6 0 10-4 10-10zm789-36c12-20 20-42 18-48-3-9-47 63-47 79 0 12 9 3 29-31zm80-18c-29-50-36-38-8 16 12 23 24 38 26 32s-6-28-18-48zm-694 4c-3-5-11-10-16-10-6 0-7 5-4 10 3 6 11 10 16 10 6 0 7-4 4-10zm-140-10c3-5 1-10-4-10-6 0-11 5-11 10 0 6 2 10 4 10 3 0 8-4 11-10zm75-20c0-5-4-10-10-10-5 0-10 5-10 10 0 6 5 10 10 10 6 0 10-4 10-10zm666-150h174V410h-407l-7 61c-8 83-8 184 1 193 5 4 21 5 37 2s107-6 202-6z"/><path d="M1083 643c-28-4-33-8-33-31 0-15-3-64-7-109l-6-83h394l-3 113-3 112-155 1c-85 1-170-1-187-3zm192-73c-7-12-99-12-135 0-17 5 1 8 58 9 53 1 81-3 77-9zm0-40c-7-12-99-12-135 0-17 5 1 8 58 9 53 1 81-3 77-9zm0-40c-7-12-99-12-135 0-17 5 1 8 58 9 53 1 81-3 77-9z"/></g><g fill="#837b79"><path d="M0 930V0h1920v1860H0V930zm477 298c-2-13-4-3-4 22s2 35 4 23c2-13 2-33 0-45zm40 30c-3-7-5-2-5 12s2 19 5 13c2-7 2-19 0-25zm40-60c-2-18-4-4-4 32s2 50 4 33c2-18 2-48 0-65zm40 30c-2-13-4-3-4 22s2 35 4 23c2-13 2-33 0-45zm40 30c-3-7-5-2-5 12s2 19 5 13c2-7 2-19 0-25zm40-30c-2-13-4-3-4 22s2 35 4 23c2-13 2-33 0-45zm40 30c-3-7-5-2-5 12s2 19 5 13c2-7 2-19 0-25zm40-30c-2-13-4-3-4 22s2 35 4 23c2-13 2-33 0-45zm40-30c-2-18-4-4-4 32s2 50 4 33c2-18 2-48 0-65zm40-90c-2-35-3-7-3 62s1 97 3 63c2-35 2-91 0-125zm40 30c-2-29-3-6-3 52s1 81 3 53c2-29 2-77 0-105zm40 30c-2-24-4-5-4 42s2 66 4 43c2-24 2-62 0-85zm40 60c-2-13-4-3-4 22s2 35 4 23c2-13 2-33 0-45zm40-30c-2-18-4-4-4 32s2 50 4 33c2-18 2-48 0-65zm40 30c-2-13-4-3-4 22s2 35 4 23c2-13 2-33 0-45zm40 25c-3-10-5-4-5 12 0 17 2 24 5 18 2-7 2-21 0-30zm40 20c-4-3-7 0-7 7s3 10 7 7c3-4 3-10 0-14zm40-5c-3-8-6-5-6 6-1 11 2 17 5 13 3-3 4-12 1-19zm40-40c-2-13-4-3-4 22s2 35 4 23c2-13 2-33 0-45zm-582-208c3-5 1-10-4-10-6 0-11 5-11 10 0 6 2 10 4 10 3 0 8-4 11-10zm-65-4c0-3-4-8-10-11-5-3-10-1-10 4 0 6 5 11 10 11 6 0 10-2 10-4zm130-47c0-6-4-7-10-4-5 3-10 11-10 16 0 6 5 7 10 4 6-3 10-11 10-16zm-180-3c0-3-4-8-10-11-5-3-10-1-10 4 0 6 5 11 10 11 6 0 10-2 10-4zm555-66c-10-11-23-20-28-20-6 0 0 11 13 25 27 29 42 25 15-5zm295 20c11-7 2-10-33-10-30 0-46 4-42 10 8 13 55 13 75 0zm-650-21c0-5-4-9-10-9-5 0-10 7-10 16 0 8 5 12 10 9 6-3 10-10 10-16zm-210-9c0-5-4-10-10-10-5 0-10 5-10 10 0 6 5 10 10 10 6 0 10-4 10-10zm790-35c12-19 20-41 17-48-3-10-47 61-47 78 0 12 10 3 30-30zm79-19c-29-50-36-38-8 16 12 23 24 38 26 32s-6-28-18-48zm-694 4c-3-5-11-10-16-10-6 0-7 5-4 10 3 6 11 10 16 10 6 0 7-4 4-10zm-140-10c3-5 1-10-4-10-6 0-11 5-11 10 0 6 2 10 4 10 3 0 8-4 11-10zm75-20c0-5-4-10-10-10-5 0-10 5-10 10 0 6 5 10 10 10 6 0 10-4 10-10zm666-150h174V410h-407l-7 61c-8 83-8 184 1 193 5 4 21 5 37 2s107-6 202-6z"/><path d="M1083 643c-32-4-33-5-34-56-1-29-3-78-5-109l-4-58h391l-3 113-3 112-155 1c-85 1-170-1-187-3zm192-73c-7-12-99-12-135 0-17 5 1 8 58 9 53 1 81-3 77-9zm5-40c0-12-103-12-140 0-17 5 1 8 58 9 48 1 82-3 82-9zm-5-40c-7-12-99-12-135 0-17 5 1 8 58 9 53 1 81-3 77-9z"/></g><g fill="#01aedc"><path d="M0 930V0h1920v1860H0V930zm477 298c-2-13-4-3-4 22s2 35 4 23c2-13 2-33 0-45zm40 30c-3-7-5-2-5 12s2 19 5 13c2-7 2-19 0-25zm40-60c-2-18-4-4-4 32s2 50 4 33c2-18 2-48 0-65zm40 30c-2-13-4-3-4 22s2 35 4 23c2-13 2-33 0-45zm40 30c-3-7-5-2-5 12s2 19 5 13c2-7 2-19 0-25zm40-30c-2-13-4-3-4 22s2 35 4 23c2-13 2-33 0-45zm40 30c-3-7-5-2-5 12s2 19 5 13c2-7 2-19 0-25zm40-30c-2-13-4-3-4 22s2 35 4 23c2-13 2-33 0-45zm40-30c-2-18-4-4-4 32s2 50 4 33c2-18 2-48 0-65zm40-90c-2-35-3-7-3 62s1 97 3 63c2-35 2-91 0-125zm40 30c-2-29-3-6-3 52s1 81 3 53c2-29 2-77 0-105zm40 30c-2-24-4-5-4 42s2 66 4 43c2-24 2-62 0-85zm40 60c-2-13-4-3-4 22s2 35 4 23c2-13 2-33 0-45zm40-30c-2-18-4-4-4 32s2 50 4 33c2-18 2-48 0-65zm40 30c-2-13-4-3-4 22s2 35 4 23c2-13 2-33 0-45zm40 25c-3-10-5-4-5 12 0 17 2 24 5 18 2-7 2-21 0-30zm40 15c-3-8-6-5-6 6-1 11 2 17 5 13 3-3 4-12 1-19zm40 0c-3-8-6-5-6 6-1 11 2 17 5 13 3-3 4-12 1-19zm40-40c-2-13-4-3-4 22s2 35 4 23c2-13 2-33 0-45zm-572-208c3-5-1-10-9-10-9 0-16 5-16 10 0 6 4 10 9 10 6 0 13-4 16-10zm-75-4c0-3-4-8-10-11-5-3-10-1-10 4 0 6 5 11 10 11 6 0 10-2 10-4zm130-47c0-6-4-7-10-4-5 3-10 11-10 16 0 6 5 7 10 4 6-3 10-11 10-16zm-180-3c0-3-4-8-10-11-5-3-10-1-10 4 0 6 5 11 10 11 6 0 10-2 10-4zm555-66c-10-11-23-20-28-20-6 0 0 11 13 25 27 29 42 25 15-5zm300 20c4-6-12-10-40-10s-44 4-40 10c3 6 21 10 40 10s37-4 40-10zm-655-15c0-8-4-15-10-15-5 0-10 7-10 15s5 15 10 15c6 0 10-7 10-15zm-210-15c0-5-4-10-10-10-5 0-10 5-10 10 0 6 5 10 10 10 6 0 10-4 10-10zm790-35c12-19 20-41 17-48-3-10-47 61-47 78 0 12 10 3 30-30zm79-22c-30-48-37-27-7 22 12 21 24 33 26 27 2-7-7-29-19-49zm-694 7c-3-5-11-10-16-10-6 0-7 5-4 10 3 6 11 10 16 10 6 0 7-4 4-10zm-135-10c0-5-4-10-10-10-5 0-10 5-10 10 0 6 5 10 10 10 6 0 10-4 10-10zm70-20c0-5-4-10-10-10-5 0-10 5-10 10 0 6 5 10 10 10 6 0 10-4 10-10zm666-150h174V402l-204-1-203-1-7 68c-8 91-8 187 1 196 5 4 21 5 37 2s107-6 202-6z"/><path d="M1208 642l-156-2-4-103c-2-56-2-105 0-109 2-5 89-8 193-8h190l-3 111-3 112-30 1c-16 1-100 0-187-2zm72-72c0-6-33-10-80-10s-80 4-80 10 33 10 80 10 80-4 80-10zm0-40c0-6-33-10-79-10-44 0-83 5-86 10-4 6 25 10 79 10 51 0 86-4 86-10zm0-40c0-13-158-11-166 1-3 5 33 9 80 9 53 0 86-4 86-10z"/></g><g fill="#08b9f5"><path d="M0 930V0h1920v1860H0V930zm718 483c-3-36-5-38-39-41-31-3-37 0-41 20-8 46 1 58 43 58h40l-3-37zm-241-185c-2-13-4-3-4 22s2 35 4 23c2-13 2-33 0-45zm40 30c-3-7-5-2-5 12s2 19 5 13c2-7 2-19 0-25zm40-60c-2-18-4-4-4 32s2 50 4 33c2-18 2-48 0-65zm40 30c-2-13-4-3-4 22s2 35 4 23c2-13 2-33 0-45zm40 30c-3-7-5-2-5 12s2 19 5 13c2-7 2-19 0-25zm40-30c-2-13-4-3-4 22s2 35 4 23c2-13 2-33 0-45zm40 30c-3-7-5-2-5 12s2 19 5 13c2-7 2-19 0-25zm40-30c-2-13-4-3-4 22s2 35 4 23c2-13 2-33 0-45zm40-30c-2-18-4-4-4 32s2 50 4 33c2-18 2-48 0-65zm40-90c-2-35-3-7-3 62s1 97 3 63c2-35 2-91 0-125zm40 30c-2-29-3-6-3 52s1 81 3 53c2-29 2-77 0-105zm40 30c-2-24-4-5-4 42s2 66 4 43c2-24 2-62 0-85zm40 60c-2-13-4-3-4 22s2 35 4 23c2-13 2-33 0-45zm40-30c-2-18-4-4-4 32s2 50 4 33c2-18 2-48 0-65zm40 30c-2-13-4-3-4 22s2 35 4 23c2-13 2-33 0-45zm40 25c-3-10-5-4-5 12 0 17 2 24 5 18 2-7 2-21 0-30zm40 15c-3-8-6-5-6 6-1 11 2 17 5 13 3-3 4-12 1-19zm40 0c-3-8-6-5-6 6-1 11 2 17 5 13 3-3 4-12 1-19zm40-40c-2-13-4-3-4 22s2 35 4 23c2-13 2-33 0-45zm-572-208c3-5-1-10-9-10-9 0-16 5-16 10 0 6 4 10 9 10 6 0 13-4 16-10zm-75-4c0-3-4-8-10-11-5-3-10-1-10 4 0 6 5 11 10 11 6 0 10-2 10-4zm130-47c0-6-4-7-10-4-5 3-10 11-10 16 0 6 5 7 10 4 6-3 10-11 10-16zm-180-3c0-3-4-8-10-11-5-3-10-1-10 4 0 6 5 11 10 11 6 0 10-2 10-4zm446-81c66-39 124-132 124-201v-24h370V402l-204-1-204-1-6 93c-4 50-8 110-9 132-3 38-4 38-5-7-1-27-5-48-9-48-5 0-52 19-106 42l-99 43 5 35c10 66 38 215 42 227 5 15 38 5 101-32zm109 15c-10-11-23-20-28-20-6 0 0 11 13 25 27 29 42 25 15-5zm300 20c4-6-12-10-40-10s-44 4-40 10c3 6 21 10 40 10s37-4 40-10zm-655-15c0-8-4-15-10-15-5 0-10 7-10 15s5 15 10 15c6 0 10-7 10-15zm-210-15c0-5-4-10-10-10-5 0-10 5-10 10 0 6 5 10 10 10 6 0 10-4 10-10zm806-62c9-29 29-20 54 24 13 23 25 37 28 30 2-7-5-27-16-45-15-23-18-37-11-49 12-22-23-61-46-52-16 6-32 51-22 61 4 3-3 23-13 44-11 21-20 42-20 46 1 11 39-39 46-59zm-631 12c-3-5-11-10-16-10-6 0-7 5-4 10 3 6 11 10 16 10 6 0 7-4 4-10zm-135-10c0-5-4-10-10-10-5 0-10 5-10 10 0 6 5 10 10 10 6 0 10-4 10-10zm70-20c0-5-4-10-10-10-5 0-10 5-10 10 0 6 5 10 10 10 6 0 10-4 10-10z"/><path d="M1033 673c4-3 10-3 14 0 3 4 0 7-7 7s-10-3-7-7zm186-31l-147-3-6-32c-12-55-24-172-19-179 2-5 90-8 194-8h190l-3 111-3 112-30 1c-16 1-96 0-176-2zm61-72c0-6-33-10-80-10s-80 4-80 10 33 10 80 10 80-4 80-10zm0-40c0-6-33-10-79-10-44 0-83 5-86 10-4 6 25 10 79 10 51 0 86-4 86-10zm0-40c0-13-158-11-166 1-3 5 33 9 80 9 53 0 86-4 86-10zm-229 134c0-11 3-14 6-6 3 7 2 16-1 19-3 4-6-2-5-13z"/></g><g fill="#959595"><path d="M0 930V0h1920v1860H0V930zm530 516c0-2-11-6-25-8-14-3-25-1-25 3 0 5 11 9 25 9s25-2 25-4zm28-33c-3-36-5-38-40-41-36-3-38-2-37 25 1 17 3 21 6 11 4-17 54-27 52-10-4 23 2 52 12 52 6 0 9-16 7-37zm160 0c-3-36-5-38-39-41-31-3-37 0-41 20-8 46 1 58 43 58h40l-3-37zm677 17c3-6-1-7-9-4-18 7-21 14-7 14 6 0 13-4 16-10zm35-14c0-7-8-20-19-30-15-14-20-14-29-3s-7 13 11 13c16-1 22 4 21 21 0 12 3 20 8 17 4-3 8-11 8-18zm-953-188c-2-13-4-3-4 22s2 35 4 23c2-13 2-33 0-45zm40 30c-3-7-5-2-5 12s2 19 5 13c2-7 2-19 0-25zm40-60c-2-18-4-4-4 32s2 50 4 33c2-18 2-48 0-65zm40 30c-2-13-4-3-4 22s2 35 4 23c2-13 2-33 0-45zm40 30c-3-7-5-2-5 12s2 19 5 13c2-7 2-19 0-25zm40-30c-2-13-4-3-4 22s2 35 4 23c2-13 2-33 0-45zm40 30c-3-7-5-2-5 12s2 19 5 13c2-7 2-19 0-25zm40-30c-2-13-4-3-4 22s2 35 4 23c2-13 2-33 0-45zm40-30c-2-18-4-4-4 32s2 50 4 33c2-18 2-48 0-65zm40-90c-2-35-3-7-3 62s1 97 3 63c2-35 2-91 0-125zm40 30c-2-29-3-6-3 52s1 81 3 53c2-29 2-77 0-105zm40 30c-2-24-4-5-4 42s2 66 4 43c2-24 2-62 0-85zm40 60c-2-13-4-3-4 22s2 35 4 23c2-13 2-33 0-45zm40-30c-2-18-4-4-4 32s2 50 4 33c2-18 2-48 0-65zm40 30c-2-13-4-3-4 22s2 35 4 23c2-13 2-33 0-45zm40 25c-3-10-5-4-5 12 0 17 2 24 5 18 2-7 2-21 0-30zm40 15c-3-8-6-5-6 6-1 11 2 17 5 13 3-3 4-12 1-19zm40 0c-3-8-6-5-6 6-1 11 2 17 5 13 3-3 4-12 1-19zm40-40c-2-13-4-3-4 22s2 35 4 23c2-13 2-33 0-45zm-572-208c3-5-1-10-9-10-9 0-16 5-16 10 0 6 4 10 9 10 6 0 13-4 16-10zm-75-4c0-3-4-8-10-11-5-3-10-1-10 4 0 6 5 11 10 11 6 0 10-2 10-4zm130-47c0-6-4-7-10-4-5 3-10 11-10 16 0 6 5 7 10 4 6-3 10-11 10-16zm-180-3c0-3-4-8-10-11-5-3-10-1-10 4 0 6 5 11 10 11 6 0 10-2 10-4zm918-26c3-7 0-10-6-6-6 3-13 2-17-4s-11-8-16-4c-6 4-5 11 2 20 14 17 31 14 37-6zm-472-55c66-39 124-132 124-201v-24h370V402l-204-1-203-1-7 78-7 77-72 29c-40 16-91 38-114 48l-41 18 13 58c7 31 18 91 25 132s14 78 17 82c5 9 46-6 99-37zm109 15c-10-11-23-20-28-20-6 0 0 11 13 25 27 29 42 25 15-5zm300 20c4-6-12-10-40-10s-44 4-40 10c3 6 21 10 40 10s37-4 40-10zm-655-15c0-8-4-15-10-15-5 0-10 7-10 15s5 15 10 15c6 0 10-7 10-15zm725-4c-3-6-11-11-16-11s-4 6 3 14c14 16 24 13 13-3zm-935-11c0-5-4-10-10-10-5 0-10 5-10 10 0 6 5 10 10 10 6 0 10-4 10-10zm806-62c9-29 29-21 53 22 12 22 27 40 33 40 5 0-1-19-15-43-18-31-23-47-16-59 7-13 4-23-11-38-29-29-61-11-59 33 2 18-5 46-14 64s-17 36-17 40c1 11 39-39 46-59zm-631 12c-3-5-11-10-16-10-6 0-7 5-4 10 3 6 11 10 16 10 6 0 7-4 4-10zm-135-10c0-5-4-10-10-10-5 0-10 5-10 10 0 6 5 10 10 10 6 0 10-4 10-10zm70-20c0-5-4-10-10-10-5 0-10 5-10 10 0 6 5 10 10 10 6 0 10-4 10-10zm187-195c0-8-4-12-9-9s-6 10-3 15c9 13 12 11 12-6zm-50-42c-4-3-1-13 5-22 10-13 10-14-2-4-11 10-18 9-34-5-15-12-14-9 3 11 14 15 27 27 29 27 3 0 2-3-1-7zm-61-73c0-12-4-16-9-11s-6 14-3 20c10 15 12 14 12-9zm329-9c3-5 2-12-3-15s-9 1-9 9c0 17 3 19 12 6zm-349-13c4-7 4-10-1-6-11 11-36-12-28-25 4-6 1-7-6-3-9 6-8 13 5 27 20 22 21 23 30 7z"/><path d="M1219 642l-145-3-12-62c-6-34-13-82-14-107l-3-45 193-3 193-2-3 111-3 112-30 1c-16 1-96 0-176-2zm61-72c0-6-33-10-80-10s-80 4-80 10 33 10 80 10 80-4 80-10zm0-40c0-6-33-10-79-10-44 0-83 5-86 10-4 6 25 10 79 10 51 0 86-4 86-10zm0-40c0-13-158-11-166 1-3 5 33 9 80 9 53 0 86-4 86-10z"/></g><g fill="#0bc3fb"><path d="M0 930V0h1920v1860H0V930zm530 516c0-2-11-6-25-8-14-3-25-1-25 3 0 5 11 9 25 9s25-2 25-4zm28-33c-3-36-5-38-40-41-36-3-38-2-37 25 1 17 3 21 6 11 4-17 54-27 52-10-4 23 2 52 12 52 6 0 9-16 7-37zm160 0c-3-36-5-38-39-41-31-3-37 0-41 20-8 46 1 58 43 58h40l-3-37zm677 17c3-6-1-7-9-4-18 7-21 14-7 14 6 0 13-4 16-10zm35-14c0-7-8-20-19-30-15-14-20-14-29-3s-7 13 11 13c16-1 22 4 21 21 0 12 3 20 8 17 4-3 8-11 8-18zm-946-161c-1-51-14-56-14-7 0 23 3 42 8 42 4 0 7-16 6-35zm42 20c-4-24-16-30-16-7 0 12 4 22 9 22s8-7 7-15zm40-39c-2-76-16-83-16-8 0 34 4 62 9 62s8-24 7-54zm42 19c-2-50-18-55-18-6 0 23 4 41 10 41 5 0 9-16 8-35zm38 20c-4-24-16-30-16-7 0 12 4 22 9 22s8-7 7-15zm39-19c-1-50-15-57-15-8 0 23 4 42 8 42 5 0 8-15 7-34zm41 19c-4-24-16-30-16-7 0 12 4 22 9 22s8-7 7-15zm39-19c-1-50-15-57-15-8 0 23 4 42 8 42 5 0 8-15 7-34zm42-20c-3-76-17-83-17-8 0 34 4 62 9 62s8-24 8-54zm38-61c-1-63-4-117-8-121s-7 47-7 114 3 122 8 122c4 0 7-52 7-115zm43 19c-2-53-6-98-10-101-5-2-8 41-8 96 0 66 4 101 11 101s9-32 7-96zm36 21c0-41-3-77-7-81s-7 29-7 74 3 82 8 82c4 0 7-34 6-75zm40 40c-1-51-14-56-14-7 0 23 3 42 8 42 4 0 7-16 6-35zm41-19c0-30-3-58-7-62-5-4-8 20-8 54s3 62 8 62c4 0 7-24 7-54zm40 19c-2-50-15-56-15-7 0 23 4 42 8 42s7-16 7-35zm43 10c0-14-4-28-9-31s-9 9-9 25c0 17 4 31 9 31s9-11 9-25zm42 16c0-6-4-13-10-16-5-3-10 1-10 9 0 9 5 16 10 16 6 0 10-4 10-9zm37-6c0-8-4-15-9-15-4 0-8 7-8 15s4 15 8 15c5 0 9-7 9-15zm38-19c0-19-3-38-8-42-4-4-7 11-7 34s4 42 8 42 8-15 7-34zm-580-236c3-5-1-10-9-10-9 0-16 5-16 10 0 6 4 10 9 10 6 0 13-4 16-10zm-75-10c0-5-4-10-10-10-5 0-10 5-10 10 0 6 5 10 10 10 6 0 10-4 10-10zm130-41c0-6-4-7-10-4-5 3-10 11-10 16 0 6 5 7 10 4 6-3 10-11 10-16zm-185 2c3-5 1-12-5-16-5-3-10 1-10 9 0 18 6 21 15 7zm923-31c3-7 0-10-6-6-6 3-13 2-17-4s-11-8-16-4c-6 4-5 11 2 20 14 17 31 14 37-6zm-472-55c66-39 124-132 124-201v-24h370V400h-204c-233 0-215-8-216 100v55l-73 29c-39 16-91 38-114 48l-41 18 13 58c7 31 18 91 25 132s14 78 17 82c5 9 46-6 99-37zm109 15c-17-17-31-26-33-20-5 15 27 50 46 50 11 0 7-9-13-30zm300 20c4-6-12-10-40-10s-44 4-40 10c3 6 21 10 40 10s37-4 40-10zm-655-15c0-8-4-15-10-15-5 0-10 7-10 15s5 15 10 15c6 0 10-7 10-15zm725-4c-3-6-11-11-16-11s-4 6 3 14c14 16 24 13 13-3zm-935-11c0-5-4-10-10-10-5 0-10 5-10 10 0 6 5 10 10 10 6 0 10-4 10-10zm800-50c17-40 31-38 58 10 12 22 27 40 33 40s0-19-14-43c-18-31-23-47-16-59 7-13 4-23-11-38-30-30-61-11-58 34 1 19-6 45-15 59-9 15-17 32-17 38 0 19 26-8 40-41zm-620 0c0-5-7-10-16-10-8 0-12 5-9 10 3 6 10 10 16 10 5 0 9-4 9-10zm-140-10c0-5-4-10-10-10-5 0-10 5-10 10 0 6 5 10 10 10 6 0 10-4 10-10zm70-20c0-5-7-10-16-10-8 0-12 5-9 10 3 6 10 10 16 10 5 0 9-4 9-10zm187-195c0-8-4-12-9-9s-6 10-3 15c9 13 12 11 12-6zm-50-42c-4-3-1-13 5-22 10-13 10-14-2-4-11 10-18 9-34-5-15-12-14-9 3 11 14 15 27 27 29 27 3 0 2-3-1-7zm-61-73c0-12-4-16-9-11s-6 14-3 20c10 15 12 14 12-9zm329-9c3-5 2-12-3-15s-9 1-9 9c0 17 3 19 12 6zm-349-13c4-7 4-10-1-6-11 11-36-12-28-25 4-6 1-7-6-3-9 6-8 13 5 27 20 22 21 23 30 7z"/><path d="M1062 578c-6-35-13-83-14-108l-3-45h380l3 108 3 107h-357l-12-62zm218-9c0-12-157-12-165 0-3 5 7 11 22 13 47 5 143-3 143-13zm0-39c0-6-33-10-79-10-44 0-83 5-86 10-4 6 25 10 79 10 51 0 86-4 86-10zm0-40c0-6-33-10-79-10-44 0-83 5-86 10-4 6 25 10 79 10 51 0 86-4 86-10z"/></g><g fill="#a19fa2"><path d="M0 930V0h1920v1860H0V930zm558 483c-3-36-5-38-40-41l-38-3v81h81l-3-37zm160 0c-3-36-5-38-39-41-31-3-37 0-41 20-8 46 1 58 43 58h40l-3-37zm710 8c5-32-23-54-49-40-19 10-26 49-12 63 4 4 19 6 33 4 18-2 26-10 28-27zm-944-166c-1-51-14-56-14-7 0 23 3 42 8 42 4 0 7-16 6-35zm42 20c-4-24-16-30-16-7 0 12 4 22 9 22s8-7 7-15zm40-39c-2-76-16-83-16-8 0 34 4 62 9 62s8-24 7-54zm42 19c-2-50-18-55-18-6 0 23 4 41 10 41 5 0 9-16 8-35zm38 20c-4-24-16-30-16-7 0 12 4 22 9 22s8-7 7-15zm39-19c-1-50-15-57-15-8 0 23 4 42 8 42 5 0 8-15 7-34zm41 19c-4-24-16-30-16-7 0 12 4 22 9 22s8-7 7-15zm39-19c-1-50-15-57-15-8 0 23 4 42 8 42 5 0 8-15 7-34zm42-20c-3-76-17-83-17-8 0 34 4 62 9 62s8-24 8-54zm38-61c-1-63-4-117-8-121s-7 47-7 114 3 122 8 122c4 0 7-52 7-115zm43 19c-2-53-6-98-10-101-5-2-8 41-8 96 0 66 4 101 11 101s9-32 7-96zm36 21c0-41-3-77-7-81s-7 29-7 74 3 82 8 82c4 0 7-34 6-75zm40 40c-1-51-14-56-14-7 0 23 3 42 8 42 4 0 7-16 6-35zm41-19c0-30-3-58-7-62-5-4-8 20-8 54s3 62 8 62c4 0 7-24 7-54zm40 19c-2-50-15-56-15-7 0 23 4 42 8 42s7-16 7-35zm43 10c0-14-4-28-9-31s-9 9-9 25c0 17 4 31 9 31s9-11 9-25zm42 16c0-6-4-13-10-16-5-3-10 1-10 9 0 9 5 16 10 16 6 0 10-4 10-9zm37-6c0-8-4-15-9-15-4 0-8 7-8 15s4 15 8 15c5 0 9-7 9-15zm38-19c0-19-3-38-8-42-4-4-7 11-7 34s4 42 8 42 8-15 7-34zm-580-236c3-5-1-10-9-10-9 0-16 5-16 10 0 6 4 10 9 10 6 0 13-4 16-10zm-75-10c0-5-4-10-10-10-5 0-10 5-10 10 0 6 5 10 10 10 6 0 10-4 10-10zm130-41c0-6-4-7-10-4-5 3-10 11-10 16 0 6 5 7 10 4 6-3 10-11 10-16zm-185 2c3-5 1-12-5-16-5-3-10 1-10 9 0 18 6 21 15 7zm929-33c18-25 5-58-22-58-24 0-63-71-51-93 7-12 4-22-11-37-30-30-61-11-58 34 1 19-6 45-15 59-9 15-17 32-17 38 0 19 26-8 40-41 16-40 31-38 56 8 28 50 22 62-32 62-30 0-43 4-38 11 3 6 23 9 44 7 28-2 41 1 49 14 15 24 37 23 55-4zm-478-53c66-39 124-132 124-201v-24h370V400h-410l-6 41-7 40-31-29c-47-45-94-65-167-70-74-5-149 14-194 50l-27 21 97 97c105 106 105 105 135 290 7 41 14 78 17 82 5 9 46-6 99-37zm109 15c-17-17-31-26-33-20-5 15 27 50 46 50 11 0 7-9-13-30zm-355 5c0-8-4-15-10-15-5 0-10 7-10 15s5 15 10 15c6 0 10-7 10-15zm-210-15c0-5-4-10-10-10-5 0-10 5-10 10 0 6 5 10 10 10 6 0 10-4 10-10zm180-50c0-5-7-10-16-10-8 0-12 5-9 10 3 6 10 10 16 10 5 0 9-4 9-10zm-140-10c0-5-4-10-10-10-5 0-10 5-10 10 0 6 5 10 10 10 6 0 10-4 10-10zm70-20c0-5-7-10-16-10-8 0-12 5-9 10 3 6 10 10 16 10 5 0 9-4 9-10z"/><path d="M1062 578c-6-35-13-83-14-108l-3-45h380l3 108 3 107h-357l-12-62zm218-9c0-12-157-12-165 0-3 5 7 11 22 13 47 5 143-3 143-13zm0-39c0-6-33-10-79-10-44 0-83 5-86 10-4 6 25 10 79 10 51 0 86-4 86-10zm0-40c0-6-33-10-79-10-44 0-83 5-86 10-4 6 25 10 79 10 51 0 86-4 86-10z"/></g><g fill="#5fb8d4"><path d="M0 930V0h1920v1860H0V930zm558 483c-3-36-5-38-40-41l-38-3v81h81l-3-37zm160 0c-3-36-5-38-39-41-31-3-37 0-41 20-8 46 1 58 43 58h40l-3-37zm710 8c5-32-23-54-49-40-19 10-26 49-12 63 4 4 19 6 33 4 18-2 26-10 28-27zm-938-166c0-19-4-37-10-40-6-4-10 12-10 40s4 44 10 40c6-3 10-21 10-40zm40 20c0-8-4-17-10-20-6-4-10 5-10 20s4 24 10 20c6-3 10-12 10-20zm40-40c0-30-4-57-10-60-6-4-10 18-10 60s4 64 10 60c6-3 10-30 10-60zm40 20c0-19-4-37-10-40-6-4-10 12-10 40s4 44 10 40c6-3 10-21 10-40zm40 20c0-8-4-17-10-20-6-4-10 5-10 20s4 24 10 20c6-3 10-12 10-20zm40-20c0-19-4-37-10-40-6-4-10 12-10 40s4 44 10 40c6-3 10-21 10-40zm40 20c0-8-4-17-10-20-6-4-10 5-10 20s4 24 10 20c6-3 10-12 10-20zm40-20c0-19-4-37-10-40-6-4-10 12-10 40s4 44 10 40c6-3 10-21 10-40zm40-20c0-47-9-73-21-61-8 9 3 126 12 120 5-3 9-29 9-59zm40-59c0-105-4-131-19-122-3 2-5 59-3 125 4 154 22 151 22-3zm40 19c0-52-4-97-10-100-6-4-10 32-10 100s4 104 10 100c6-3 10-48 10-100zm40 20c0-41-4-77-10-80-6-4-10 25-10 80s4 84 10 80c6-3 10-39 10-80zm40 40c0-19-4-37-10-40-6-4-10 12-10 40s4 44 10 40c6-3 10-21 10-40zm40-20c0-30-4-57-10-60-6-4-10 18-10 60s4 64 10 60c6-3 10-30 10-60zm40 20c0-19-4-37-10-40-6-4-10 12-10 40s4 44 10 40c6-3 10-21 10-40zm40 10c0-13-4-27-10-30-6-4-10 8-10 30s4 34 10 30c6-3 10-17 10-30zm32 3c-9-9-12-7-12 12s3 21 12 12 9-15 0-24zm48 6c0-8-4-14-10-14-5 0-10 9-10 21 0 11 5 17 10 14 6-3 10-13 10-21zm40-19c0-19-4-37-10-40-6-4-10 12-10 40s4 44 10 40c6-3 10-21 10-40zm-585-235c3-5-1-10-9-10-9 0-16 5-16 10 0 6 4 10 9 10 6 0 13-4 16-10zm-75-10c0-5-4-10-10-10-5 0-10 5-10 10 0 6 5 10 10 10 6 0 10-4 10-10zm130-35c0-8-4-15-10-15-5 0-10 7-10 15s5 15 10 15c6 0 10-7 10-15zm-185-4c3-5 1-12-5-16-5-3-10 1-10 9 0 18 6 21 15 7zm929-33c18-25 5-58-22-58-23 0-62-72-50-94 6-11 3-21-12-36-30-30-61-11-58 34 1 17-6 43-15 56-9 14-17 31-17 38 0 22 25-3 40-38 16-40 31-38 56 8 27 51 21 62-32 62-25 0-44 5-44 11 0 7 17 10 44 8 34-3 47 0 55 13 15 24 37 23 55-4zm-478-53c66-38 124-132 124-200 0-14 6-22 18-22 9 1 95 0 190-1l173-2-3-127-3-128-207-3-208-2-6 40-7 41-31-29c-47-45-94-65-167-70-74-5-149 14-194 50l-27 21 97 97c105 106 105 105 135 290 7 41 14 78 17 82 5 9 46-6 99-37zm109 15c-17-17-31-26-33-20-5 15 27 50 46 50 11 0 7-9-13-30zm-355 5c0-8-4-15-10-15-5 0-10 7-10 15s5 15 10 15c6 0 10-7 10-15zm-210-15c0-5-4-10-10-10-5 0-10 5-10 10 0 6 5 10 10 10 6 0 10-4 10-10zm180-48c0-13-12-22-22-16s-1 24 13 24c5 0 9-4 9-8zm-140-18c0-14-3-14-15-4-8 7-15 14-15 16s7 4 15 4 15-7 15-16zm70-14c0-5-7-10-16-10-8 0-12 5-9 10 3 6 10 10 16 10 5 0 9-4 9-10z"/><path d="M1062 582c-7-32-12-82-12-110v-52l188 2 187 3 3 108 3 107h-357l-12-58zm218-7c0-12-15-15-79-15-44 0-82 4-86 9-6 11 28 17 108 20 45 1 57-2 57-14zm0-40c0-12-15-15-79-15-44 0-82 4-86 9-6 11 28 17 108 20 45 1 57-2 57-14zm0-40c0-12-15-15-79-15-44 0-82 4-86 9-6 11 28 17 108 20 45 1 57-2 57-14z"/></g><g fill="#b5b5b5"><path d="M0 930V0h1920v1860H0V930zm558 483c-3-36-5-38-40-41l-38-3v81h81l-3-37zm160 0c-3-36-5-38-39-41-31-3-37 0-41 20-8 46 1 58 43 58h40l-3-37zm710 8c5-32-23-54-49-40-19 10-26 49-12 63 4 4 19 6 33 4 18-2 26-10 28-27zm-938-166c0-19-4-37-10-40-6-4-10 12-10 40s4 44 10 40c6-3 10-21 10-40zm40 20c0-8-4-17-10-20-6-4-10 5-10 20s4 24 10 20c6-3 10-12 10-20zm40-40c0-30-4-57-10-60-6-4-10 18-10 60s4 64 10 60c6-3 10-30 10-60zm40 20c0-19-4-37-10-40-6-4-10 12-10 40s4 44 10 40c6-3 10-21 10-40zm40 20c0-8-4-17-10-20-6-4-10 5-10 20s4 24 10 20c6-3 10-12 10-20zm40-20c0-19-4-37-10-40-6-4-10 12-10 40s4 44 10 40c6-3 10-21 10-40zm40 20c0-8-4-17-10-20-6-4-10 5-10 20s4 24 10 20c6-3 10-12 10-20zm40-20c0-19-4-37-10-40-6-4-10 12-10 40s4 44 10 40c6-3 10-21 10-40zm40-20c0-47-9-73-21-61-8 9 3 126 12 120 5-3 9-29 9-59zm40-59c0-105-4-131-19-122-3 2-5 59-3 125 4 154 22 151 22-3zm40 19c0-52-4-97-10-100-6-4-10 32-10 100s4 104 10 100c6-3 10-48 10-100zm40 20c0-41-4-77-10-80-6-4-10 25-10 80s4 84 10 80c6-3 10-39 10-80zm40 40c0-19-4-37-10-40-6-4-10 12-10 40s4 44 10 40c6-3 10-21 10-40zm40-20c0-30-4-57-10-60-6-4-10 18-10 60s4 64 10 60c6-3 10-30 10-60zm40 20c0-19-4-37-10-40-6-4-10 12-10 40s4 44 10 40c6-3 10-21 10-40zm40 10c0-13-4-27-10-30-6-4-10 8-10 30s4 34 10 30c6-3 10-17 10-30zm32 3c-9-9-12-7-12 12s3 21 12 12 9-15 0-24zm48 6c0-8-4-14-10-14-5 0-10 9-10 21 0 11 5 17 10 14 6-3 10-13 10-21zm40-19c0-19-4-37-10-40-6-4-10 12-10 40s4 44 10 40c6-3 10-21 10-40zm-585-235c3-5-1-10-9-10-9 0-16 5-16 10 0 6 4 10 9 10 6 0 13-4 16-10zm-75-10c0-5-4-10-10-10-5 0-10 5-10 10 0 6 5 10 10 10 6 0 10-4 10-10zm130-35c0-8-4-15-10-15-5 0-10 7-10 15s5 15 10 15c6 0 10-7 10-15zm-185-4c3-5 1-12-5-16-5-3-10 1-10 9 0 18 6 21 15 7zm929-33c18-25 5-58-22-58-23 0-62-72-50-94 6-11 3-21-12-36-30-30-61-11-58 34 1 17-6 43-15 56-9 14-17 31-17 38 0 22 25-3 40-38 16-40 31-38 56 8 27 51 21 62-32 62-24 0-44 5-44 10 0 6 20 10 44 10 26 0 48 6 56 15 17 21 36 19 54-7zm-509-32c78-36 140-117 159-207 8-36 24-39 214-39h163l-3-127-3-128-207-3-208-2-6 40-6 40-46-40c-46-41-120-70-177-70-48 0-122 25-161 55l-36 27 100 102 99 101 12 75c26 168 34 200 45 200 6 0 34-11 61-24zm140-6c-17-17-31-26-33-20-5 15 27 50 46 50 11 0 7-9-13-30zm-355 5c0-8-4-15-10-15-5 0-10 7-10 15s5 15 10 15c6 0 10-7 10-15zm-210-15c0-5-4-10-10-10-5 0-10 5-10 10 0 6 5 10 10 10 6 0 10-4 10-10zm180-48c0-13-12-22-22-16s-1 24 13 24c5 0 9-4 9-8zm-140-18c0-14-3-14-15-4-8 7-15 14-15 16s7 4 15 4 15-7 15-16zm70-14c0-5-7-10-16-10-8 0-12 5-9 10 3 6 10 10 16 10 5 0 9-4 9-10z"/><path d="M1074 613c-3-16-10-38-15-51s-9-50-9-83v-59l188 2 187 3 3 108 3 107h-351l-6-27zm206-38c0-12-15-15-79-15-44 0-82 4-86 9-6 11 28 17 108 20 45 1 57-2 57-14zm0-40c0-12-15-15-79-15-44 0-82 4-86 9-6 11 28 17 108 20 45 1 57-2 57-14zm0-40c0-12-15-15-79-15-44 0-82 4-86 9-6 11 28 17 108 20 45 1 57-2 57-14z"/></g><g fill="#abbecb"><path d="M0 930V0h1920v1860H0V930zm558 483c-3-36-5-38-40-41l-38-3v81h81l-3-37zm160 0c-3-36-5-38-39-41-31-3-37 0-41 20-8 46 1 58 43 58h40l-3-37zm710 8c5-32-23-54-49-40-19 10-26 49-12 63 4 4 19 6 33 4 18-2 26-10 28-27zm-940-172c-2-19-7-33-13-32-12 3-19 49-10 71 10 26 27-2 23-39zm42 20c0-20-15-26-25-9-9 15 3 43 15 35 5-3 10-15 10-26zm40-40c0-44-3-60-12-57-14 5-23 90-14 115 12 31 26-1 26-58zm38 20c-2-19-7-33-13-32-12 3-19 49-10 71 10 26 27-2 23-39zm38 15c-5-13-10-14-18-6-6 6-8 18-4 28 5 13 10 14 18 6 6-6 8-18 4-28zm42-15c-2-19-7-33-13-32-12 3-19 49-10 71 10 26 27-2 23-39zm38 15c-5-13-10-14-18-6-6 6-8 18-4 28 5 13 10 14 18 6 6-6 8-18 4-28zm42-15c-2-19-7-33-13-32-12 3-19 49-10 71 10 26 27-2 23-39zm40-18c-2-28-7-52-13-54-11-2-19 87-10 111 11 31 26-5 23-57zm42-62c0-92-3-120-12-117s-14 37-16 113c-3 113 1 141 18 130 6-4 10-56 10-126zm40 20c0-76-3-100-12-97-13 5-24 167-13 195 14 37 25-7 25-98zm40 20c0-60-3-80-12-77-13 5-24 128-14 155 13 34 26-4 26-78zm38 40c-2-19-7-33-13-32-12 3-19 49-10 71 10 26 27-2 23-39zm42-20c0-44-3-60-12-57-14 5-23 90-14 115 12 31 26-1 26-58zm38 20c-2-19-7-33-13-32-12 3-19 49-10 71 10 26 27-2 23-39zm40 10c-1-13-7-23-13-22-13 3-18 30-11 50 10 24 29 1 24-28zm37 11c-5-8-11-8-17-2s-7 16-3 22c5 8 11 8 17 2s7-16 3-22zm41-6c-5-13-10-14-18-6-6 6-8 18-4 28 5 13 10 14 18 6 6-6 8-18 4-28zm42-15c-2-19-7-33-13-32-12 3-19 49-10 71 10 26 27-2 23-39zm-662-246c-10-10-19 5-10 18 6 11 8 11 12 0 2-7 1-15-2-18zm75 14c-1-12-15-9-19 4-3 6 1 10 8 8 6-3 11-8 11-12zm59-42c0-8-4-15-10-15-5 0-10 7-10 15s5 15 10 15c6 0 10-7 10-15zm-180-10c0-8-7-15-15-15-9 0-12 6-9 15 4 8 10 15 15 15s9-7 9-15zm924-27c18-25 5-58-22-58-23 0-62-72-50-94 6-11 3-21-12-36-30-30-61-11-58 34 1 17-6 43-15 56-9 14-17 31-17 38 0 22 25-3 40-38 16-40 31-38 56 8 27 51 21 62-32 62-24 0-44 5-44 10 0 6 20 10 44 10 26 0 48 6 56 15 17 21 36 19 54-7zm-344-6c0-14-56-63-63-55-4 3 5 19 20 35 27 28 43 35 43 20zm-165-26c78-36 140-117 159-207 8-35 31-39 223-39h154l-3-127-3-128h-420l-3 38-3 38-46-41c-47-41-120-70-178-70-48 0-122 25-161 55l-36 27 100 102 99 101 12 75c26 168 34 200 45 200 6 0 34-11 61-24zm-215-1c0-8-4-15-9-15s-11 7-15 15c-3 9 0 15 9 15 8 0 15-7 15-15zm-210-16c0-5-4-9-10-9-5 0-10 7-10 16 0 8 5 12 10 9 6-3 10-10 10-16zm180-48c0-12-20-25-27-18s6 27 18 27c5 0 9-4 9-9zm-135-10c10-17-12-21-25-6-10 12-10 15 3 15 9 0 18-4 22-9zm65-21c0-5-7-10-15-10s-15 5-15 10c0 6 7 10 15 10s15-4 15-10z"/><path d="M1074 613c-3-16-10-38-15-51s-9-50-9-82v-60h369l3 110 3 110h-345l-6-27zm206-38c0-12-15-15-79-15-44 0-82 4-86 9-7 12 24 18 103 20 49 1 62-2 62-14zm0-40c0-12-15-15-79-15-44 0-82 4-86 9-7 12 24 18 103 20 49 1 62-2 62-14zm0-40c0-12-15-15-79-15-44 0-82 4-86 9-7 12 24 18 103 20 49 1 62-2 62-14z"/></g><g fill="#bdc4bc"><path d="M0 930V0h1920v1860H0V930zm558 483c-3-36-5-38-40-41l-38-3v81h81l-3-37zm160 0c-3-36-5-38-39-41-31-3-37 0-41 20-8 46 1 58 43 58h40l-3-37zm710 8c5-32-23-54-49-40-19 10-26 49-12 63 4 4 19 6 33 4 18-2 26-10 28-27zm-940-172c-2-19-7-33-13-32-12 3-19 49-10 71 10 26 27-2 23-39zm42 20c0-20-15-26-25-9-9 15 3 43 15 35 5-3 10-15 10-26zm40-40c0-44-3-60-12-57-14 5-23 90-14 115 12 31 26-1 26-58zm38 20c-2-19-7-33-13-32-12 3-19 49-10 71 10 26 27-2 23-39zm38 15c-5-13-10-14-18-6-6 6-8 18-4 28 5 13 10 14 18 6 6-6 8-18 4-28zm42-15c-2-19-7-33-13-32-12 3-19 49-10 71 10 26 27-2 23-39zm38 15c-5-13-10-14-18-6-6 6-8 18-4 28 5 13 10 14 18 6 6-6 8-18 4-28zm42-15c-2-19-7-33-13-32-12 3-19 49-10 71 10 26 27-2 23-39zm40-18c-2-28-7-52-13-54-11-2-19 87-10 111 11 31 26-5 23-57zm42-62c0-92-3-120-12-117s-14 37-16 113c-3 113 1 141 18 130 6-4 10-56 10-126zm40 20c0-76-3-100-12-97-13 5-24 167-13 195 14 37 25-7 25-98zm40 20c0-60-3-80-12-77-13 5-24 128-14 155 13 34 26-4 26-78zm38 40c-2-19-7-33-13-32-12 3-19 49-10 71 10 26 27-2 23-39zm42-20c0-44-3-60-12-57-14 5-23 90-14 115 12 31 26-1 26-58zm38 20c-2-19-7-33-13-32-12 3-19 49-10 71 10 26 27-2 23-39zm40 10c-1-13-7-23-13-22-13 3-18 30-11 50 10 24 29 1 24-28zm37 11c-5-8-11-8-17-2s-7 16-3 22c5 8 11 8 17 2s7-16 3-22zm41-6c-5-13-10-14-18-6-6 6-8 18-4 28 5 13 10 14 18 6 6-6 8-18 4-28zm42-15c-2-19-7-33-13-32-12 3-19 49-10 71 10 26 27-2 23-39zm-662-246c-10-10-19 5-10 18 6 11 8 11 12 0 2-7 1-15-2-18zm75 14c-1-12-15-9-19 4-3 6 1 10 8 8 6-3 11-8 11-12zm59-42c0-8-4-15-10-15-5 0-10 7-10 15s5 15 10 15c6 0 10-7 10-15zm-180-10c0-8-7-15-15-15-9 0-12 6-9 15 4 8 10 15 15 15s9-7 9-15zm924-27c17-24 6-58-19-58-22 0-56-61-52-89 7-34-27-65-54-51-14 8-19 20-17 43 1 18-6 44-16 59s-16 33-14 40c3 7 12 0 23-17 35-56 46-59 70-17 29 49 22 62-31 62-24 0-44 5-44 10 0 6 20 10 44 10 26 0 48 6 56 15 17 21 36 19 54-7zm-344-6c0-14-56-63-63-55-4 3 5 19 20 35 27 28 43 35 43 20zm-174-17c83-35 153-120 169-206 9-47 19-49 222-49h154l-3-127-3-128h-420l-3 32-3 32-44-33c-113-87-250-87-359-1-19 14-15 19 81 117l100 103 12 75c35 224 30 213 97 185zm-206-10c0-8-4-15-9-15s-11 7-15 15c-3 9 0 15 9 15 8 0 15-7 15-15zm-210-16c0-5-4-9-10-9-5 0-10 7-10 16 0 8 5 12 10 9 6-3 10-10 10-16zm180-48c0-12-20-25-27-18s6 27 18 27c5 0 9-4 9-9zm-135-10c10-17-12-21-25-6-10 12-10 15 3 15 9 0 18-4 22-9zm65-21c0-5-7-10-15-10s-15 5-15 10c0 6 7 10 15 10s15-4 15-10z"/><path d="M1075 600c-4-22-11-42-16-46-5-3-9-34-9-70v-64h369l3 110 3 110h-343l-7-40zm205-25c0-12-15-15-79-15-44 0-82 4-86 9-7 12 24 18 103 20 49 1 62-2 62-14zm0-40c0-12-15-15-79-15-44 0-82 4-86 9-7 12 24 18 103 20 49 1 62-2 62-14zm0-40c0-12-15-15-79-15-44 0-82 4-86 9-7 12 24 18 103 20 49 1 62-2 62-14z"/></g><g fill="#cbbebe"><path d="M0 930V0h1920v1860H0V930zm558 483c-3-36-5-38-40-41l-38-3v81h81l-3-37zm160 0c-3-36-5-38-39-41-31-3-37 0-41 20-8 46 1 58 43 58h40l-3-37zm275 30c-13-2-24-13-26-26-4-18-5-17-6 6s3 27 27 26c22-1 23-2 5-6zm34-30c-3-10-5-4-5 12 0 17 2 24 5 18 2-7 2-21 0-30zm136 30c-7-2-21-2-30 0-10 3-4 5 12 5 17 0 24-2 18-5zm265-22c5-32-23-54-49-40-19 10-26 49-12 63 4 4 19 6 33 4 18-2 26-10 28-27zm-301-13c-3-8-6-5-6 6-1 11 2 17 5 13 3-3 4-12 1-19zm-109-25c-10-2-28-2-40 0-13 2-5 4 17 4 22 1 32-1 23-4zm-528-134c0-28-4-39-12-37-14 5-23 51-14 74 10 27 26 4 26-37zm40 20c0-20-15-26-25-9-9 15 3 43 15 35 5-3 10-15 10-26zm40-40c0-44-3-60-12-57-14 5-23 90-14 115 12 31 26-1 26-58zm40 20c0-28-4-39-12-37-14 5-23 51-14 74 10 27 26 4 26-37zm40 20c0-20-15-26-25-9-9 15 3 43 15 35 5-3 10-15 10-26zm40-20c0-28-4-39-12-37-14 5-23 51-14 74 10 27 26 4 26-37zm40 20c0-20-15-26-25-9-9 15 3 43 15 35 5-3 10-15 10-26zm40-20c0-28-4-39-12-37-14 5-23 51-14 74 10 27 26 4 26-37zm40-20c0-44-3-60-12-57-14 5-23 90-14 115 12 31 26-1 26-58zm40-60c0-92-3-120-12-117s-14 37-16 113c-3 113 1 141 18 130 6-4 10-56 10-126zm40 20c0-76-3-100-12-97-13 5-24 167-13 195 14 37 25-7 25-98zm40 20c0-60-3-80-12-77-13 5-24 128-14 155 13 34 26-4 26-78zm40 40c0-28-4-39-12-37-14 5-23 51-14 74 10 27 26 4 26-37zm40-20c0-44-3-60-12-57-14 5-23 90-14 115 12 31 26-1 26-58zm40 20c0-28-4-39-12-37-14 5-23 51-14 74 10 27 26 4 26-37zm38 10c-1-13-7-23-13-22-13 3-18 30-11 50 10 24 29 1 24-28zm37 11c-5-8-11-8-17-2s-7 16-3 22c5 8 11 8 17 2s7-16 3-22zm41-6c-5-13-10-14-18-6-6 6-8 18-4 28 5 13 10 14 18 6 6-6 8-18 4-28zm44-15c0-28-4-39-12-37-14 5-23 51-14 74 10 27 26 4 26-37zm216 19l19-23-25 20c-14 11-27 21-29 22-2 2 0 3 6 3 5 0 18-10 29-22zm-362-166c3-5-1-9-9-9s-12 4-9 9c3 4 7 8 9 8s6-4 9-8zm406-48c0-19-28-30-42-16-8 8-4 9 12 5 20-5 22-3 18 15-4 12-2 20 3 16 5-3 9-12 9-20zm-923-51c-3-3-11-2-17 2-9 6-9 10 1 16 14 8 27-7 16-18zm74 14c-1-12-15-9-19 4-3 6 1 10 8 8 6-3 11-8 11-12zm59-42c0-8-4-15-10-15-5 0-10 7-10 15s5 15 10 15c6 0 10-7 10-15zm-180-10c0-8-7-15-15-15-9 0-12 6-9 15 4 8 10 15 15 15s9-7 9-15zm307-1c-3-3-12-4-19-1-8 3-5 6 6 6 11 1 17-2 13-5zm-80-11c-4-3-10-3-14 0-3 4 0 7 7 7s10-3 7-7zm150 1c-3-3-12-4-19-1-8 3-5 6 6 6 11 1 17-2 13-5zm547-16c17-24 6-58-19-58-22 0-56-61-52-89 7-34-27-65-54-51-14 8-20 20-18 38 2 15-5 41-14 59-19 35-22 53-8 53 5 0 14-14 21-30 21-51 42-54 66-10 27 49 18 63-38 59-34-3-44-1-44 11s11 14 46 12c33-3 50 1 59 12 18 22 37 20 55-6zm-727 5c-4-3-10-3-14 0-3 4 0 7 7 7s10-3 7-7zm140 0c-4-3-10-3-14 0-3 4 0 7 7 7s10-3 7-7zm70 0c-4-3-10-3-14 0-3 4 0 7 7 7s10-3 7-7zm333 0c-8-3-22-11-30-17-13-10-13-9-1 7 7 9 21 17 30 16 13 0 14-1 1-6zm-513-10c-4-3-10-3-14 0-3 4 0 7 7 7s10-3 7-7zm178-10c11 5 14 3 9-5s-1-9 12-4c10 4 15 4 12 0-4-4 10-19 32-35 45-33 97-117 106-170 8-47 18-49 221-49h154l-3-127-3-128h-420l-3 32-3 32-44-34c-25-18-61-39-80-46s-35-16-35-19c0-14-150 9-186 29-88 47-90 39 23 153l100 103 12 75c29 184 33 199 49 202 10 2 20 0 23-6 4-5 14-6 24-3zm175 10c0-14-54-63-69-63-10 0-3 12 19 35 32 33 50 43 50 28zm-456-25c-5-8-2-9 9-5 26 10 20 2-20-29-21-15-32-20-24-11 16 20 5 23-19 5-9-7 0 2 19 19 39 35 46 40 35 21zm76-3c0-8-4-15-9-15s-11 7-15 15c-3 9 0 15 9 15 8 0 15-7 15-15zm294-14c-2-3-12 3-22 13-16 17-16 18 5 5 12-7 20-15 17-18zm-512-13c-9-9-12-7-12 12s3 21 12 12 9-15 0-24zm571-44c14-17 14-21 2-21-8 0-12 4-9 8 2 4 0 10-6 14-5 3-10 11-10 17s1 9 3 7c1-2 10-13 20-25zm-383 7c0-12-20-25-27-18s6 27 18 27c5 0 9-4 9-9zm-135-10c10-17-12-21-25-6-10 12-10 15 3 15 9 0 18-4 22-9zm65-21c0-5-7-10-15-10s-15 5-15 10c0 6 7 10 15 10s15-4 15-10zm-64-22c5-7 3-8-6-3-9 6-12 4-8-7 4-8 0-15-7-15-10 0-11 5-4 19 11 21 15 22 25 6zm529 2c3-5 4-10 1-10s-8 5-11 10c-3 6-4 10-1 10s8-4 11-10zm33-66c-4-3-12 5-18 18-12 22-12 22 6 6 10-10 15-20 12-24zm-601-1c-4-3-7 0-7 7s3 10 7 7c3-4 3-10 0-14zm610-40c-4-3-7 0-7 7s3 10 7 7c3-4 3-10 0-14zm-620-15c-3-8-6-5-6 6-1 11 2 17 5 13 3-3 4-12 1-19zm0-45c-4-3-7 0-7 7s3 10 7 7c3-4 3-10 0-14zm10-45c-3-8-6-5-6 6-1 11 2 17 5 13 3-3 4-12 1-19zm43-93c14-19 14-19-2-6-10 7-18 18-18 24s1 8 3 6c1-2 9-13 17-24zm47-45c-1-17-3-18-15-6-8 8-11 19-7 25 9 16 24 4 22-19zm423-13c0-2-10-12-22-23l-23-19 19 23c18 21 26 27 26 19zm-339-52c11-4 18-9 16-12-8-7-67 26-67 38 0 6 7 4 15-5 8-8 24-18 36-21zm168-31c8-7-64-2-89 6-16 6-6 7 30 3 30-3 57-7 59-9z"/><path d="M1074 598c-5-24-8-49-7-55 0-7-3-10-8-7s-9-22-9-55v-61h370v220h-338l-8-42zm28-15c-3-16-7-22-10-15-4 13 4 42 11 42 2 0 2-12-1-27zm206 20c-26-2-71-2-100 0s-8 3 47 3 79-1 53-3zm81-70c-2-79-6-70-11 25-2 28 0 52 5 52 4 0 6-35 6-77zm-104 42c0-12-140-19-164-9-13 5-11 8 9 15 35 10 155 6 155-6zm0-40c0-12-140-19-164-9-13 5-11 8 9 15 35 10 155 6 155-6zm0-40c0-12-140-19-164-9-13 5-11 8 9 15 35 10 155 6 155-6zm-52-32c-13-2-35-2-50 0-16 2-5 4 22 4 28 0 40-2 28-4zm115 0c-16-2-40-2-55 0-16 2-3 4 27 4s43-2 28-4zM604 888c-4-7-3-8 4-4 12 7 16 16 8 16-3 0-8-5-12-12zm-34-438c0-7 3-10 7-7 3 4 3 10 0 14-4 3-7 0-7-7z"/></g><g fill="#bac6c8"><path d="M0 930V0h1920v1860H0V930zm558 483c-3-36-5-38-40-41l-38-3v81h81l-3-37zm160 0c-3-36-5-38-39-41-31-3-37 0-41 20-8 46 1 58 43 58h40l-3-37zm275 30c-13-2-24-13-26-26-4-18-5-17-6 6s3 27 27 26c22-1 23-2 5-6zm34-30c-3-10-5-4-5 12 0 17 2 24 5 18 2-7 2-21 0-30zm136 30c-7-2-21-2-30 0-10 3-4 5 12 5 17 0 24-2 18-5zm265-22c5-32-23-54-49-40-19 10-26 49-12 63 4 4 19 6 33 4 18-2 26-10 28-27zm-301-13c-3-8-6-5-6 6-1 11 2 17 5 13 3-3 4-12 1-19zm-109-25c-10-2-28-2-40 0-13 2-5 4 17 4 22 1 32-1 23-4zm-528-134c0-28-4-39-12-37-14 5-23 51-14 74 10 27 26 4 26-37zm40 20c0-20-15-26-25-9-9 15 3 43 15 35 5-3 10-15 10-26zm40-40c0-44-3-60-12-57-14 5-23 90-14 115 12 31 26-1 26-58zm40 20c0-28-4-39-12-37-14 5-23 51-14 74 10 27 26 4 26-37zm40 20c0-20-15-26-25-9-9 15 3 43 15 35 5-3 10-15 10-26zm40-20c0-28-4-39-12-37-14 5-23 51-14 74 10 27 26 4 26-37zm40 20c0-20-15-26-25-9-9 15 3 43 15 35 5-3 10-15 10-26zm40-20c0-28-4-39-12-37-14 5-23 51-14 74 10 27 26 4 26-37zm40-20c0-44-3-60-12-57-14 5-23 90-14 115 12 31 26-1 26-58zm40-60c0-92-3-120-12-117s-14 37-16 113c-3 113 1 141 18 130 6-4 10-56 10-126zm40 20c0-76-3-100-12-97-13 5-24 167-13 195 14 37 25-7 25-98zm40 20c0-60-3-80-12-77-13 5-24 128-14 155 13 34 26-4 26-78zm40 40c0-28-4-39-12-37-14 5-23 51-14 74 10 27 26 4 26-37zm40-20c0-44-3-60-12-57-14 5-23 90-14 115 12 31 26-1 26-58zm40 20c0-28-4-39-12-37-14 5-23 51-14 74 10 27 26 4 26-37zm38 10c-1-13-7-23-13-22-13 3-18 30-11 50 10 24 29 1 24-28zm37 11c-5-8-11-8-17-2s-7 16-3 22c5 8 11 8 17 2s7-16 3-22zm41-6c-5-13-10-14-18-6-6 6-8 18-4 28 5 13 10 14 18 6 6-6 8-18 4-28zm44-15c0-28-4-39-12-37-14 5-23 51-14 74 10 27 26 4 26-37zm216 19l19-23-25 20c-14 11-27 21-29 22-2 2 0 3 6 3 5 0 18-10 29-22zm-362-166c3-5-1-9-9-9s-12 4-9 9c3 4 7 8 9 8s6-4 9-8zm406-48c0-19-28-30-42-16-8 8-4 9 12 5 20-5 22-3 18 15-4 12-2 20 3 16 5-3 9-12 9-20zm-923-51c-3-3-11-2-17 2-9 6-9 10 1 16 14 8 27-7 16-18zm74 14c-1-12-15-9-19 4-3 6 1 10 8 8 6-3 11-8 11-12zm59-42c0-8-4-15-10-15-5 0-10 7-10 15s5 15 10 15c6 0 10-7 10-15zm-180-10c0-8-7-15-15-15-9 0-12 6-9 15 4 8 10 15 15 15s9-7 9-15zm307-1c-3-3-12-4-19-1-8 3-5 6 6 6 11 1 17-2 13-5zm-80-11c-4-3-10-3-14 0-3 4 0 7 7 7s10-3 7-7zm168-3c17-7 17-9 3-9-10-1-18-5-18-11 0-5 3-9 8-8 4 1 18-4 31-11s21-8 17-3c-3 6-2 14 4 17 6 4 10 3 9-2-4-15 13-43 23-37 5 3 4 12-4 21-12 15-11 15 9 2 13-8 18-16 12-20-7-4-6-11 3-20 7-8 23-30 36-49 12-19 22-31 22-27 0 5 5 5 11 1 8-5 8-8 0-13s-6-13 5-27c8-10 12-12 8-4-7 13-5 13 9 1 18-14 24-36 7-26-6 4-10-6-10-23 0-39 18-42 217-42h154l-3-127-3-128h-420l-3 32c-3 29-5 30-20 18-9-8-26-22-37-31-11-8-14-12-6-8 10 5 12 3 7-5-4-7-13-10-19-8-7 2-18-3-25-12-8-9-10-10-7-3 6 12 3 12-16 1-13-7-27-12-31-11-5 1-8-2-8-6s-19-9-42-9c-58-1-61-4-13-13l40-7-42-2c-51-1-81 8-62 20 10 6 9 9-6 14-11 4-35 13-53 21-38 16-52 18-52 5 0-5 14-14 30-21 17-7 29-15 26-17-2-2-18 3-36 12-23 12-30 21-25 35 4 12 0 22-12 29-16 8-6 22 83 113l101 103 12 75c30 193 32 198 54 205 22 6 22 6 2 15-13 5-15 9-5 9 8 0 24-4 35-9zm529-12c17-24 6-58-19-58-22 0-56-61-52-89 7-34-27-65-54-51-14 8-20 20-18 38 2 15-5 41-14 59-19 35-22 53-8 53 5 0 14-14 21-30 21-51 42-54 66-10 27 49 18 63-38 59-34-3-44-1-44 11s11 14 46 12c33-3 50 1 59 12 18 22 37 20 55-6zm-727 5c-4-3-10-3-14 0-3 4 0 7 7 7s10-3 7-7zm140 0c-4-3-10-3-14 0-3 4 0 7 7 7s10-3 7-7zm403 0c-8-3-22-11-30-17-13-10-13-9-1 7 7 9 21 17 30 16 13 0 14-1 1-6zm-513-10c-4-3-10-3-14 0-3 4 0 7 7 7s10-3 7-7zm353 0c0-14-54-63-69-63-10 0-3 12 19 35 32 33 50 43 50 28zm-456-25c-5-8-2-9 9-5 26 10 20 2-20-29-21-15-32-20-24-11 16 20 5 23-19 5-9-7 0 2 19 19 39 35 46 40 35 21zm76-3c0-8-4-15-9-15s-11 7-15 15c-3 9 0 15 9 15 8 0 15-7 15-15zm-218-27c-9-9-12-7-12 12s3 21 12 12 9-15 0-24zm571-44c14-17 14-21 2-21-8 0-12 4-9 8 2 4 0 10-6 14-5 3-10 11-10 17s1 9 3 7c1-2 10-13 20-25zm-383 7c0-12-20-25-27-18s6 27 18 27c5 0 9-4 9-9zm-135-10c10-17-12-21-25-6-10 12-10 15 3 15 9 0 18-4 22-9zm65-21c0-5-7-10-15-10s-15 5-15 10c0 6 7 10 15 10s15-4 15-10zm-64-22c5-7 3-8-6-3-9 6-12 4-8-7 4-8 0-15-7-15-10 0-11 5-4 19 11 21 15 22 25 6zm-39-65c-4-3-7 0-7 7s3 10 7 7c3-4 3-10 0-14zm610-40c-4-3-7 0-7 7s3 10 7 7c3-4 3-10 0-14zm-620-15c-3-8-6-5-6 6-1 11 2 17 5 13 3-3 4-12 1-19zm0-45c-4-3-7 0-7 7s3 10 7 7c3-4 3-10 0-14zm10-45c-3-8-6-5-6 6-1 11 2 17 5 13 3-3 4-12 1-19zm43-93c14-19 14-19-2-6-10 7-18 18-18 24s1 8 3 6c1-2 9-13 17-24zm47-45c-1-17-3-18-15-6-8 8-11 19-7 25 9 16 24 4 22-19zm423-13c0-2-10-12-22-23l-23-19 19 23c18 21 26 27 26 19z"/><path d="M1082 634c3-3-3-28-13-57-10-28-19-75-19-104v-53h370v220h-172c-94 0-169-3-166-6zm20-51c-3-16-7-22-10-15-4 13 4 42 11 42 2 0 2-12-1-27zm206 20c-26-2-71-2-100 0s-8 3 47 3 79-1 53-3zm81-70c-2-79-6-70-11 25-2 28 0 52 5 52 4 0 6-35 6-77zm-104 42c0-12-140-19-164-9-13 5-11 8 9 15 35 10 155 6 155-6zm-200-25c3-5 4-10 1-10s-8 5-11 10c-3 6-4 10-1 10s8-4 11-10zm200-15c0-12-140-19-164-9-13 5-11 8 9 15 35 10 155 6 155-6zm0-40c0-12-140-19-164-9-13 5-11 8 9 15 35 10 155 6 155-6zm-52-32c-13-2-35-2-50 0-16 2-5 4 22 4 28 0 40-2 28-4zm115 0c-16-2-40-2-55 0-16 2-3 4 27 4s43-2 28-4zM604 888c-4-7-3-8 4-4 12 7 16 16 8 16-3 0-8-5-12-12zm-34-438c0-7 3-10 7-7 3 4 3 10 0 14-4 3-7 0-7-7z"/></g><g fill="#c9c4bd"><path d="M0 930V0h1920v1860H0V930zm558 483c-3-36-5-38-40-41l-38-3v81h81l-3-37zm160 0c-3-36-5-38-39-41-31-3-37 0-41 20-8 46 1 58 43 58h40l-3-37zm275 30c-13-2-24-13-26-26-4-18-5-17-6 6s3 27 27 26c22-1 23-2 5-6zm34-30c-3-10-5-4-5 12 0 17 2 24 5 18 2-7 2-21 0-30zm136 30c-7-2-21-2-30 0-10 3-4 5 12 5 17 0 24-2 18-5zm265-22c5-32-23-54-49-40-19 10-26 49-12 63 4 4 19 6 33 4 18-2 26-10 28-27zm-301-13c-3-8-6-5-6 6-1 11 2 17 5 13 3-3 4-12 1-19zm-109-25c-10-2-28-2-40 0-13 2-5 4 17 4 22 1 32-1 23-4zm-528-134c0-28-4-39-12-37-14 5-23 51-14 74 10 27 26 4 26-37zm40 20c0-20-15-26-25-9-9 15 3 43 15 35 5-3 10-15 10-26zm40-40c0-44-3-60-12-57-14 5-23 90-14 115 12 31 26-1 26-58zm40 20c0-28-4-39-12-37-14 5-23 51-14 74 10 27 26 4 26-37zm40 20c0-20-15-26-25-9-9 15 3 43 15 35 5-3 10-15 10-26zm40-20c0-28-4-39-12-37-14 5-23 51-14 74 10 27 26 4 26-37zm40 20c0-20-15-26-25-9-9 15 3 43 15 35 5-3 10-15 10-26zm40-20c0-28-4-39-12-37-14 5-23 51-14 74 10 27 26 4 26-37zm40-20c0-44-3-60-12-57-14 5-23 90-14 115 12 31 26-1 26-58zm40-60c0-92-3-120-12-117s-14 37-16 113c-3 113 1 141 18 130 6-4 10-56 10-126zm40 20c0-76-3-100-12-97-13 5-24 167-13 195 14 37 25-7 25-98zm40 20c0-60-3-80-12-77-13 5-24 128-14 155 13 34 26-4 26-78zm40 40c0-28-4-39-12-37-14 5-23 51-14 74 10 27 26 4 26-37zm40-20c0-44-3-60-12-57-14 5-23 90-14 115 12 31 26-1 26-58zm40 20c0-28-4-39-12-37-14 5-23 51-14 74 10 27 26 4 26-37zm38 10c-1-13-7-23-13-22-13 3-18 30-11 50 10 24 29 1 24-28zm37 11c-5-8-11-8-17-2s-7 16-3 22c5 8 11 8 17 2s7-16 3-22zm41-6c-5-13-10-14-18-6-6 6-8 18-4 28 5 13 10 14 18 6 6-6 8-18 4-28zm44-15c0-28-4-39-12-37-14 5-23 51-14 74 10 27 26 4 26-37zm216 19l19-23-25 20c-14 11-27 21-29 22-2 2 0 3 6 3 5 0 18-10 29-22zm-362-166c3-5-1-9-9-9s-12 4-9 9c3 4 7 8 9 8s6-4 9-8zm406-48c0-19-28-30-42-16-8 8-4 9 12 5 20-5 22-3 18 15-4 12-2 20 3 16 5-3 9-12 9-20zm-923-51c-3-3-11-2-17 2-9 6-9 10 1 16 14 8 27-7 16-18zm74 14c-1-12-15-9-19 4-3 6 1 10 8 8 6-3 11-8 11-12zm59-42c0-8-4-15-10-15-5 0-10 7-10 15s5 15 10 15c6 0 10-7 10-15zm-180-10c0-8-7-15-15-15-9 0-12 6-9 15 4 8 10 15 15 15s9-7 9-15zm307-1c-3-3-12-4-19-1-8 3-5 6 6 6 11 1 17-2 13-5zm-80-11c-4-3-10-3-14 0-3 4 0 7 7 7s10-3 7-7zm139-21c4 4 23-2 42-14 20-12 32-17 29-11-4 7-3 14 3 18 5 3 10 1 10-5s3-9 8-6c4 2 16-3 27-11 16-12 16-14 3-10-10 3-20 1-24-5-4-7-3-8 5-4 6 4 14 1 17-7 4-11 15-4 44 27 21 22 42 37 47 33 4-5-9-24-30-43-20-19-37-38-37-42s9-20 21-37c19-28 20-28 13-5-3 14-11 27-15 28-5 2-7 8-3 13 8 13 43-32 37-48-3-7 1-13 8-14 9 0 7-3-4-7-16-7-16-9-2-27 9-11 14-14 10-7-3 6-1 12 4 12 6 0 11-2 11-4s3-12 7-22c4-12 3-15-5-10s-12-2-12-22c0-39 18-42 217-42h154l-3-127-3-128h-420l-3 32-3 33-27-25c-14-13-22-28-18-32 5-4 11-2 13 5 3 6 10 12 16 12s4-8-6-17c-19-19-57-25-57-9 0 6-5 4-10-4s-14-16-20-16c-5-1-14-2-20-3-5 0-10-8-10-16 0-12-4-13-19-5-27 14-34 13-27-6 5-13-3-15-49-13-51 2-71 12-43 21 7 3-8 11-33 20-24 8-52 19-61 23-10 4-18 3-18-1 0-5 14-15 31-23 16-7 28-15 26-18-3-2-19 3-37 12-25 13-30 21-25 38 5 19 4 20-7 6-12-14-15-13-37 7-13 12-20 27-17 33 10 15 29 3 22-14-2-7 2-16 11-19 11-5 14-2 9 11-5 12 21 44 92 117l99 101 23 140c16 98 19 140 11 143-6 2-8 8-5 13 3 6 12 2 19-8s17-15 21-11zm29 18c13-5 14-9 5-9-8 0-24 4-35 9-13 5-14 9-5 9 8 0 24-4 35-9zm529-12c17-24 6-58-19-58-22 0-56-61-52-89 3-14-3-31-14-42-28-28-59-10-59 34-1 18-7 43-15 57s-14 31-15 38c0 23 18 12 30-18 7-17 20-35 30-40 13-7 20-2 33 26 28 58 24 66-31 62-37-2-48 0-48 12s11 14 46 12c33-3 50 1 59 12 18 22 37 20 55-6zm-727 5c-4-3-10-3-14 0-3 4 0 7 7 7s10-3 7-7zm543 0c-8-3-22-11-30-17-13-10-13-9-1 7 7 9 21 17 30 16 13 0 14-1 1-6zm-513-10c-4-3-10-3-14 0-3 4 0 7 7 7s10-3 7-7zm200-10c-4-3-10-3-14 0-3 4 0 7 7 7s10-3 7-7zm-303-15c-5-8-2-9 9-5 26 10 20 2-20-29-21-15-32-20-24-11 16 20 5 23-19 5-9-7 0 2 19 19 39 35 46 40 35 21zm76-3c0-8-4-15-9-15s-11 7-15 15c-3 9 0 15 9 15 8 0 15-7 15-15zm-218-27c-9-9-12-7-12 12s3 21 12 12 9-15 0-24zm188-37c0-12-20-25-27-18s6 27 18 27c5 0 9-4 9-9zm-135-10c10-17-12-21-25-6-10 12-10 15 3 15 9 0 18-4 22-9zm65-21c0-5-7-10-15-10s-15 5-15 10c0 6 7 10 15 10s15-4 15-10zm-64-22c5-7 3-8-6-3-9 6-12 4-8-7 4-8 0-15-7-15-10 0-11 5-4 19 11 21 15 22 25 6zm-39-65c-4-3-7 0-7 7s3 10 7 7c3-4 3-10 0-14zm610-40c-4-3-7 0-7 7s3 10 7 7c3-4 3-10 0-14zm-620-15c-3-8-6-5-6 6-1 11 2 17 5 13 3-3 4-12 1-19zm0-45c-4-3-7 0-7 7s3 10 7 7c3-4 3-10 0-14zm10-45c-3-8-6-5-6 6-1 11 2 17 5 13 3-3 4-12 1-19zm43-93c14-19 14-19-2-6-10 7-18 18-18 24s1 8 3 6c1-2 9-13 17-24z"/><path d="M1083 634c3-4-3-29-13-58-11-28-20-75-20-103v-53h370v220h-172c-94 0-169-3-165-6zm19-51c-3-16-7-22-10-15-4 13 4 42 11 42 2 0 2-12-1-27zm206 20c-26-2-71-2-100 0s-8 3 47 3 79-1 53-3zm81-70c-2-79-6-70-11 25-2 28 0 52 5 52 4 0 6-35 6-77zm-104 42c0-12-140-19-164-9-13 5-11 8 9 15 35 10 155 6 155-6zm-206-41c-6-8-15-12-18-8s0 9 7 11c6 3 9 10 6 15-4 7-2 8 5 4 9-6 9-11 0-22zm206 1c0-12-140-19-164-9-13 5-11 8 9 15 35 10 155 6 155-6zm0-40c0-12-140-19-164-9-13 5-11 8 9 15 35 10 155 6 155-6zm-52-32c-13-2-35-2-50 0-16 2-5 4 22 4 28 0 40-2 28-4zm115 0c-16-2-40-2-55 0-16 2-3 4 27 4s43-2 28-4zM604 888c-4-7-3-8 4-4 12 7 16 16 8 16-3 0-8-5-12-12z"/></g><g fill="#c8bec7"><path d="M0 930V0h1920v1860H0V930zm558 483c-3-36-5-38-40-41l-38-3v81h81l-3-37zm160 0c-3-36-5-38-39-41-31-3-37 0-41 20-8 46 1 58 43 58h40l-3-37zm275 30c-13-2-24-13-26-26-4-18-5-17-6 6s3 27 27 26c22-1 23-2 5-6zm34-30c-3-10-5-4-5 12 0 17 2 24 5 18 2-7 2-21 0-30zm136 30c-7-2-21-2-30 0-10 3-4 5 12 5 17 0 24-2 18-5zm265-22c5-32-23-54-49-40-19 10-26 49-12 63 4 4 19 6 33 4 18-2 26-10 28-27zm-301-13c-3-8-6-5-6 6-1 11 2 17 5 13 3-3 4-12 1-19zm-109-25c-10-2-28-2-40 0-13 2-5 4 17 4 22 1 32-1 23-4zm-528-134c0-28-4-39-12-37-14 5-23 51-14 74 10 27 26 4 26-37zm40 20c0-20-15-26-25-9-9 15 3 43 15 35 5-3 10-15 10-26zm40-40c0-44-3-60-12-57-14 5-23 90-14 115 12 31 26-1 26-58zm40 20c0-28-4-39-12-37-14 5-23 51-14 74 10 27 26 4 26-37zm40 20c0-20-15-26-25-9-9 15 3 43 15 35 5-3 10-15 10-26zm40-20c0-28-4-39-12-37-14 5-23 51-14 74 10 27 26 4 26-37zm40 20c0-20-15-26-25-9-9 15 3 43 15 35 5-3 10-15 10-26zm40-20c0-28-4-39-12-37-14 5-23 51-14 74 10 27 26 4 26-37zm40-20c0-44-3-60-12-57-14 5-23 90-14 115 12 31 26-1 26-58zm40-60c0-92-3-120-12-117s-14 37-16 113c-3 113 1 141 18 130 6-4 10-56 10-126zm40 20c0-76-3-100-12-97-13 5-24 167-13 195 14 37 25-7 25-98zm40 20c0-60-3-80-12-77-13 5-24 128-14 155 13 34 26-4 26-78zm40 40c0-28-4-39-12-37-14 5-23 51-14 74 10 27 26 4 26-37zm40-20c0-44-3-60-12-57-14 5-23 90-14 115 12 31 26-1 26-58zm40 20c0-28-4-39-12-37-14 5-23 51-14 74 10 27 26 4 26-37zm38 10c-1-13-7-23-13-22-13 3-18 30-11 50 10 24 29 1 24-28zm37 11c-5-8-11-8-17-2s-7 16-3 22c5 8 11 8 17 2s7-16 3-22zm41-6c-5-13-10-14-18-6-6 6-8 18-4 28 5 13 10 14 18 6 6-6 8-18 4-28zm44-15c0-28-4-39-12-37-14 5-23 51-14 74 10 27 26 4 26-37zm216 19l19-23-25 20c-14 11-27 21-29 22-2 2 0 3 6 3 5 0 18-10 29-22zm-362-166c3-5-1-9-9-9s-12 4-9 9c3 4 7 8 9 8s6-4 9-8zm406-48c0-19-28-30-42-16-8 8-4 9 12 5 20-5 22-3 18 15-4 12-2 20 3 16 5-3 9-12 9-20zm-923-51c-3-3-11-2-17 2-9 6-9 10 1 16 14 8 27-7 16-18zm74 14c-1-12-15-9-19 4-3 6 1 10 8 8 6-3 11-8 11-12zm59-42c0-8-4-15-10-15-5 0-10 7-10 15s5 15 10 15c6 0 10-7 10-15zm-180-10c0-8-7-15-15-15-9 0-12 6-9 15 4 8 10 15 15 15s9-7 9-15zm307-1c-3-3-12-4-19-1-8 3-5 6 6 6 11 1 17-2 13-5zm33-15c0-5-4-9-10-9-5 0-10 7-10 16 0 8 5 12 10 9 6-3 10-10 10-16zm-113 4c-4-3-10-3-14 0-3 4 0 7 7 7s10-3 7-7zm169 0c16-6 16-7 1-12-15-6-14-8 4-19 12-8 18-9 14-3-3 7 2 11 14 11s21-4 21-10 3-9 8-8c19 4 40-15 35-30-3-9 13 1 35 22 23 22 45 36 49 32s-9-23-30-42c-38-35-47-50-24-41 15 6 43-31 39-50-2-7 2-13 8-13s8-5 5-10c-3-6 1-17 9-26 18-17 21-34 6-34-18 0-5-45 15-52 11-3 93-6 183-7l163-1-3-127-3-128h-420l-6 35c-4 19-7 27-8 18 0-10-7-18-13-18-10 0-10-2 0-9 10-6 10-11-4-21-22-19-47-22-57-7-6 8-7 4-4-10 3-15 1-20-9-16-7 2-21-1-31-7-17-11-17-11 0-6 11 4 16 2 12-4s-21-8-42-4c-26 5-34 4-29-5 5-8-9-11-48-11-31 0-56 4-56 8 0 5-18 18-40 31-22 12-46 29-55 37-8 9-15 12-15 7 0-13 16-35 26-35 12 0 51-28 40-28-21 0-86 45-82 57 3 7-1 10-8 7-16-6-40 21-31 36 5 8 11 8 19 1 9-8 39 16 113 92l100 102 23 143c18 114 26 142 39 142 14 0 14 2 1 10s-13 10 2 10c9 0 24-3 34-7zm528-15c17-24 6-58-19-58-22 0-56-61-52-89 3-14-3-31-14-42-28-28-59-10-59 34-1 18-7 43-15 57s-14 31-15 38c0 23 18 12 30-18 7-17 20-35 30-40 13-7 20-2 33 26 28 58 24 66-31 62-37-2-48 0-48 12s11 14 46 12c33-3 50 1 59 12 18 22 37 20 55-6zm-727 5c-4-3-10-3-14 0-3 4 0 7 7 7s10-3 7-7zm543 0c-8-3-22-11-30-17-13-10-13-9-1 7 7 9 21 17 30 16 13 0 14-1 1-6zm-575-13c-3-5-12-10-18-10-7 0-6 4 3 10 19 12 23 12 15 0zm62 3c-4-3-10-3-14 0-3 4 0 7 7 7s10-3 7-7zm-103-25c-5-8-2-9 9-5 27 10 20 1-25-34-24-19-37-26-29-16 13 17 4 24-15 10-6-5 6 7 25 25 36 33 47 40 35 20zm76-3c0-8-4-15-9-15s-11 7-15 15c-3 9 0 15 9 15 8 0 15-7 15-15zm-218-27c-9-9-12-7-12 12s3 21 12 12 9-15 0-24zm188-37c0-12-20-25-27-18s6 27 18 27c5 0 9-4 9-9zm-135-10c10-17-12-21-25-6-10 12-10 15 3 15 9 0 18-4 22-9zm65-21c0-5-7-10-15-10s-15 5-15 10c0 6 7 10 15 10s15-4 15-10zm-68-28c-7-2-10-7-8-11 3-4-1-8-9-8-10 0-11 5-4 19 6 10 15 15 22 11 8-5 8-8-1-11zm-35-59c-4-3-7 0-7 7s3 10 7 7c3-4 3-10 0-14zm610-40c-4-3-7 0-7 7s3 10 7 7c3-4 3-10 0-14zm-620-15c-3-8-6-5-6 6-1 11 2 17 5 13 3-3 4-12 1-19zm20-35c-4-3-7 0-7 7s3 10 7 7c3-4 3-10 0-14zm-20-10c-4-3-7 0-7 7s3 10 7 7c3-4 3-10 0-14zm33-38c0-2-7-5-15-9-9-3-15 0-15 9s6 12 15 9c8-4 15-7 15-9zm15-75c-4-6-1-19 6-28 12-16 12-16-5 0-16 14-15 38 0 38 3 0 2-5-1-10z"/><path d="M964 888c-4-7-3-8 4-4 12 7 16 16 8 16-3 0-8-5-12-12zm61-57c-3-5-2-12 3-15s9 1 9 9c0 17-3 19-12 6zm59-199c2-4 1-26-4-49-4-24-3-40 1-37 5 3 9 1 9-5 0-17-22-24-31-10-5 9-9-9-9-48v-63h370v220h-171c-93 0-168-3-165-8zm18-49c-3-16-7-22-10-15-4 13 4 42 11 42 2 0 2-12-1-27zm206 20c-26-2-71-2-100 0s-8 3 47 3 79-1 53-3zm81-70c-2-79-6-70-11 25-2 28 0 52 5 52 4 0 6-35 6-77zm-104 42c0-12-140-19-164-9-13 5-11 8 9 15 35 10 155 6 155-6zm0-40c0-12-140-19-164-9-13 5-11 8 9 15 35 10 155 6 155-6zm0-40c0-12-140-19-164-9-13 5-11 8 9 15 35 10 155 6 155-6zm-52-32c-13-2-35-2-50 0-16 2-5 4 22 4 28 0 40-2 28-4zm115 0c-16-2-40-2-55 0-16 2-3 4 27 4s43-2 28-4zm-375-50c4-3 10-3 14 0 3 4 0 7-7 7s-10-3-7-7zM604 888c-4-7-3-8 4-4 12 7 16 16 8 16-3 0-8-5-12-12z"/></g><g fill="#cbcaca"><path d="M0 930V0h1920v1860H0V930zm558 483c-3-36-5-38-40-41l-38-3v81h81l-3-37zm160 0c-3-36-5-38-39-41-31-3-37 0-41 20-8 46 1 58 43 58h40l-3-37zm312 2c0-33-2-35-35-35s-35 2-35 35 2 35 35 35 35-2 35-35zm159 8c-2-24-2-25-6-5-3 15-11 22-28 22-19 0-24-6-28-32-4-32-4-32-5 5-2 36-1 37 33 37 32 0 35-2 34-27zm239-2c5-32-23-54-49-40-19 10-26 49-12 63 4 4 19 6 33 4 18-2 26-10 28-27zm-938-172c0-28-4-39-12-37-14 5-23 51-14 74 10 27 26 4 26-37zm40 20c0-20-15-26-25-9-9 15 3 43 15 35 5-3 10-15 10-26zm40-40c0-44-3-60-12-57-14 5-23 90-14 115 12 31 26-1 26-58zm40 20c0-28-4-39-12-37-14 5-23 51-14 74 10 27 26 4 26-37zm40 20c0-20-15-26-25-9-9 15 3 43 15 35 5-3 10-15 10-26zm40-20c0-28-4-39-12-37-14 5-23 51-14 74 10 27 26 4 26-37zm40 20c0-20-15-26-25-9-9 15 3 43 15 35 5-3 10-15 10-26zm40-20c0-28-4-39-12-37-14 5-23 51-14 74 10 27 26 4 26-37zm40-20c0-44-3-60-12-57-14 5-23 90-14 115 12 31 26-1 26-58zm40-60c0-92-3-120-12-117s-14 37-16 113c-3 113 1 141 18 130 6-4 10-56 10-126zm40 20c0-76-3-100-12-97-13 5-24 167-13 195 14 37 25-7 25-98zm40 20c0-60-3-80-12-77-13 5-24 128-14 155 13 34 26-4 26-78zm40 40c0-28-4-39-12-37-14 5-23 51-14 74 10 27 26 4 26-37zm40-20c0-44-3-60-12-57-14 5-23 90-14 115 12 31 26-1 26-58zm40 20c0-28-4-39-12-37-14 5-23 51-14 74 10 27 26 4 26-37zm38 10c-1-13-7-23-13-22-13 3-18 30-11 50 10 24 29 1 24-28zm37 11c-5-8-11-8-17-2s-7 16-3 22c5 8 11 8 17 2s7-16 3-22zm41-6c-5-13-10-14-18-6-6 6-8 18-4 28 5 13 10 14 18 6 6-6 8-18 4-28zm44-15c0-28-4-39-12-37-14 5-23 51-14 74 10 27 26 4 26-37zm213 24c13-15 13-21 3-35-7-10-17-18-21-18-5 0 0 9 9 19 16 18 16 20-6 35-12 9-18 16-12 16s18-8 27-17zm-53-18c-7-9-15-13-19-10-3 3 1 10 9 15 21 14 24 12 10-5zm-89-86c-28-29-51-49-51-45 0 11 93 107 98 102 2-3-19-28-47-57zm97 17c-13-13-25-22-27-20-6 5 30 44 41 44 5 0-2-11-14-24zm-54-48c-14-23-38-48-46-48-5 0 4 14 19 30 27 31 40 39 27 18zm-256-39c-2-6-8-10-13-10s-11 4-13 10 4 11 13 11 15-5 13-11zm142-4c-7-9-15-13-19-10-3 3 1 10 9 15 21 14 24 12 10-5zm260-42c0-18-28-29-42-15-8 8-5 9 11 5 24-6 29 14 9 37-11 12-10 12 5 1 9-7 17-20 17-28zm-290 23c0-3-5-8-12-12s-8-3-4 4c7 12 16 16 16 8zm63-25c-15-16-30-27-32-25-6 6 40 54 51 54 5 0-3-13-19-29zm-108-29c-17-15-32-27-34-25-7 5 42 52 54 52 5 1-4-12-20-27zm-588-19c-3-3-11-2-17 2-9 6-9 10 1 16 14 8 27-7 16-18zm74 14c-1-12-15-9-19 4-3 6 1 10 8 8 6-3 11-8 11-12zm563-19c-41-49-74-81-74-73s81 95 89 95c2 0-4-10-15-22zm-504-23c0-8-4-15-10-15-5 0-10 7-10 15s5 15 10 15c6 0 10-7 10-15zm396-13c-17-16-18-16-5 5 7 12 15 20 18 17 3-2-3-12-13-22zm-576 3c0-8-7-15-15-15-9 0-12 6-9 15 4 8 10 15 15 15s9-7 9-15zm412-20c39-17 97-55 84-55-5 0-6-3-3-7 4-4 23 9 42 27 44 43 59 31 17-13-33-34-40-49-20-44 13 2 64-94 73-140 6-27 3-33-12-34-13-1-11-3 7-9 14-4 98-8 188-9l163-1-3-127-3-128h-420l-6 35c-5 28-7 30-8 9-4-81-200-136-322-90-64 24-153 96-145 117 3 7 0 16-6 20-7 4-8 3-4-4s4-12 1-12c-14 0-45 92-51 148-8 72 19 177 43 168 8-3 11-2 8 3s-1 12 4 16c6 3 8 12 5 19-6 17 75 88 93 82 7-3 12 0 10 6-1 6 23 20 53 30 62 20 156 18 212-7zm512-7c17-24 6-58-19-58-22 0-56-61-52-89 3-14-3-31-14-42-28-28-59-10-59 34-1 18-7 43-15 57s-14 31-15 38c0 23 18 12 30-18 7-17 20-35 30-40 13-7 20-2 33 26 27 55 23 64-27 64-24 0-46 3-49 8-2 4-3 2-1-4 1-6-7-16-18-23-17-11-23-10-37 3-21 22-3 52 30 48 100-14 116-13 128 2 18 22 37 20 55-6zm-942-60c-9-9-12-7-12 12s3 21 12 12 9-15 0-24zm53-47c10-17-12-21-25-6-10 12-10 15 3 15 9 0 18-4 22-9z"/><path d="M1010 1420c0-7 3-10 7-7 3 4 3 10 0 14-4 3-7 0-7-7zM684 928c-3-5 0-8 5-8 6 0 11-7 11-15 0-19-16-19-23 0-5 12-11 10-33-8-105-86-129-133-129-259 0-53 1-95 4-92 6 6 61-78 56-86-2-4 2-7 10-7s59 46 113 101l99 101 22 135c12 74 21 139 21 143 0 10-150 5-156-5zm-14-87c0-12-20-25-27-18s6 27 18 27c5 0 9-4 9-9zm-70-31c0-5-7-10-15-10s-15 5-15 10c0 6 7 10 15 10s15-4 15-10zm305 110c3-5 8-10 11-10s2 5-1 10c-3 6-8 10-11 10s-2-4 1-10zm-296-27c-13-16-12-17 4-4 9 7 17 15 17 17 0 8-8 3-21-13zM490 670c0-7 3-10 7-7 3 4 3 10 0 14-4 3-7 0-7-7zm603-37c21-5 17-36-11-108l-17-40-6 30c-5 22-7 13-8-32l-1-63h370v220l-172-1c-95-1-165-3-155-6zm297-98v-75l-117 2c-112 2-114 2-43 8l75 6-92 2c-143 3-127 24 27 35 25 2 8 4-37 5-137 3-110 26 42 35 28 2 12 4-37 5-134 3-118 29 21 34l56 1-65 7c-57 6-50 7 53 8l117 2v-75z"/><path d="M1080 600c0-7 3-10 7-7 3 4 3 10 0 14-4 3-7 0-7-7zM645 400c3-5 8-10 11-10s2 5-1 10c-3 6-8 10-11 10s-2-4 1-10zm565 520c0-7 3-10 7-7 3 4 3 10 0 14-4 3-7 0-7-7z"/></g><g fill="#dedee2"><path d="M0 930V0h1920v1860H0V930zm558 483c-3-36-5-38-40-41l-38-3v81h81l-3-37zm160 0c-3-36-5-38-39-41-31-3-37 0-41 20-8 46 1 58 43 58h40l-3-37zm312 2c0-33-2-35-35-35s-35 2-35 35 2 35 35 35 35-2 35-35zm160 1c0-26-5-35-21-39-34-9-49 3-49 39 0 32 2 34 35 34s35-2 35-34zm238 5c5-32-23-54-49-40-19 10-26 49-12 63 4 4 19 6 33 4 18-2 26-10 28-27zm-938-172c0-28-4-39-15-39s-15 11-15 38c0 21 3 42 6 45 14 13 24-6 24-44zm40 20c0-10-7-19-15-19-15 0-21 31-9 43 11 10 24-3 24-24zm40-40c0-46-3-59-15-59s-15 13-15 58c0 32 3 62 6 65 15 15 24-8 24-64zm40 20c0-28-4-39-15-39s-15 11-15 38c0 21 3 42 6 45 14 13 24-6 24-44zm40 20c0-10-7-19-15-19-15 0-21 31-9 43 11 10 24-3 24-24zm40-20c0-28-4-39-15-39s-15 11-15 38c0 21 3 42 6 45 14 13 24-6 24-44zm40 20c0-10-7-19-15-19-15 0-21 31-9 43 11 10 24-3 24-24zm40-20c0-28-4-39-15-39s-15 11-15 38c0 21 3 42 6 45 14 13 24-6 24-44zm40-20c0-46-3-59-15-59s-15 13-15 58c0 32 3 62 6 65 15 15 24-8 24-64zm40-60c0-99-3-119-15-119s-15 20-15 118c0 65 3 122 6 125 18 18 24-15 24-124zm40 20c0-81-3-99-15-99s-15 18-15 98c0 54 3 102 6 105 17 17 24-13 24-104zm40 20c0-64-3-79-15-79s-15 15-15 78c0 43 3 82 6 85 17 16 24-10 24-84zm40 40c0-28-4-39-15-39s-15 11-15 38c0 21 3 42 6 45 14 13 24-6 24-44zm40-20c0-46-3-59-15-59s-15 13-15 58c0 32 3 62 6 65 15 15 24-8 24-64zm40 20c0-28-4-39-15-39s-15 11-15 38c0 21 3 42 6 45 14 13 24-6 24-44zm40 10c0-20-4-29-12-27-15 5-22 33-14 54 9 24 26 6 26-27zm40 15c0-16-16-19-25-4-8 13 4 32 16 25 5-4 9-13 9-21zm36-10c-5-13-10-14-18-6-6 6-8 18-4 28 5 13 10 14 18 6 6-6 8-18 4-28zm44-15c0-28-4-39-15-39s-15 11-15 38c0 21 3 42 6 45 14 13 24-6 24-44zm212 34c10-9 18-21 18-27s-76-87-168-179c-113-113-173-166-183-162-9 3-25-5-38-19l-23-25 26-33c29-38 56-108 56-144v-24l168-2 167-3 3-132 3-133h-216c-181 0-215 2-215 15 0 10-8 7-26-10-73-68-237-85-337-36-59 29-120 90-150 151-29 60-32 207-4 258 14 26 16 37 6 48-11 13-6 18 14 15 5-1 31 19 58 43 70 63 144 89 234 84 69-5 137-30 178-66 16-14 19-13 42 8 14 13 24 29 21 34-3 9 331 356 343 356 2 0 13-7 23-17zm-352-189c0-8-7-14-15-14-15 0-21 21-9 33 10 9 24-2 24-19zm388-13c20-12 10-46-14-49-25-4-40 24-23 44 13 16 19 17 37 5zm-903-72c-8-12-35-12-35 0 0 11 22 20 33 14 4-2 5-9 2-14zm66 8c-1-12-15-9-19 4-3 6 1 10 8 8 6-3 11-8 11-12zm63-42c3-9 0-15-9-15-8 0-15 7-15 15s4 15 9 15 11-7 15-15zm-184-10c0-8-7-15-15-15-16 0-20 12-8 23 11 12 23 8 23-8zm818-35c23 0 45 6 52 15 17 21 36 19 54-7 17-24 6-58-19-58-22 0-56-61-52-89 3-14-3-31-14-42-27-27-59-10-59 31 0 40-27 94-53 106-28 12-34 44-11 61 15 11 21 10 40-2 13-8 41-15 62-15zm-828-40c0-11-4-20-10-20-5 0-10 9-10 20s5 20 10 20c6 0 10-9 10-20z"/><path d="M1130 1415c0-20 5-25 25-25s25 5 25 25-5 25-25 25-25-5-25-25zm101-299c-145-145-163-167-151-181s32 2 181 151c130 129 166 171 157 181-6 7-13 13-17 13-3 0-80-74-170-164zM718 923c-10-2-18-11-18-20 0-11-6-14-23-9-18 4-34-3-66-30-91-78-119-221-66-330 44-90 43-90 154 22l98 99 18 110c9 61 19 122 22 138 5 27 5 27-48 26-30-1-62-3-71-6zm-50-85c-6-18-28-21-28-4 0 9 7 16 16 16s14-5 12-12zm-58-28c0-5-9-10-20-10s-20 5-20 10c0 6 9 10 20 10s20-4 20-10zm496-214c-4-25-18-66-31-93-42-82-49-78 160-78h185v215h-308l-6-44zm284-63v-78l-115 3c-63 2-115 7-115 13 0 5-12 9-26 9-16 0-24 5-22 13 3 8 35 14 89 18l84 5-88 2c-66 2-88 5-85 15 3 8 35 14 89 18l84 5-88 2c-66 2-88 5-85 15 3 6 14 13 26 15s22 8 22 13 51 9 115 9h115v-77zm44 533c-8-22 3-33 18-18 9 9 9 15 0 24s-13 7-18-6zm-167-162c-8-8 16-56 39-79 16-16 19-15 35 16 30 56 26 69-24 69-24 0-46-3-50-6z"/></g><g fill="#e4dfe7"><path d="M0 930V0h1920v1860H0V930zm558 483c-3-36-5-38-40-41l-38-3v81h81l-3-37zm160 0c-3-36-5-38-39-41-31-3-37 0-41 20-8 46 1 58 43 58h40l-3-37zm320 0c-3-37-4-38-43-38-38 0-40 2-41 30 0 42 2 45 47 45h40l-3-37zm160 0c-3-36-5-38-39-41-36-3-37-2-41 37l-4 41h87l-3-37zm230 8c5-32-23-54-49-40-19 10-26 49-12 63 4 4 19 6 33 4 18-2 26-10 28-27zm-561-18c-4-3-7 0-7 7s3 10 7 7c3-4 3-10 0-14zm-40-19c-3-3-12-4-19-1-8 3-5 6 6 6 11 1 17-2 13-5zm-337-129c0-33-4-45-15-45s-15 11-15 38c0 21 3 42 7 45 16 16 23 4 23-38zm40 20c0-16-6-25-15-25s-15 9-15 25 6 25 15 25 15-9 15-25zm40-40c0-51-3-65-15-65s-15 13-15 58c0 32 3 62 7 65 17 17 23 2 23-58zm40 20c0-33-4-45-15-45s-15 11-15 38c0 21 3 42 7 45 16 16 23 4 23-38zm40 20c0-16-6-25-15-25s-15 9-15 25 6 25 15 25 15-9 15-25zm40-20c0-33-4-45-15-45s-15 12-15 45 4 45 15 45 15-12 15-45zm40 20c0-16-6-25-15-25s-15 9-15 25 6 25 15 25 15-9 15-25zm40-20c0-33-4-45-15-45s-15 11-15 38c0 21 3 42 7 45 16 16 23 4 23-38zm40-20c0-51-3-65-15-65s-15 13-15 58c0 32 3 62 7 65 17 17 23 2 23-58zm40-60c0-104-2-125-15-125s-15 21-15 125 2 125 15 125 15-21 15-125zm40 20c0-87-3-105-15-105s-15 18-15 98c0 54 3 102 7 105 18 19 23-2 23-98zm40 20c0-69-3-85-15-85s-15 15-15 78c0 43 3 82 7 85 18 18 23 0 23-78zm40 40c0-33-4-45-15-45s-15 12-15 45 4 45 15 45 15-12 15-45zm40-20c0-51-3-65-15-65s-15 14-15 65 3 65 15 65 15-14 15-65zm40 20c0-33-4-45-15-45s-15 11-15 38c0 21 3 42 7 45 16 16 23 4 23-38zm40 10c0-24-5-35-15-35-15 0-22 50-8 63 15 15 23 5 23-28zm40 15c0-11-7-20-15-20s-15 9-15 20 7 20 15 20 15-9 15-20zm38-2c-2-13-7-23-13-23-5 0-11 10-13 23-2 15 2 22 13 22s15-7 13-22zm42-23c0-33-4-45-15-45s-15 11-15 38c0 21 3 42 7 45 16 16 23 4 23-38zm218 22l21-23-174-174c-116-116-182-175-196-175-30 0-48-30-31-52 29-41 62-120 62-150v-33l168-2 167-3 3-132 3-133h-216c-132 0-215 4-215 10 0 5-20-4-44-20-57-39-155-64-215-55-105 15-197 78-246 167-39 72-47 188-17 266 11 28 16 52 10 52-5 0-8 6-5 13 2 6 10 11 18 10 8-2 31 15 52 37 64 65 116 85 227 85 99 0 137-12 188-58l22-20 25 23c13 12 22 27 18 33-5 8 334 357 348 357 3 0 15-10 27-23zm-354-172c3-9-1-18-10-22-19-7-28 2-21 22 8 19 23 19 31 0zm391-45c0-18-6-26-23-28-27-4-40 22-22 44 19 22 45 13 45-16zm-910-51c-8-12-35-12-35 0 0 11 22 20 33 14 4-2 5-9 2-14zm75 5c0-17-22-14-28 4-2 7 3 12 12 12s16-7 16-16zm55-35c10-15-1-23-20-15-9 3-13 10-10 16 8 13 22 13 30-1zm-185-13c0-8-4-17-9-21-12-7-24 12-16 25 9 15 25 12 25-4zm764-21c8-8 32-15 54-15 23 0 45 6 52 15 17 21 36 19 54-7 17-24 6-58-19-58-22 0-56-61-52-89 3-14-3-31-14-42-27-27-59-10-59 32 0 41-26 88-55 99-17 6-25 17-25 33 0 42 35 60 64 32zm-774-55c0-11-4-20-9-20-11 0-22 26-14 34 12 12 23 5 23-14z"/><path d="M1130 1415c0-20 5-25 25-25s25 5 25 25-5 25-25 25-25-5-25-25zm102-298c-145-145-161-165-147-177s35 5 176 146c146 145 173 181 144 191-6 2-84-70-173-160zM728 923c-20-3-28-10-28-24 0-21-10-25-27-8-8 8-23 0-55-31-33-32-38-41-22-37 17 4 20 1 17-14-6-21-43-26-43-6-1 28-42-78-47-122-7-57 16-142 50-189l24-32 27 21c18 14 25 27 21 39-3 10-1 21 4 25 7 3 8 0 5-9-12-31 12-15 73 47 55 56 69 82 79 142 10 71 16 104 20 130 14 80 16 75-29 74-23-1-54-4-69-6zm85-63c-3-12-8-19-11-16-5 6 5 36 12 36 2 0 2-9-1-20zm-118 0c3-5 4-10 1-10s-8 5-11 10c-3 6-4 10-1 10s8-4 11-10zm-33-32c-15-15-26-4-18 18 5 13 9 15 18 6s9-15 0-24zm135-30c-3-7-5-2-5 12s2 19 5 13c2-7 2-19 0-25zm-227-22c0-3-5-8-12-12s-8-3-4 4c7 12 16 16 16 8zm220-76c0-5-2-10-4-10-3 0-8 5-11 10-3 6-1 10 4 10 6 0 11-4 11-10zm-13-37c-4-3-10-3-14 0-3 4 0 7 7 7s10-3 7-7zm-37-37c0-3-5-8-12-12s-8-3-4 4c7 12 16 16 16 8zm363-46c-6-32-21-72-32-89-43-60-41-61 164-61h185v210h-305l-12-60zm295-47l-3-78h-120c-91 0-119 3-117 13 1 7-8 12-24 12-32 0-27 22 7 31 23 7 23 7-4 8-34 1-32 22 4 32 23 7 23 7-4 8-34 1-32 24 1 29 12 2 20 8 17 13-4 5 45 9 120 9h126l-3-77zm32 521c0-17 22-14 28 4 2 7-3 12-12 12s-16-7-16-16zm-160-167c0-14 28-58 44-69 6-4 18 7 28 25 27 50 23 57-27 57-30 0-45-4-45-13z"/></g><g fill="#daeaee"><path d="M0 930V0h1920v1860H0V930zm1038 483l3-43h-91v38c0 48 6 54 50 50 34-3 35-5 38-45zm160-1l3-43-43 3c-39 3-43 6-46 31-6 47 4 59 45 55 37-3 38-4 41-46zm-640 1c-3-36-5-38-40-41l-38-3v81h81l-3-37zm160 0c-3-36-5-38-39-41-31-3-37 0-41 20-8 46 1 58 43 58h40l-3-37zm154 14c7-37-4-52-39-52-31 0-33 2-33 37 0 36 1 38 34 38 27 0 35-4 38-23zm556-6c5-32-23-54-49-40-19 10-26 49-12 63 4 4 19 6 33 4 18-2 26-10 28-27zm-938-166c0-33-4-45-15-45s-15 12-15 45 4 45 15 45 15-12 15-45zm40 20c0-16-6-25-15-25s-15 9-15 25 6 25 15 25 15-9 15-25zm40-40c0-51-3-65-15-65s-15 14-15 65 3 65 15 65 15-14 15-65zm40 20c0-33-4-45-15-45s-15 12-15 45 4 45 15 45 15-12 15-45zm40 20c0-16-6-25-15-25s-15 9-15 25 6 25 15 25 15-9 15-25zm40-20c0-33-4-45-15-45s-15 12-15 45 4 45 15 45 15-12 15-45zm40 20c0-16-6-25-15-25s-15 9-15 25 6 25 15 25 15-9 15-25zm40-20c0-33-4-45-15-45s-15 12-15 45 4 45 15 45 15-12 15-45zm40-20c0-51-3-65-15-65s-15 14-15 65 3 65 15 65 15-14 15-65zm40-60c0-104-2-125-15-125s-15 21-15 125 2 125 15 125 15-21 15-125zm40 20c0-87-3-105-15-105s-15 18-15 105 3 105 15 105 15-18 15-105zm40 20c0-69-3-85-15-85s-15 16-15 85 3 85 15 85 15-16 15-85zm40 40c0-33-4-45-15-45s-15 12-15 45 4 45 15 45 15-12 15-45zm40-20c0-51-3-65-15-65s-15 14-15 65 3 65 15 65 15-14 15-65zm40 20c0-33-4-45-15-45s-15 12-15 45 4 45 15 45 15-12 15-45zm40 10c0-24-5-35-15-35s-15 11-15 35 5 35 15 35 15-11 15-35zm40 15c0-11-7-20-15-20s-15 9-15 20 7 20 15 20 15-9 15-20zm40-5c0-16-6-25-15-25s-15 9-15 25 6 25 15 25 15-9 15-25zm40-20c0-33-4-45-15-45s-15 12-15 45 4 45 15 45 15-12 15-45zm218 22l21-22-176-177c-96-97-181-174-187-172-7 3-20-4-30-15-16-18-16-21 13-68 17-27 35-73 42-101l11-52h328V400h-215c-126 0-215 4-215 9s-23-6-50-24c-59-39-99-50-190-50-195 0-351 208-295 395 9 30 18 69 19 85 1 18 7 29 14 27 7-1 25 12 39 28 14 17 48 44 75 59 39 22 46 30 32 35s-15 9-5 19c10 9 15 8 25-5 10-14 20-15 61-7 67 12 152-5 220-46 53-33 54-33 72-13 10 11 18 26 18 34 0 14 333 354 346 354 3 0 15-10 27-23zm-353-167c4-6 1-18-6-26-11-13-14-13-27 0-8 8-11 19-8 25 9 14 33 14 41 1zm394-34c23-28-17-68-45-45-15 12-19 41-7 52 11 12 40 8 52-7zm-909-56c0-12-28-25-36-17-9 9 6 27 22 27 8 0 14-5 14-10zm70-5c0-8-6-15-14-15-17 0-28 14-19 24 12 12 33 6 33-9zm-130-49c0-8-4-17-9-21-12-7-24 12-16 25 9 15 25 12 25-4zm766-21c4-10 20-15 49-15 26 0 47 6 55 15 17 21 36 19 54-7 17-24 6-58-18-58-19 0-58-69-52-93 2-10-4-27-15-38-27-27-59-10-59 33 0 36-35 98-55 98-23 0-38 37-25 60 13 24 58 27 66 5zm-776-55c0-11-4-20-9-20-11 0-22 26-14 34 12 12 23 5 23-14z"/><path d="M1133 1425c-7-20 5-35 28-35 15 0 20 6 17 22-3 24-36 34-45 13zm105-304c-87-87-158-163-158-169 0-32 33-7 181 138 140 138 160 163 148 175s-36-8-171-144zM700 900c0-7 3-10 7-7 3 4 3 10 0 14-4 3-7 0-7-7zm130 0c0-7 3-10 7-7 3 4 3 10 0 14-4 3-7 0-7-7zm-40-159c0-6 4-13 10-16s7 1 4 9c-7 18-14 21-14 7zm-86-103c-4-7-3-8 4-4s12 9 12 12c0 8-9 4-16-8zm51-8c3-5 8-10 11-10s2 5-1 10c-3 6-8 10-11 10s-2-4 1-10zm359-15c-1-18 3-25 16-25 10 0 21 7 24 15 5 13 25 15 123 13l118-3 3-82 3-83h-127c-108 0-125 2-120 15 4 11-1 15-19 15-35 0-32 28 3 33l27 4-27 2c-17 0-28 7-28 15s12 17 28 19c27 4 27 4-3 5-27 1-33-5-58-56-15-31-27-60-27-64 0-5 83-8 185-8h185v210h-305l-1-25zm-379-5c3-5 8-10 11-10s2 5-1 10c-3 6-8 10-11 10s-2-4 1-10zm-73-59c2-7 7-12 11-12 12 1 9 15-3 20-7 2-11-2-8-8zm-65-58c-4-6 0-13 8-17 8-3 17 0 21 6s3 8-4 4c-5-3-12-1-14 6-3 8-6 9-11 1zm835 568c4-13 18-16 19-4 0 4-5 9-11 12-7 2-11-2-8-8zm-162-171c0-13 31-62 44-72 9-6 46 51 46 72 0 5-20 10-45 10s-45-5-45-10z"/></g><g fill="#fefefe"><path d="M0 930V0h1920v1860H0V930zm558 485c-3-38-5-40-40-43-36-3-38-2-38 27 0 16-2 35-5 43-4 10 7 13 40 13h46l-3-40zm160 0c-3-38-5-40-40-43-31-3-38 0-39 15 0 10-2 29-4 43-3 23 0 25 41 25h45l-3-40zm320-2l3-43h-91v38c0 48 6 54 50 50 34-3 35-5 38-45zm160 0l3-43h-91v38c0 48 6 54 50 50 34-3 35-5 38-45zm218 39c17-11 24-54 12-69-18-22-57-16-70 12-9 21-8 28 7 45 19 21 33 24 51 12zm-539-39c-2-36-4-38-39-41l-38-3v40c0 41 0 41 39 41s39 0 38-37zm-387-158c0-33-4-45-15-45s-15 12-15 45 4 45 15 45 15-12 15-45zm40 20c0-16-6-25-15-25s-15 9-15 25 6 25 15 25 15-9 15-25zm40-40c0-51-3-65-15-65s-15 14-15 65 3 65 15 65 15-14 15-65zm40 20c0-33-4-45-15-45s-15 12-15 45 4 45 15 45 15-12 15-45zm40 20c0-16-6-25-15-25s-15 9-15 25 6 25 15 25 15-9 15-25zm40-20c0-33-4-45-15-45s-15 12-15 45 4 45 15 45 15-12 15-45zm40 20c0-16-6-25-15-25s-15 9-15 25 6 25 15 25 15-9 15-25zm40-20c0-33-4-45-15-45s-15 12-15 45 4 45 15 45 15-12 15-45zm40-20c0-51-3-65-15-65s-15 14-15 65 3 65 15 65 15-14 15-65zm40-60c0-104-2-125-15-125s-15 21-15 125 2 125 15 125 15-21 15-125zm40 20c0-87-3-105-15-105s-15 18-15 105 3 105 15 105 15-18 15-105zm40 20c0-69-3-85-15-85s-15 16-15 85 3 85 15 85 15-16 15-85zm40 40c0-33-4-45-15-45s-15 12-15 45 4 45 15 45 15-12 15-45zm40-20c0-51-3-65-15-65s-15 14-15 65 3 65 15 65 15-14 15-65zm40 20c0-33-4-45-15-45s-15 12-15 45 4 45 15 45 15-12 15-45zm40 10c0-24-5-35-15-35s-15 11-15 35 5 35 15 35 15-11 15-35zm40 15c0-11-7-20-15-20s-15 9-15 20 7 20 15 20 15-9 15-20zm40-5c0-16-6-25-15-25s-15 9-15 25 6 25 15 25 15-9 15-25zm40-20c0-33-4-45-15-45s-15 12-15 45 4 45 15 45 15-12 15-45zm219 21l23-25-177-174c-98-97-183-173-190-171-6 3-19-4-29-14-16-19-16-22 13-67 17-26 35-72 41-101l11-54h329V400h-215c-158 0-215 3-215 12 0 6-10 2-23-10-73-68-232-90-332-44-96 44-164 131-186 238-11 54-10 70 5 130 10 38 19 80 20 94s7 24 14 22c7-1 25 12 39 28 14 17 48 44 75 59 39 22 46 30 32 35s-15 9-5 19c10 9 15 8 25-5 10-14 20-15 61-7 28 5 70 7 95 3 45-6 130-43 161-70 14-12 18-11 34 6 10 12 19 29 20 39 2 19 322 348 341 350 6 1 21-10 33-23zm-354-166c4-6 1-18-6-26-11-13-14-13-27 0-8 8-11 19-8 25 9 14 33 14 41 1zm396-36c9-11 10-20 2-32-13-22-43-22-56-1-24 38 25 68 54 33zm-911-54c0-12-28-25-36-17-9 9 6 27 22 27 8 0 14-5 14-10zm70-5c0-8-6-15-14-15-17 0-28 14-19 24 12 12 33 6 33-9zm-130-49c0-8-4-17-9-21-12-7-24 12-16 25 9 15 25 12 25-4zm766-21c4-10 20-15 44-15 21 0 43 7 50 15 15 18 40 19 64 2s12-65-18-73c-28-7-55-55-49-88 6-32-12-56-41-56-31 0-46 19-39 51 6 31-22 86-48 94-32 10-43 33-31 60 13 28 59 35 68 10zm-776-55c0-11-4-20-9-20-11 0-22 26-14 34 12 12 23 5 23-14z"/><path d="M1132 1413c2-10 12-18 23-18s21 8 23 18c3 13-3 17-23 17s-26-4-23-17zm109-292c-85-86-156-162-158-168-14-40 34-3 176 138 130 130 159 164 150 175-6 8-12 13-13 13 0-1-70-72-155-158zM700 900c0-7 3-10 7-7 3 4 3 10 0 14-4 3-7 0-7-7zm420-269c0-5-3-16-6-25-4-11 0-16 14-16 11 0 23 7 26 15 5 13 25 15 123 13l118-3 3-82 3-83h-127c-108 0-125 2-120 15 4 11-1 15-19 15-35 0-32 28 3 33l27 4-27 2c-17 0-28 7-28 15s12 17 28 19c27 4 27 4-3 5-27 1-33-5-57-57-16-32-28-61-28-65 0-3 83-6 185-6h185v210h-150c-84 0-150-4-150-9zm310 429c0-5 5-10 10-10 6 0 10 5 10 10 0 6-4 10-10 10-5 0-10-4-10-10zm-160-165c0-12 33-70 43-77 10-6 47 51 47 72 0 5-20 10-45 10s-45-2-45-5z"/></g></svg>