<svg version="1.0" xmlns="http://www.w3.org/2000/svg" width="192" height="186" viewBox="0 0 1920 1860"><path d="M0 930V0h1920v1860H0V930z" fill="#020407"/><path d="M0 930V0h1920v1860H0V930zm603 133c-7-2-19-2-25 0-7 3-2 5 12 5s19-2 13-5zm565-313c2-12 0-26-5-31-6-6-8 2-5 21 5 36-19 50-52 30-21-13-21-13-2 9 17 19 22 20 40 7 12-7 23-23 24-36zm-355-37c-7-2-21-2-30 0-10 3-4 5 12 5 17 0 24-2 18-5zm-56-10c-4-3-10-3-14 0-3 4 0 7 7 7s10-3 7-7zm124-22c16-16 29-35 29-43-1-7-7-1-16 14-8 15-27 34-42 42-15 9-21 15-14 16 8 0 27-13 43-29zm249 22c-8-3-22-11-30-17-13-10-13-9-1 7 7 9 21 17 30 16 13 0 14-1 1-6zm-400-6c0-2-10-12-22-23l-23-19 19 23c18 21 26 27 26 19zm-17-52c6 4 3-1-7-9-26-21-33-20-39 4-4 17-2 18 14 9 11-5 25-7 32-4zm448-8c-10-9-11-8-5 6 3 10 9 15 12 12s0-11-7-18zm-28-25c-3-7-6-12-7-10s-10 13-20 25c-18 22-18 22 7 10 14-6 22-17 20-25zm-203-86c0-6-4-5-9 2-6 10-15 6-39-17-17-17-36-31-44-31-7 1-1 7 14 16 15 8 33 24 39 36 10 18 9 20-7 14-17-5-17-5 1 9s21 14 32-2c7-9 13-22 13-27zm-220-11c24-29 24-29 2-10-13 11-28 29-34 40-11 21-8 18 32-30zm687-42c-4-3-7 0-7 7s3 10 7 7c3-4 3-10 0-14zm-589 0c-10-2-26-2-35 0-10 3-2 5 17 5s27-2 18-5zm10-90c-15-2-42-2-60 0s-6 4 27 4 48-2 33-4zm499 0c-4-3-10-3-14 0-3 4 0 7 7 7s10-3 7-7z" fill="#142531"/><path d="M0 930V0h1920v1860H0V930zm613 163c-7-2-21-2-30 0-10 3-4 5 12 5 17 0 24-2 18-5zm0-30c-7-2-21-2-30 0-10 3-4 5 12 5 17 0 24-2 18-5zm557-318c0-25-18-45-41-45-27 0-42-25-29-49 13-25 33-27 54-5 9 8 16 11 16 7 0-5-11-19-23-30l-24-20-22 32c-27 40-20 61 25 75 30 10 35 16 32 38-4 33-32 40-60 15-23-19-15-1 11 27 15 16 17 16 39-3 12-11 22-30 22-42zm-288-64c15-17 28-36 28-41s-15 6-33 26c-43 47-97 56-146 22-37-25-56-56-27-45 23 9 20 0-5-14-17-9-23-8-30 2-11 18-11 32 0 25 4-3 19 6 32 20 33 36 57 44 109 40 34-3 51-11 72-35zm38-120c0-5 3-18 7-28 7-17 6-17-11 0-11 11-26 15-37 12-27-9-24 4 4 15 29 12 37 12 37 1zm-227-20c7-27 65-61 104-61 22 0 44 10 69 32 21 18 35 26 32 18-8-25-69-60-103-60-18 0-47 10-65 23-35 24-69 67-52 67 5 0 12-9 15-19zm607 5c0-3-4-8-10-11-5-3-10-1-10 4 0 6 5 11 10 11 6 0 10-2 10-4zm67-13c-4-3-10-3-14 0-3 4 0 7 7 7s10-3 7-7zm-117-37c0-3-5-8-12-12s-8-3-4 4c7 12 16 16 16 8zm147-23c-4-3-7 0-7 7s3 10 7 7c3-4 3-10 0-14zm-137-53c0-5-2-10-4-10-3 0-8 5-11 10-3 6-1 10 4 10 6 0 11-4 11-10zm-442-37c-15-2-42-2-60 0s-6 4 27 4 48-2 33-4zm499 0c-4-3-10-3-14 0-3 4 0 7 7 7s10-3 7-7z" fill="#253a49"/><path d="M0 930V0h1920v1860H0V930zm716 194c0-19-3-34-8-34-4 0-8 19-8 42 0 49 15 42 16-8zm44 15c0-10-4-19-10-19-5 0-10 12-10 26s4 23 10 19c6-3 10-15 10-26zm35 21c3-5 1-10-4-10-6 0-11 5-11 10 0 6 2 10 4 10 3 0 8-4 11-10zm45-21c0-10-4-19-10-19-5 0-10 12-10 26s4 23 10 19c6-3 10-15 10-26zm-227-46c-7-2-21-2-30 0-10 3-4 5 12 5 17 0 24-2 18-5zm0-30c-7-2-21-2-30 0-10 3-4 5 12 5 17 0 24-2 18-5zm557-320c0-24-19-43-42-43-27 0-42-35-22-54 19-20 29-20 48 0 9 8 16 12 16 8 0-5-10-18-22-29l-23-21-24 28c-20 25-22 33-13 54 7 13 20 24 31 24 41 0 56 61 17 68-11 3-26-4-33-14s-15-15-19-12c-3 4 4 16 15 27 12 12 21 26 21 32s11-3 25-19c14-17 25-38 25-49zm-294-57c19-19 34-39 34-45s-15 5-33 25c-43 47-97 56-146 22-39-26-55-55-25-45 18 7 18 6 0-8-26-20-31-19-44 10-7 15-8 25-2 25s10-6 10-12c1-7 9-3 20 10 27 32 69 52 114 52 30 0 45-7 72-34zm48-132c9-25 7-41-4-24-8 13-12 12-25-8-35-49-101-64-159-37-31 15-77 75-57 75 5 0 13-9 16-21 9-28 63-59 102-59 19 0 43 10 62 26 34 29 40 46 14 38-15-5-15-3 1 10 25 20 42 20 50 0zm376-8c0-3-4-8-10-11-5-3-10-1-10 4 0 6 5 11 10 11 6 0 10-2 10-4zm67-13c-4-3-10-3-14 0-3 4 0 7 7 7s10-3 7-7zm-117-43c0-5-5-10-11-10-5 0-7 5-4 10 3 6 8 10 11 10 2 0 4-4 4-10zm147-17c-4-3-7 0-7 7s3 10 7 7c3-4 3-10 0-14zm-137-53c0-5-2-10-4-10-3 0-8 5-11 10-3 6-1 10 4 10 6 0 11-4 11-10zm117-17c-4-3-7 0-7 7s3 10 7 7c3-4 3-10 0-14zm-559-20c-15-2-42-2-60 0s-6 4 27 4 48-2 33-4zm499 0c-4-3-10-3-14 0-3 4 0 7 7 7s10-3 7-7z" fill="#274b5d"/><path d="M0 930V0h1920v1860H0V930zm720 200c0-22-4-40-10-40-5 0-10 18-10 40s5 40 10 40c6 0 10-18 10-40zm40 15c0-14-4-25-10-25-5 0-10 11-10 25s5 25 10 25c6 0 10-11 10-25zm40 15c0-5-4-10-10-10-5 0-10 5-10 10 0 6 5 10 10 10 6 0 10-4 10-10zm40-15c0-14-4-25-10-25-5 0-10 11-10 25s5 25 10 25c6 0 10-11 10-25zm-227-52c-7-2-21-2-30 0-10 3-4 5 12 5 17 0 24-2 18-5zm0-30c-7-2-21-2-30 0-10 3-4 5 12 5 17 0 24-2 18-5zm560-306c8-21-19-55-46-59-15-2-23-11-25-29-4-34 24-46 49-23 25 22 24 5-1-24l-20-24-24 29c-14 15-26 32-26 36 0 20 22 47 39 47 41 0 56 61 17 68-11 3-26-4-33-14s-15-15-19-12c-3 4 4 16 15 27 12 12 21 26 21 32 0 14 44-32 53-54zm-290-77c22-22 37-44 33-48s-17 6-28 21c-23 31-67 57-98 57-30 0-78-27-91-52-10-18-9-20 7-14 18 6 18 5 0-9-26-20-31-19-44 10-7 15-8 25-2 25s10-6 10-12c1-8 8-4 18 7 32 38 66 55 110 55 38 0 50-5 85-40zm41-126c9-24 7-36-5-28-6 3-23-6-39-21-40-38-106-45-153-16-31 19-67 71-48 71 4 0 13-11 19-25 26-57 119-70 168-24 28 27 31 41 7 33-15-5-15-3 1 10 25 20 42 20 50 0zm376-14c0-5-4-10-10-10-5 0-10 5-10 10 0 6 5 10 10 10 6 0 10-4 10-10zm65 0c3-5 1-10-4-10-6 0-11 5-11 10 0 6 2 10 4 10 3 0 8-4 11-10zm-115-50c0-5-5-10-11-10-5 0-7 5-4 10 3 6 8 10 11 10 2 0 4-4 4-10zm147-17c-4-3-7 0-7 7s3 10 7 7c3-4 3-10 0-14zm-137-53c0-5-2-10-4-10-3 0-8 5-11 10-3 6-1 10 4 10 6 0 11-4 11-10zm117-17c-4-3-7 0-7 7s3 10 7 7c3-4 3-10 0-14zm-559-20c-15-2-42-2-60 0s-6 4 27 4 48-2 33-4zm499 0c-4-3-10-3-14 0-3 4 0 7 7 7s10-3 7-7z" fill="#027196"/><path d="M0 930V0h1920v1860H0V930zm720 200c0-22-4-40-10-40-5 0-10 18-10 40s5 40 10 40c6 0 10-18 10-40zm40 15c0-14-4-25-10-25-5 0-10 11-10 25s5 25 10 25c6 0 10-11 10-25zm40 15c0-5-4-10-10-10-5 0-10 5-10 10 0 6 5 10 10 10 6 0 10-4 10-10zm40-15c0-14-4-25-10-25-5 0-10 11-10 25s5 25 10 25c6 0 10-11 10-25zm-227-52c-7-2-21-2-30 0-10 3-4 5 12 5 17 0 24-2 18-5zm0-30c-7-2-21-2-30 0-10 3-4 5 12 5 17 0 24-2 18-5zm560-306c8-21-19-55-46-59-15-2-23-11-25-29-4-34 24-46 49-23 25 22 24 5-1-24l-20-24-24 29c-14 15-26 32-26 36 0 20 22 47 39 47 41 0 56 61 17 68-11 3-26-4-33-14s-15-15-19-12c-3 4 4 16 15 27 12 12 21 26 21 32 0 14 44-32 53-54zm-307-53c22-15 54-61 54-79 0-16-21-1-38 29-28 48-88 66-137 43-38-18-72-65-39-53 18 6 18 5 0-9-26-20-31-19-44 10-7 15-8 25-2 25s10-6 10-12c1-8 8-4 18 7 47 56 126 73 178 39zm62-154c6-16 7-32 2-35-4-3-10 0-12 7-3 8-13 4-29-11-48-46-111-54-164-21-30 18-64 70-46 70 4 0 13-11 19-25 16-35 71-59 114-51 39 7 95 56 65 56-24 0-21 15 6 28 32 16 34 15 45-18zm372-10c0-5-7-10-15-10s-15 5-15 10c0 6 7 10 15 10s15-4 15-10zm68-9c3-8-1-12-9-9-7 2-15 10-17 17-3 8 1 12 9 9 7-2 15-10 17-17zm-118-41c0-5-5-10-11-10-5 0-7 5-4 10 3 6 8 10 11 10 2 0 4-4 4-10zm147-17c-4-3-7 0-7 7s3 10 7 7c3-4 3-10 0-14zm-137-53c0-5-2-10-4-10-3 0-8 5-11 10-3 6-1 10 4 10 6 0 11-4 11-10zm117-17c-4-3-7 0-7 7s3 10 7 7c3-4 3-10 0-14zm-559-20c-15-2-42-2-60 0s-6 4 27 4 48-2 33-4zm499 0c-4-3-10-3-14 0-3 4 0 7 7 7s10-3 7-7z" fill="#516370"/><path d="M0 930V0h1920v1860H0V930zm720 200c0-22-4-40-10-40-5 0-10 18-10 40s5 40 10 40c6 0 10-18 10-40zm40 15c0-14-4-25-10-25-5 0-10 11-10 25s5 25 10 25c6 0 10-11 10-25zm40 10c0-8-4-15-10-15-5 0-10 7-10 15s5 15 10 15c6 0 10-7 10-15zm40-10c0-14-4-25-10-25-5 0-10 11-10 25s5 25 10 25c6 0 10-11 10-25zm-220-55c0-5-11-10-25-10s-25 5-25 10c0 6 11 10 25 10s25-4 25-10zm-7-27c-7-2-21-2-30 0-10 3-4 5 12 5 17 0 24-2 18-5zm527-258c0-8 5-15 10-15 6 0 16-11 22-25 9-20 8-28-6-44-10-11-28-21-40-23-26-4-33-40-10-59 14-12 19-10 34 9 10 12 21 19 23 15 3-5-6-21-19-36l-24-28-25 27c-14 15-25 31-25 36 0 21 22 48 38 48 41 0 58 54 20 66-15 4-25 1-35-12-7-9-15-15-19-12-3 4 4 16 15 27 12 12 21 26 21 31 0 6 5 10 10 10 6 0 10-7 10-15zM866 704c22-15 54-61 54-79 0-16-21-1-38 29-29 49-85 65-136 41-37-18-76-65-42-52 9 4 16 2 16-3 0-6-7-11-15-11-8-1-20-2-26-3-7-1-15 9-20 22s-5 22 1 22 10-6 10-12c0-7 10-1 23 13 12 15 31 32 42 38 30 16 103 13 131-5zm62-154c10-28-1-54-11-28-4 9-8 10-14 3-57-72-170-72-217-1-18 28-20 36-8 36 5 0 14-11 19-23 15-33 77-60 117-53 37 7 92 56 63 56-24 0-21 15 6 28 32 16 34 15 45-18zm372-10c0-5-7-10-15-10s-15 5-15 10c0 6 7 10 15 10s15-4 15-10zm68-9c3-8-1-12-9-9-7 2-15 10-17 17-3 8 1 12 9 9 7-2 15-10 17-17zm-118-41c0-5-4-10-10-10-5 0-10 5-10 10 0 6 5 10 10 10 6 0 10-4 10-10zm147-17c-4-3-7 0-7 7s3 10 7 7c3-4 3-10 0-14zm-137-53c0-5-2-10-4-10-3 0-8 5-11 10-3 6-1 10 4 10 6 0 11-4 11-10zm130-4c0-3-4-8-10-11-5-3-10-1-10 4 0 6 5 11 10 11 6 0 10-2 10-4zm-572-33c-15-2-42-2-60 0s-6 4 27 4 48-2 33-4zm499 0c-4-3-10-3-14 0-3 4 0 7 7 7s10-3 7-7z" fill="#0098bb"/><path d="M0 930V0h1920v1860H0V930zm1310 270c0-5-2-10-4-10-3 0-8 5-11 10-3 6-1 10 4 10 6 0 11-4 11-10zm70-24c0-3-5-8-12-12s-8-3-4 4c7 12 16 16 16 8zm-660-46c0-22-4-40-10-40-5 0-10 18-10 40s5 40 10 40c6 0 10-18 10-40zm40 15c0-14-4-25-10-25-5 0-10 11-10 25s5 25 10 25c6 0 10-11 10-25zm40 10c0-8-4-15-10-15-5 0-10 7-10 15s5 15 10 15c6 0 10-7 10-15zm40-10c0-14-4-25-10-25-5 0-10 11-10 25s5 25 10 25c6 0 10-11 10-25zm357 8c-4-3-10-3-14 0-3 4 0 7 7 7s10-3 7-7zm67-12c3-5-3-11-15-14-16-4-18-3-8 9 13 16 16 17 23 5zm71-12c-4-5-14-8-23-8-15 1-15 2 1 6 9 2 14 9 11 15-4 7-2 8 5 4 6-4 9-12 6-17zm-715-39c0-5-11-10-25-10s-25 5-25 10c0 6 11 10 25 10s25-4 25-10zm574-15c-4-8-8-15-10-15s-4 7-4 15 4 15 10 15c5 0 7-7 4-15zm76 7c0-4-9-8-20-9s-20 2-20 5c0 4 9 8 20 9s20-2 20-5zm64 0c2-4-4-8-14-8s-16 4-14 8c3 4 9 8 14 8s11-4 14-8zm-721-19c-7-2-21-2-30 0-10 3-4 5 12 5 17 0 24-2 18-5zm762-23c3-5 4-10 1-10s-8 5-11 10c-3 6-4 10-1 10s8-4 11-10zm-110-10c3-5 4-10 1-10s-8 5-11 10c-3 6-4 10-1 10s8-4 11-10zm-125-225c0-8 5-15 10-15 6 0 16-11 22-25 9-20 8-28-6-44-10-11-28-21-40-23-26-4-33-40-10-59 14-12 19-10 34 9 10 12 21 19 23 15 3-5-6-21-19-36l-24-28-25 27c-14 15-25 31-25 36 0 21 22 48 38 48 41 0 58 54 20 66-15 4-25 1-35-12-7-9-15-15-19-12-3 4 4 16 15 27 12 12 21 26 21 31 0 6 5 10 10 10 6 0 10-7 10-15zM886 686c33-33 45-66 24-66-6 0-16 12-22 26-11 24-73 64-99 64-23 0-80-33-91-53-9-17-8-19 6-14 9 4 16 2 16-3 0-6-7-11-15-11-8-1-20-2-26-3-7-1-15 9-20 22s-5 22 1 22 10-6 10-12c0-7 10-1 23 13 31 38 55 48 111 49 42 0 53-5 82-34zm42-131c17-36 15-47-6-41-11 4-32-4-52-19-58-43-146-29-184 29-18 28-20 36-8 36 5 0 14-11 19-23 24-53 121-70 165-30 19 17 25 39 8 28-5-3-10 0-10 8 0 12 31 34 51 36 3 1 11-10 17-24zm382-16c0-5-9-9-20-9-22 0-27 16-7 23 15 5 27-1 27-14zm60-5c0-17-22-14-28 4-2 7 3 12 12 12s16-7 16-16zm-120-44c0-5-4-10-10-10-5 0-10 5-10 10 0 6 5 10 10 10 6 0 10-4 10-10zm147-17c-4-3-7 0-7 7s3 10 7 7c3-4 3-10 0-14zm-137-53c0-5-2-10-4-10-3 0-8 5-11 10-3 6-1 10 4 10 6 0 11-4 11-10zm130-4c0-3-4-8-10-11-5-3-10-1-10 4 0 6 5 11 10 11 6 0 10-2 10-4zm-572-33c-15-2-42-2-60 0s-6 4 27 4 48-2 33-4zm499 0c-4-3-10-3-14 0-3 4 0 7 7 7s10-3 7-7z" fill="#00a3be"/><path d="M0 930V0h1920v1860H0V930zm1240 280c0-5-5-10-11-10-5 0-7 5-4 10 3 6 8 10 11 10 2 0 4-4 4-10zm73-14c6-15-1-26-15-26-4 0-8 9-8 20 0 23 15 27 23 6zm42 4c3-5 1-10-4-10-6 0-11 5-11 10 0 6 2 10 4 10 3 0 8-4 11-10zm-85-16c0-8-5-12-10-9-6 4-8 11-5 16 9 14 15 11 15-7zm-67-51c-3-7-11-13-19-13-17 0-17 2-2 35 11 24 13 25 19 8 3-10 4-24 2-30zm172 37c-3-5-1-10 5-10 7 0 9-7 6-16-3-8-2-12 4-9s10 1 10-4c0-6-6-11-14-11-13 0-28 45-18 55 9 9 14 6 7-5zm-655-40c0-22-4-40-10-40-5 0-10 18-10 40s5 40 10 40c6 0 10-18 10-40zm40 15c0-14-4-25-10-25-5 0-10 11-10 25s5 25 10 25c6 0 10-11 10-25zm40 10c0-8-4-15-10-15-5 0-10 7-10 15s5 15 10 15c6 0 10-7 10-15zm40-10c0-14-4-25-10-25-5 0-10 11-10 25s5 25 10 25c6 0 10-11 10-25zm428-12c2-8-6-13-22-13-19 0-24 4-19 15 6 18 34 16 41-2zm72 2c0-8-9-15-20-15-20 0-26 11-13 23 12 13 33 7 33-8zm-720-45c0-5-11-10-25-10s-25 5-25 10c0 6 11 10 25 10s25-4 25-10zm585-28c2-28-15-24-26 7-7 18-6 22 8 19 9-2 17-13 18-26zm65 17c0-5-4-7-10-4-5 3-10 1-10-4 0-16-17-13-24 4-4 11 1 15 19 15 14 0 25-5 25-11zm70-10c0-11-5-17-10-14-6 4-8 11-5 16s-1 6-9 3c-9-3-16-1-16 5s9 11 20 11c14 0 20-7 20-21zm42-25c-7-13-11-14-17-3-5 7-4 14 3 17 6 2 9 11 6 20-5 15-4 15 6 0 7-12 8-24 2-34zm-769 19c-7-2-21-2-30 0-10 3-4 5 12 5 17 0 24-2 18-5zm657-39c0-8-4-12-10-9-5 3-10 10-10 16 0 5 5 9 10 9 6 0 10-7 10-16zm50 1c0-8-4-15-10-15-5 0-10 7-10 15s5 15 10 15c6 0 10-7 10-15zm30-9c0-2-8-10-17-17-16-13-17-12-4 4s21 21 21 13zm-210-211c0-8 5-15 10-15 6 0 16-11 22-25 9-20 8-28-6-44-10-11-28-21-40-23-26-4-33-40-10-59 14-12 19-10 34 9 10 12 21 19 23 15 3-5-6-21-19-36l-24-28-25 27c-14 15-25 31-25 36 0 21 22 48 38 48 41 0 58 54 20 66-15 4-25 1-35-12-7-9-15-15-19-12-3 4 4 16 15 27 12 12 21 26 21 31 0 6 5 10 10 10 6 0 10-7 10-15zM886 686c33-33 45-66 24-66-6 0-16 12-22 26-11 24-73 64-99 64-23 0-80-33-91-53-9-17-8-19 6-14 9 4 16 2 16-3 0-6-7-11-15-11-8-1-20-2-26-3-7-1-15 9-20 22s-5 22 1 22 10-6 10-12c0-7 10-1 23 13 31 38 55 48 111 49 42 0 53-5 82-34zm42-131c17-36 15-47-6-41-11 4-32-4-52-19-58-43-146-29-184 29-18 28-20 36-8 36 5 0 14-11 19-23 24-53 121-70 165-30 19 17 25 39 8 28-5-3-10 0-10 8 0 12 31 34 51 36 3 1 11-10 17-24zm382-16c0-5-9-9-20-9-22 0-27 16-7 23 15 5 27-1 27-14zm60-5c0-17-22-14-28 4-2 7 3 12 12 12s16-7 16-16zm-120-44c0-5-4-10-10-10-5 0-10 5-10 10 0 6 5 10 10 10 6 0 10-4 10-10zm147-17c-4-3-7 0-7 7s3 10 7 7c3-4 3-10 0-14zm-137-53c0-5-2-10-4-10-3 0-8 5-11 10-3 6-1 10 4 10 6 0 11-4 11-10zm130-4c0-3-4-8-10-11-5-3-10-1-10 4 0 6 5 11 10 11 6 0 10-2 10-4zm-572-33c-15-2-42-2-60 0s-6 4 27 4 48-2 33-4zm499 0c-4-3-10-3-14 0-3 4 0 7 7 7s10-3 7-7z" fill="#6a7a89"/><path d="M0 930V0h1920v1860H0V930zm1240 280c0-5-5-10-11-10-5 0-7 5-4 10 3 6 8 10 11 10 2 0 4-4 4-10zm73-14c6-15-1-26-15-26-4 0-8 9-8 20 0 23 15 27 23 6zm42 4c3-5 1-10-4-10-6 0-11 5-11 10 0 6 2 10 4 10 3 0 8-4 11-10zm-85-16c0-8-5-12-10-9-6 4-8 11-5 16 9 14 15 11 15-7zm-67-51c-3-7-11-13-19-13-17 0-17 2-2 35 11 24 13 25 19 8 3-10 4-24 2-30zm172 37c-3-5-1-10 5-10 7 0 9-7 6-16-3-8-2-12 4-9s10 1 10-4c0-6-6-11-14-11-13 0-28 45-18 55 9 9 14 6 7-5zm-655-39c0-22-4-43-10-46-6-4-10 12-10 39 0 25 5 46 10 46 6 0 10-18 10-39zm40 9c0-16-4-30-10-30-5 0-10 14-10 30 0 17 5 30 10 30 6 0 10-13 10-30zm40 15c0-8-4-15-10-15-5 0-10 7-10 15s5 15 10 15c6 0 10-7 10-15zm40-15c0-16-4-30-10-30-5 0-10 14-10 30 0 17 5 30 10 30 6 0 10-13 10-30zm428-7c2-8-6-13-22-13-19 0-24 4-19 15 6 18 34 16 41-2zm72 2c0-8-9-15-20-15-20 0-26 11-13 23 12 13 33 7 33-8zm-720-45c0-5-11-10-25-10s-25 5-25 10c0 6 11 10 25 10s25-4 25-10zm585-28c2-28-15-24-26 7-7 18-6 22 8 19 9-2 17-13 18-26zm65 17c0-5-4-7-10-4-5 3-10 1-10-4 0-16-17-13-24 4-4 11 1 15 19 15 14 0 25-5 25-11zm70-10c0-11-5-17-10-14-6 4-8 11-5 16s-1 6-9 3c-9-3-16-1-16 5s9 11 20 11c14 0 20-7 20-21zm42-25c-7-13-11-14-17-3-5 7-4 14 3 17 6 2 9 11 6 20-5 15-4 15 6 0 7-12 8-24 2-34zm-769 19c-7-2-21-2-30 0-10 3-4 5 12 5 17 0 24-2 18-5zm657-39c0-8-4-12-10-9-5 3-10 10-10 16 0 5 5 9 10 9 6 0 10-7 10-16zm50 1c0-8-4-15-10-15-5 0-10 7-10 15s5 15 10 15c6 0 10-7 10-15zm30-9c0-2-8-10-17-17-16-13-17-12-4 4s21 21 21 13zm-210-211c0-8 4-15 10-15 15 0 32-39 25-60-3-10-22-24-41-30-28-9-34-17-32-33 4-27 38-35 54-12 7 9 15 12 18 7s-6-22-19-36l-25-27-25 27c-35 37-29 65 18 87 38 18 46 34 25 55-16 16-23 15-43-4-9-9-19-13-23-9s3 15 16 25c12 10 22 23 22 29s5 11 10 11c6 0 10-7 10-15zM886 686c33-33 45-66 24-66-6 0-16 12-22 26-16 34-81 67-117 59-40-8-77-45-59-56 11-7 10-11-2-19-23-15-38-12-50 11-13 23-4 41 9 20 7-11 11-9 20 7 17 32 60 51 115 52 42 0 52-4 82-34zm42-131c17-36 15-47-6-41-11 4-32-4-52-19-58-43-146-29-184 30-10 15-15 30-11 33 4 4 11-1 16-11 33-58 99-81 150-50 18 10 34 24 37 32s0 11-7 7c-6-4-11-1-11 7 0 12 31 34 51 36 3 1 11-10 17-24zm382-16c0-5-9-9-20-9-22 0-27 16-7 23 15 5 27-1 27-14zm60-5c0-17-22-14-28 4-2 7 3 12 12 12s16-7 16-16zm-120-44c0-5-4-10-10-10-5 0-10 5-10 10 0 6 5 10 10 10 6 0 10-4 10-10zm155-10c3-5 1-10-4-10-6 0-11 5-11 10 0 6 2 10 4 10 3 0 8-4 11-10zm-145-60c0-5-2-10-4-10-3 0-8 5-11 10-3 6-1 10 4 10 6 0 11-4 11-10zm130-4c0-3-4-8-10-11-5-3-10-1-10 4 0 6 5 11 10 11 6 0 10-2 10-4zm-545-26c4-6-18-10-60-10s-64 4-60 10c3 6 30 10 60 10s57-4 60-10zm475 0c0-5-4-10-10-10-5 0-10 5-10 10 0 6 5 10 10 10 6 0 10-4 10-10z" fill="#00a1d0"/><path d="M0 930V0h1920v1860H0V930zm1117 372c-22-24-21-38 1-51 9-6 12-11 6-11s-19 9-29 20c-17 19-17 21 0 40 10 11 23 20 28 20 6 0 3-8-6-18zm-266-9c-7-13-5-24 7-38 13-16 11-16-8 2-20 18-21 24-10 37 17 21 23 20 11-1zm79 13c0-3-5-8-12-12s-8-3-4 4c7 12 16 16 16 8zm60-5c0-6-5-13-11-16-7-5-4-14 7-26 9-10 13-19 7-19-5 0-18 9-28 20-15 16-15 22-5 35 14 17 30 20 30 6zm51-8c-7-13-5-24 7-38 13-16 12-16-7 2-23 21-24 53-1 53 8 0 8-6 1-17zm-126-33c10-11 16-20 13-20s-13 9-23 20-16 20-13 20 13-9 23-20zm320-59c-3-6-11-11-17-11s-6 6 2 15c14 17 26 13 15-4zm42-11c1-11-4-20-12-20-22 0-27 18-8 29 10 6 18 11 18 11 1 0 1-9 2-20zm37 4c9-22 8-24-9-24-8 0-15 9-15 20 0 24 15 27 24 4zm41 6c3-5 2-10-4-10-5 0-13 5-16 10-3 6-2 10 4 10 5 0 13-4 16-10zm-150-59c-3-12-13-21-21-21-17 0-17 2-2 35 13 30 34 18 23-14zm195-2c0-11-6-19-14-19-17 0-31 34-21 50s35-8 35-31zm-680-8c0-22-4-43-10-46-6-4-10 12-10 39 0 25 5 46 10 46 6 0 10-18 10-39zm40 9c0-16-4-30-10-30-5 0-10 14-10 30 0 17 5 30 10 30 6 0 10-13 10-30zm40 15c0-8-4-15-10-15-5 0-10 7-10 15s5 15 10 15c6 0 10-7 10-15zm40-15c0-16-4-30-10-30-5 0-10 14-10 30 0 17 5 30 10 30 6 0 10-13 10-30zm77-57c-2-16-4-3-4 27s2 43 4 28c2-16 2-40 0-55zm40 30c-3-10-5-2-5 17s2 27 5 18c2-10 2-26 0-35zm40 25c-3-8-6-5-6 6-1 11 2 17 5 13 3-3 4-12 1-19zm283-3c0-10-10-15-30-15-29 0-38 9-23 23 13 13 53 7 53-8zm64 0c4-11-1-15-19-15-24 0-32 10-18 23 11 12 31 8 37-8zm-467-17c-3-8-6-5-6 6-1 11 2 17 5 13 3-3 4-12 1-19zm-257-28c0-5-11-10-25-10s-25 5-25 10c0 6 11 10 25 10s25-4 25-10zm576-2c11-18 12-48 2-54-8-5-28 36-28 57 0 13 17 11 26-3zm84-8c0-15-7-20-25-20-14 0-25 2-25 4s-3 11-6 20c-5 13 1 16 25 16s31-4 31-20zm60-4c0-19-4-23-20-19-11 3-20 14-20 24 0 12 7 19 20 19 14 0 20-7 20-24zm60 7c-1-24-26-57-34-44-10 16 5 61 20 61 8 0 14-8 14-17zm-787-20c-7-2-21-2-30 0-10 3-4 5 12 5 17 0 24-2 18-5zm667-38c0-8-6-15-14-15s-16 7-20 15c-4 10 1 15 14 15 11 0 20-7 20-15zm40 0c0-8-4-15-10-15-5 0-10 7-10 15s5 15 10 15c6 0 10-7 10-15zm39-8c-2-1-13-9-24-17-19-14-19-14-6 3 7 9 18 17 24 17s8-1 6-3zm-46-110c62-1 118-6 125-10 9-6 12-57 12-198V510h-281c-266 0-282-1-306-20-31-24-92-26-132-6-31 16-67 64-56 74 4 4 11-1 16-11 32-55 97-80 145-53l29 15-27 1h-28v100c0 107-2 110-53 91-13-5-32-17-41-27-14-14-15-19-4-25 11-7 10-11-2-19-23-15-38-12-50 11-13 23-4 41 9 20 7-11 11-9 20 8 14 26 61 51 96 51 25 0 25 1 25 79 0 104 2 107 50 103 39-4 40-5 40-44 0-35 2-39 22-36s22 8 20 46c-2 23 1 42 7 42 5 0 12-39 15-87 9-156 14-177 56-221 34-35 45-40 92-44 38-3 63 1 89 14 60 31 73 52 77 127l4 67-52 47c-46 41-58 47-97 47-33 0-56-8-89-30l-44-29v49c0 55-2 54 78 50l52-2v44l1 43 35-38 36-39 111-1zm-173-102c0-8 4-15 10-15 15 0 32-39 25-60-3-10-22-24-41-30-28-9-34-17-32-33 4-27 38-35 54-12 7 9 15 12 18 7s-6-22-19-36l-25-27-25 27c-35 37-29 65 18 87 38 18 46 34 25 55-16 16-23 15-43-4-9-9-19-13-23-9s3 15 16 25c12 10 22 23 22 29s5 11 10 11c6 0 10-7 10-15zm110-315c0-5-4-10-10-10-5 0-10 5-10 10 0 6 5 10 10 10 6 0 10-4 10-10zm155-10c3-5 1-10-4-10-6 0-11 5-11 10 0 6 2 10 4 10 3 0 8-4 11-10zm-145-60c0-5-2-10-4-10-3 0-8 5-11 10-3 6-1 10 4 10 6 0 11-4 11-10zm130-4c0-3-4-8-10-11-5-3-10-1-10 4 0 6 5 11 10 11 6 0 10-2 10-4zm-545-26c4-6-18-10-60-10s-64 4-60 10c3 6 30 10 60 10s57-4 60-10zm475 0c0-5-4-10-10-10-5 0-10 5-10 10 0 6 5 10 10 10 6 0 10-4 10-10z" fill="#708e9e"/><path d="M0 930V0h1920v1860H0V930zm1117 372c-22-24-21-38 1-51 9-6 12-11 6-11s-19 9-29 20c-17 19-17 21 0 40 10 11 23 20 28 20 6 0 3-8-6-18zm-266-9c-7-13-5-24 7-38 13-16 11-16-8 2-20 18-21 24-10 37 17 21 23 20 11-1zm79 13c0-3-5-8-12-12s-8-3-4 4c7 12 16 16 16 8zm60-5c0-6-5-13-11-16-7-5-4-14 7-26 9-10 13-19 7-19-5 0-18 9-28 20-15 16-15 22-5 35 14 17 30 20 30 6zm51-8c-7-13-5-24 7-38 13-16 12-16-7 2-23 21-24 53-1 53 8 0 8-6 1-17zm-126-33c10-11 16-20 13-20s-13 9-23 20-16 20-13 20 13-9 23-20zm320-59c-3-6-11-11-17-11s-6 6 2 15c14 17 26 13 15-4zm42-11c1-11-4-20-12-20-22 0-27 18-8 29 10 6 18 11 18 11 1 0 1-9 2-20zm37 4c9-22 8-24-9-24-8 0-15 9-15 20 0 24 15 27 24 4zm41 6c3-5 2-10-4-10-5 0-13 5-16 10-3 6-2 10 4 10 5 0 13-4 16-10zm-150-59c-3-12-13-21-21-21-17 0-17 2-2 35 13 30 34 18 23-14zm195-2c0-11-6-19-14-19-17 0-31 34-21 50s35-8 35-31zm-680-14c0-25-4-45-10-45-5 0-10 20-10 45s5 45 10 45c6 0 10-20 10-45zm40 15c0-16-4-30-10-30-5 0-10 14-10 30 0 17 5 30 10 30 6 0 10-13 10-30zm40 15c0-8-4-15-10-15-5 0-10 7-10 15s5 15 10 15c6 0 10-7 10-15zm40-15c0-16-4-30-10-30-5 0-10 14-10 30 0 17 5 30 10 30 6 0 10-13 10-30zm77-57c-2-16-4-3-4 27s2 43 4 28c2-16 2-40 0-55zm40 30c-3-10-5-2-5 17s2 27 5 18c2-10 2-26 0-35zm40 25c-3-8-6-5-6 6-1 11 2 17 5 13 3-3 4-12 1-19zm283-3c0-10-10-15-30-15-29 0-38 9-23 23 13 13 53 7 53-8zm64 0c4-11-1-15-19-15-24 0-32 10-18 23 11 12 31 8 37-8zm-467-17c-3-8-6-5-6 6-1 11 2 17 5 13 3-3 4-12 1-19zm-257-38c0-15-7-20-29-20-24 0-28 3-24 20 3 13 14 20 29 20 17 0 24-6 24-20zm576 8c11-18 12-48 2-54-8-5-28 36-28 57 0 13 17 11 26-3zm84-8c0-15-7-20-25-20-14 0-25 2-25 4s-3 11-6 20c-5 13 1 16 25 16s31-4 31-20zm60-4c0-19-4-23-20-19-11 3-20 14-20 24 0 12 7 19 20 19 14 0 20-7 20-24zm60 7c-1-24-26-57-34-44-10 16 5 61 20 61 8 0 14-8 14-17zm-120-58c0-8-6-15-14-15s-16 7-20 15c-4 10 1 15 14 15 11 0 20-7 20-15zm40 0c0-8-4-15-10-15-5 0-10 7-10 15s5 15 10 15c6 0 10-7 10-15zm39-8c-2-1-13-9-24-17-19-14-19-14-6 3 7 9 18 17 24 17s8-1 6-3zm-46-110c62-1 118-6 125-10 9-6 12-57 12-198V510h-275c-257 0-277-1-307-20-60-36-146-20-182 34-30 46-17 52 22 9 42-47 82-59 127-38l30 13-27 1-28 1v203l-32-7c-41-8-84-46-66-58 10-6 10-10-2-18-8-5-20-10-27-10-15 0-37 39-27 48 4 4 9 2 11-5 3-8 18 1 39 22 26 27 43 35 69 35h35v79c0 104 2 107 50 103 39-4 40-5 40-44 0-35 2-39 22-36s22 8 20 46c-2 23 1 42 7 42 5 0 12-39 15-87 9-156 14-177 56-221 34-35 45-40 92-44 38-3 63 1 89 14 60 31 73 52 77 127l4 67-52 47c-46 41-58 47-97 47-33 0-56-8-89-30l-44-29v49c0 55-2 54 78 50l52-2v44l1 43 35-38 36-39 111-1zm-173-102c0-8 4-15 10-15 15 0 32-39 25-60-3-10-22-24-41-30-28-9-34-17-32-33 4-27 45-36 54-13 6 17 24 22 24 8 0-5-13-24-30-42-16-18-30-28-30-22 0 7-9 21-21 33-30 30-21 61 24 82 38 19 45 35 25 55-16 16-23 15-43-4-9-9-19-13-23-9s3 15 16 25c12 10 22 23 22 29s5 11 10 11c6 0 10-7 10-15zm110-315c0-5-4-10-10-10-5 0-10 5-10 10 0 6 5 10 10 10 6 0 10-4 10-10zm155-10c3-5 1-10-4-10-6 0-11 5-11 10 0 6 2 10 4 10 3 0 8-4 11-10zm-145-60c0-5-4-10-10-10-5 0-10 5-10 10 0 6 5 10 10 10 6 0 10-4 10-10zm125-10c-3-5-11-10-16-10-6 0-7 5-4 10 3 6 11 10 16 10 6 0 7-4 4-10zm-540-20c4-6-18-10-60-10s-64 4-60 10c3 6 30 10 60 10s57-4 60-10zm475 0c0-5-4-10-10-10-5 0-10 5-10 10 0 6 5 10 10 10 6 0 10-4 10-10z" fill="#04b9f3"/><path d="M0 930V0h1920v1860H0V930zm856 361c-15-16-15-19-1-31 8-7 15-17 15-23s-11 0-25 13l-25 24 22 23c25 27 39 22 14-6zm64 4c-11-13-10-19 5-35 14-15 15-20 4-20-8 0-20 9-27 21-11 18-11 24 4 40 20 22 33 17 14-6zm80 16c0-5-7-14-15-21-14-12-14-15 1-31 10-11 13-19 7-19-5 0-18 9-28 20-17 19-17 21 0 40 19 21 35 26 35 11zm60 0c0-5-7-14-15-21-14-12-14-15 1-31 10-11 13-19 7-19-5 0-18 9-28 20-17 19-17 21 0 40 19 21 35 26 35 11zm55-11c-17-19-17-21 0-40 10-11 14-20 8-20-5 0-18 9-28 20-17 19-17 21 0 40 10 11 23 20 28 20 6 0 2-9-8-20zm120-99c-3-6-11-11-17-11s-6 6 2 15c14 17 26 13 15-4zm115 4c7-8 8-15 2-15-5 0-15 7-22 15s-8 15-2 15c5 0 15-7 22-15zm-70-15c0-13-7-20-20-20-23 0-26 10-8 28s28 15 28-8zm34 4c9-22 8-24-9-24-8 0-15 9-15 20 0 24 15 27 24 4zm-104-28c0-25-12-46-26-46-17 0-18 14-4 41 12 22 30 25 30 5zm190-27c0-23-28-25-36-4-4 8-3 22 0 31 5 13 9 14 21 4 8-7 15-21 15-31zm-680-14c0-25-4-45-10-45-5 0-10 20-10 45s5 45 10 45c6 0 10-20 10-45zm40 15c0-16-4-30-10-30-5 0-10 14-10 30 0 17 5 30 10 30 6 0 10-13 10-30zm40 15c0-8-4-15-10-15-5 0-10 7-10 15s5 15 10 15c6 0 10-7 10-15zm40-15c0-16-4-30-10-30-5 0-10 14-10 30 0 17 5 30 10 30 6 0 10-13 10-30zm40-7c0-43-7-41-15 5-3 19-1 32 5 32 5 0 10-16 10-37zm40-18c0-30-3-55-7-55-5 0-8 25-8 55s3 55 8 55c4 0 7-25 7-55zm40 18c0-43-5-41-13 5-4 18-2 32 3 32 6 0 10-16 10-37zm40 17c0-11-4-20-10-20-5 0-10 9-10 20s5 20 10 20c6 0 10-9 10-20zm280-16c0-9-11-14-30-14-32 0-33 1-24 23 6 18 54 10 54-9zm64 1c4-11-1-15-19-15-24 0-32 10-18 23 11 12 31 8 37-8zm-724-55c0-15-7-20-29-20-24 0-28 3-24 20 3 13 14 20 29 20 17 0 24-6 24-20zm586-6c10-37-12-55-26-20-14 37-13 46 5 46 8 0 18-12 21-26zm74 7c0-12-9-20-25-23-29-6-35-2-35 24 0 13 8 18 30 18 23 0 30-5 30-19zm66 3c-3-9-6-19-6-24 0-4-9-6-20-3-31 8-26 43 6 43 20 0 25-4 20-16zm54 0c0-23-20-55-31-49-10 7-12 48-2 58 12 13 33 7 33-9zm-120-64c0-23-10-26-28-8s-15 28 8 28c13 0 20-7 20-20zm44 5c-4-8-10-15-15-15s-9 7-9 15 7 15 15 15c9 0 12-6 9-15zm-89-15c3-5 4-10 1-10s-8 5-11 10c-3 6-4 10-1 10s8-4 11-10zm124 7c-2-1-13-9-24-17-19-14-19-14-6 3 7 9 18 17 24 17s8-1 6-3zm-34-109l120-3 3-197 2-198h-275c-257 0-277-1-307-20-60-36-146-20-182 34-30 46-17 52 22 9 42-47 82-59 127-38l30 13-27 1-28 1v203l-32-7c-41-8-84-46-66-58 10-6 10-10-2-18-8-5-20-10-27-10-15 0-37 39-27 48 4 4 9 2 11-5 3-8 18 1 39 22 26 27 43 35 69 35h35v79c0 104 3 111 51 111 39 0 39 0 39-40 0-33 3-40 20-40s20 7 20 40c0 22 5 40 10 40 6 0 10-33 10-80s4-80 10-80 10-18 10-40c0-50 19-89 60-124 44-36 128-37 175-2 59 45 81 126 50 185-47 92-157 115-239 50l-26-20v111h130v74l38-37 37-36 120-3zm-185-103c0-8 4-15 10-15 15 0 32-39 25-60-3-10-22-24-41-30-28-9-34-17-32-33 4-27 45-36 54-13 6 17 24 22 24 8 0-5-13-24-30-42-16-18-30-28-30-22 0 7-9 21-21 33-30 30-21 61 24 82 38 19 45 35 25 55-16 16-23 15-43-4-9-9-19-13-23-9s3 15 16 25c12 10 22 23 22 29s5 11 10 11c6 0 10-7 10-15zm110-315c0-5-4-10-10-10-5 0-10 5-10 10 0 6 5 10 10 10 6 0 10-4 10-10zm155-10c3-5 1-10-4-10-6 0-11 5-11 10 0 6 2 10 4 10 3 0 8-4 11-10zm-145-60c0-5-4-10-10-10-5 0-10 5-10 10 0 6 5 10 10 10 6 0 10-4 10-10zm125-10c-3-5-11-10-16-10-6 0-7 5-4 10 3 6 11 10 16 10 6 0 7-4 4-10zm-540-20c4-6-18-10-60-10s-64 4-60 10c3 6 30 10 60 10s57-4 60-10zm475 0c0-5-4-10-10-10-5 0-10 5-10 10 0 6 5 10 10 10 6 0 10-4 10-10z" fill="#16c4df"/><path d="M0 930V0h1920v1860H0V930zm856 361c-15-16-15-19-1-31 8-7 15-17 15-23s-11 0-25 13l-25 24 22 23c25 27 39 22 14-6zm64 4c-11-13-10-19 5-35 14-15 15-20 4-20-8 0-20 9-27 21-11 18-11 24 4 40 20 22 33 17 14-6zm80 16c0-5-7-14-15-21-14-12-14-15 1-31 10-11 13-19 7-19-5 0-18 9-28 20-17 19-17 21 0 40 19 21 35 26 35 11zm60 0c0-5-7-14-15-21-14-12-14-15 1-31 10-11 13-19 7-19-5 0-18 9-28 20-17 19-17 21 0 40 19 21 35 26 35 11zm55-11c-17-19-17-21 0-40 10-11 14-20 8-20-5 0-18 9-28 20-17 19-17 21 0 40 10 11 23 20 28 20 6 0 2-9-8-20zm120-99c-3-6-11-11-17-11s-6 6 2 15c14 17 26 13 15-4zm115 4c7-8 8-15 2-15-5 0-15 7-22 15s-8 15-2 15c5 0 15-7 22-15zm-70-15c0-13-7-20-20-20-23 0-26 10-8 28s28 15 28-8zm38 8c18-18 15-28-8-28-13 0-20 7-20 20 0 23 10 26 28 8zm-108-32c0-25-12-46-26-46-17 0-18 14-4 41 12 22 30 25 30 5zm178 2c17-17 15-48-3-48-9 0-19 10-24 23-13 34 3 49 27 25zm-668-43c0-25-4-45-10-45-5 0-10 20-10 45s5 45 10 45c6 0 10-20 10-45zm40 15c0-16-4-30-10-30-5 0-10 14-10 30 0 17 5 30 10 30 6 0 10-13 10-30zm40 15c0-8-4-15-10-15-5 0-10 7-10 15s5 15 10 15c6 0 10-7 10-15zm40-15c0-16-4-30-10-30-5 0-10 14-10 30 0 17 5 30 10 30 6 0 10-13 10-30zm40-5c0-19-4-35-10-35-5 0-10 16-10 35s5 35 10 35c6 0 10-16 10-35zm40-20c0-30-4-55-10-55-5 0-10 25-10 55s5 55 10 55c6 0 10-25 10-55zm40 20c0-19-4-35-10-35-5 0-10 16-10 35s5 35 10 35c6 0 10-16 10-35zm40 15c0-11-4-20-10-20-5 0-10 9-10 20s5 20 10 20c6 0 10-9 10-20zm280-16c0-9-11-14-30-14-27 0-40 17-25 32 10 10 55-5 55-18zm63 6c4-17 0-20-24-20-33 0-35 3-13 24 21 21 31 20 37-4zm-723-60c0-15-7-20-29-20-24 0-28 3-24 20 3 13 14 20 29 20 17 0 24-6 24-20zm586-4c9-35-5-54-23-31-7 11-13 27-13 37 0 27 29 22 36-6zm74 5c0-12-9-20-25-23-29-6-35-2-35 24 0 13 8 18 30 18 23 0 30-5 30-19zm66 3c-3-9-6-19-6-24 0-4-9-6-20-3-31 8-26 43 6 43 20 0 25-4 20-16zm54 0c0-23-20-55-31-49-10 7-12 48-2 58 12 13 33 7 33-9zm-120-64c0-23-10-26-28-8s-15 28 8 28c13 0 20-7 20-20zm44 5c-4-8-10-15-15-15s-9 7-9 15 7 15 15 15c9 0 12-6 9-15zm-89-15c3-5 2-10-4-10-5 0-13 5-16 10-3 6-2 10 4 10 5 0 13-4 16-10zm125 5c0-2-10-10-22-16-21-11-22-11-9 4 13 16 31 23 31 12zm-35-107l120-3 3-197 2-198h-275c-257 0-277-1-307-20-60-36-146-20-182 34-30 46-17 52 22 9 42-46 77-59 119-41 27 11 27 12 6 15-22 4-23 8-23 105v101l-32-7c-41-8-84-46-66-58 10-6 10-10-2-18-8-5-20-10-27-10-15 0-37 39-27 48 4 4 9 2 11-5 3-8 18 1 39 22 26 27 43 35 69 35h35v79c0 104 3 111 51 111 39 0 39 0 39-40 0-33 3-40 20-40s20 7 20 40c0 22 5 40 10 40 6 0 10-33 10-80s4-80 10-80 10-18 10-40c0-50 19-89 60-124 44-36 128-37 175-2 59 45 81 126 50 185-47 92-157 115-239 50l-26-20v111h130v74l38-37 37-36 120-3zm-185-103c0-8 4-15 10-15 15 0 32-39 25-60-3-10-22-24-41-30-28-9-34-17-32-33 4-27 45-36 54-13 6 17 24 22 24 8 0-5-13-24-30-42-16-18-30-28-30-22 0 7-9 21-21 33-30 30-21 61 24 82 38 19 45 35 25 55-16 16-23 15-43-4-9-9-19-13-23-9s3 15 16 25c12 10 22 23 22 29s5 11 10 11c6 0 10-7 10-15zm110-315c0-5-4-10-10-10-5 0-10 5-10 10 0 6 5 10 10 10 6 0 10-4 10-10zm155-10c3-5 1-10-4-10-6 0-11 5-11 10 0 6 2 10 4 10 3 0 8-4 11-10zm-145-60c0-5-4-10-10-10-5 0-10 5-10 10 0 6 5 10 10 10 6 0 10-4 10-10zm125-10c-3-5-11-10-16-10-6 0-7 5-4 10 3 6 11 10 16 10 6 0 7-4 4-10zm-540-20c4-6-18-10-60-10s-64 4-60 10c3 6 30 10 60 10s57-4 60-10zm475 0c0-5-4-10-10-10-5 0-10 5-10 10 0 6 5 10 10 10 6 0 10-4 10-10z" fill="#96a3ad"/><path d="M0 930V0h1920v1860H0V930zm856 361c-15-16-15-19-1-31 8-7 15-17 15-23s-11 0-25 13l-25 24 22 23c25 27 39 22 14-6zm64 4c-11-13-10-19 5-35 14-15 15-20 4-20-8 0-20 9-27 21-11 18-11 24 4 40 20 22 33 17 14-6zm80 16c0-5-7-14-15-21-14-12-14-15 1-31 10-11 13-19 7-19-5 0-18 9-28 20-17 19-17 21 0 40 19 21 35 26 35 11zm60 0c0-5-7-14-15-21-14-12-14-15 1-31 10-11 13-19 7-19-5 0-18 9-28 20-17 19-17 21 0 40 19 21 35 26 35 11zm55-11c-17-19-17-21 0-40 10-11 14-20 8-20-5 0-18 9-28 20-17 19-17 21 0 40 10 11 23 20 28 20 6 0 2-9-8-20zm120-99c-3-6-11-11-17-11s-6 6 2 15c14 17 26 13 15-4zm115 4c7-8 8-15 2-15-5 0-15 7-22 15s-8 15-2 15c5 0 15-7 22-15zm-70-15c0-13-7-20-20-20-23 0-26 10-8 28s28 15 28-8zm38 8c18-18 15-28-8-28-13 0-20 7-20 20 0 23 10 26 28 8zm-108-32c0-25-12-46-26-46-17 0-18 14-4 41 12 22 30 25 30 5zm178 2c17-17 15-48-3-48-9 0-19 10-24 23-13 34 3 49 27 25zm-668-43c0-25-4-45-10-45-5 0-10 20-10 45s5 45 10 45c6 0 10-20 10-45zm40 15c0-16-4-30-10-30-5 0-10 14-10 30 0 17 5 30 10 30 6 0 10-13 10-30zm40 15c0-8-4-15-10-15-5 0-10 7-10 15s5 15 10 15c6 0 10-7 10-15zm40-15c0-16-4-30-10-30-5 0-10 14-10 30 0 17 5 30 10 30 6 0 10-13 10-30zm40-5c0-19-4-35-10-35-5 0-10 16-10 35s5 35 10 35c6 0 10-16 10-35zm40-20c0-30-4-55-10-55-5 0-10 25-10 55s5 55 10 55c6 0 10-25 10-55zm40 20c0-19-4-35-10-35-5 0-10 16-10 35s5 35 10 35c6 0 10-16 10-35zm40 15c0-11-4-20-10-20-5 0-10 9-10 20s5 20 10 20c6 0 10-9 10-20zm280-16c0-9-11-14-30-14-27 0-40 17-25 32 10 10 55-5 55-18zm63 6c4-17 0-20-24-20-33 0-35 3-13 24 21 21 31 20 37-4zm-723-60c0-15-7-20-28-20s-28 5-28 20 7 20 28 20 28-5 28-20zm586-4c9-35-5-54-23-31-7 11-13 27-13 37 0 27 29 22 36-6zm74 5c0-12-9-20-25-23-29-6-35-2-35 24 0 13 8 18 30 18 23 0 30-5 30-19zm66 3c-3-9-6-19-6-24 0-4-9-6-20-3-31 8-26 43 6 43 20 0 25-4 20-16zm54 0c0-23-20-55-31-49-10 7-12 48-2 58 12 13 33 7 33-9zm-120-64c0-23-10-26-28-8s-15 28 8 28c13 0 20-7 20-20zm44 5c-4-8-10-15-15-15s-9 7-9 15 7 15 15 15c9 0 12-6 9-15zm-89-15c3-5 2-10-4-10-5 0-13 5-16 10-3 6-2 10 4 10 5 0 13-4 16-10zm125 5c0-2-10-10-22-16-21-11-22-11-9 4 13 16 31 23 31 12zm-35-107l120-3 3-197 2-198h-274c-253 0-278-2-308-19-34-20-53-24-102-22-31 1-96 58-96 85 0 24 15 19 28-8 6-14 22-32 36-41 29-19 93-22 109-6 8 8 5 11-11 11-21 0-22 4-22 100 0 55-4 100-9 100-18 0-66-22-84-38s-18-17 0-23c15-5 13-8-13-22-30-16-31-15-43 9-14 32-14 37 3 31 8-3 24 6 37 19 13 14 43 30 66 36l43 10v73c0 97 4 105 51 105 39 0 39 0 39-40 0-33 3-40 20-40s20 7 20 40c0 22 5 40 10 40 6 0 10-33 10-80s4-80 10-80 10-18 10-40c0-50 19-89 60-124 44-36 128-37 175-2 59 45 81 126 50 185-47 92-157 115-239 50l-26-20v111h130v74l38-37 37-36 120-3zm-185-99c0-6 10-19 22-29 19-15 21-22 13-46-7-18-19-30-32-32-27-4-47-27-39-47 7-20 43-19 55 2 5 10 12 15 16 11 8-8-13-48-25-48-6 0-10-7-10-15s-4-15-10-15c-5 0-10 6-10 13s-9 18-20 25c-37 23-13 92 32 92 26 0 34 28 15 48-15 15-19 14-42-8-31-29-33-9-2 30 23 30 37 37 37 19zm110-319c0-5-4-10-10-10-5 0-10 5-10 10 0 6 5 10 10 10 6 0 10-4 10-10zm160-9c0-6-4-13-10-16-5-3-10 1-10 9 0 9 5 16 10 16 6 0 10-4 10-9zm-150-61c0-5-4-10-10-10-5 0-10 5-10 10 0 6 5 10 10 10 6 0 10-4 10-10zm125-10c-3-5-10-10-16-10-5 0-9 5-9 10 0 6 7 10 16 10 8 0 12-4 9-10zm-535-20c0-6-29-10-66-10-41 0-63 4-59 10 3 6 33 10 66 10s59-4 59-10zm475 0c3-5-1-10-9-10-9 0-16 5-16 10 0 6 4 10 9 10 6 0 13-4 16-10z" fill="#52d6f8"/><path d="M0 930V0h1920v1860H0V930zm860 365c-10-12-10-18 0-30 22-26 5-37-19-11l-23 24 22 22c24 24 41 20 20-5zm80 19c0-4-8-13-17-19-17-12-17-14 1-34 15-17 16-21 4-21-8 0-23 9-33 20-17 19-17 20 6 39 25 21 39 26 39 15zm60-1c0-3-7-14-15-23-14-15-14-18 0-30 8-7 15-16 15-21 0-16-15-9-33 17-18 24-18 26-1 45s34 25 34 12zm60-2c0-5-7-14-15-21-14-12-14-15 1-31 10-11 13-19 7-19-5 0-18 9-28 20-17 19-17 21 0 40 19 21 35 26 35 11zm70-1c0-5-8-13-17-19-17-9-17-10 0-28 9-11 17-22 17-26 0-12-26 4-38 24-11 18-11 24 4 40 18 20 34 25 34 9zm102-112c-6-6-15-8-19-4s-1 11 7 16c19 12 27 3 12-12zm118 12c8-5 11-12 7-16s-15 0-24 9c-18 18-8 23 17 7zm-70-25c0-27-6-30-29-16-12 8-12 12-2 25 19 23 31 20 31-9zm38 13c18-18 15-28-8-28-13 0-20 7-20 20 0 23 10 26 28 8zm-103-46c-1-9 0-11 2-4 3 8 11 11 20 8 8-3 21-6 29-6s14-9 14-20c0-17-6-19-56-18-30 1-57 4-59 8-2 3 3 20 12 38 12 24 19 30 28 22 7-6 12-18 10-28zm184-3c14-42 15-41-11-37-14 2-24 13-29 30-13 49 23 55 40 7zm-679-24c0-25-4-45-10-45-5 0-10 20-10 45s5 45 10 45c6 0 10-20 10-45zm40 15c0-16-4-30-10-30-5 0-10 14-10 30 0 17 5 30 10 30 6 0 10-13 10-30zm40 15c0-8-4-15-10-15-5 0-10 7-10 15s5 15 10 15c6 0 10-7 10-15zm40-15c0-16-4-30-10-30-5 0-10 14-10 30 0 17 5 30 10 30 6 0 10-13 10-30zm40-5c0-19-4-35-10-35-5 0-10 16-10 35s5 35 10 35c6 0 10-16 10-35zm40-25c0-33-4-60-10-60s-10 27-10 60 4 60 10 60 10-27 10-60zm40 25c0-19-4-35-10-35-5 0-10 16-10 35s5 35 10 35c6 0 10-16 10-35zm40 10c0-14-4-25-10-25-5 0-10 11-10 25s5 25 10 25c6 0 10-11 10-25zm344-1c11-28 6-35-21-32-47 5-41 38 8 47 4 0 10-6 13-15zm-724-64c0-15-7-20-28-20s-28 5-28 20 7 20 28 20 28-5 28-20zm586-4c9-35-5-54-23-31-7 11-13 27-13 37 0 27 29 22 36-6zm74 5c0-11-9-21-22-25-35-9-38-8-38 19 0 21 5 25 30 25 23 0 30-5 30-19zm70 10c0-26-13-38-36-33-37 7-33 42 6 42 17 0 30-4 30-9zm60 4c0-17-33-66-41-63-6 2-10 7-10 11 1 4 1 18 1 32 0 20 5 25 25 25 14 0 25-2 25-5zm-130-70c0-29-12-32-31-9-10 13-10 17 2 25 23 14 29 11 29-16zm50 6c0-10-22-31-32-31-9 0-11 34-2 43 7 7 34-2 34-12zm-90-25c14-18 14-19-8-7-12 7-20 17-16 22 3 6 7 9 8 7s8-12 16-22zm106-4c-8-9-19-13-22-9-10 9 16 38 28 31 6-4 4-13-6-22zm-176-57l33-34 121-3 121-3 3-197 2-198h-94c-80 0-97-3-106-18-10-16-10-16-20 1-10 15-29 17-170 17-138 0-163-2-192-19-34-20-53-24-102-22-31 1-96 58-96 85 0 24 15 19 28-8 6-14 22-32 36-41 29-19 93-22 109-6 8 8 5 11-11 11-21 0-22 4-22 100 0 55-4 100-9 100-18 0-66-22-84-38s-18-17 0-23c15-5 13-8-13-22-30-16-31-15-43 9-14 32-14 37 3 31 8-3 24 6 37 19 13 14 43 30 66 36l43 10v178h90v-40c0-33 3-40 20-40s20 7 20 40c0 22 5 40 10 40 6 0 10-33 10-80s4-80 10-80 10-20 10-44c0-78 69-146 148-146 136 0 201 160 103 254-55 53-147 52-202 0l-29-28v124h130l-6 35c-7 44 3 44 46 0zm-30-136c0-6 10-19 22-29 19-15 21-22 13-46-7-18-19-30-32-32-27-4-47-27-39-47 7-20 43-19 55 2 5 10 12 15 16 11 8-8-13-48-25-48-6 0-10-7-10-15s-4-15-10-15c-5 0-10 6-10 13s-9 18-20 25c-37 23-13 92 32 92 26 0 34 28 15 48-15 15-19 14-42-8-31-29-33-9-2 30 23 30 37 37 37 19zm270-328c0-6-4-13-10-16-5-3-10 1-10 9 0 9 5 16 10 16 6 0 10-4 10-9zm-150-61c0-5-4-10-10-10-5 0-10 5-10 10 0 6 5 10 10 10 6 0 10-4 10-10zm125-10c-3-5-10-10-16-10-5 0-9 5-9 10 0 6 7 10 16 10 8 0 12-4 9-10zm-535-20c0-6-29-10-66-10-41 0-63 4-59 10 3 6 33 10 66 10s59-4 59-10zm475 0c3-5-1-10-9-10-9 0-16 5-16 10 0 6 4 10 9 10 6 0 13-4 16-10z" fill="#b0bdc6"/><path d="M0 930V0h1920v1860H0V930zm1235 440c3-5 4-10 1-10s-8 5-11 10c-3 6-4 10-1 10s8-4 11-10zm190 0c3-5 4-10 1-10s-8 5-11 10c-3 6-4 10-1 10s8-4 11-10zm-105-23c0-2-10-12-22-23l-23-19 19 23c18 21 26 27 26 19zm130 0c0-2-10-12-22-23l-23-19 19 23c18 21 26 27 26 19zm-210-21c0-3-5-8-12-12s-8-3-4 4c7 12 16 16 16 8zm-380-31c-10-12-10-18 0-30 22-26 5-37-19-11l-23 24 22 22c24 24 41 20 20-5zm80 19c0-4-8-13-17-19-17-12-17-14 1-34 15-17 16-21 4-21-8 0-23 9-33 20-17 19-17 20 6 39 25 21 39 26 39 15zm60-1c0-3-7-14-15-23-14-15-14-18 0-30 8-7 15-16 15-21 0-16-15-9-33 17-18 24-18 26-1 45s34 25 34 12zm60-2c0-5-7-14-15-21-14-12-14-15 1-31 10-11 13-19 7-19-5 0-18 9-28 20-17 19-17 21 0 40 19 21 35 26 35 11zm70-1c0-5-8-13-17-19-17-9-17-10 0-28 9-11 17-22 17-26 0-12-26 4-38 24-11 18-11 24 4 40 18 20 34 25 34 9zm102-112c-6-6-15-8-19-4s-1 11 7 16c19 12 27 3 12-12zm118 12c8-5 11-12 7-16s-15 0-24 9c-18 18-8 23 17 7zm-70-25c0-27-6-30-29-16-12 8-12 12-2 25 19 23 31 20 31-9zm38 13c18-18 15-28-8-28-13 0-20 7-20 20 0 23 10 26 28 8zm-103-46c-1-9 0-11 2-4 3 8 11 11 20 8 8-3 21-6 29-6s14-9 14-20c0-17-6-19-56-18-30 1-57 4-59 8-2 3 3 20 12 38 12 24 19 30 28 22 7-6 12-18 10-28zm184-3c14-42 15-41-11-37-14 2-24 13-29 30-13 49 23 55 40 7zm-679-24c0-25-4-45-10-45-5 0-10 20-10 45s5 45 10 45c6 0 10-20 10-45zm40 15c0-16-4-30-10-30-5 0-10 14-10 30 0 17 5 30 10 30 6 0 10-13 10-30zm40 15c0-8-4-15-10-15-5 0-10 7-10 15s5 15 10 15c6 0 10-7 10-15zm40-15c0-16-4-30-10-30-5 0-10 14-10 30 0 17 5 30 10 30 6 0 10-13 10-30zm40-5c0-19-4-35-10-35-5 0-10 16-10 35s5 35 10 35c6 0 10-16 10-35zm40-25c0-33-4-60-10-60s-10 27-10 60 4 60 10 60 10-27 10-60zm40 25c0-19-4-35-10-35-5 0-10 16-10 35s5 35 10 35c6 0 10-16 10-35zm40 10c0-14-4-25-10-25-5 0-10 11-10 25s5 25 10 25c6 0 10-11 10-25zm344-1c11-28 6-35-21-32-47 5-41 38 8 47 4 0 10-6 13-15zm-724-64c0-15-7-20-28-20s-28 5-29 20c-1 16 4 20 28 20 22 0 29-5 29-20zm586-4c9-35-5-54-23-31-7 11-13 27-13 37 0 27 29 22 36-6zm74 5c0-11-9-21-22-25-35-9-38-8-38 19 0 21 5 25 30 25 23 0 30-5 30-19zm70 10c0-26-13-38-36-33-37 7-33 42 6 42 17 0 30-4 30-9zm60 4c0-17-33-66-41-63-6 2-10 7-10 11 1 4 1 18 1 32 0 20 5 25 25 25 14 0 25-2 25-5zm-130-70c0-29-12-32-31-9-10 13-10 17 2 25 23 14 29 11 29-16zm50 6c0-10-22-31-32-31-9 0-11 34-2 43 7 7 34-2 34-12zm-90-25c14-18 14-19-8-7-12 7-20 17-16 22 3 6 7 9 8 7s8-12 16-22zm106-4c-8-9-19-13-22-9-10 9 16 38 28 31 6-4 4-13-6-22zm-176-57l33-34 121-3 121-3 3-197 2-198h-94c-80 0-97-3-106-18-10-16-10-16-20 1-10 15-29 17-171 17-149 0-163-2-191-22-40-28-109-29-146-1-33 24-60 69-48 80 5 4 11 1 14-7s18-27 33-42c22-22 37-28 73-28 24 0 48 4 51 10s-3 10-14 10c-20 0-21 6-21 95v95h-29c-15 0-41-10-56-22-26-20-26-22-9-28 16-6 15-9-14-24-32-17-32-16-42 9-13 34-13 38 3 32 6-2 27 9 44 24 18 15 48 31 68 35l35 6v178h90v-40c0-33 3-40 20-40s20 7 20 40c0 22 5 40 10 40 6 0 10-33 10-80s4-80 10-80 10-20 10-44c0-78 69-146 148-146 136 0 201 160 103 254-55 53-147 52-202 0l-29-28v124h130l-6 35c-7 44 3 44 46 0zm-353 8c-4-3-10-3-14 0-3 4 0 7 7 7s10-3 7-7zm-70-40c-4-3-7 0-7 7s3 10 7 7c3-4 3-10 0-14zm-100 0c-4-3-10-3-14 0-3 4 0 7 7 7s10-3 7-7zm512-125c20-24 22-35 15-56-6-16-18-28-31-30-27-4-47-27-39-47 7-20 43-19 55 2 5 10 12 15 16 11 8-8-13-48-25-48-6 0-10-7-10-15s-4-15-10-15c-5 0-10 6-10 13s-9 18-20 25c-37 23-13 92 32 92 26 0 34 28 15 48-15 15-19 14-42-8-14-13-25-18-25-11 0 13 41 70 50 70 3 0 16-14 29-31zm251-307c0-17-18-21-24-6-3 9 0 15 9 15 8 0 15-4 15-9zm-150-62c0-5-4-9-10-9-5 0-10 7-10 16 0 8 5 12 10 9 6-3 10-10 10-16zm121-12c-13-13-26-3-16 12 3 6 11 8 17 5 6-4 6-10-1-17zm-533-19c-3-9-25-13-63-13s-60 4-62 13c-4 9 13 12 62 12s66-3 63-12zm477 2c3-5-1-10-9-10-9 0-16 5-16 10 0 6 4 10 9 10 6 0 13-4 16-10z" fill="#bac4cb"/><path d="M0 930V0h1920v1860H0V930zm800 474c0-14-21-19-33-7-9 9 13 34 24 27 5-3 9-12 9-20zm370-76c-21-20-22-20-7-2 16 19 16 23 2 34-8 7-15 17-15 23s10 1 22-11l22-22-24-22zm74 34c15-18 15-20-6-38-23-19-23-19-6 2 17 19 17 21 1 37-10 9-15 17-12 17s13-8 23-18zm60 0c15-18 15-20-6-38-23-19-23-19-6 2 17 19 17 21 1 37-10 9-15 17-12 17s13-8 23-18zm67-31c-7-11-17-21-23-21s-3 9 7 20c15 17 16 22 4 37-12 17-12 17 5 2 15-14 16-21 7-38zm63 31c15-18 15-20-6-38-23-19-23-19-6 2 17 19 17 21 1 37-10 9-15 17-12 17s13-8 23-18zm-574-67c-10-12-10-18 0-30 22-26 5-37-19-11l-23 24 22 22c24 24 41 20 20-5zm80 19c0-4-8-13-17-19-17-12-17-14 1-34 15-17 16-21 4-21-8 0-23 9-33 20-17 19-17 20 6 39 25 21 39 26 39 15zm60-1c0-3-7-14-15-23-14-15-14-18 0-30 8-7 15-16 15-21 0-16-15-9-33 17-18 24-18 26-1 45s34 25 34 12zm60-2c0-5-7-14-15-21-14-12-14-15 1-31 10-11 13-19 7-19-5 0-18 9-28 20-17 19-17 21 0 40 19 21 35 26 35 11zm70-1c0-5-8-13-17-19-17-9-17-10 0-28 9-11 17-22 17-26 0-12-26 4-38 24-11 18-11 24 4 40 18 20 34 25 34 9zm102-112c-6-6-15-8-19-4s-1 11 7 16c19 12 27 3 12-12zm118 12c8-5 11-12 7-16s-15 0-24 9c-18 18-8 23 17 7zm-70-25c0-27-6-30-29-16-12 8-12 12-2 25 19 23 31 20 31-9zm38 13c18-18 15-28-8-28-13 0-20 7-20 20 0 23 10 26 28 8zm-103-46c-1-9 0-11 2-4 3 8 11 11 20 8 8-3 21-6 29-6s14-9 14-20c0-17-6-19-56-18-30 1-57 4-59 8-2 3 3 20 12 38 12 24 19 30 28 22 7-6 12-18 10-28zm184-3c14-42 15-41-11-37-14 2-24 13-29 30-13 49 23 55 40 7zm-732 4c-4-3-7 0-7 7s3 10 7 7c3-4 3-10 0-14zm53-28c0-25-4-45-10-45-5 0-10 20-10 45s5 45 10 45c6 0 10-20 10-45zm40 15c0-16-4-30-10-30-5 0-10 14-10 30 0 17 5 30 10 30 6 0 10-13 10-30zm40 15c0-8-4-15-10-15-5 0-10 7-10 15s5 15 10 15c6 0 10-7 10-15zm40-15c0-16-4-30-10-30-5 0-10 14-10 30 0 17 5 30 10 30 6 0 10-13 10-30zm40-5c0-19-4-35-10-35-5 0-10 16-10 35s5 35 10 35c6 0 10-16 10-35zm40-25c0-33-4-60-10-60s-10 27-10 60 4 60 10 60 10-27 10-60zm40 25c0-19-4-35-10-35-5 0-10 16-10 35s5 35 10 35c6 0 10-16 10-35zm40 10c0-14-4-25-10-25-5 0-10 11-10 25s5 25 10 25c6 0 10-11 10-25zm344-1c11-28 6-35-21-32-47 5-41 38 8 47 4 0 10-6 13-15zm-721-64c4-15-1-22-18-26-30-7-45 2-45 27 0 28 56 27 63-1zm583-4c9-35-5-54-23-31-7 11-13 27-13 37 0 27 29 22 36-6zm74 5c0-11-9-21-22-25-35-9-38-8-38 19 0 21 5 25 30 25 23 0 30-5 30-19zm70 10c0-26-13-38-36-33-37 7-33 42 6 42 17 0 30-4 30-9zm60 4c0-17-33-66-41-63-6 2-10 7-10 11 1 4 1 18 1 32 0 20 5 25 25 25 14 0 25-2 25-5zm-130-70c0-29-12-32-31-9-10 13-10 17 2 25 23 14 29 11 29-16zm50 6c0-10-22-31-32-31-9 0-11 34-2 43 7 7 34-2 34-12zm-90-25c14-18 14-19-8-7-12 7-20 17-16 22 3 6 7 9 8 7s8-12 16-22zm106-4c-8-9-19-13-22-9-10 9 16 38 28 31 6-4 4-13-6-22zm-746-37c0-8-7-15-15-15s-15 7-15 15 7 15 15 15 15-7 15-15zm60-20c0-24-5-35-15-35s-15 11-15 35 5 35 15 35 15-11 15-35zm50-20c0-42-3-55-15-55s-15 13-15 55 3 55 15 55 15-13 15-55zm60 20c0-24-5-35-15-35s-15 11-15 35 5 35 15 35 15-11 15-35zm54 20c-4-8-12-15-20-15s-14 7-14 15 9 15 20 15c13 0 18-5 14-15zm56-20c0-19 5-35 10-35 6 0 10-18 10-40 0-33 3-40 20-40s20 7 20 40c0 22 5 40 10 40 6 0 10-33 10-80s4-80 10-80 10-20 10-44c0-78 69-146 148-146 136 0 201 160 103 254-55 53-147 52-202 0l-29-28v124h130l-6 35c-7 44 3 44 46 0l33-34 121-3 121-3 3-197 2-198h-94c-88 0-96-2-107-22l-12-22-8 22c-8 21-12 22-170 22-141 0-164-2-187-19-46-32-87-35-136-11-43 20-78 72-61 88 4 4 10 0 13-8s18-27 33-42c22-22 37-28 73-28 24 0 48 5 51 10 3 6-3 10-14 10-20 0-21 6-21 95v95h-29c-15 0-41-10-56-22-26-20-26-22-9-28 16-6 15-9-14-24-32-17-32-16-42 9-13 33-13 45 0 45 6 0 10-5 10-11s16 3 35 19c19 17 50 34 70 38l35 6v89c0 82 2 89 20 89 16 0 20 7 20 35 0 24 5 35 15 35s15-11 15-35zM633 823c-13-2-33-2-45 0-13 2-3 4 22 4s35-2 23-4zm525-33c26-33 26-69 0-81-10-5-26-13-35-18-10-4-18-17-18-27 0-24 42-32 51-10 8 20 24 21 24 1 0-8-9-20-20-27s-20-18-20-25-4-13-10-13c-5 0-10 6-10 13s-9 18-20 25c-37 23-13 92 32 92 27 0 35 30 12 47-17 12-21 12-36-7-18-22-28-26-28-9 0 11 41 68 50 68 3 0 15-13 28-29zm-480-7c-21-2-55-2-75 0-21 2-4 4 37 4s58-2 38-4zm0-40c-21-2-55-2-75 0-21 2-4 4 37 4s58-2 38-4zm0-160c-21-2-55-2-75 0-21 2-4 4 37 4s58-2 38-4zm-35-40c-13-2-35-2-50 0-16 2-5 4 22 4 28 0 40-2 28-4zm15-40c-15-2-42-2-60 0s-6 4 27 4 48-2 33-4zm752-29c0-17-22-14-28 4-2 7 3 12 12 12s16-7 16-16zm-146-49c3-9 0-15-9-15-8 0-15 7-15 15s4 15 9 15 11-7 15-15zm126-16c0-5-7-9-15-9-15 0-20 12-9 23 8 8 24-1 24-14zm-542-21c-3-9-25-13-63-13s-60 4-62 13c-4 9 13 12 62 12s66-3 63-12zm477 2c3-5-3-10-15-10s-18 5-15 10c3 6 10 10 15 10s12-4 15-10z" fill="#70e2fd"/><path d="M0 930V0h1920v1860H0V930zm800 474c0-14-21-19-33-7-9 9 13 34 24 27 5-3 9-12 9-20zm370-76c-21-20-22-20-7-2 16 19 16 23 2 34-8 7-15 17-15 23s10 1 22-11l22-22-24-22zm74 34c15-18 15-20-6-38-23-19-23-19-6 2 17 19 17 21 1 37-10 9-15 17-12 17s13-8 23-18zm60 0c15-18 15-20-6-38-23-19-23-19-6 2 17 19 17 21 1 37-10 9-15 17-12 17s13-8 23-18zm67-31c-7-11-17-21-23-21s-3 9 7 20c15 17 16 22 4 37-12 17-12 17 5 2 15-14 16-21 7-38zm63 31c15-18 15-20-6-38-23-19-23-19-6 2 17 19 17 21 1 37-10 9-15 17-12 17s13-8 23-18zm-564-50c0-4-5-13-12-20-9-9-9-15 0-24 7-7 12-19 12-27 0-11-8-8-27 11-26 27-26 28-8 48 19 20 35 26 35 12zm70 2c0-3-7-12-15-21-14-14-14-17 1-34 27-30 6-36-23-6l-27 26 25 20c24 20 39 26 39 15zm60-1c0-3-7-14-15-23-14-15-14-18 0-30 8-7 15-16 15-21 0-16-15-9-33 17-18 24-18 26-1 45s34 25 34 12zm60-1c0-4-5-13-11-19-8-8-8-17 0-31 22-40 6-45-22-6-18 24-18 26-1 45 18 20 34 25 34 11zm70-1c0-5-7-14-15-21-14-12-14-15 1-31 23-26 9-37-16-14-24 22-25 33-3 57 17 19 33 24 33 9zm102-113c-6-6-15-8-19-4s-1 11 7 16c19 12 27 3 12-12zm112 16c17-7 22-34 6-34-5 0-14 9-20 20-12 22-10 23 14 14zm-64-29c0-27-6-30-29-16-12 8-12 12-2 25 19 23 31 20 31-9zm40 10c6-8 9-19 5-25-3-5 1-10 9-10s18 5 21 10c12 20 33 9 44-21 14-41 14-39-9-39-12 0-24 10-30 23l-9 22v-22c-1-19-7-23-31-23-23 0-30 4-30 20 0 11 5 20 12 20 9 0 9 3 0 12-14 14-16 48-3 48 5 0 14-7 21-15zm-105-43c-1-9 0-11 2-4 9 25 63 9 63-19 0-17-7-19-57-16-55 2-58 3-55 27 5 36 22 53 37 40 7-6 12-18 10-28zm-548 1c-4-3-7 0-7 7s3 10 7 7c3-4 3-10 0-14zm53-28c0-25-4-45-10-45-5 0-10 20-10 45s5 45 10 45c6 0 10-20 10-45zm40 15c0-16-4-30-10-30-5 0-10 14-10 30 0 17 5 30 10 30 6 0 10-13 10-30zm40 15c0-8-4-15-10-15-5 0-10 7-10 15s5 15 10 15c6 0 10-7 10-15zm40-15c0-16-4-30-10-30-5 0-10 14-10 30 0 17 5 30 10 30 6 0 10-13 10-30zm40-5c0-19-4-35-10-35-5 0-10 16-10 35s5 35 10 35c6 0 10-16 10-35zm40-25c0-33-4-60-10-60s-10 27-10 60 4 60 10 60 10-27 10-60zm40 25c0-19-4-35-10-35-5 0-10 16-10 35s5 35 10 35c6 0 10-16 10-35zm40 10c0-14-4-25-10-25-5 0-10 11-10 25s5 25 10 25c6 0 10-11 10-25zm-377-65c4-15-1-22-18-26-30-7-45 2-45 27 0 28 56 27 63-1zm585-10c8-21 8-32 0-36-13-8-38 23-38 48 0 29 27 21 38-12zm72 11c0-11-9-21-22-25-35-9-38-8-38 19 0 21 5 25 30 25 23 0 30-5 30-19zm70 0c0-25-11-32-38-24-13 3-22 13-22 24 0 14 7 19 30 19s30-5 30-19zm60 14c0-17-33-66-41-63-6 2-10 7-10 11 1 4 1 18 1 32 0 20 5 25 25 25 14 0 25-2 25-5zm-130-70c0-29-12-32-31-9-10 13-10 17 2 25 23 14 29 11 29-16zm45 15c7-12-12-40-26-40-5 0-9 11-9 25 0 25 23 35 35 15zm-87-30c7-11 9-20 4-20-10 0-32 22-32 32 0 15 15 8 28-12zm122 11c0-13-29-35-37-28-7 8 15 37 28 37 5 0 9-4 9-9zm-760-56c0-8-7-15-15-15s-15 7-15 15 7 15 15 15 15-7 15-15zm60-20c0-24-5-35-15-35s-15 11-15 35 5 35 15 35 15-11 15-35zm50-20c0-42-3-55-15-55s-15 13-15 55 3 55 15 55 15-13 15-55zm60 20c0-24-5-35-15-35s-15 11-15 35 5 35 15 35 15-11 15-35zm54 20c-4-8-12-15-20-15s-14 7-14 15 9 15 20 15c13 0 18-5 14-15zm56-20c0-19 5-35 10-35 6 0 10-18 10-40 0-33 3-40 20-40s20 7 20 40c0 22 5 40 10 40 6 0 10-33 10-80s4-80 10-80 10-12 10-27c0-111 80-178 187-158 47 9 100 63 109 111 26 139-146 235-247 138l-29-28v124h120v35c0 19 4 35 8 35s23-16 42-35l34-35h246V504l-94 4c-90 4-95 3-107-19l-12-23-8 22c-8 21-12 22-170 22-141 0-164-2-187-19-46-32-87-35-136-11-43 20-78 72-61 88 4 4 10 0 13-8s18-27 33-42c22-22 37-28 73-28 24 0 48 5 51 10 3 6-3 10-14 10-20 0-21 6-21 95v95h-29c-15 0-41-10-56-22-26-20-26-22-9-28 16-6 15-9-14-24-32-17-32-16-42 9-13 33-13 45 0 45 6 0 10-5 10-11s16 3 35 19c19 17 50 34 70 38l35 6v89c0 82 2 89 20 89 16 0 20 7 20 35 0 24 5 35 15 35s15-11 15-35zM633 823c-13-2-33-2-45 0-13 2-3 4 22 4s35-2 23-4zm525-33c26-33 26-69 0-81-10-5-26-13-35-18-10-4-18-17-18-27 0-24 42-32 51-10 8 20 24 21 24 1 0-8-9-20-20-27s-20-18-20-25-4-13-10-13c-5 0-10 6-10 13s-9 18-20 25c-37 23-13 92 32 92 27 0 35 30 12 47-17 12-21 12-36-7-18-22-28-26-28-9 0 11 41 68 50 68 3 0 15-13 28-29zm-480-7c-21-2-55-2-75 0-21 2-4 4 37 4s58-2 38-4zm0-40c-21-2-55-2-75 0-21 2-4 4 37 4s58-2 38-4zm0-160c-21-2-55-2-75 0-21 2-4 4 37 4s58-2 38-4zm-35-40c-13-2-35-2-50 0-16 2-5 4 22 4 28 0 40-2 28-4zm15-40c-15-2-42-2-60 0s-6 4 27 4 48-2 33-4zm752-29c0-17-22-14-28 4-2 7 3 12 12 12s16-7 16-16zm-146-49c3-9 0-15-9-15-8 0-15 7-15 15s4 15 9 15 11-7 15-15zm126-16c0-5-7-9-15-9-15 0-20 12-9 23 8 8 24-1 24-14zm-542-21c-3-9-25-13-63-13s-60 4-62 13c-4 9 13 12 62 12s66-3 63-12zm477 2c3-5-3-10-15-10s-18 5-15 10c3 6 10 10 15 10s12-4 15-10z" fill="#91daf4"/><path d="M0 930V0h1920v1860H0V930zm800 474c0-14-21-19-33-7-9 9 13 34 24 27 5-3 9-12 9-20zm370-76c-21-20-22-20-7-2 16 19 16 23 2 34-8 7-15 17-15 23s10 1 22-11l22-22-24-22zm74 34c15-18 15-20-6-38-23-19-23-19-6 2 17 19 17 21 1 37-10 9-15 17-12 17s13-8 23-18zm60 0c15-18 15-20-6-38-23-19-23-19-6 2 17 19 17 21 1 37-10 9-15 17-12 17s13-8 23-18zm67-31c-7-11-17-21-23-21s-3 9 7 20c15 17 16 22 4 37-12 17-12 17 5 2 15-14 16-21 7-38zm63 31c15-18 15-20-6-38-23-19-23-19-6 2 17 19 17 21 1 37-10 9-15 17-12 17s13-8 23-18zm-564-50c0-4-5-13-12-20-9-9-9-15 0-24 7-7 12-19 12-27 0-11-8-8-27 11-26 27-26 28-8 48 19 20 35 26 35 12zm70-1c0-5-7-14-15-21-14-12-14-15 1-31 27-30 6-36-23-6l-27 26 25 20c26 22 39 26 39 12zm60 2c0-3-7-14-15-23-14-15-14-18 0-30 8-7 15-16 15-21 0-16-15-9-33 17-18 24-18 26-1 45s34 25 34 12zm70 1c0-4-8-13-17-19-17-13-17-14 0-33 24-26 3-41-24-16-23 21-24 32-2 56 15 17 43 25 43 12zm60-3c0-5-7-14-15-21-14-12-14-15 1-31 26-29 8-36-21-9l-25 24 22 23c22 24 38 30 38 14zm102-113c-6-6-15-8-19-4s-1 11 7 16c19 12 27 3 12-12zm112 16c17-7 22-34 6-34-5 0-14 9-20 20-12 22-10 23 14 14zm-64-29c0-27-6-30-29-16-12 8-12 12-2 25 19 23 31 20 31-9zm40 10c6-8 9-19 5-25-10-16 17-12 37 6 17 16 19 15 33-19 19-46 19-47-5-47-12 0-24 10-30 23l-9 22v-22c-1-19-7-23-31-23-23 0-30 4-30 20 0 11 5 20 12 20 9 0 9 3 0 12-14 14-16 48-3 48 5 0 14-7 21-15zm-105-43c-1-9 0-11 2-4 9 25 63 9 63-19 0-17-7-19-57-16-55 2-58 3-55 27 5 36 22 53 37 40 7-6 12-18 10-28zm-548 1c-4-3-7 0-7 7s3 10 7 7c3-4 3-10 0-14zm53-28c0-25-4-45-10-45-5 0-10 20-10 45s5 45 10 45c6 0 10-20 10-45zm40 15c0-16-4-30-10-30-5 0-10 14-10 30 0 17 5 30 10 30 6 0 10-13 10-30zm40 15c0-8-4-15-10-15-5 0-10 7-10 15s5 15 10 15c6 0 10-7 10-15zm40-15c0-16-4-30-10-30-5 0-10 14-10 30 0 17 5 30 10 30 6 0 10-13 10-30zm40-5c0-19-4-35-10-35-5 0-10 16-10 35s5 35 10 35c6 0 10-16 10-35zm40-25c0-33-4-60-10-60s-10 27-10 60 4 60 10 60 10-27 10-60zm40 25c0-19-4-35-10-35-5 0-10 16-10 35s5 35 10 35c6 0 10-16 10-35zm40 10c0-14-4-25-10-25-5 0-10 11-10 25s5 25 10 25c6 0 10-11 10-25zm-377-65c4-15-1-22-18-26-30-7-45 2-45 27 0 28 56 27 63-1zm657 0c0-12-7-20-17-21-17-1-17-2 0-6 10-3 17-14 17-30 0-28-18-27-34 3-6 10-14 21-17 24s-9 12-13 20c-3 8-4 5-2-7 2-13 0-26-5-29-15-9-39 16-39 41 0 20 5 22 55 24 49 1 55-1 55-19zm71-2l2-23 4 23c3 15 11 22 29 22 28 0 29-2 9-40-16-30-29-37-40-21-3 5-19 12-35 16-42 9-42 45 0 45 24 0 30-4 31-22zm-26-38c7-12-12-40-26-40-5 0-9 11-9 25 0 25 23 35 35 15zm-87-30c7-11 9-20 4-20-10 0-32 22-32 32 0 15 15 8 28-12zm122 11c0-13-29-35-37-28-7 8 15 37 28 37 5 0 9-4 9-9zm-760-56c0-8-7-15-15-15s-15 7-15 15 7 15 15 15 15-7 15-15zm60-20c0-24-5-35-15-35s-15 11-15 35 5 35 15 35 15-11 15-35zm50-20c0-42-3-55-15-55s-15 13-15 55 3 55 15 55 15-13 15-55zm60 20c0-24-5-35-15-35s-15 11-15 35 5 35 15 35 15-11 15-35zm54 20c-4-8-12-15-20-15s-14 7-14 15 9 15 20 15c13 0 18-5 14-15zm56-20c0-19 5-35 10-35 6 0 10-11 10-24 0-35 10-56 26-56 10 0 14 12 14 40 0 22 5 40 10 40 6 0 10-33 10-80 0-44 4-80 9-80 4 0 11-24 14-52 8-61 30-96 78-120 71-37 156-12 196 58 26 45 29 81 9 128-39 94-166 119-240 47l-32-31-2 65-3 65h131v35c0 19 4 35 8 35s23-16 42-35l34-35h246V504l-94 4c-90 4-95 3-107-19l-12-23-8 22c-8 21-12 22-170 22-141 0-164-2-187-19-46-32-87-35-136-11-43 20-78 72-61 88 4 4 10 0 13-8s18-27 33-42c22-22 37-28 73-28 24 0 48 5 51 10 3 6-3 10-14 10-20 0-21 6-21 95v95h-29c-15 0-41-10-56-22-26-20-26-22-9-28 16-6 15-9-14-24-32-17-32-16-42 9-13 33-13 45 0 45 6 0 10-5 10-11s16 3 35 19c19 17 50 34 70 38l35 6v89c0 82 2 89 20 89 16 0 20 7 20 35 0 24 5 35 15 35s15-11 15-35zM633 823c-13-2-33-2-45 0-13 2-3 4 22 4s35-2 23-4zm525-33c26-33 26-69 0-81-10-5-26-13-35-18-10-4-18-17-18-27 0-24 42-32 51-10 8 20 24 21 24 1 0-8-9-20-20-27s-20-18-20-25-4-13-10-13c-5 0-10 6-10 13s-9 18-20 25c-37 23-13 92 32 92 27 0 35 30 12 47-17 12-21 12-36-7-18-22-28-26-28-9 0 11 41 68 50 68 3 0 15-13 28-29zm-480-7c-21-2-55-2-75 0-21 2-4 4 37 4s58-2 38-4zm0-40c-21-2-55-2-75 0-21 2-4 4 37 4s58-2 38-4zm0-160c-21-2-55-2-75 0-21 2-4 4 37 4s58-2 38-4zm-35-40c-13-2-35-2-50 0-16 2-5 4 22 4 28 0 40-2 28-4zm15-40c-15-2-42-2-60 0s-6 4 27 4 48-2 33-4zm752-29c0-17-22-14-28 4-2 7 3 12 12 12s16-7 16-16zm-146-49c3-9 0-15-9-15-8 0-15 7-15 15s4 15 9 15 11-7 15-15zm126-16c0-5-7-9-15-9-15 0-20 12-9 23 8 8 24-1 24-14zm-542-21c-3-9-25-13-63-13s-60 4-62 13c-4 9 13 12 62 12s66-3 63-12zm477 2c3-5-3-10-15-10s-18 5-15 10c3 6 10 10 15 10s12-4 15-10z" fill="#cbd1d8"/><path d="M0 930V0h1920v1860H0V930zm808 477c4-20-25-34-40-19s-1 44 19 40c10-2 19-11 21-21zm375-79c-9-10-21-18-26-18-6 0-3 8 7 19 15 16 15 19 1 31-8 7-15 17-15 23s11 0 25-13c23-22 24-25 8-42zm62 2c-10-11-23-20-28-20-6 0-2 9 8 20 14 16 16 23 7 32-7 7-12 17-12 22 0 6 10 1 22-11 21-22 21-23 3-43zm70 8c-4-9-13-19-21-22-11-4-12-2-2 14 10 15 10 22 0 32-6 6-12 17-12 22 0 6 9 1 20-10 12-12 18-27 15-36zm53-15c-25-27-39-22-14 6 15 16 15 19 1 31-8 7-15 17-15 23s11 0 25-13l25-24-22-23zm67 47c17-19 17-21 0-40-10-11-23-20-28-20-6 0-2 9 8 20 17 19 17 21 0 40-10 11-14 20-8 20 5 0 18-9 28-20zm-565-58c0-4-5-13-12-20-9-9-9-15 0-24 7-7 12-19 12-27 0-11-8-8-27 11-26 27-26 28-8 48 19 20 35 26 35 12zm70-1c0-5-7-14-15-21-14-12-14-15 1-31 27-30 6-36-23-6l-27 26 25 20c26 22 39 26 39 12zm60 2c0-3-7-14-15-23-14-15-14-18 0-30 8-7 15-16 15-21 0-16-15-9-33 17-18 24-18 26-1 45s34 25 34 12zm70 1c0-4-8-13-17-19-17-13-17-14 0-33 24-26 3-41-24-16-23 21-24 32-2 56 15 17 43 25 43 12zm60-3c0-5-7-14-15-21-14-12-14-15 1-31 26-29 8-36-21-9l-25 24 22 23c22 24 38 30 38 14zm102-113c-6-6-15-8-19-4s-1 11 7 16c19 12 27 3 12-12zm112 16c17-7 22-34 6-34-5 0-14 9-20 20-12 22-10 23 14 14zm-64-29c0-27-6-30-29-16-12 8-12 12-2 25 19 23 31 20 31-9zm40 10c6-8 9-19 5-25-10-16 17-12 37 6 17 16 19 15 33-19 19-46 19-47-5-47-12 0-24 10-30 23l-9 22v-22c-1-19-7-23-31-23-23 0-30 4-30 20 0 11 5 20 12 20 9 0 9 3 0 12-14 14-16 48-3 48 5 0 14-7 21-15zm-105-43c-1-9 0-11 2-4 9 25 63 9 63-19 0-17-7-19-57-16-55 2-58 3-55 27 5 36 22 53 37 40 7-6 12-18 10-28zm-495-28c0-24-4-44-10-44-5 0-10 23-10 51 0 31 4 48 10 44 6-3 10-26 10-51zm-40 26c0-11-4-20-10-20-5 0-10 9-10 20s5 20 10 20c6 0 10-9 10-20zm80-10c0-16-4-30-10-30-5 0-10 14-10 30 0 17 5 30 10 30 6 0 10-13 10-30zm40 15c0-8-4-15-10-15-5 0-10 7-10 15s5 15 10 15c6 0 10-7 10-15zm40-15c0-16-4-30-10-30-5 0-10 14-10 30 0 17 5 30 10 30 6 0 10-13 10-30zm40-5c0-19-4-35-10-35-5 0-10 16-10 35s5 35 10 35c6 0 10-16 10-35zm40-25c0-33-4-60-10-60s-10 27-10 60 4 60 10 60 10-27 10-60zm40 25c0-19-4-35-10-35-5 0-10 16-10 35s5 35 10 35c6 0 10-16 10-35zm40 10c0-14-4-25-10-25-5 0-10 11-10 25s5 25 10 25c6 0 10-11 10-25zm-374-67c-5-33-60-33-64 0-3 19 1 22 32 22 32 0 35-3 32-22zm654 2c0-12-7-20-17-21-17-1-17-2 0-6 10-3 17-14 17-30 0-28-18-27-34 3-6 10-14 21-17 24s-9 12-13 20c-3 8-4 5-2-7 2-13 0-26-5-29-15-9-39 16-39 41 0 20 5 22 55 24 49 1 55-1 55-19zm71-2l2-23 4 23c3 15 11 22 29 22 28 0 29-2 9-40-16-30-29-37-40-21-3 5-19 12-35 16-42 9-42 45 0 45 24 0 30-4 31-22zm-26-38c7-12-12-40-26-40-5 0-9 11-9 25 0 25 23 35 35 15zm-87-30c7-11 9-20 4-20-10 0-32 22-32 32 0 15 15 8 28-12zm122 11c0-13-29-35-37-28-7 8 15 37 28 37 5 0 9-4 9-9zm-480-73c0-21 5-38 10-38 6 0 10-11 10-24 0-35 10-56 26-56 10 0 14 12 14 40 0 22 5 40 10 40 6 0 10-33 10-80 0-44 4-80 9-80 4 0 11-24 14-52 8-61 30-96 78-120 71-37 156-12 196 58 26 45 29 81 9 128-39 94-166 119-240 47l-32-31-2 65-3 65h131v35c0 19 4 35 8 35s23-16 42-35l34-35h246V499l-22 3c-19 2-22-1-20-21 3-16-1-22-10-19-7 3-13 13-13 24 0 16-9 19-63 22-57 3-64 1-69-18-7-26-19-26-26 0-5 19-14 20-167 20-146 0-164-2-187-20-38-30-83-35-129-14-21 10-70 21-109 24l-70 6 62 2c51 2 61 5 57 17-4 11-23 16-63 17l-56 2 50 3c27 3 53 10 58 16 7 9 10 9 14 0 2-7 12-13 21-13 13 0 14-2 4-9-11-6-7-13 14-30 28-22 107-30 119-11 3 6-3 10-14 10-20 0-21 6-21 95v95h-29c-33 0-100-49-68-50 27 0 20-17-13-28-25-9-31-8-40 8-13 24-13 50 0 50 6 0 10-5 10-12 0-6 12 0 28 14 34 32 65 48 91 48 20 0 21 6 21 90 0 83 1 90 20 90 17 0 20 7 20 38 0 28 4 39 15 39s15-11 15-39zm-280 17c0-8-7-15-15-15s-15 7-15 15 7 15 15 15 15-7 15-15zm60-20c0-28-4-35-20-35s-20 7-20 35 4 35 20 35 20-7 20-35zm60-20c0-48-2-55-20-55s-20 7-20 55 2 55 20 55 20-7 20-55zm50 20c0-27-4-35-17-35-14 0-18 8-18 35s4 35 18 35c13 0 17-8 17-35zm60 20c0-8-9-15-20-15s-20 7-20 15 9 15 20 15 20-7 20-15zM633 823c-13-2-33-2-45 0-13 2-3 4 22 4s35-2 23-4zm525-33c32-41 26-71-21-93-26-12-37-23-35-35 4-22 39-28 50-8 5 9 13 16 18 16 18 0 10-30-10-42-11-7-20-18-20-25s-4-13-10-13c-5 0-10 6-10 13s-9 18-20 25c-38 23-16 92 30 92 19 0 34 25 24 41-9 15-44 10-50-6-8-19-24-20-24-2 0 13 40 66 50 66 3 0 15-13 28-29zm-470-7c-21-2-57-2-80 0-24 2-7 4 37 4s63-2 43-4zm0-40c-21-2-57-2-80 0-24 2-7 4 37 4s63-2 43-4zm0-160c-21-2-57-2-80 0-24 2-7 4 37 4s63-2 43-4zm576-158c3-9 0-15-9-15-8 0-15 7-15 15s4 15 9 15 11-7 15-15zm126-10c0-8-7-15-15-15-16 0-20 12-8 23 11 12 23 8 23-8zm-540-30c0-12-14-15-65-15s-65 3-65 15 14 15 65 15 65-3 65-15zm473 9c11-11-3-24-18-18-8 4-12 10-9 15 6 11 18 12 27 3z" fill="#dce3ea"/><g fill="#f1dfe4"><path d="M0 930V0h1920v1860H0V930zm1086 470c0-36-4-71-9-77-5-7-6-13-1-13s2-5-6-10-10-10-4-10 19 9 29 20 22 20 27 20c14 0 9-27-7-40-14-12-14-15 1-31 22-24 10-38-13-16-10 8-22 17-28 19-5 2-9 6-8 9s-5 6-14 6c-12 0-9-6 9-22 26-22 26-24 26-179 1-154 1-156-21-156s-22 1-19 147c3 97 8 151 15 155 8 5 7 8-4 8-8 0-26 11-38 24l-23 25 27 24c16 13 25 29 22 34-5 8-92 11-264 10l-258-2V430l90-1c90-1 129-1 328 0l108 1-3 38-3 37-71 3c-63 2-76 0-109-23-45-30-87-32-135-6-24 12-56 19-98 19-79 0-86 16-9 20 73 4 66 22-9 22s-68 17 9 22c81 5 99 0 92-23-4-13 2-22 24-33 37-20 101-22 83-4-8 8-12 46-12 105v93h-29c-18 0-41-10-58-25-15-14-22-24-14-23 25 5 22-18-4-30-34-16-32-16-50 17-11 23-12 32-3 37 6 4 14 2 16-4 2-7 16 0 34 18 18 19 44 32 69 36l39 7v88c0 78 2 89 18 89 13 0 17 8 17 37 0 32 4 39 24 41 22 3 23 1 19-37-2-28 0-41 9-41 7 0 10-7 7-15-10-25 5-65 24-64 10 0 12 3 5 6-7 2-13 20-13 38 0 19-5 37-11 41-8 4-7 9 2 15 10 6 11 9 2 9-7 0-13 9-13 20s2 20 4 20 11 3 20 6c13 5 15-2 12-39-2-35 0-44 11-40 8 3 13 21 13 43 0 32 3 37 19 33 21-5 26-51 7-68-8-7-9-24-5-50l7-40-2 43-2 42h136v35c0 19 4 35 8 35s23-16 42-35l34-35h246V499l-22 3c-19 2-22-1-20-19 2-16-2-23-13-23s-15 7-13 23c3 20-1 22-54 25-49 3-59 0-70-18-16-25-24-25-31 0-5 19-12 21-74 18l-68-3 2-77 1-78H485l2 557c2 307 3 559 3 561 0 1 134 1 298 0l297-3 1-65zm95-31l21-21-26-26c-19-19-26-22-26-11 0 8 6 21 13 28 10 10 9 15-5 25-10 7-18 16-18 20 0 13 21 5 41-15zm67-2l22-23-25-24c-29-27-47-20-21 9 15 16 15 19 1 31-16 13-20 30-7 30 5 0 18-10 30-23zm60 0l22-23-25-24c-29-27-47-20-21 9 15 16 15 19 1 31-16 13-20 30-7 30 5 0 18-10 30-23zm67 3c18-20 18-21-8-48-19-19-27-22-27-11 0 8 5 20 12 27 9 9 7 16-7 32-15 16-15 20-3 20 8 0 23-9 33-20zm63-3l22-23-25-24c-29-27-47-20-21 9 15 16 15 19 1 31-16 13-20 30-7 30 5 0 18-10 30-23zm-498-49c0-6-7-20-16-30-16-16-16-18 0-24 19-7 22-34 4-34-7 0-21 12-31 25-17 23-16 25 5 48 26 28 38 33 38 15zm63 6c3-4-1-17-10-31-15-22-14-25 2-37 12-8 14-15 7-20-6-3-22 5-36 19l-26 26 23 24c24 25 30 29 40 19zm-130-11c4-3 0-14-9-24-10-11-12-19-5-24 6-3 11-13 11-21 0-11-7-9-30 8l-30 22 22 23c23 24 30 27 41 16zm-194-18c41-21 56-76 29-103-9-9-9-12 0-12 8 0 12-18 12-51 0-61-22-64-31-3-3 21-7 31-8 22-1-19-21-26-21-8 0 6-8 10-19 10-10 0-30 9-45 21-20 16-26 29-26 60 0 34 5 42 33 59 38 24 40 24 76 5zm561-90c-7-8-8-15-2-15 5 0 12 6 15 14 9 23 47 14 73-17 13-16 24-25 24-20s-9 19-21 32c-12 12-19 24-17 27 10 9 57-23 76-53 36-54 31-63-38-63-53 0-60 2-60 20 0 11 6 20 13 20 8 0 7 3-3 9-20 14-28 5-22-24 4-24 3-25-52-25-41 0-58 4-62 15-7 18 23 68 36 60 6-3 8 0 5 7s5 18 17 24c29 13 35 9 18-11zm-480-61c0-23-4-34-12-32-13 5-19 33-11 54 10 26 23 14 23-22zm40 16c0-19-11-26-23-14-8 8 3 34 14 34 5 0 9-9 9-20zm40-15c0-34-12-46-25-24-9 14 3 59 15 59 6 0 10-16 10-35zm40-11c0-19-4-34-10-34-13 0-24 45-16 66 10 25 26 6 26-32zm42-15c3-60-2-76-22-64-11 7-14 108-3 118 16 16 21 3 25-54zm36 19c-3-50-22-54-24-6-1 37 3 48 17 48 6 0 9-19 7-42zm42 12c0-16-4-30-9-30-12 0-24 37-16 50 12 20 25 10 25-20zm-372-72c-2-18-11-24-35-26-30-3-33-1-33 22s4 26 36 26c31 0 35-3 32-22zm782 12c0-20-20-60-30-60-6 0-22-12-35-27-13-16-27-25-31-20-4 4 2 17 14 30 24 26 28 37 11 37-5 0-8-4-5-9 3-4-6-19-19-31-14-13-25-18-25-12 0 9-6 9-25 0-23-10-29-7-65 29-64 63-53 72 91 72 65 0 119-4 119-9zM608 968c-2-15-10-23-23-23s-21 8-23 23c-3 18 1 22 23 22s26-4 23-22zm52-23c0-38-3-45-20-45s-20 7-20 45 3 45 20 45 20-7 20-45zm60-21c0-62-1-65-22-62s-23 8-21 58c1 30 2 58 2 63 1 4 10 7 21 7 18 0 20-7 20-66zm55 21c0-34-3-40-22-43-21-3-23 1-23 43s2 46 23 43c19-3 22-9 22-43zm55 20c0-18-5-25-20-25s-20 7-20 25 5 25 20 25 20-7 20-25zM658 828c-2-6-23-11-46-10-55 1-54 0-47 12 9 14 98 13 93-2zm62-38c0-6-34-10-81-10-51 0-78 4-74 10 3 6 40 10 81 10 43 0 74-4 74-10zm0-39c0-10-150-20-156-10-8 14 13 19 83 19 40 0 73-4 73-9zm0-161c0-6-34-10-81-10-51 0-78 4-74 10 3 6 40 10 81 10 43 0 74-4 74-10zm545-160c11-17-5-32-21-19-7 6-11 15-8 20 7 12 21 11 29-1zm125-14c0-8-4-17-9-21-12-7-24 12-16 25 9 15 25 12 25-4zm-60-32c0-9-7-14-17-12-25 5-28 28-4 28 12 0 21-6 21-16z"/><path d="M1090 850c-19-5-47-22-62-39s-32-31-37-31-14-7-21-15c-9-10-9-15-1-15 6 0 11 5 11 11 0 5 4 8 10 4s6-15-1-31c-6-17-6-39 1-64 28-105 164-144 237-67 46 48 55 72 47 122-13 90-94 145-184 125zm66-57c35-38 29-73-16-95-19-10-35-22-34-28 3-26 5-30 18-30 7 0 19 7 26 15s16 15 21 15c17 0 9-30-11-42-11-7-20-18-20-25 0-19-8-16-35 15-13 15-25 40-25 55 0 22 7 31 33 42 40 17 47 23 40 41-7 19-42 18-49-1-8-20-24-19-24 1 0 14 34 58 48 63 2 1 14-11 28-26zm-196 37c0-7 3-10 7-7 3 4 3 10 0 14-4 3-7 0-7-7zm20-26c0-8 5-12 10-9 6 4 8 11 5 16-9 14-15 11-15-7zm-20-14c0-7 3-10 7-7 3 4 3 10 0 14-4 3-7 0-7-7zM758 403c18-2 45-2 60 0s0 4-33 4-45-2-27-4zm522 787c0-7 3-10 7-7 3 4 3 10 0 14-4 3-7 0-7-7zm-69-46c0-11 3-14 6-6 3 7 2 16-1 19-3 4-6-2-5-13zm139-4c0-7 3-10 7-7 3 4 3 10 0 14-4 3-7 0-7-7zm0-70c0-7 3-10 7-7 3 4 3 10 0 14-4 3-7 0-7-7zm-85-11c-16-6-17-8-3-8 9-1 19-9 21-18 4-16 5-16 6-1 0 9 9 18 19 20 15 3 14 5-3 9-11 3-29 2-40-2zm-45-20c0-5 5-7 10-4 6 3 10 8 10 11 0 2-4 4-10 4-5 0-10-5-10-11z"/></g><g fill="#fefefe"><path d="M0 930V0h1920v1860H0V930zm1085 453c0-74 2-80 16-67 8 8 19 14 22 14 13 0 7-28-8-40-14-12-14-15 1-31 22-24 10-38-13-16-17 15-18 7-18-159 0-159 2-174 18-174 13 0 17 8 17 35 0 19 4 35 8 35s23-16 42-35l34-35h246V499l-22 3c-19 2-22-1-20-19 2-16-2-23-13-23s-15 7-13 23c3 20-1 22-54 25-49 3-59 0-70-18-16-25-24-25-31 0-5 19-12 21-74 18l-68-3 1-77 2-78H485l2 557c2 307 3 559 3 561 0 1 134 1 298 0l297-3v-82zm99-14c18-21 17-22-8-47-30-30-48-22-20 9 18 20 18 22 1 34-20 15-22 25-4 25 7 0 21-10 31-21zm64-2l22-23-25-24c-29-27-47-20-21 9 15 16 15 19 1 31-16 13-20 30-7 30 5 0 18-10 30-23zm60 0l22-23-25-24c-29-27-47-20-21 9 15 16 15 19 1 31-16 13-20 30-7 30 5 0 18-10 30-23zm64 6c24-22 22-34-7-56-19-13-25-15-25-4 0 7 5 18 12 25 9 9 7 16-7 32-23 25-1 28 27 3zm66-6l22-23-25-24c-29-27-47-20-21 9 15 16 15 19 1 31-16 13-20 30-7 30 5 0 18-10 30-23zm-198-162c-7-8-8-15-2-15 5 0 12 6 15 14 9 23 47 14 73-17 13-16 24-25 24-20s-9 19-21 32c-12 12-19 24-17 27 10 9 57-23 76-53 36-54 31-63-38-63-53 0-60 2-60 20 0 11 6 20 13 20 8 0 7 3-3 9-20 14-28 5-22-24 4-24 3-25-52-25-41 0-58 4-62 15-7 18 23 68 36 60 6-3 8 0 5 7s5 18 17 24c29 13 35 9 18-11zm170-115c0-20-20-60-30-60-6 0-22-12-35-27-13-16-27-25-31-20-4 4 2 17 14 30 24 26 28 37 11 37-5 0-8-4-5-9 3-4-6-19-19-31-14-13-25-18-25-12 0 9-6 9-25 0-23-10-29-7-65 29-64 63-53 72 91 72 65 0 119-4 119-9zm-145-660c11-17-5-32-21-19-7 6-11 15-8 20 7 12 21 11 29-1zm125-14c0-8-4-17-9-21-12-7-24 12-16 25 9 15 25 12 25-4zm-60-32c0-9-7-14-17-12-25 5-28 28-4 28 12 0 21-6 21-16z"/><path d="M528 1343c0-5-1-212-2-460l-1-453 88-1c110-1 188-1 327 0l109 1-2 38-2 37-71 3c-63 2-76 0-109-23-45-30-87-32-135-6-24 12-56 19-98 19-78 0-81 15-5 23 72 7 62 15-22 18-67 2-54 19 18 23 81 5 99 0 92-23-4-13 2-22 24-33 37-20 101-22 83-4-8 8-12 46-12 105v93h-27c-16 0-41-11-58-25-16-14-24-24-16-23 25 5 22-18-4-30-34-16-32-16-50 17-11 23-12 32-3 37 6 4 14 2 16-4 2-7 16 0 34 18 18 19 44 32 69 36l39 7v88c0 72 3 89 15 89 11 0 15 11 15 40 0 36 3 40 25 40s25-4 27-42c1-41 1-41 5-8 4 32 17 49 36 50 4 0 7-18 7-40s5-40 10-40c6 0 10 18 10 39 0 32 3 39 18 37 12-2 18-14 20-39 3-31 7-37 25-37 22 0 23 3 26 156l3 156-27 28-28 29 28 24c16 13 25 28 22 34-8 12-516 18-519 6zm412-25c0-6-7-20-16-30-16-16-16-18 0-24 19-7 22-34 4-34-7 0-21 12-31 25-17 23-16 25 5 48 26 28 38 33 38 15zm63 6c3-4-1-17-10-31-15-22-14-25 2-37 12-8 14-15 7-20-6-3-22 5-36 19l-26 26 23 24c24 25 30 29 40 19zm-130-11c4-3 0-14-9-24-10-11-12-19-5-24 6-3 11-13 11-21 0-11-7-9-30 8l-30 22 22 23c23 24 30 27 41 16zm-170-35c20-23 23-88 5-89-10 0-10-2 0-6 7-3 12-24 12-55 0-61-22-62-30-2-5 36-6 37-14 14-7-20-9-22-13-7-2 9-13 17-22 17-10 0-30 9-45 21-20 16-26 29-26 58 0 73 85 105 133 49zm57-134c0-23-4-34-12-32-13 5-19 33-11 54 10 26 23 14 23-22zm40 16c0-19-11-26-23-14-8 8 3 34 14 34 5 0 9-9 9-20zm40-15c0-34-12-46-25-24-9 14 3 59 15 59 6 0 10-16 10-35zm40-11c0-19-4-34-10-34-13 0-24 45-16 66 10 25 26 6 26-32zm42-15c3-60-2-76-22-64-11 7-14 108-3 118 16 16 21 3 25-54zm36 19c-3-50-22-54-24-6-1 37 3 48 17 48 6 0 9-19 7-42zm42 12c0-16-4-30-9-30-12 0-24 37-16 50 12 20 25 10 25-20zm-372-72c-2-18-11-24-35-26-30-3-33-1-33 22s4 26 36 26c31 0 35-3 32-22zm-20-110c-2-15-10-23-23-23s-21 8-23 23c-3 18 1 22 23 22s26-4 23-22zm52 5c1-17 1-17 11 0 5 9 19 17 29 17 18 0 20-7 20-66 0-62-1-65-22-62-20 3-23 9-23 46 1 23-3 42-7 42s-8-11-8-25c0-18-5-25-20-25-17 0-20 7-20 45s3 45 20 45c12 0 20-7 20-17zm115-28c0-34-3-40-22-43-21-3-23 1-23 43s2 46 23 43c19-3 22-9 22-43zm55 20c0-18-5-25-20-25s-20 7-20 25 5 25 20 25 20-7 20-25zM658 828c-5-14-61-23-85-14-27 11-2 26 43 26 32 0 44-4 42-12zm62-38c0-6-34-10-81-10-51 0-78 4-74 10 3 6 40 10 81 10 43 0 74-4 74-10zm0-39c0-10-150-20-156-10-8 14 13 19 83 19 40 0 73-4 73-9zm0-160c0-14-14-16-90-13-39 2-68 8-64 13 7 12 154 12 154 0z"/><path d="M1092 850c-70-16-122-107-102-180 28-105 164-144 237-67 46 48 55 72 47 122-13 90-94 145-182 125zm64-57c35-38 29-73-16-95-19-10-35-22-34-28 3-26 5-30 18-30 7 0 19 7 26 15s16 15 21 15c17 0 9-30-11-42-11-7-20-18-20-25 0-19-8-16-35 15-13 15-25 40-25 55 0 22 7 31 33 42 40 17 47 23 40 41-7 19-42 18-49-1-8-20-24-19-24 1 0 14 34 58 48 63 2 1 14-11 28-26zM758 403c18-2 45-2 60 0s0 4-33 4-45-2-27-4zm522 787c0-7 3-10 7-7 3 4 3 10 0 14-4 3-7 0-7-7zm-69-46c0-11 3-14 6-6 3 7 2 16-1 19-3 4-6-2-5-13zm139-4c0-7 3-10 7-7 3 4 3 10 0 14-4 3-7 0-7-7zm0-70c0-7 3-10 7-7 3 4 3 10 0 14-4 3-7 0-7-7zm-85-11c-16-6-17-8-3-8 9-1 19-9 21-18 4-16 5-16 6-1 0 9 9 18 19 20 15 3 14 5-3 9-11 3-29 2-40-2zm-45-20c0-5 5-7 10-4 6 3 10 8 10 11 0 2-4 4-10 4-5 0-10-5-10-11z"/></g></svg>