<svg version="1.0" xmlns="http://www.w3.org/2000/svg" width="192" height="186" viewBox="0 0 1920 1860"><path d="M0 930V0h1920v1860H0V930z" fill="#040505"/><path d="M0 930V0h1920v1860H0V930zm987 53c-4-3-10-3-14 0-3 4 0 7 7 7s10-3 7-7zm-250-90c-4-3-7 0-7 7s3 10 7 7c3-4 3-10 0-14zm490 0c-4-3-7 0-7 7s3 10 7 7c3-4 3-10 0-14zm-360-45c-3-7-5-2-5 12s2 19 5 13c2-7 2-19 0-25zm109 12c0-11-4-20-8-20s-8 9-8 20 4 20 8 20 8-9 8-20zm97 0c-3-11-7-20-9-20s-4 9-4 20 4 20 9 20 7-9 4-20zm-336-47c-4-3-7 0-7 7s3 10 7 7c3-4 3-10 0-14zm490 0c-4-3-7 0-7 7s3 10 7 7c3-4 3-10 0-14zm-240-80c-4-3-10-3-14 0-3 4 0 7 7 7s10-3 7-7zM643 486l22 19-19-22c-19-23-19-23 0-45l19-23-22 19c-23 19-23 19-45 0l-23-19 19 23c19 22 19 22 0 45l-19 22 23-19c22-19 22-19 45 0zm360 0l22 19-19-22c-19-23-19-23 0-45l19-23-22 19c-23 19-23 19-45 0l-23-19 19 23c19 22 19 22 0 45l-19 22 23-19c22-19 22-19 45 0zm360 0l22 19-19-22c-19-23-19-23 0-45l19-23-22 19c-23 19-23 19-45 0l-23-19 19 23c19 22 19 22 0 45l-19 22 23-19c22-19 22-19 45 0z" fill="#041e28"/><g fill="#03272d"><path d="M0 930V0h1920v1860H0V930zm990 90c0-22-3-40-8-40-4 0-6 18-4 40s6 40 8 40 4-18 4-40zm17-47c-4-3-7 0-7 7s3 10 7 7c3-4 3-10 0-14zm123 7c0-5-9-10-20-10s-20 5-20 10c0 6 9 10 20 10s20-4 20-10zm-303-7c-4-3-10-3-14 0-3 4 0 7 7 7s10-3 7-7zm-90-80c-4-3-7 0-7 7s3 10 7 7c3-4 3-10 0-14zm490 0c-4-3-7 0-7 7s3 10 7 7c3-4 3-10 0-14zm-339-20c-10-2-18-9-18-15 0-5 7-8 15-4 8 3 15 1 15-4 0-6-9-10-20-10-13 0-20 7-20 20 0 14 6 20 23 19 16-1 18-2 5-6zm117-13c0-8-10-16-22-18-18-3-23 2-23 18s5 21 23 18c12-2 22-10 22-18zm69 6c-3-8 2-16 13-19 14-4 14-5-4-6-17-1-23 5-23 19 0 11 4 20 10 20 5 0 7-6 4-14zm-337-53c-4-3-7 0-7 7s3 10 7 7c3-4 3-10 0-14zm490 0c-4-3-7 0-7 7s3 10 7 7c3-4 3-10 0-14zm-341-76c4-3-4-4-16-2-30 6-40 16-12 12 12-2 24-6 28-10zm244 1c0-4-52-8-115-8-67 0-115 4-115 10 0 5 47 9 115 8 63-1 115-5 115-10zm-143-55c-3-10-5-4-5 12 0 17 2 24 5 18 2-7 2-21 0-30zM643 486l22 19-19-22c-19-23-19-23 0-45l19-23-22 19c-23 19-23 19-45 0l-23-19 19 23c19 22 19 22 0 45l-19 22 23-19c22-19 22-19 45 0zm360 0l22 19-19-22c-19-23-19-23 0-45l19-23-22 19c-23 19-23 19-45 0l-23-19 19 23c19 22 19 22 0 45l-19 22 23-19c22-19 22-19 45 0zm360 0l22 19-19-22c-19-23-19-23 0-45l19-23-22 19c-23 19-23 19-45 0l-23-19 19 23c19 22 19 22 0 45l-19 22 23-19c22-19 22-19 45 0z"/><path d="M970 860c0-5 5-10 10-10 6 0 10 5 10 10 0 6-4 10-10 10-5 0-10-4-10-10z"/></g><g fill="#2d2d2d"><path d="M0 930V0h1920v1860H0V930zm1058 60c37 0 74-5 82-10 10-6-45-9-160-9s-170 3-160 9c8 5 48 10 88 10h72l2 38 1 37 4-37 4-38h67zm-321-97c-4-3-7 0-7 7s3 10 7 7c3-4 3-10 0-14zm490 0c-4-3-7 0-7 7s3 10 7 7c3-4 3-10 0-14zm-322-33c0-8-10-16-22-18-18-3-23 2-23 18s5 21 23 18c12-2 22-10 22-18zm100 0c0-8-10-16-22-18-18-3-23 2-23 18s5 21 23 18c12-2 22-10 22-18zm100 0c0-8-10-16-22-18-18-3-23 2-23 18s5 21 23 18c12-2 22-10 22-18zm-368-47c-4-3-7 0-7 7s3 10 7 7c3-4 3-10 0-14zm490 0c-4-3-7 0-7 7s3 10 7 7c3-4 3-10 0-14zm-87-73c-8-5-45-10-82-10h-68l-2-37-1-38-4 38-4 37h-72c-40 0-79 5-87 10-10 6 43 10 160 10s170-4 160-10zM643 486l22 19-19-22c-19-23-19-23 0-45l19-23-22 19c-23 19-23 19-45 0l-23-19 19 23c19 22 19 22 0 45l-19 22 23-19c22-19 22-19 45 0zm360 0l22 19-19-22c-19-23-19-23 0-45l19-23-22 19c-23 19-23 19-45 0l-23-19 19 23c19 22 19 22 0 45l-19 22 23-19c22-19 22-19 45 0zm360 0l22 19-19-22c-19-23-19-23 0-45l19-23-22 19c-23 19-23 19-45 0l-23-19 19 23c19 22 19 22 0 45l-19 22 23-19c22-19 22-19 45 0z"/><path d="M870 860c0-5 5-10 10-10 6 0 10 5 10 10 0 6-4 10-10 10-5 0-10-4-10-10zm100 0c0-5 5-10 10-10 6 0 10 5 10 10 0 6-4 10-10 10-5 0-10-4-10-10zm100 0c0-5 5-10 10-10 6 0 10 5 10 10 0 6-4 10-10 10-5 0-10-4-10-10z"/></g><g fill="#073a4a"><path d="M0 930V0h1920v1860H0V930zm685-20h55v80h240l2 58 2 57 3-57 4-57 117-3 117-3 3-37 3-38h108l4 98 3 97v-105l-1-105-57-3c-57-3-58-4-58-32 0-30 0-30 60-30h60l-2-122-2-123-3 113-4 112h-108l-3-37-3-38-117-3-118-3-2-72-2-72-3 73-4 72H740v80H631l-4-112-3-113-2 123-2 122h120v60H620l2 108 2 107 3-97 4-98h54zm-42-424l22 19-19-22c-19-23-19-23 0-45l19-23-22 19c-23 19-23 19-45 0l-23-19 19 23c19 22 19 22 0 45l-19 22 23-19c22-19 22-19 45 0zm360 0l22 19-19-22c-19-23-19-23 0-45l19-23-22 19c-23 19-23 19-45 0l-23-19 19 23c19 22 19 22 0 45l-19 22 23-19c22-19 22-19 45 0zm360 0l22 19-19-22c-19-23-19-23 0-45l19-23-22 19c-23 19-23 19-45 0l-23-19 19 23c19 22 19 22 0 45l-19 22 23-19c22-19 22-19 45 0z"/><path d="M863 972l-113-3V750h470v219l-122 3c-68 2-174 2-235 0zm42-112c0-8-10-16-22-18-18-3-23 2-23 18s5 21 23 18c12-2 22-10 22-18zm100 0c0-8-10-16-22-18-18-3-23 2-23 18s5 21 23 18c12-2 22-10 22-18zm100 0c0-8-10-16-22-18-18-3-23 2-23 18s5 21 23 18c12-2 22-10 22-18z"/><path d="M870 860c0-5 5-10 10-10 6 0 10 5 10 10 0 6-4 10-10 10-5 0-10-4-10-10zm100 0c0-5 5-10 10-10 6 0 10 5 10 10 0 6-4 10-10 10-5 0-10-4-10-10zm100 0c0-5 5-10 10-10 6 0 10 5 10 10 0 6-4 10-10 10-5 0-10-4-10-10z"/></g><g fill="#065565"><path d="M0 930V0h1920v1860H0V930zm685-20h55v80h230l1 33c1 17 5 43 9 57 6 19 8 12 9-32l1-57 118-3 117-3 3-37 3-38h108l4 98 3 97v-105l-1-105-57-3c-57-3-58-4-58-32 0-30 0-30 60-30h60l-2-122-2-123-3 113-4 112h-108l-3-37-3-38-117-3-118-3-1-72-2-72-10 73-10 72H740v80H631l-4-112-3-113-2 123-2 122h120v60H620l2 108 2 107 3-97 4-98h54zm-80-426c15-15 17-15 35 1 24 21 27 13 4-9-14-15-14-17 0-32 23-22 20-30-4-9-18 16-20 16-35 1-23-23-32-20-10 4 17 19 17 21 0 40-22 24-13 27 10 4zm360 0c15-15 17-15 35 1 24 21 27 13 4-9-14-15-14-17 0-32 23-22 20-30-4-9-18 16-20 16-35 1-23-23-32-20-10 4 17 19 17 21 0 40-22 24-13 27 10 4zm360 0c15-15 17-15 35 1 24 21 27 13 4-9-14-15-14-17 0-32 23-22 20-30-4-9-18 16-20 16-35 1-23-23-32-20-10 4 17 19 17 21 0 40-22 24-13 27 10 4z"/><path d="M750 860V750h470v220H750V860zm154 15c7-20-3-45-19-45-7 0-18 7-25 15-10 12-10 18 0 30 7 8 18 15 25 15s15-7 19-15zm100 0c7-20-3-45-19-45-7 0-18 7-25 15-10 12-10 18 0 30 7 8 18 15 25 15s15-7 19-15zm100 0c7-20-3-45-19-45-7 0-18 7-25 15-10 12-10 18 0 30 7 8 18 15 25 15s15-7 19-15z"/><path d="M870 860c0-5 5-10 10-10 6 0 10 5 10 10 0 6-4 10-10 10-5 0-10-4-10-10zm100 0c0-5 5-10 10-10 6 0 10 5 10 10 0 6-4 10-10 10-5 0-10-4-10-10zm100 0c0-5 5-10 10-10 6 0 10 5 10 10 0 6-4 10-10 10-5 0-10-4-10-10z"/></g><g fill="#525252"><path d="M0 930V0h1920v1860H0V930zm685-20h55v80h230l1 33c1 17 5 43 9 57 6 19 8 12 9-32l1-57 118-3 117-3 3-37 3-38h108l4 98 3 97v-105l-1-105-57-3c-57-3-58-4-58-32 0-30 0-30 60-30h60l-2-122-2-123-3 113-4 112h-108l-3-37-3-38-117-3-118-3-1-72-2-72-10 73-10 72H740v80H631l-4-112-3-113-2 123-2 122h120v60H620l2 108 2 107 3-97 4-98h54zm-44-420c19 11 20 10 9-9-8-15-8-27 0-42 11-19 10-20-9-9-15 8-27 8-42 0-19-11-20-10-9 9 8 15 8 27 0 42-11 19-10 20 9 9 15-8 27-8 42 0zm360 0c19 11 20 10 9-9-8-15-8-27 0-42 11-19 10-20-9-9-15 8-27 8-42 0-19-11-20-10-9 9 8 15 8 27 0 42-11 19-10 20 9 9 15-8 27-8 42 0zm360 0c19 11 20 10 9-9-8-15-8-27 0-42 11-19 10-20-9-9-15 8-27 8-42 0-19-11-20-10-9 9 8 15 8 27 0 42-11 19-10 20 9 9 15-8 27-8 42 0z"/><path d="M750 860V750h470v220H750V860zm154 15c7-20-3-45-19-45-7 0-18 7-25 15-10 12-10 18 0 30 7 8 18 15 25 15s15-7 19-15zm100 0c7-20-3-45-19-45-7 0-18 7-25 15-10 12-10 18 0 30 7 8 18 15 25 15s15-7 19-15zm100 0c7-20-3-45-19-45-7 0-18 7-25 15-10 12-10 18 0 30 7 8 18 15 25 15s15-7 19-15z"/><path d="M870 860c0-5 5-10 10-10 6 0 10 5 10 10 0 6-4 10-10 10-5 0-10-4-10-10zm100 0c0-5 5-10 10-10 6 0 10 5 10 10 0 6-4 10-10 10-5 0-10-4-10-10zm100 0c0-5 5-10 10-10 6 0 10 5 10 10 0 6-4 10-10 10-5 0-10-4-10-10z"/></g><g fill="#049cb7"><path d="M0 930V0h1920v1860H0V930zm630 75v-95h100v80h240v55c0 30 5 55 10 55 6 0 10-25 10-55v-55h240v-80h100v95c0 57 4 95 10 95s10-42 10-105V890h-120v-60h120V710c0-73-4-120-10-120s-10 43-10 110v110h-100v-80H990v-70c0-40-4-70-10-70s-10 30-10 70v70H730v80H630V700c0-67-4-110-10-110s-10 47-10 120v120h120v60H610v105c0 63 4 105 10 105s10-38 10-95zm-22-517c8-8 15-8 27 2 20 17 32 5 15-15-10-12-10-18 0-30 17-20 5-32-15-15-12 10-18 10-30 0-20-17-32-5-15 15 10 12 10 19 2 27-14 14-16 28-4 28 4 0 13-5 20-12zm360 0c8-8 15-8 27 2 20 17 32 5 15-15-10-12-10-18 0-30 17-20 5-32-15-15-12 10-18 10-30 0-20-17-32-5-15 15 10 12 10 19 2 27-14 14-16 28-4 28 4 0 13-5 20-12zm360 0c8-8 15-8 27 2 20 17 32 5 15-15-10-12-10-18 0-30 17-20 5-32-15-15-12 10-18 10-30 0-20-17-32-5-15 15 10 12 10 19 2 27-7 7-12 16-12 20 0 12 14 10 28-4z"/><path d="M750 860V750h460v220H750V860zm154 15c7-20-3-45-19-45-7 0-18 7-25 15-10 12-10 18 0 30 7 8 18 15 25 15s15-7 19-15zm100 0c7-20-3-45-19-45-7 0-18 7-25 15-10 12-10 18 0 30 7 8 18 15 25 15s15-7 19-15zm100 0c7-20-3-45-19-45-7 0-18 7-25 15-10 12-10 18 0 30 7 8 18 15 25 15s15-7 19-15z"/><path d="M870 860c0-5 5-10 10-10 6 0 10 5 10 10 0 6-4 10-10 10-5 0-10-4-10-10zm100 0c0-5 5-10 10-10 6 0 10 5 10 10 0 6-4 10-10 10-5 0-10-4-10-10zm100 0c0-5 5-10 10-10 6 0 10 5 10 10 0 6-4 10-10 10-5 0-10-4-10-10z"/></g><g fill="#05b3d2"><path d="M0 930V0h1920v1860H0V930zm630 75v-95h100v80h240v55c0 30 5 55 10 55 6 0 10-25 10-55v-55h240v-80h100v95c0 57 4 95 10 95s10-42 10-105V890h-120v-60h120V705c0-77-4-125-10-125s-10 45-10 115v115h-100v-80H990v-75c0-43-4-75-10-75s-10 32-10 75v75H730v80H630V695c0-70-4-115-10-115s-10 48-10 125v125h120v60H610v105c0 63 4 105 10 105s10-38 10-95zm81-462c13-16 12-17-3-4-10 7-18 15-18 17 0 8 8 3 21-13zm199 13c0-2-8-10-17-17-16-13-17-12-4 4s21 21 21 13zm161-13c13-16 12-17-3-4-10 7-18 15-18 17 0 8 8 3 21-13zm360 0c13-16 12-17-3-4-17 13-22 21-14 21 2 0 10-8 17-17zm-823-55c8-8 15-8 27 2 20 17 32 5 15-15-10-12-10-18 0-30 17-20 5-32-15-15-12 10-18 10-30 0-20-17-32-5-15 15 10 12 10 19 2 27-14 14-16 28-4 28 4 0 13-5 20-12zm360 0c8-8 15-8 27 2 20 17 32 5 15-15-10-12-10-18 0-30 17-20 5-32-15-15-12 10-18 10-30 0-20-17-32-5-15 15 10 12 10 19 2 27-14 14-16 28-4 28 4 0 13-5 20-12zm360 0c8-8 15-8 27 2 20 17 32 5 15-15-10-12-10-18 0-30 17-20 5-32-15-15-12 10-18 10-30 0-20-17-32-5-15 15 10 12 10 19 2 27-7 7-12 16-12 20 0 12 14 10 28-4zM720 386c0-2-8-10-17-17-16-13-17-12-4 4s21 21 21 13zm360 0c0-2-8-10-17-17-16-13-17-12-4 4s21 21 21 13zm360 0c0-2-8-10-17-17-16-13-17-12-4 4s21 21 21 13z"/><path d="M750 860V750h460v220H750V860zm154 15c8-23-4-45-25-45-22 0-34 22-25 45 3 8 14 15 25 15 10 0 21-7 25-15zm100 0c8-23-4-45-25-45-22 0-34 22-25 45 3 8 14 15 25 15 10 0 21-7 25-15zm100 0c8-23-4-45-25-45-22 0-34 22-25 45 3 8 14 15 25 15 10 0 21-7 25-15z"/><path d="M870 860c0-5 5-10 10-10 6 0 10 5 10 10 0 6-4 10-10 10-5 0-10-4-10-10zm100 0c0-5 5-10 10-10 6 0 10 5 10 10 0 6-4 10-10 10-5 0-10-4-10-10zm100 0c0-5 5-10 10-10 6 0 10 5 10 10 0 6-4 10-10 10-5 0-10-4-10-10z"/></g><g fill="#11c2eb"><path d="M0 930V0h1920v1860H0V930zm630 75v-95h100v80h240v55c0 30 5 55 10 55 6 0 10-25 10-55v-55h240v-80h100v95c0 57 4 95 10 95s10-42 10-105V890h-120v-60h120V705c0-77-4-125-10-125s-10 45-10 115v115h-100v-80H990v-75c0-43-4-75-10-75s-10 32-10 75v75H730v80H630V695c0-70-4-115-10-115s-10 48-10 125v125h120v60H610v105c0 63 4 105 10 105s10-38 10-95zm-33-432c-4-3-10-3-14 0-3 4 0 7 7 7s10-3 7-7zm109-27c19-19 34-40 34-47-1-8-8-1-16 14s-30 37-47 47c-18 11-26 20-18 20 7 0 28-15 47-34zm251 27c-4-3-10-3-14 0-3 4 0 7 7 7s10-3 7-7zm109-27c19-19 34-42 34-52 0-12-6-6-18 16-10 20-32 42-52 52-22 12-28 18-16 18 10 0 33-15 52-34zm251 27c-4-3-10-3-14 0-3 4 0 7 7 7s10-3 7-7zm60 0c-4-3-10-3-14 0-3 4 0 7 7 7s10-3 7-7zm53-28c13-14 22-26 19-28-2-1-16 10-31 25s-23 28-19 28 18-11 31-25zm-896-10c-9-14-18-25-21-25-5 0 5 18 20 38 17 22 18 13 1-13zm376 21c0-2-8-10-17-17-16-13-17-12-4 4s21 21 21 13zm360 0c0-2-8-10-17-17-16-13-17-12-4 4s21 21 21 13zm-763-73c-4-3-7 0-7 7s3 10 7 7c3-4 3-10 0-14zm101 5c8-8 15-8 27 2 20 17 32 5 15-15-10-12-10-18 0-30 17-20 5-32-15-15-12 10-18 10-30 0-20-17-32-5-15 15 10 12 10 19 2 27-14 14-16 28-4 28 4 0 13-5 20-12zm259-5c-4-3-7 0-7 7s3 10 7 7c3-4 3-10 0-14zm101 5c8-8 15-8 27 2 20 17 32 5 15-15-10-12-10-18 0-30 17-20 5-32-15-15-12 10-18 10-30 0-20-17-32-5-15 15 10 12 10 19 2 27-14 14-16 28-4 28 4 0 13-5 20-12zm259-5c-4-3-7 0-7 7s3 10 7 7c3-4 3-10 0-14zm101 5c8-8 15-8 27 2 20 17 32 5 15-15-10-12-10-18 0-30 17-20 5-32-15-15-12 10-18 10-30 0-20-17-32-5-15 15 10 12 10 19 2 27-7 7-12 16-12 20 0 12 14 10 28-4zm129-5c-4-3-7 0-7 7s3 10 7 7c3-4 3-10 0-14zm-950-55c-3-8-6-5-6 6-1 11 2 17 5 13 3-3 4-12 1-19zm230-5c-4-3-7 0-7 7s3 10 7 7c3-4 3-10 0-14zm130 0c-4-3-7 0-7 7s3 10 7 7c3-4 3-10 0-14zm233 3c0-16-47-76-60-76-5 0 5 13 21 29s29 37 29 45c0 9 2 16 5 16s5-6 5-14zm127-3c-4-3-7 0-7 7s3 10 7 7c3-4 3-10 0-14zm230 0c-4-3-7 0-7 7s3 10 7 7c3-4 3-10 0-14zm-747-48c-13-14-27-25-31-25s4 13 19 28 29 26 31 25c3-2-6-14-19-28zm712-6c-18-16-40-29-50-29-10 1-3 7 15 15 18 7 38 23 45 34s15 18 18 15-10-19-28-35zm-881 4c13-16 12-17-3-4-17 13-22 21-14 21 2 0 10-8 17-17zm360 0c13-16 12-17-3-4-10 7-18 15-18 17 0 8 8 3 21-13zm360 0c13-16 12-17-3-4-10 7-18 15-18 17 0 8 8 3 21-13zm-664-30c-4-3-10-3-14 0-3 4 0 7 7 7s10-3 7-7zm60 0c-4-3-10-3-14 0-3 4 0 7 7 7s10-3 7-7zm300 0c-4-3-10-3-14 0-3 4 0 7 7 7s10-3 7-7zm360 0c-4-3-10-3-14 0-3 4 0 7 7 7s10-3 7-7z"/><path d="M750 860V750h460v220H750V860zm154 15c8-23-4-45-25-45-22 0-34 22-25 45 3 8 14 15 25 15 10 0 21-7 25-15zm100 0c8-23-4-45-25-45-22 0-34 22-25 45 3 8 14 15 25 15 10 0 21-7 25-15zm100 0c8-23-4-45-25-45-22 0-34 22-25 45 3 8 14 15 25 15 10 0 21-7 25-15z"/><path d="M880 860c0-7 3-10 7-7 3 4 3 10 0 14-4 3-7 0-7-7zm100 0c0-7 3-10 7-7 3 4 3 10 0 14-4 3-7 0-7-7zm100 0c0-7 3-10 7-7 3 4 3 10 0 14-4 3-7 0-7-7z"/></g><g fill="#9ba3a4"><path d="M0 930V0h1920v1860H0V930zm482 458c-9-9-12-7-12 12s3 21 12 12 9-15 0-24zm93 11c0-16-51-23-60-8-10 16 2 25 32 23 17 0 28-6 28-15zm271-16c-11-11-19 6-11 24 8 17 8 17 12 0 3-10 2-21-1-24zm89 16c0-8-8-13-17-13-10 1-25 2-33 3-23 2-18 19 8 24 31 6 42 2 42-14zm275-5c0-8-4-14-10-14-5 0-10 9-10 21 0 11 5 17 10 14 6-3 10-13 10-21zm83 13c-2-4-3-11-3-15 0-10-46-10-56 0-3 4-3 11 0 17 7 11 62 10 59-2zm-663-402v-95h100v80h51c40 0 58 5 81 25 16 14 47 28 69 31 33 6 39 10 39 30 0 13 5 24 10 24 6 0 10-11 10-25 0-18 5-25 20-25 35 0 92-28 84-41-4-7-3-9 4-5 6 3 13 2 17-4 3-5 31-10 61-10h54v-80h100v95c0 57 4 95 10 95s10-42 10-105V890h-120v-60h120V580l-31-7c-36-7-86-54-92-86-4-22-4-22-6 0-1 28 60 93 88 93 20 0 21 4 21 115v115h-100v-80h-51c-40 0-58-5-81-25-16-14-47-28-69-31-38-6-39-7-39-50 0-38 3-44 21-44 26 0 89-62 88-86 0-15-2-15-6-4-14 37-47 70-77 78-47 13-82 4-116-30-25-25-30-38-30-78 0-41 5-53 30-79 17-16 40-32 53-34 22-4 22-4-2-6-15-1-35 11-57 35-29 31-34 42-34 86 0 45 4 54 36 84 19 19 44 34 55 34 16 0 19 7 19 44 0 42-1 44-34 49-19 3-52 17-73 31-27 19-51 26-85 26h-48v80H630V580l-31-7c-16-3-43-19-60-35-16-16-29-25-29-20 0 16 60 62 81 62 18 0 19 8 19 125v125h120v60H610v105c0 63 4 105 10 105s10-38 10-95zm76-459c19-19 34-42 34-52 0-12-6-6-18 16-10 20-32 42-52 52-22 12-28 18-16 18 10 0 33-15 52-34zm720 0c19-19 34-42 34-52 0-12-6-6-18 16-10 20-32 42-52 52-22 12-28 18-16 18 10 0 33-15 52-34zm-919-68c-3-8-6-5-6 6-1 11 2 17 5 13 3-3 4-12 1-19zm150-17c0-36-1-37-36-38-36-2-36-1-36 36 0 36 1 37 36 38 35 2 36 1 36-36zm359-1c0-34-1-35-36-35-34 0-35 1-35 35s1 35 35 35 36-1 36-35zm359 0c0-34-1-35-35-35s-35 1-35 35 1 35 35 35 35-1 35-35zm-276-32c-11-41-62-88-92-87-17 1-15 3 10 10 34 10 73 51 73 79 0 15 8 30 16 30 1 0-1-15-7-32zm128 0c-3-7-5-2-5 12s2 19 5 13c2-7 2-19 0-25zm-720 0c-3-8-6-5-6 6-1 11 2 17 5 13 3-3 4-12 1-19zm233-4c0-28-65-84-96-83-28 1-27 1 6 9 36 9 80 50 80 76 0 8 2 14 5 14s5-7 5-16zm720 0c0-25-65-84-91-83-20 1-19 2 8 10 33 9 73 51 73 75 0 8 2 14 5 14s5-7 5-16zm-867-77c22-4 22-4 0-6-22-1-83 43-83 61 0 5 14-4 30-21 17-16 40-32 53-34zm720 0c22-4 22-4 0-6-22-1-83 43-83 61 0 5 14-4 30-21 17-16 40-32 53-34z"/><path d="M750 860V750h34c35 0 35 0 20 28-18 36-18 125 1 162l16 30h-71V860zm405 90c14-16 16-32 13-92-3-40-8-81-12-90-7-15-3-18 23-18h31v220h-37c-35 0-36 0-18-20z"/></g><g fill="#2dc8e6"><path d="M0 930V0h1920v1860H0V930zm482 458c-9-9-12-7-12 12s3 21 12 12 9-15 0-24zm93 11c0-16-51-23-60-8-10 16 2 25 32 23 17 0 28-6 28-15zm271-16c-11-11-19 6-11 24 8 17 8 17 12 0 3-10 2-21-1-24zm89 16c0-8-8-13-17-13-10 1-25 2-33 3-23 2-18 19 8 24 31 6 42 2 42-14zm275-5c0-8-4-14-10-14-5 0-10 9-10 21 0 11 5 17 10 14 6-3 10-13 10-21zm83 13c-2-4-3-11-3-15 0-10-46-10-56 0-3 4-3 11 0 17 7 11 62 10 59-2zm-663-402v-95h100v80h51c40 0 58 5 81 25 16 14 47 28 69 31 33 6 39 10 39 30 0 13 5 24 10 24 6 0 10-11 10-25 0-18 5-25 20-25 35 0 92-28 84-41-4-7-3-9 4-5 6 3 13 2 17-4 3-5 31-10 61-10h54v-80h100v95c0 57 4 95 10 95s10-42 10-105V890h-120v-60h120V580l-31-7c-36-7-86-54-92-86-4-22-4-22-6 0-1 28 60 93 88 93 20 0 21 4 21 115v115h-100v-80h-51c-40 0-58-5-81-25-16-14-47-28-69-31-38-6-39-7-39-50 0-38 3-44 21-44 26 0 89-62 88-86 0-15-2-15-6-4-14 37-47 70-77 78-47 13-82 4-116-30-25-25-30-38-30-78 0-41 5-53 30-79 17-16 40-32 53-34 22-4 22-4-2-6-15-1-35 11-57 35-29 31-34 42-34 86 0 45 4 54 36 84 19 19 44 34 55 34 16 0 19 7 19 44 0 42-1 44-34 49-19 3-52 17-73 31-27 19-51 26-85 26h-48v80H630V580l-31-7c-16-3-43-19-60-35-16-16-29-25-29-20 0 16 60 62 81 62 18 0 19 8 19 125v125h120v60H610v105c0 63 4 105 10 105s10-38 10-95zm76-459c19-19 34-42 34-52 0-12-6-6-18 16-10 20-32 42-52 52-22 12-28 18-16 18 10 0 33-15 52-34zm720 0c19-19 34-42 34-52 0-12-6-6-18 16-10 20-32 42-52 52-22 12-28 18-16 18 10 0 33-15 52-34zm-919-68c-3-8-6-5-6 6-1 11 2 17 5 13 3-3 4-12 1-19zm156 9c-10-14-10-38-1-53 5-7-7-11-35-11-42-1-42-1-42 36s0 37 43 39c33 1 42-1 35-11zm358-1c-11-12-10-34 1-52 5-7-7-11-35-10-42 1-42 2-42 36s0 35 42 36c31 1 40-2 34-10zm356-8c-9-14-9-23 0-38 7-11 9-21 3-25-5-3-12 0-16 6-3 6-18 9-33 6-25-5-26-3-26 31 0 37 0 37 41 38 39 1 41-1 31-18zm-278-50c-11-41-62-88-92-87-17 1-15 3 10 10 34 10 73 51 73 79 0 15 8 30 16 30 1 0-1-15-7-32zm128 0c-3-7-5-2-5 12s2 19 5 13c2-7 2-19 0-25zm-720 0c-3-8-6-5-6 6-1 11 2 17 5 13 3-3 4-12 1-19zm233-4c0-28-65-84-96-83-28 1-27 1 6 9 36 9 80 50 80 76 0 8 2 14 5 14s5-7 5-16zm720 0c0-25-65-84-91-83-20 1-19 2 8 10 33 9 73 51 73 75 0 8 2 14 5 14s5-7 5-16zm-867-77c22-4 22-4 0-6-22-1-83 43-83 61 0 5 14-4 30-21 17-16 40-32 53-34zm720 0c22-4 22-4 0-6-22-1-83 43-83 61 0 5 14-4 30-21 17-16 40-32 53-34z"/><path d="M750 860V750h34c35 0 35 0 20 28-18 36-18 125 1 162l16 30h-71V860zm405 90c14-16 16-32 13-92-3-40-8-81-12-90-7-15-3-18 23-18h31v220h-37c-35 0-36 0-18-20z"/></g><g fill="#5cd3eb"><path d="M0 930V0h1920v1860H0V930zm490 469c0-24-23-21-28 4-2 10 3 17 12 17 10 0 16-9 16-21zm88-1c3-15-4-18-32-18-30 0-36 4-36 21s5 20 32 17c22-2 34-9 36-20zm272 2c0-21-15-27-25-10-7 12 2 30 16 30 5 0 9-9 9-20zm90 0c0-16-7-20-35-20s-35 4-35 20 7 20 35 20 35-4 35-20zm270 0c0-21-15-27-25-10-7 12 2 30 16 30 5 0 9-9 9-20zm90 0c0-16-7-20-35-20s-35 4-35 20 7 20 35 20 35-4 35-20zm-670-395v-95h100v80h51c40 0 58 5 81 25 16 13 47 29 68 35 29 8 40 16 40 30 0 11 5 20 10 20 6 0 10-9 10-20 0-14 11-22 40-30 21-6 52-22 68-35 23-20 41-25 81-25h51v-80h100v95c0 57 4 95 10 95s10-42 10-105V890h-120v-60h120V590l28-11c65-25 102-93 82-153-32-97-150-121-215-45-19 24-25 42-25 81 0 44 4 54 34 84 19 19 43 34 55 34 20 0 21 5 21 115v115h-100v-80h-51c-40 0-58-5-81-25-16-13-47-29-68-35-37-10-40-14-40-45 0-29 5-36 37-52 104-51 104-174 0-226-89-44-188 41-166 143 9 39 59 90 89 90 17 0 20 7 20 40 0 37-2 40-38 49-21 6-53 22-72 36-25 18-46 25-82 25h-48v80H630V590l33-14c70-29 101-101 70-163-25-50-63-76-112-76-72 0-124 53-123 125 1 50 25 86 75 111l37 19v238h120v60H610v105c0 63 4 105 10 105s10-38 10-95z"/><path d="M750 860V750h35c35 0 35 0 19 25-10 16-16 46-16 85s6 69 16 85c16 25 16 25-19 25h-35V860zm408 93c25-48 24-119-3-185-6-15-2-18 24-18h31v220h-30c-26 0-29-3-22-17zM541 535c-69-79-20-185 87-185 32 0 47 7 71 31 26 26 31 38 31 79s-5 53-31 79-38 31-79 31c-42 0-51-4-79-35zm123-47c-11-16-11-39-1-55 6-10-3-13-37-13h-46v80h46c35 0 44-3 38-12zm257 68c-68-37-68-150-1-189 80-48 169 3 170 95 0 39-5 52-31 77-24 25-39 31-72 31-23-1-53-7-66-14zm103-68c-11-16-11-39-1-55 6-10-3-13-37-13h-46v80h46c35 0 44-3 38-12zm240 48c-28-28-34-42-34-76s6-48 34-76c29-29 41-34 79-34 37 0 51 5 76 31 26 26 31 38 31 79s-5 53-31 79c-25 26-39 31-76 31-38 0-50-5-79-34zm120-48c-11-18-12-48-2-54 18-12-3-19-41-16-40 4-41 5-41 43v39h46c33 0 43-3 38-12z"/></g><g fill="#a6bdc8"><path d="M0 930V0h1920v1860H0V930zm490 470c0-11-7-20-15-20s-15 9-15 20 7 20 15 20 15-9 15-20zm90 0c0-16-7-20-35-20s-35 4-35 20 7 20 35 20 35-4 35-20zm270 0c0-11-7-20-15-20s-15 9-15 20 7 20 15 20 15-9 15-20zm90 0c0-16-7-20-35-20s-35 4-35 20 7 20 35 20 35-4 35-20zm270 0c0-11-7-20-15-20s-15 9-15 20 7 20 15 20 15-9 15-20zm90 0c0-16-7-20-35-20s-35 4-35 20 7 20 35 20 35-4 35-20zm-670-395v-95h100v80h47c33 0 55 7 78 24 17 13 50 30 73 37 30 8 42 18 42 31 0 10 5 18 10 18 6 0 10-9 10-20 0-14 9-21 35-26 19-3 53-19 75-35 30-22 51-29 85-29h45v-80h100v95c0 57 4 95 10 95s10-42 10-105V890h-120v-60h120V594l39-17c99-44 106-178 11-229-90-49-203 35-184 136 6 37 55 90 92 101 21 6 22 11 22 116v109h-100v-80h-45c-34 0-55-7-85-29-22-16-56-32-75-35-32-6-35-10-35-40 0-28 5-34 40-50 48-21 70-51 76-103 10-78-61-149-139-139-69 8-124 83-111 150 6 37 55 90 92 101 17 5 22 14 22 39 0 30-4 34-42 46-24 7-56 23-71 36-22 18-40 24-78 24h-49v80H630V700c0-97 2-111 18-116 59-18 102-71 102-124 0-70-73-135-143-126-69 8-124 83-111 150 6 37 55 90 92 101 21 6 22 11 22 126v119h120v60H610v105c0 63 4 105 10 105s10-38 10-95z"/><path d="M750 860V750h59l-14 41c-19 53-19 90 0 136 19 45 20 43-15 43h-30V860zm416 75c18-44 18-112-1-149s-20-36 15-36h30v220h-59l15-35zM544 536c-28-28-34-42-34-76 0-60 50-110 110-110 34 0 48 6 76 34s34 42 34 76-6 48-34 76-42 34-76 34-48-6-76-34zm121-76v-40h-85v80h85v-40zm239 76c-28-28-34-42-34-76s6-48 34-76 42-34 76-34 48 6 76 34 34 42 34 76-6 48-34 76-42 34-76 34-48-6-76-34zm121-76v-40h-85v80h85v-40zm239 76c-28-28-34-42-34-76s6-48 34-76 42-34 76-34 48 6 76 34 34 42 34 76-6 48-34 76-42 34-76 34-48-6-76-34zm120-76c-1-22-4-40-8-40h-41c-34 0-35 1-35 40v40h85l-1-40z"/></g><g fill="#b9baba"><path d="M0 930V0h1920v1860H0V930zm500 470c0-13-7-20-20-20s-20 7-20 20 7 20 20 20 20-7 20-20zm80 0c0-16-7-20-35-20s-35 4-35 20 7 20 35 20 35-4 35-20zm278 8c9-9 12-9 12 0 0 7 14 12 35 12 28 0 35-4 35-20 0-18-7-20-60-20s-60 2-60 20c0 22 20 26 38 8zm363 0c0-10 2-10 6 0 2 6 20 12 39 12 27 0 34-4 34-20 0-17-7-19-60-19-52 1-60 4-60 20 0 21 39 28 41 7zm-591-403v-95h100v80h47c33 0 55 7 78 24 17 13 50 30 73 37 30 8 42 18 42 31 0 10 5 18 10 18 6 0 10-9 10-20 0-14 9-21 35-26 19-3 53-19 75-35 30-22 51-29 85-29h45v-80h100v95c0 57 4 95 10 95s10-42 10-105V890h-120v-60h120V594l39-17c99-44 106-178 11-229-90-49-203 35-184 136 6 37 55 90 92 101 21 6 22 11 22 116v109h-100v-80h-45c-34 0-55-7-85-29-22-16-56-32-75-35-32-6-35-10-35-40 0-28 5-34 40-50 48-21 70-51 76-103 10-78-61-149-139-139-69 8-124 83-111 150 6 37 55 90 92 101 17 5 22 14 22 39 0 30-4 34-42 46-24 7-56 23-71 36-22 18-40 24-78 24h-49v80H630V700c0-97 2-111 18-116 59-18 102-71 102-124 0-70-73-135-143-126-69 8-124 83-111 150 6 37 55 90 92 101 21 6 22 11 22 126v119h120v60H610v105c0 63 4 105 10 105s10-38 10-95z"/><path d="M750 860V750h59l-14 41c-19 53-19 90 0 136 19 45 20 43-15 43h-30V860zm416 75c18-44 18-112-1-149s-20-36 15-36h30v220h-59l15-35zM544 536c-28-28-34-42-34-76 0-60 50-110 110-110 34 0 48 6 76 34s34 42 34 76-6 48-34 76-42 34-76 34-48-6-76-34zm121-76v-40h-85v80h85v-40zm239 76c-28-28-34-42-34-76s6-48 34-76 42-34 76-34 48 6 76 34 34 42 34 76-6 48-34 76-42 34-76 34-48-6-76-34zm121-76v-40h-85v80h85v-40zm239 76c-28-28-34-42-34-76s6-48 34-76 42-34 76-34 48 6 76 34 34 42 34 76-6 48-34 76-42 34-76 34-48-6-76-34zm119-77v-42l-41-1-42-1v42c0 41 1 42 38 45 20 2 39 2 41 1 2-2 4-21 4-44z"/></g><g fill="#c1bebf"><path d="M0 930V0h1920v1860H0V930zm500 470c0-13-7-20-20-20s-20 7-20 20 7 20 20 20 20-7 20-20zm80 0c0-16-7-20-35-20s-35 4-35 20 7 20 35 20 35-4 35-20zm279 8c11-10 13-10 7 0-5 9 4 12 33 12 34 0 41-3 41-20 0-18-7-20-60-20s-60 2-60 20c0 23 19 26 39 8zm362 0c0-10 2-10 6 0 2 6 20 12 39 12 27 0 34-4 34-20 0-17-7-19-60-19-52 1-60 4-60 20 0 21 39 28 41 7zm239-192c0-2-8-10-17-17-16-13-17-12-4 4s21 21 21 13zm-730-9c0-2-10-12-22-23l-23-19 19 23c18 21 26 27 26 19zm360 0c0-2-10-12-22-23l-23-19 19 23c18 21 26 27 26 19zm-460-202v-95h100v80h47c33 0 55 7 78 24 17 13 50 30 73 37 30 8 42 18 42 31 0 10 5 18 10 18 6 0 10-9 10-20 0-14 9-21 35-26 19-3 53-19 75-35 30-22 51-29 85-29h45v-80h100v95c0 57 4 95 10 95s10-42 10-105V890h-120v-60h120V594l39-17c99-44 106-178 11-229-90-49-203 35-184 136 6 37 55 90 92 101 21 6 22 11 22 116v109h-100v-80h-45c-34 0-55-7-85-29-22-16-56-32-75-35-32-6-35-10-35-40 0-28 5-34 40-50 48-21 70-51 76-103 10-78-61-149-139-139-69 8-124 83-111 150 6 37 55 90 92 101 17 5 22 14 22 39 0 30-4 34-42 46-24 7-56 23-71 36-22 18-40 24-78 24h-49v80H630V700c0-97 2-111 18-116 59-18 102-71 102-124 0-70-73-135-143-126-69 8-124 83-111 150 6 37 55 90 92 101 21 6 22 11 22 126v119h120v60H610v105c0 63 4 105 10 105s10-38 10-95z"/><path d="M750 860V750h59l-14 41c-19 53-19 90 0 136 19 45 20 43-15 43h-30V860zm416 75c18-44 18-112-1-149s-20-36 15-36h30v220h-59l15-35zM544 536c-28-28-34-42-34-76 0-60 50-110 110-110 34 0 48 6 76 34s34 42 34 76-6 48-34 76-42 34-76 34-48-6-76-34zm119-76v-43l-41-1-42-1v90l42-1 41-1v-43zm241 76c-28-28-34-42-34-76s6-48 34-76 42-34 76-34 48 6 76 34 34 42 34 76-6 48-34 76-42 34-76 34-48-6-76-34zm119-76v-43h-41c-23 0-42 3-42 6v45c0 37 0 37 42 36l41-1v-43zm241 76c-28-28-34-42-34-76s6-48 34-76 42-34 76-34 48 6 76 34 34 42 34 76-6 48-34 76-42 34-76 34-48-6-76-34zm119-76v-43l-41-1-42-1v90l42-1 41-1v-43z"/></g><g fill="#adcbd2"><path d="M0 930V0h1920v1860H0V930zm580 470c0-18-7-20-60-20-52 0-60 2-60 19 0 16 8 19 60 20 53 0 60-2 60-19zm360 0c0-18-7-20-60-20-52 0-60 3-60 19s9 19 60 20c54 1 60-1 60-19zm360 0c0-18-7-20-60-20s-60 2-60 20 7 20 60 20 60-2 60-20zm-595-220c-22-22-43-40-47-40s11 19 35 43c23 24 44 42 46 40 3-2-13-21-34-43zm360 0c-21-22-40-38-42-36-5 4 71 84 76 79 3-2-13-21-34-43zm360 0c-21-22-40-38-42-36-5 4 71 84 76 79 3-2-13-21-34-43zm-758 23c-4-3-7 0-7 7s3 10 7 7c3-4 3-10 0-14zm720 0c-4-3-7 0-7 7s3 10 7 7c3-4 3-10 0-14zm-757-198v-95h100v80h47c33 0 55 7 78 24 17 13 50 30 73 37 30 8 42 18 42 31 0 10 5 18 10 18 6 0 10-9 10-20 0-14 9-21 35-26 19-3 53-19 75-35 30-22 51-29 85-29h45v-80h100v95c0 57 4 95 10 95s10-42 10-105V890h-120v-60h120V594l39-17c99-44 106-178 11-229-90-49-203 35-184 136 6 37 55 90 92 101 21 6 22 11 22 116v109h-100v-80h-45c-34 0-55-7-85-29-22-16-56-32-75-35-32-6-35-10-35-40 0-28 5-34 40-50 48-21 70-51 76-103 10-78-61-149-139-139-69 8-124 83-111 150 6 37 55 90 92 101 17 5 22 14 22 39 0 30-4 34-42 46-24 7-56 23-71 36-22 18-40 24-78 24h-49v80H630V700c0-97 2-111 18-116 59-18 102-71 102-124 0-70-73-135-143-126-69 8-124 83-111 150 6 37 55 90 92 101 21 6 22 11 22 126v119h120v60H610v105c0 63 4 105 10 105s10-38 10-95z"/><path d="M750 860V750h59l-14 41c-19 53-19 90 0 136 19 45 20 43-15 43h-30V860zm416 75c18-44 18-112-1-149s-20-36 15-36h30v220h-59l15-35zM544 536c-28-28-34-42-34-76 0-60 50-110 110-110 34 0 48 6 76 34s34 42 34 76-6 48-34 76-42 34-76 34-48-6-76-34zm119-76v-43l-41-1-40-1-4 43c-2 24-2 44-1 45s20 1 44 1l42-1v-43zm241 76c-28-28-34-42-34-76s6-48 34-76 42-34 76-34 48 6 76 34 34 42 34 76-6 48-34 76-42 34-76 34-48-6-76-34zm119-76v-43h-86l1 41c0 23 1 43 1 45 1 1 20 1 43 1l41-1v-43zm241 76c-28-28-34-42-34-76s6-48 34-76 42-34 76-34 48 6 76 34 34 42 34 76-6 48-34 76-42 34-76 34-48-6-76-34zm119-76v-43h-86l1 41c0 23 1 43 1 45 1 1 20 1 43 1l41-1v-43z"/></g><g fill="#8fdbec"><path d="M0 930V0h1920v1860H0V930zm580 470c0-18-7-20-60-20s-60 2-60 20 7 20 60 20 60-2 60-20zm360 0c0-18-7-20-60-20s-60 2-60 20 7 20 60 20 60-2 60-20zm360 0c0-18-7-20-60-20s-60 2-60 20 7 20 60 20 60-2 60-20zm-595-220c-22-22-43-40-47-40s11 19 35 43c23 24 44 42 46 40 3-2-13-21-34-43zm360 0c-21-22-40-38-42-36-5 4 71 84 76 79 3-2-13-21-34-43zm360 0c-21-22-40-38-42-36-5 4 71 84 76 79 3-2-13-21-34-43zm-758 23c-4-3-7 0-7 7s3 10 7 7c3-4 3-10 0-14zm720 0c-4-3-7 0-7 7s3 10 7 7c3-4 3-10 0-14zm-757-198v-95h100v80h47c33 0 55 7 78 24 17 13 50 30 73 37 30 8 42 18 42 31 0 10 5 18 10 18 6 0 10-9 10-20 0-14 9-21 35-26 19-3 53-19 75-35 30-22 51-29 85-29h45v-80h100v95c0 57 4 95 10 95s10-42 10-105V890h-120v-60h120V594l39-17c99-44 106-178 11-229-90-49-203 35-184 136 6 37 55 90 92 101 21 6 22 11 22 116v109h-100v-80h-45c-34 0-55-7-85-29-22-16-56-32-75-35-32-6-35-10-35-40 0-28 5-34 40-50 48-21 70-51 76-103 10-78-61-149-139-139-69 8-124 83-111 150 6 37 55 90 92 101 17 5 22 14 22 39 0 30-4 34-42 46-24 7-56 23-71 36-22 18-40 24-78 24h-49v80H630V700c0-97 2-111 18-116 59-18 102-71 102-124 0-70-73-135-143-126-69 8-124 83-111 150 6 37 55 90 92 101 21 6 22 11 22 126v119h120v60H610v105c0 63 4 105 10 105s10-38 10-95z"/><path d="M750 860V750h59l-14 41c-19 53-19 90 0 136 19 45 20 43-15 43h-30V860zm416 75c18-44 18-112-1-149s-20-36 15-36h30v220h-59l15-35zM544 536c-28-28-34-42-34-76 0-60 50-110 110-110 34 0 48 6 76 34s34 42 34 76-6 48-34 76-42 34-76 34-48-6-76-34zm119-76v-43h-86l1 41c0 23 1 43 1 45 1 1 20 1 43 1l41-1v-43zm241 76c-28-28-34-42-34-76s6-48 34-76 42-34 76-34 48 6 76 34 34 42 34 76-6 48-34 76-42 34-76 34-48-6-76-34zm119-76v-43h-86l1 41c0 23 1 43 1 45 1 1 20 1 43 1l41-1v-43zm241 76c-28-28-34-42-34-76s6-48 34-76 42-34 76-34 48 6 76 34 34 42 34 76-6 48-34 76-42 34-76 34-48-6-76-34zm119-76v-43h-86l1 41c0 23 1 43 1 45 1 1 20 1 43 1l41-1v-43z"/></g><g fill="#92e4f4"><path d="M0 930V0h1920v1860H0V930zm580 470c0-18-7-20-60-20s-60 2-60 20 7 20 60 20 60-2 60-20zm360 0c0-18-7-20-60-20s-60 2-60 20 7 20 60 20 60-2 60-20zm360 0c0-18-7-20-60-20s-60 2-60 20 7 20 60 20 60-2 60-20zm-595-220c-22-22-43-40-47-40s11 19 35 43c23 24 44 42 46 40 3-2-13-21-34-43zm360 0c-21-22-40-38-42-36-5 4 71 84 76 79 3-2-13-21-34-43zm360 0c-21-22-40-38-42-36-5 4 71 84 76 79 3-2-13-21-34-43zm-758 23c-4-3-7 0-7 7s3 10 7 7c3-4 3-10 0-14zm720 0c-4-3-7 0-7 7s3 10 7 7c3-4 3-10 0-14zm-757-198v-95h100v80h47c33 0 55 7 78 24 17 13 50 30 73 37 30 8 42 18 42 31 0 10 5 18 10 18 6 0 10-9 10-20 0-14 9-21 35-26 19-3 53-19 75-35 30-22 51-29 85-29h45v-80h100v95c0 57 4 95 10 95s10-42 10-105V890h-120v-60h120V593l40-16c99-39 106-178 10-229-44-23-76-23-119 0-95 51-89 185 10 229l39 17v216h-100v-80h-45c-34 0-55-7-85-29-22-16-56-32-75-35-32-6-35-10-35-40 0-29 5-35 39-48 46-18 71-52 78-108 5-32 1-48-20-79-46-70-137-79-196-20-66 66-46 168 40 206 33 14 39 21 39 48 0 29-4 33-42 44-24 7-57 24-75 37-23 17-45 24-77 24h-46v80H629l3-111 3-111 35-12c43-14 80-67 80-114 0-46-32-96-74-116-44-21-73-20-115 2-95 51-89 185 10 229l39 17v236h120v60H610v105c0 63 4 105 10 105s10-38 10-95z"/><path d="M750 860V750h59l-14 41c-19 53-19 90 0 136 19 45 20 43-15 43h-30V860zm416 75c18-44 18-112-1-149s-20-36 15-36h30v220h-59l15-35zM548 541c-29-26-33-35-33-81s4-55 33-81c47-43 102-41 148 5 28 28 34 42 34 76s-6 48-34 76c-46 46-101 48-148 5zm115-81v-43h-86l1 41c0 23 1 43 1 45 1 1 20 1 43 1l41-1v-43zm245 81c-29-26-33-35-33-81s4-55 33-81c47-43 102-41 148 5 28 28 34 42 34 76s-6 48-34 76c-46 46-101 48-148 5zm115-81v-43h-86l1 41c0 23 1 43 1 45 1 1 20 1 43 1l41-1v-43zm272 101c-40-17-60-51-60-102 0-64 32-99 99-106 42-5 48-3 81 30 29 29 35 42 35 77 0 34-6 48-34 76-35 35-75 43-121 25zm88-101v-43h-86l1 41c0 23 1 43 1 45 1 1 20 1 43 1l41-1v-43z"/></g><g fill="#cfcfcf"><path d="M0 930V0h1920v1860H0V930zm580 470c0-18-7-20-60-20s-60 2-60 20 7 20 60 20 60-2 60-20zm360 0c0-18-7-20-60-20s-60 2-60 20 7 20 60 20 60-2 60-20zm360 0c0-18-7-20-60-20s-60 2-60 20 7 20 60 20 60-2 60-20zm-595-220c-22-22-43-40-47-40s11 19 35 43c23 24 44 42 46 40 3-2-13-21-34-43zm360 0c-21-22-40-38-42-36-5 4 71 84 76 79 3-2-13-21-34-43zm360 0c-21-22-40-38-42-36-5 4 71 84 76 79 3-2-13-21-34-43zm-758 23c-4-3-7 0-7 7s3 10 7 7c3-4 3-10 0-14zm720 0c-4-3-7 0-7 7s3 10 7 7c3-4 3-10 0-14zm-757-198v-95h100v80h45c34 0 55 7 86 30 23 16 57 32 75 36 24 4 34 12 34 25 0 11 5 19 10 19 6 0 10-8 10-18 0-13 13-21 44-30 24-6 57-23 74-37 22-19 41-25 76-25h46v-80h100v95c0 57 4 95 10 95s10-42 10-105V890h-120v-60h120V595l40-17c102-43 105-192 5-234-46-19-73-18-114 4-95 51-89 185 10 229l39 17v216h-100v-80h-46c-35 0-54-6-76-25-17-14-50-31-74-37-40-11-44-15-44-43 0-26 6-32 40-47 109-45 104-199-8-238-37-13-47-13-84 0-110 39-116 184-9 235 35 17 41 24 41 51 0 28-4 33-34 38-18 4-52 20-75 36-31 23-52 30-86 30h-45v80H630V595l40-17c73-30 101-118 60-185-36-60-106-79-169-45-95 51-89 185 10 229l39 17v236h120v60H610v105c0 63 4 105 10 105s10-38 10-95z"/><path d="M750 860V750h59l-15 35c-7 19-14 53-14 75s7 56 14 75l15 35h-59V860zm416 75c18-44 18-112-1-149s-20-36 15-36h30v220h-59l15-35zM575 561c-58-24-81-103-46-159 58-91 201-49 201 59 0 33-6 47-34 75-35 35-75 43-121 25zm88-101v-43h-86l1 41c0 23 1 43 1 45 1 1 20 1 43 1l41-1v-43zm270 100c-29-12-63-67-63-100 0-35 35-89 66-100 49-19 84-12 120 24 28 28 34 42 34 75 0 77-85 132-157 101zm90-100v-43h-86l1 41c0 23 1 43 1 45 1 1 20 1 43 1l41-1v-43zm272 101c-58-24-81-103-46-159 58-91 201-49 201 59 0 33-6 47-34 75-35 35-75 43-121 25zm88-101v-43h-86l1 41c0 23 1 43 1 45 1 1 20 1 43 1l41-1v-43z"/></g><g fill="#afe8f4"><path d="M0 930V0h1920v1860H0V930zm748 412l3-123-46-45-47-45-81 3-82 3-3 123c-2 99-5 122-17 122-8 0-15 9-15 20s7 20 15 20 15 8 15 18 3 22 7 26c4 3 61 5 127 4l121-3 3-123zm360 0l3-124-45-44-44-45-84 3-83 3-3 123c-2 99-5 122-17 122-8 0-15 9-15 20s7 20 15 20 15 8 15 18 3 22 7 26c4 3 61 5 127 4l121-3 3-123zm360 1l3-122-45-46-45-46-83 3-83 3-3 123c-2 99-5 122-17 122-8 0-15 9-15 20s7 20 15 20 15 8 15 18 3 22 7 26c4 3 61 5 127 4l121-3 3-122zm-838-338v-95h100v80h45c34 0 55 7 86 30 23 16 57 32 75 36 24 4 34 12 34 25 0 11 5 19 10 19 6 0 10-8 10-18 0-13 13-21 44-30 24-6 57-23 74-37 22-19 41-25 76-25h46v-80h100v95c0 57 4 95 10 95s10-42 10-105V890h-120v-60h120V595l40-17c102-43 105-192 5-234-46-19-73-18-114 4-95 51-89 185 10 229l39 17v216h-100v-80h-46c-35 0-54-6-76-25-17-14-50-31-74-37-40-11-44-15-44-43 0-26 6-32 40-47 109-45 104-199-8-238-37-13-47-13-84 0-110 39-116 184-9 235 35 17 41 24 41 51 0 28-4 33-34 38-18 4-52 20-75 36-31 23-52 30-86 30h-45v80H630V595l40-17c73-30 101-118 60-185-36-60-106-79-169-45-95 51-89 185 10 229l39 17v236h120v60H610v105c0 63 4 105 10 105s10-38 10-95z"/><path d="M510 1435c0-10 11-15 35-15 28 0 35-4 35-20s-7-20-35-20h-35v-230h145v37c0 37 1 38 38 41l37 3v219H620c-91 0-110-3-110-15zm190-95c0-6-33-10-80-10s-80 4-80 10 33 10 80 10 80-4 80-10zm0-40c0-6-33-10-80-10s-80 4-80 10 33 10 80 10 80-4 80-10zm0-40c0-6-33-10-80-10s-80 4-80 10 33 10 80 10 80-4 80-10z"/><path d="M670 1183v-26l25 23c14 13 25 25 25 27s-11 3-25 3c-20 0-25-5-25-27zm200 252c0-10 11-15 35-15 28 0 35-4 35-20s-7-20-35-20h-35v-230h139l3 38c3 35 5 37 41 40l37 3v219H980c-91 0-110-3-110-15zm190-95c0-6-33-10-80-10s-80 4-80 10 33 10 80 10 80-4 80-10zm0-40c0-6-33-10-80-10s-80 4-80 10 33 10 80 10 80-4 80-10zm0-40c0-6-33-10-80-10s-80 4-80 10 33 10 80 10 80-4 80-10z"/><path d="M1030 1183v-26l25 23c14 13 25 25 25 27s-11 3-25 3c-20 0-25-5-25-27zm200 252c0-10 11-15 35-15 28 0 35-4 35-20s-7-20-35-20h-35v-230h139l3 38c3 35 5 37 41 40l37 3v219h-110c-91 0-110-3-110-15zm190-95c0-6-31-10-74-10-41 0-78 5-81 10-4 6 23 10 74 10 47 0 81-4 81-10zm0-40c0-6-31-10-74-10-41 0-78 5-81 10-4 6 23 10 74 10 47 0 81-4 81-10zm0-40c0-6-33-10-80-10s-80 4-80 10 33 10 80 10 80-4 80-10z"/><path d="M1390 1183v-26l25 23c14 13 25 25 25 27s-11 3-25 3c-20 0-25-5-25-27zM750 860V750h59l-15 35c-7 19-14 53-14 75s7 56 14 75l15 35h-59V860zm416 75c18-44 18-112-1-149s-20-36 15-36h30v220h-59l15-35zM575 561c-58-24-81-103-46-159 58-91 201-49 201 59 0 33-6 47-34 75-35 35-75 43-121 25zm88-101v-43h-86l1 41c0 23 1 43 1 45 1 1 20 1 43 1l41-1v-43zm270 100c-29-12-63-67-63-100 0-35 35-89 66-100 49-19 84-12 120 24 28 28 34 42 34 75 0 77-85 132-157 101zm90-100v-43h-86l1 41c0 23 1 43 1 45 1 1 20 1 43 1l41-1v-43zm272 101c-58-24-81-103-46-159 58-91 201-49 201 59 0 33-6 47-34 75-35 35-75 43-121 25zm88-101v-43h-86l1 41c0 23 1 43 1 45 1 1 20 1 43 1l41-1v-43z"/></g><g fill="#e5dedf"><path d="M0 930V0h1920v1860H0V930zm748 412l3-123-46-45-47-45-81 3-82 3-3 123c-2 99-5 122-17 122-8 0-15 9-15 20s7 20 15 20 15 8 15 18 3 22 7 26c4 3 61 5 127 4l121-3 3-123zm360 0l3-124-45-44-44-45-84 3-83 3-3 123c-2 99-5 122-17 122-8 0-15 9-15 20s7 20 15 20 15 8 15 18 3 22 7 26c4 3 61 5 127 4l121-3 3-123zm360 1l3-122-45-46-45-46-83 3-83 3-3 123c-2 99-5 122-17 122-8 0-15 9-15 20s7 20 15 20 15 8 15 18 3 22 7 26c4 3 61 5 127 4l121-3 3-122zm-838-338v-95h100v80h49c32 0 53 5 62 16 17 21 83 54 109 54 13 0 20 7 20 20 0 11 5 20 10 20 6 0 10-9 10-20 0-13 7-20 20-20 26 0 92-33 109-54 9-11 30-16 62-16h49v-80h100v95c0 57 4 95 10 95s10-42 10-105V890h-120v-60h120V595l40-17c68-28 100-113 67-178-18-35-74-70-114-70-142 0-183 194-53 248l40 17v215h-100v-80h-49c-32 0-53-5-62-16-17-21-83-54-109-54-16 0-20-6-20-32 0-29 5-35 40-50 73-30 101-118 60-185-50-83-170-83-220 0-41 67-13 155 60 185 34 15 40 21 40 47 0 28-4 32-44 43-24 6-57 23-74 37-22 19-41 25-76 25h-46v80H630V595l40-17c73-30 101-118 60-185-50-83-170-83-220 0-41 67-13 155 60 185l40 17v235h120v60H610v105c0 63 4 105 10 105s10-38 10-95z"/><path d="M510 1435c0-10 11-15 35-15 28 0 35-4 35-20s-7-20-35-20h-35v-230h145v37c0 37 1 38 38 41l37 3v219H620c-91 0-110-3-110-15zm190-95c0-6-33-10-80-10s-80 4-80 10 33 10 80 10 80-4 80-10zm0-40c0-6-33-10-80-10s-80 4-80 10 33 10 80 10 80-4 80-10zm0-40c0-6-33-10-80-10s-80 4-80 10 33 10 80 10 80-4 80-10z"/><path d="M670 1183v-26l25 23c14 13 25 25 25 27s-11 3-25 3c-20 0-25-5-25-27zm200 252c0-10 11-15 35-15 28 0 35-4 35-20s-7-20-35-20h-35v-230h139l3 38c3 35 5 37 41 40l37 3v219H980c-91 0-110-3-110-15zm190-95c0-6-33-10-80-10s-80 4-80 10 33 10 80 10 80-4 80-10zm0-40c0-6-33-10-80-10s-80 4-80 10 33 10 80 10 80-4 80-10zm0-40c0-6-33-10-80-10s-80 4-80 10 33 10 80 10 80-4 80-10z"/><path d="M1030 1183v-26l25 23c14 13 25 25 25 27s-11 3-25 3c-20 0-25-5-25-27zm200 252c0-10 11-15 35-15 28 0 35-4 35-20s-7-20-35-20h-35v-230h139l3 38c3 35 5 37 41 40l37 3v219h-110c-91 0-110-3-110-15zm190-95c0-6-31-10-74-10-41 0-78 5-81 10-4 6 23 10 74 10 47 0 81-4 81-10zm0-40c0-6-31-10-74-10-41 0-78 5-81 10-4 6 23 10 74 10 47 0 81-4 81-10zm0-40c0-6-33-10-80-10s-80 4-80 10 33 10 80 10 80-4 80-10z"/><path d="M1390 1183v-26l25 23c14 13 25 25 25 27s-11 3-25 3c-20 0-25-5-25-27zM750 860V750h59l-15 35c-7 19-14 53-14 75s7 56 14 75l15 35h-59V860zm415 80c19-37 19-126 1-162-15-28-14-28 15-28h29v220h-61l16-30zM568 554c-31-16-58-61-58-96 0-13 9-37 19-54 41-67 135-70 178-5 38 56 26 117-29 151-39 23-73 25-110 4zm95-94v-43h-86l1 41c0 23 1 43 1 45 1 1 20 1 43 1l41-1v-43zm265 94c-30-16-58-61-58-94 0-54 57-110 113-110 13 0 39 10 58 23 63 43 63 131 0 174-39 26-74 29-113 7zm95-94v-43h-86l1 41c0 23 1 43 1 45 1 1 20 1 43 1l41-1v-43zm265 94c-30-16-58-61-58-94 0-54 57-110 113-110 37 0 90 41 101 78 13 47-3 92-43 119-39 26-74 29-113 7zm95-94v-43h-86l1 41c0 23 1 43 1 45 1 1 20 1 43 1l41-1v-43z"/></g><g fill="#d3f0f9"><path d="M0 930V0h1920v1860H0V930zm750 412v-128l-43-42-43-42H490v125c0 104-2 125-15 125-8 0-15 9-15 20s7 20 15 20c9 0 15 9 15 25v25h260v-128zm360 0v-128l-43-42-43-42H850v125c0 104-2 125-15 125-8 0-15 9-15 20s7 20 15 20c9 0 15 9 15 25v25h260v-128zm360 0v-128l-43-42-43-42h-174v125c0 104-2 125-15 125-8 0-15 9-15 20s7 20 15 20c9 0 15 9 15 25v25h260v-128zm-835-335v-97h95v80h49c32 0 53 5 62 16 17 21 83 54 109 54 15 0 20 6 20 26 0 31 23 28 28-4 2-12 10-22 18-22 21 0 88-35 103-54 9-11 31-16 68-16h55l-4-40-4-40h96v101c0 76 3 100 13 97 8-3 13-37 15-111l3-107h-126v-60h125V594l35-17c64-30 94-115 62-177-18-35-74-70-114-70-142 0-183 194-53 248l40 17v215h-96l4-40 4-40h-55c-37 0-59-5-68-16-16-19-83-54-104-54-10 0-15-10-15-33 0-28 5-36 35-50 69-33 95-119 55-184-50-83-170-83-220 0-41 67-13 155 60 185 34 15 40 21 40 47 0 28-4 32-44 43-24 6-57 23-74 37-22 19-41 25-76 25h-46v80h-95l3-108 3-109 35-16c68-33 94-120 54-184-50-83-170-83-220 0-41 67-13 155 60 185l40 17v235h120v60H610v111c0 84 3 110 13 106 8-2 12-32 12-100z"/><path d="M510 1435c0-10 11-15 35-15 28 0 35-4 35-20s-7-20-35-20h-35v-230h140v80h80v220H620c-91 0-110-3-110-15zm190-95c0-6-33-10-80-10s-80 4-80 10 33 10 80 10 80-4 80-10zm0-40c0-6-33-10-80-10s-80 4-80 10 33 10 80 10 80-4 80-10zm0-40c0-6-33-10-80-10s-80 4-80 10 33 10 80 10 80-4 80-10z"/><path d="M670 1188c0-20 1-21 20-3 11 10 20 20 20 22 0 1-9 3-20 3-14 0-20-7-20-22zm200 247c0-10 11-15 35-15 28 0 35-4 35-20s-7-20-35-20h-35v-230h140v80h80v220H980c-91 0-110-3-110-15zm190-95c0-6-33-10-80-10s-80 4-80 10 33 10 80 10 80-4 80-10zm0-40c0-6-33-10-80-10s-80 4-80 10 33 10 80 10 80-4 80-10zm0-40c0-6-33-10-80-10s-80 4-80 10 33 10 80 10 80-4 80-10z"/><path d="M1030 1188c0-20 1-21 20-3 11 10 20 20 20 22 0 1-9 3-20 3-14 0-20-7-20-22zm200 247c0-10 11-15 35-15 28 0 35-4 35-20s-7-20-35-20h-35v-230h140v80h80v220h-110c-91 0-110-3-110-15zm190-95c0-6-33-10-80-10s-80 4-80 10 33 10 80 10 80-4 80-10zm0-40c0-6-33-10-80-10s-80 4-80 10 33 10 80 10 80-4 80-10zm0-40c0-6-33-10-80-10s-80 4-80 10 33 10 80 10 80-4 80-10z"/><path d="M1390 1188c0-20 1-21 20-3 11 10 20 20 20 22 0 1-9 3-20 3-14 0-20-7-20-22zM755 860V750h27c27 0 27 0 12 35-7 19-14 53-14 75s7 56 14 75c15 35 15 35-12 35h-27V860zm410 80c19-37 19-126 1-162-15-28-14-28 15-28h29v220h-61l16-30zM568 554c-31-16-58-61-58-96 0-13 9-37 19-54 41-67 135-70 178-5 38 56 26 117-29 151-39 23-73 25-110 4zm98-94v-47l-44 2-45 1 1 42c0 23 1 43 1 45 1 1 20 2 44 3l43 1v-47zm262 94c-30-16-58-61-58-94 0-54 57-110 113-110 13 0 39 10 58 23 63 43 63 131 0 174-39 26-74 29-113 7zm98-93v-46h-44l-45 1 1 42c0 23 1 43 1 45 1 1 20 2 44 3l43 1v-46zm262 93c-30-16-58-61-58-94 0-54 57-110 113-110 37 0 90 41 101 78 13 47-3 92-43 119-39 26-74 29-113 7zm98-93v-46h-44l-45 1 1 42c0 23 1 43 1 45 1 1 20 2 44 3l43 1v-46z"/></g><g fill="#feffff"><path d="M0 930V0h1920v1860H0V930zm750 412v-128l-43-42-43-42H490v120c0 100-2 120-15 120-8 0-16 5-16 10-5 37-2 45 14 42 12-2 17 4 17 23v25h260v-128zm360 0v-128l-43-42-43-42H850v121c0 113-1 121-21 126-26 7-23 50 4 45 12-2 17 4 17 23v25h260v-128zm360 0v-128l-43-42-43-42h-174v119c0 110-1 119-20 124-25 7-22 54 4 49 11-2 16 5 16 23v25h260v-128zm-835-335v-97h95v80h46c37 0 53 6 80 30 20 17 51 33 74 36 34 6 40 10 40 31 0 30 24 26 28-5 2-15 10-22 26-22 23 0 98-44 104-61 2-5 29-9 59-9h55l-4-40-4-40h96v101c0 76 3 100 13 97 8-3 13-37 15-111l3-107h-126v-60h125V711c0-117 0-119 24-125 13-3 38-22 55-41 26-30 31-44 31-87 0-45-4-54-39-89-33-34-45-39-82-39-56 0-87 16-117 60-47 69-8 178 69 195l29 7v218h-96l4-40 4-40h-45c-35 0-57-8-97-35-29-19-63-35-76-35-21 0-24-5-24-34 0-27 5-35 23-40 33-8 77-58 86-97 11-50-4-93-46-129-33-30-40-32-92-28-49 4-59 9-88 43-27 32-33 46-33 86s6 55 30 83c17 19 44 38 60 41 26 6 30 11 30 41 0 28-4 34-20 34-29 0-81 24-107 49-16 15-35 21-68 21h-45v80h-95l3-109c3-105 4-109 26-115 13-3 38-22 55-41 26-30 31-44 31-87 0-46-4-54-40-90-39-39-42-40-96-36-78 7-115 44-122 122-4 54-3 57 36 96 22 22 49 40 61 40 20 0 21 4 21 120v120h120v60H610v111c0 84 3 110 13 106 8-2 12-32 12-100z"/><path d="M510 1440c0-10 9-13 50-14 20-1 25-6 25-25 0-22-5-25-35-25l-35-1-3-112-3-113h141v80h80v220H620c-67 0-110-4-110-10zm190-100c0-6-33-10-80-10s-80 4-80 10 33 10 80 10 80-4 80-10zm0-40c0-6-33-10-80-10s-80 4-80 10 33 10 80 10 80-4 80-10zm0-40c0-6-33-10-80-10s-80 4-80 10 33 10 80 10 80-4 80-10z"/><path d="M670 1188c0-20 1-21 20-3 11 10 20 20 20 22 0 1-9 3-20 3-14 0-20-7-20-22zm202 250c3-7 21-14 42-16 32-3 37-7 34-25-2-16-10-21-38-21l-35-1-3-112-3-113h141v80h80v220H979c-84 0-110-3-107-12zm188-98c0-6-33-10-80-10s-80 4-80 10 33 10 80 10 80-4 80-10zm0-40c0-6-33-10-80-10s-80 4-80 10 33 10 80 10 80-4 80-10zm0-40c0-6-33-10-80-10s-80 4-80 10 33 10 80 10 80-4 80-10z"/><path d="M1030 1188c0-20 1-21 20-3 11 10 20 20 20 22 0 1-9 3-20 3-14 0-20-7-20-22zm200 247c0-10 10-14 38-12 33 2 37 0 37-23 0-22-4-25-35-25h-35l-3-112-3-113h141v80h80v220h-110c-90 0-110-3-110-15zm190-95c0-6-33-10-80-10s-80 4-80 10 33 10 80 10 80-4 80-10zm0-40c0-6-33-10-80-10s-80 4-80 10 33 10 80 10 80-4 80-10zm0-40c0-6-33-10-80-10s-80 4-80 10 33 10 80 10 80-4 80-10z"/><path d="M1390 1188c0-20 1-21 20-3 11 10 20 20 20 22 0 1-9 3-20 3-14 0-20-7-20-22zM755 860V750h29c22 0 26 3 18 13-29 34-32 110-8 185 6 18 4 22-16 22-23 0-23-2-23-110zm410 93c4-10 12-35 17-55 10-36 4-80-17-130-6-15-2-18 19-18h26v220h-26c-21 0-25-3-19-17zM573 554c-64-32-77-117-26-168 79-79 206-1 174 106-19 63-89 92-148 62zm94-94v-47l-46 2-46 2v39c-1 21 0 41 1 44s22 6 47 6l44 1v-47zm267 95c-87-44-69-179 26-200 45-10 98 18 116 62 39 93-53 183-142 138zm93-95v-47l-45 2-45 1 1 42c0 23 1 43 1 45 1 1 21 3 45 3l43 1v-47zm278 101c-70-30-91-118-40-171 36-37 73-45 119-26 70 29 84 141 23 181-30 19-77 27-102 16zm82-101v-47h-93l3 46c1 25 2 46 2 46 1 0 21 1 45 1l43 1v-47z"/></g></svg>