<svg xmlns="http://www.w3.org/2000/svg" width="6" height="12"><defs><clipPath id="a"><path fill="#fff" d="M.676.124A.373.373 0 00.396 0a.373.373 0 00-.28.124.447.447 0 000 .6L5.036 6l-4.92 5.276a.446.446 0 000 .6.377.377 0 00.56 0L5.884 6.3a.446.446 0 000-.6z"/></clipPath></defs><g opacity=".4"><path d="M.676.124A.373.373 0 00.396 0a.373.373 0 00-.28.124.447.447 0 000 .6L5.036 6l-4.92 5.276a.446.446 0 000 .6.377.377 0 00.56 0L5.884 6.3a.446.446 0 000-.6z"/><path fill="none" stroke="#fff" stroke-linecap="round" stroke-linejoin="round" stroke-miterlimit="50" stroke-width="2" d="M.676.124A.373.373 0 00.396 0a.373.373 0 00-.28.124.447.447 0 000 .6L5.036 6v0l-4.92 5.276a.446.446 0 000 .6.377.377 0 00.56 0L5.884 6.3a.446.446 0 000-.6z" clip-path="url(&quot;#a&quot;)"/></g></svg>