<svg xmlns="http://www.w3.org/2000/svg" width="52" height="52"><path d="M51.998 33.8v17.332a.867.867 0 01-.867.866H4.333a.867.867 0 01-.866-.809L1.79 26H.867A.867.867 0 010 25.132v-3.466c0-.479.388-.866.867-.866h.913l.008-.077a8.653 8.653 0 019.533-7.672 6.068 6.068 0 018.498-4.712 6.066 6.066 0 013.045 8.02 6.079 6.079 0 013.07 4.44h6.131c.48 0 .867.388.867.867v3.466a.867.867 0 01-.867.867h-.924l-.809 12.133H36.4V36.4h-.867a2.6 2.6 0 110-5.2h.867v-13h-7.8a.867.867 0 01-.867-.867V13.06L26.008.99a.867.867 0 01.858-.99H51.13a.867.867 0 01.858.99l-1.724 12.07v4.272a.867.867 0 01-.867.867h-7.8v13h7.8a2.6 2.6 0 012.6 2.6zM29.35 12.132h19.297l1.485-10.4h-3.334v5.2h-1.733v-5.2h-1.733v2.6h-1.734v-2.6h-5.2v1.733h-1.733V1.733h-1.733v5.2H31.2v-5.2h-3.334zm19.181 4.333v-2.6H29.466v2.6zm-10.4 1.733v13h1.734v-13zM18.2 22.532v1.734h13v-1.734zM3.525 20.8h3.408c.479 0 .867.388.867.867V33.8a.867.867 0 001.733 0v-6.067a2.6 2.6 0 115.2 0v1.734a.867.867 0 101.733 0v-7.8c0-.479.388-.867.867-.867h6.834a4.334 4.334 0 00-2.803-3.217.866.866 0 01-.433-1.3 4.324 4.324 0 00-3.138-6.707 4.322 4.322 0 00-4.748 3.847 8.72 8.72 0 012.802 1.503l-1.09 1.348a6.966 6.966 0 00-2.78-1.36h-.028A6.916 6.916 0 003.524 20.8zm2.541 3.467v-1.733H1.733v1.733zm20.8 13.866h1.733L29.406 26H18.199v3.467a2.6 2.6 0 11-5.2 0v-1.734a.867.867 0 00-1.733 0V33.8a2.6 2.6 0 01-5.2 0V26h-2.54l1.618 24.266h19.122v-9.533a2.6 2.6 0 012.6-2.6zm23.399 5.2H25.999v6.933h2.6v-4.333h1.733v4.333h2.6v-4.333h1.733v4.333h2.6v-4.333h1.733v4.333h2.6v-4.333h1.734v4.333h2.6v-4.333h1.733v4.333h2.6zm0-9.533a.867.867 0 00-.867-.867H35.532a.867.867 0 100 1.734h10.4a2.6 2.6 0 010 5.2H26.866a.867.867 0 00-.867.866v.867h24.266zm-10.4 4.333V36.4h-1.733v1.733zm6.067 0a.867.867 0 000-1.733h-4.334v1.733zM5.2 8.666v1.733H3.467v1.734H1.733v-1.734H0V8.666h1.733V6.933h1.734v1.733zm45.931 15.6v1.733h-1.733v1.733h-1.733V26h-1.733v-1.733h1.733v-1.733h1.733v1.733zM18.2 1.733v1.733h-1.733V5.2h-1.733V3.466H13V1.733h1.734V0h1.733v1.733zm13 6.933h1.733v1.733H31.2z"/><path fill="#fff" d="M51.998 33.8v17.332a.867.867 0 01-.867.866H4.333a.867.867 0 01-.866-.809L1.79 26H.867A.867.867 0 010 25.132v-3.466c0-.479.388-.866.867-.866h.913l.008-.077a8.653 8.653 0 019.533-7.672 6.068 6.068 0 018.498-4.712 6.066 6.066 0 013.045 8.02 6.079 6.079 0 013.07 4.44h6.131c.48 0 .867.388.867.867v3.466a.867.867 0 01-.867.867h-.924l-.809 12.133H36.4V36.4h-.867a2.6 2.6 0 110-5.2h.867v-13h-7.8a.867.867 0 01-.867-.867V13.06L26.008.99a.867.867 0 01.858-.99H51.13a.867.867 0 01.858.99l-1.724 12.07v4.272a.867.867 0 01-.867.867h-7.8v13h7.8a2.6 2.6 0 012.6 2.6zM29.35 12.132h19.297l1.485-10.4h-3.334v5.2h-1.733v-5.2h-1.733v2.6h-1.734v-2.6h-5.2v1.733h-1.733V1.733h-1.733v5.2H31.2v-5.2h-3.334zm19.181 4.333v-2.6H29.466v2.6zm-10.4 1.733v13h1.734v-13zM18.2 22.532v1.734h13v-1.734zM3.525 20.8h3.408c.479 0 .867.388.867.867V33.8a.867.867 0 001.733 0v-6.067a2.6 2.6 0 115.2 0v1.734a.867.867 0 101.733 0v-7.8c0-.479.388-.867.867-.867h6.834a4.334 4.334 0 00-2.803-3.217.866.866 0 01-.433-1.3 4.324 4.324 0 00-3.138-6.707 4.322 4.322 0 00-4.748 3.847 8.72 8.72 0 012.802 1.503l-1.09 1.348a6.966 6.966 0 00-2.78-1.36h-.028A6.916 6.916 0 003.524 20.8zm2.541 3.467v-1.733H1.733v1.733zm20.8 13.866h1.733L29.406 26H18.199v3.467a2.6 2.6 0 11-5.2 0v-1.734a.867.867 0 00-1.733 0V33.8a2.6 2.6 0 01-5.2 0V26h-2.54l1.618 24.266h19.122v-9.533a2.6 2.6 0 012.6-2.6zm23.399 5.2H25.999v6.933h2.6v-4.333h1.733v4.333h2.6v-4.333h1.733v4.333h2.6v-4.333h1.733v4.333h2.6v-4.333h1.734v4.333h2.6v-4.333h1.733v4.333h2.6zm0-9.533a.867.867 0 00-.867-.867H35.532a.867.867 0 100 1.734h10.4a2.6 2.6 0 010 5.2H26.866a.867.867 0 00-.867.866v.867h24.266zm-10.4 4.333V36.4h-1.733v1.733zm6.067 0a.867.867 0 000-1.733h-4.334v1.733zM5.2 8.666v1.733H3.467v1.734H1.733v-1.734H0V8.666h1.733V6.933h1.734v1.733zm45.931 15.6v1.733h-1.733v1.733h-1.733V26h-1.733v-1.733h1.733v-1.733h1.733v1.733zM18.2 1.733v1.733h-1.733V5.2h-1.733V3.466H13V1.733h1.734V0h1.733v1.733zm13 6.933h1.733v1.733H31.2z"/></svg>