<svg xmlns="http://www.w3.org/2000/svg" width="59" height="52"><path d="M45.108 34.376v7.865c0 .67-.542 1.217-1.21 1.217h-2.93c-.667 0-1.21-.546-1.21-1.217v-7.865c0-.672.543-1.218 1.21-1.218h2.93c.667 0 1.21.546 1.21 1.218zm-1.729.521h-1.892v6.822h1.892zm9.503-.521v7.865c0 .67-.543 1.217-1.21 1.217h-2.93c-.667 0-1.21-.546-1.21-1.217v-7.865c0-.672.543-1.218 1.21-1.218h2.93c.667 0 1.21.546 1.21 1.218zm-1.729.521h-1.892v6.822h1.892zM12.739 15.533c0 .55-.35 1.027-.872 1.19-1.615.506-1.81.702-2.312 2.326a1.235 1.235 0 01-1.184.876 1.235 1.235 0 01-1.184-.877c-.503-1.623-.697-1.819-2.312-2.325a1.24 1.24 0 01-.871-1.19c0-.55.35-1.028.87-1.191 1.616-.506 1.81-.701 2.313-2.326a1.235 1.235 0 011.184-.876c.546 0 1.022.352 1.184.876.503 1.625.697 1.82 2.312 2.326.521.163.871.642.871 1.19zm-2.636 0c-.844-.401-1.333-.894-1.732-1.742-.398.848-.888 1.34-1.732 1.742.844.4 1.334.893 1.732 1.742.399-.85.888-1.341 1.732-1.742zm24.553 29.246c0 .52-.332.974-.826 1.128-1.291.405-1.41.524-1.812 1.823a1.17 1.17 0 01-1.122.83 1.17 1.17 0 01-1.121-.83c-.402-1.299-.52-1.418-1.813-1.823a1.175 1.175 0 01-.825-1.128c0-.52.332-.974.827-1.128 1.29-.404 1.409-.524 1.81-1.823a1.17 1.17 0 011.122-.83c.518 0 .969.334 1.122.83.402 1.3.52 1.419 1.812 1.823.494.154.826.607.826 1.128zm-2.652 0a2.755 2.755 0 01-1.108-1.114 2.755 2.755 0 01-1.107 1.115c.492.278.83.619 1.107 1.113a2.755 2.755 0 011.108-1.114zm25.884-26.273c0 .52-.331.974-.825 1.128-1.292.405-1.41.525-1.813 1.824a1.17 1.17 0 01-1.121.83 1.17 1.17 0 01-1.122-.83c-.402-1.3-.52-1.419-1.812-1.824a1.176 1.176 0 01-.826-1.128c0-.52.332-.973.826-1.128 1.291-.404 1.41-.523 1.812-1.822a1.17 1.17 0 011.122-.83c.517 0 .968.333 1.121.83.403 1.299.521 1.418 1.813 1.822.493.155.825.608.825 1.128zm-2.651 0a2.755 2.755 0 01-1.108-1.114 2.757 2.757 0 01-1.108 1.114c.492.279.83.62 1.108 1.115a2.76 2.76 0 011.108-1.115zm3.77 31.432v1.206c0 .48-.387.87-.864.87H.857a.867.867 0 01-.864-.87v-1.551c0-1.88 1.52-3.41 3.389-3.41.44 0 .866.084 1.261.244a3.4 3.4 0 012.528-1.959v-5.869a9.013 9.013 0 00-.947-.337 1.241 1.241 0 01-.872-1.191c0-.549.35-1.028.872-1.19a9.16 9.16 0 00.947-.338v-3.406h-2.82c-.512 0-.918-.246-1.087-.658-.169-.412-.053-.874.309-1.236l5.953-5.953a.861.861 0 011.223.005c.336.34.335.89-.004 1.229L5.87 30.398h1.59a.808.808 0 00.372-.156L18.99 19.021l-.866-.875-4.497 4.497a.86.86 0 01-1.223-.004.873.873 0 01.004-1.23l4.406-4.404c.39-.39 1.019-.66 1.534-.66l25.102-.002c.55 0 1.205.272 1.594.662l13.242 13.237c.362.363.478.825.309 1.237-.17.412-.575.658-1.086.658h-.897v3.832c0 .48-.387.87-.865.87a.867.867 0 01-.864-.87v-3.832H36.84v18.138h3.537v-2.97a2.839 2.839 0 012.827-2.843 2.838 2.838 0 012.784 2.346c.292-.051.598-.056.89-.014a2.836 2.836 0 012.76-2.222c.968 0 1.842.497 2.354 1.27a2.8 2.8 0 012.89.806v-6.042c0-.48.388-.869.865-.869.478 0 .865.39.865.87v6.52a2.844 2.844 0 012.395 2.811zm-51.836-3.68a1.67 1.67 0 00-1.1 1.571c0 .355-.216.68-.543.812a.859.859 0 01-.947-.201 1.64 1.64 0 00-1.199-.518c-.915 0-1.66.75-1.66 1.67v.683H7.17zm46.672-18.006H30.57l1.971 1.991a.806.806 0 00.371.155h23.077zm-6.849-6.847H23.792l1.667 1.685H40.68c.478 0 .865.39.865.87s-.387.87-.865.87H27.181l1.668 1.684h23.255l-1.685-1.685H45.52a.867.867 0 01-.864-.87c0-.48.387-.87.864-.87h3.158zm-26.49-3.32l1.566 1.582h23.185l-1.43-1.43a.815.815 0 00-.375-.155zm2.678 32.19V34.897h-6.263v15.378zm1.729 0h10.2V32.137h-2.2c-.55 0-1.206-.274-1.595-.667L20.21 20.252 9.054 31.472a.817.817 0 00-.154.376v1.14a1.235 1.235 0 012.004.566c.502 1.625.697 1.82 2.312 2.326.521.163.871.642.871 1.19a1.24 1.24 0 01-.87 1.191c-1.616.506-1.81.702-2.313 2.326a1.235 1.235 0 01-2.004.566v9.122h6.29V34.607c0-.799.647-1.449 1.441-1.449h6.839c.794 0 1.44.65 1.44 1.45zM9.72 38.813c.399-.849.888-1.341 1.732-1.742-.844-.401-1.333-.893-1.732-1.743-.399.85-.888 1.342-1.733 1.743.845.4 1.334.893 1.733 1.742zm47.558 11.125c0-.609-.492-1.104-1.098-1.104-.301 0-.583.121-.793.342a.86.86 0 01-.946.206.87.87 0 01-.543-.807c0-.617-.493-1.112-1.098-1.112a1.08 1.08 0 00-.692.247.86.86 0 01-.84.142.868.868 0 01-.554-.65 1.1 1.1 0 00-1.077-.891c-.605 0-1.098.495-1.098 1.105v.633a.87.87 0 01-.484.78.86.86 0 01-.91-.093 1.08 1.08 0 00-1.401.052.86.86 0 01-.93.146.87.87 0 01-.512-.794v-.834c0-.609-.493-1.104-1.098-1.104-.606 0-1.099.495-1.099 1.104v2.969h15.173zM22.634 41.46v1.223c0 .48-.387.87-.864.87a.867.867 0 01-.865-.87V41.46c0-.48.387-.87.865-.87.477 0 .864.39.864.87zm7.96-5.361v2.667c0 .67-.542 1.217-1.21 1.217h-2.19c-.667 0-1.21-.546-1.21-1.217v-2.667c0-.671.543-1.217 1.21-1.217h2.19c.668 0 1.21.546 1.21 1.217zm-1.728.522h-1.153v1.623h1.153zm21.9-30.665c0 3.292-2.663 5.97-5.936 5.97s-5.936-2.678-5.936-5.97 2.663-5.97 5.936-5.97 5.936 2.678 5.936 5.97zm-1.73 0c0-2.333-1.886-4.23-4.206-4.23-2.32 0-4.207 1.897-4.207 4.23 0 2.334 1.887 4.232 4.207 4.232s4.207-1.898 4.207-4.232z"/><path fill="#f45e1f" d="M45.108 34.376v7.865c0 .67-.542 1.217-1.21 1.217h-2.93c-.667 0-1.21-.546-1.21-1.217v-7.865c0-.672.543-1.218 1.21-1.218h2.93c.667 0 1.21.546 1.21 1.218zm-1.729.521h-1.892v6.822h1.892zm9.503-.521v7.865c0 .67-.543 1.217-1.21 1.217h-2.93c-.667 0-1.21-.546-1.21-1.217v-7.865c0-.672.543-1.218 1.21-1.218h2.93c.667 0 1.21.546 1.21 1.218zm-1.729.521h-1.892v6.822h1.892zM12.739 15.533c0 .55-.35 1.027-.872 1.19-1.615.506-1.81.702-2.312 2.326a1.235 1.235 0 01-1.184.876 1.235 1.235 0 01-1.184-.877c-.503-1.623-.697-1.819-2.312-2.325a1.24 1.24 0 01-.871-1.19c0-.55.35-1.028.87-1.191 1.616-.506 1.81-.701 2.313-2.326a1.235 1.235 0 011.184-.876c.546 0 1.022.352 1.184.876.503 1.625.697 1.82 2.312 2.326.521.163.871.642.871 1.19zm-2.636 0c-.844-.401-1.333-.894-1.732-1.742-.398.848-.888 1.34-1.732 1.742.844.4 1.334.893 1.732 1.742.399-.85.888-1.341 1.732-1.742zm24.553 29.246c0 .52-.332.974-.826 1.128-1.291.405-1.41.524-1.812 1.823a1.17 1.17 0 01-1.122.83 1.17 1.17 0 01-1.121-.83c-.402-1.299-.52-1.418-1.813-1.823a1.175 1.175 0 01-.825-1.128c0-.52.332-.974.827-1.128 1.29-.404 1.409-.524 1.81-1.823a1.17 1.17 0 011.122-.83c.518 0 .969.334 1.122.83.402 1.3.52 1.419 1.812 1.823.494.154.826.607.826 1.128zm-2.652 0a2.755 2.755 0 01-1.108-1.114 2.755 2.755 0 01-1.107 1.115c.492.278.83.619 1.107 1.113a2.755 2.755 0 011.108-1.114zm25.884-26.273c0 .52-.331.974-.825 1.128-1.292.405-1.41.525-1.813 1.824a1.17 1.17 0 01-1.121.83 1.17 1.17 0 01-1.122-.83c-.402-1.3-.52-1.419-1.812-1.824a1.176 1.176 0 01-.826-1.128c0-.52.332-.973.826-1.128 1.291-.404 1.41-.523 1.812-1.822a1.17 1.17 0 011.122-.83c.517 0 .968.333 1.121.83.403 1.299.521 1.418 1.813 1.822.493.155.825.608.825 1.128zm-2.651 0a2.755 2.755 0 01-1.108-1.114 2.757 2.757 0 01-1.108 1.114c.492.279.83.62 1.108 1.115a2.76 2.76 0 011.108-1.115zm3.77 31.432v1.206c0 .48-.387.87-.864.87H.857a.867.867 0 01-.864-.87v-1.551c0-1.88 1.52-3.41 3.389-3.41.44 0 .866.084 1.261.244a3.4 3.4 0 012.528-1.959v-5.869a9.013 9.013 0 00-.947-.337 1.241 1.241 0 01-.872-1.191c0-.549.35-1.028.872-1.19a9.16 9.16 0 00.947-.338v-3.406h-2.82c-.512 0-.918-.246-1.087-.658-.169-.412-.053-.874.309-1.236l5.953-5.953a.861.861 0 011.223.005c.336.34.335.89-.004 1.229L5.87 30.398h1.59a.808.808 0 00.372-.156L18.99 19.021l-.866-.875-4.497 4.497a.86.86 0 01-1.223-.004.873.873 0 01.004-1.23l4.406-4.404c.39-.39 1.019-.66 1.534-.66l25.102-.002c.55 0 1.205.272 1.594.662l13.242 13.237c.362.363.478.825.309 1.237-.17.412-.575.658-1.086.658h-.897v3.832c0 .48-.387.87-.865.87a.867.867 0 01-.864-.87v-3.832H36.84v18.138h3.537v-2.97a2.839 2.839 0 012.827-2.843 2.838 2.838 0 012.784 2.346c.292-.051.598-.056.89-.014a2.836 2.836 0 012.76-2.222c.968 0 1.842.497 2.354 1.27a2.8 2.8 0 012.89.806v-6.042c0-.48.388-.869.865-.869.478 0 .865.39.865.87v6.52a2.844 2.844 0 012.395 2.811zm-51.836-3.68a1.67 1.67 0 00-1.1 1.571c0 .355-.216.68-.543.812a.859.859 0 01-.947-.201 1.64 1.64 0 00-1.199-.518c-.915 0-1.66.75-1.66 1.67v.683H7.17zm46.672-18.006H30.57l1.971 1.991a.806.806 0 00.371.155h23.077zm-6.849-6.847H23.792l1.667 1.685H40.68c.478 0 .865.39.865.87s-.387.87-.865.87H27.181l1.668 1.684h23.255l-1.685-1.685H45.52a.867.867 0 01-.864-.87c0-.48.387-.87.864-.87h3.158zm-26.49-3.32l1.566 1.582h23.185l-1.43-1.43a.815.815 0 00-.375-.155zm2.678 32.19V34.897h-6.263v15.378zm1.729 0h10.2V32.137h-2.2c-.55 0-1.206-.274-1.595-.667L20.21 20.252 9.054 31.472a.817.817 0 00-.154.376v1.14a1.235 1.235 0 012.004.566c.502 1.625.697 1.82 2.312 2.326.521.163.871.642.871 1.19a1.24 1.24 0 01-.87 1.191c-1.616.506-1.81.702-2.313 2.326a1.235 1.235 0 01-2.004.566v9.122h6.29V34.607c0-.799.647-1.449 1.441-1.449h6.839c.794 0 1.44.65 1.44 1.45zM9.72 38.813c.399-.849.888-1.341 1.732-1.742-.844-.401-1.333-.893-1.732-1.743-.399.85-.888 1.342-1.733 1.743.845.4 1.334.893 1.733 1.742zm47.558 11.125c0-.609-.492-1.104-1.098-1.104-.301 0-.583.121-.793.342a.86.86 0 01-.946.206.87.87 0 01-.543-.807c0-.617-.493-1.112-1.098-1.112a1.08 1.08 0 00-.692.247.86.86 0 01-.84.142.868.868 0 01-.554-.65 1.1 1.1 0 00-1.077-.891c-.605 0-1.098.495-1.098 1.105v.633a.87.87 0 01-.484.78.86.86 0 01-.91-.093 1.08 1.08 0 00-1.401.052.86.86 0 01-.93.146.87.87 0 01-.512-.794v-.834c0-.609-.493-1.104-1.098-1.104-.606 0-1.099.495-1.099 1.104v2.969h15.173zM22.634 41.46v1.223c0 .48-.387.87-.864.87a.867.867 0 01-.865-.87V41.46c0-.48.387-.87.865-.87.477 0 .864.39.864.87zm7.96-5.361v2.667c0 .67-.542 1.217-1.21 1.217h-2.19c-.667 0-1.21-.546-1.21-1.217v-2.667c0-.671.543-1.217 1.21-1.217h2.19c.668 0 1.21.546 1.21 1.217zm-1.728.522h-1.153v1.623h1.153zm21.9-30.665c0 3.292-2.663 5.97-5.936 5.97s-5.936-2.678-5.936-5.97 2.663-5.97 5.936-5.97 5.936 2.678 5.936 5.97zm-1.73 0c0-2.333-1.886-4.23-4.206-4.23-2.32 0-4.207 1.897-4.207 4.23 0 2.334 1.887 4.232 4.207 4.232s4.207-1.898 4.207-4.232z"/></svg>