<svg xmlns="http://www.w3.org/2000/svg" width="39" height="35"><path fill="#00cff1" d="M38.967 11.221a.6.6 0 01-.03.075c-.005.012-.007.025-.014.036-.01.02-.025.034-.038.051-.01.013-.015.028-.025.042L20.006 34.757c-.008.011-.022.016-.03.026a.612.612 0 01-.135.105c-.03.019-.056.041-.089.054-.01.005-.018.014-.029.018a.653.653 0 01-.223.04.643.643 0 01-.307-.085.631.631 0 01-.192-.152c-.002-.002-.005-.002-.007-.006l-.003-.004a.014.014 0 01-.004-.004L.141 11.425c-.012-.014-.017-.029-.026-.042-.012-.017-.027-.032-.038-.05-.006-.012-.008-.025-.014-.037a.617.617 0 01-.053-.166.64.64 0 01.037-.345c.006-.016.008-.032.015-.047.005-.01.014-.02.02-.03.006-.012.008-.024.015-.034L6.598.304a.662.662 0 01.106-.129c.003-.003.008-.004.011-.008a.645.645 0 01.187-.113c.009-.004.015-.012.025-.015.006-.002.013-.001.02-.003a.634.634 0 01.202-.037h24.705a.64.64 0 01.204.038c.007.001.015 0 .022.003.01.003.015.011.025.015.07.03.137.068.193.12l.002.002a.64.64 0 01.104.127l6.502 10.37c.006.011.009.023.014.034.006.011.015.02.02.03.008.015.009.032.015.047a.612.612 0 01.035.345c-.005.032-.014.061-.023.091zm-11.21-1.47l3.16-8.454h-10.05zM19.5 1.677l-7.085 8.694h14.17zm-1.366-.38H8.077l3.12 8.51zm-6.256 10.37l7.508 20.485 7.655-20.485zm17.035-1.296h8.267L32 2.108zm-27.093 0h8.199L6.993 2.117zm.185 1.296L17.54 30.894l-7.046-19.227zm34.99 0h-8.566l-7.37 19.723z"/></svg>