<svg xmlns="http://www.w3.org/2000/svg" width="25" height="29"><path fill="#282828" d="M25 20.762c0 3.152-3.398 8.186-7.404 8.186-.811 0-1.622-.305-2.383-.56-.76-.254-1.521-.559-2.282-.559-.913 0-1.826.305-2.637.661-.811.254-1.521.508-2.231.508-1.927 0-3.753-1.474-5.325-4.322C.71 21.016 0 17.05 0 14.763c0-4.169 3.55-8.846 8.671-8.846 1.167 0 1.927.457 2.637.864.41.24.798.457 1.24.572a6.863 6.863 0 01-.023-.674c0-3.762 2.84-5.897 5.528-6.66.152-.05.253 0 .405.05.152.052.203.204.254.306l.05.152V.68c.051.356.051.661.051.966 0 1.744-.602 3.275-1.714 4.483.472-.188.949-.314 1.46-.314 2.688 0 4.412 1.729 5.427 3l.405.508-.608.305c-1.572 1.118-2.434 2.796-2.434 4.78 0 2.338 1.065 4.066 3.347 5.286l.253.153v.61c0 .102.05.204.05.305zM13.489 6.68c0 .153 0 .356.05.61 1.623-.61 4.21-2.135 4.21-5.592.05-.152.05-.305 0-.508-2.13.762-4.26 2.541-4.26 5.49zm10.497 13.727c-2.434-1.372-3.6-3.356-3.6-5.999 0-2.186.912-4.067 2.535-5.338-.964-1.118-2.333-2.186-4.31-2.186-.66 0-1.268.305-2.029.66-.913.458-1.978.966-3.296.966-1.014 0-1.724-.406-2.434-.813-.71-.407-1.319-.763-2.18-.763-3.601 0-7.658 3.204-7.658 7.83 0 2.187.71 5.948 2.637 9.456.913 1.729 2.485 3.762 4.412 3.762.507 0 1.166-.254 1.825-.508.862-.356 1.877-.712 2.992-.712.913 0 1.775.306 2.637.61.71.254 1.42.509 2.08.509 2.433 0 6.389-3.356 6.389-7.169v-.305z"/></svg>