<svg xmlns="http://www.w3.org/2000/svg" width="27" height="29"><path fill="#282828" d="M27 14.499a2.808 2.808 0 01-1.485 2.487L4.478 28.542a2.943 2.943 0 01-2.945.119A2.838 2.838 0 010 26.149v-23.3C0 1.796.587.833 1.533.336a2.943 2.943 0 012.945.12l21.036 11.556A2.808 2.808 0 0127 14.499zM5.256 3.06L15.54 13.155l2.904-2.851zM14.17 14.5L1.935 2.529v23.94zm4.273 4.195l-2.904-2.852L5.256 25.937zm6.622-4.195a.929.929 0 00-.496-.83l-4.371-2.4-3.29 3.23 3.29 3.23 4.372-2.401a.927.927 0 00.495-.83z"/></svg>