<svg version="1.0" xmlns="http://www.w3.org/2000/svg" width="71" height="72" viewBox="0 0 710 720"><g fill="#f26522"><path d="M0 575V430h50c28 0 50 4 50 9s49 6 109 3c184-8 251 15 251 88 0 29 2 30 23 19 12-6 38-27 58-46 44-41 95-47 138-16 41 31 38 62-9 110-52 51-119 88-195 108-68 17-308 21-349 5-17-6-26-6-26 0s-22 10-50 10H0V575zm453 90c74-19 128-47 178-92 31-28 37-39 28-49-20-24-63-16-95 17-50 53-72 59-204 59-110 0-121-2-118-17s17-18 91-21c78-2 87-5 87-22 0-43-24-50-164-50-89 0-136 4-144 12-7 7-12 41-12 80 0 68 0 69 33 83 45 20 245 20 320 0zM60 485c0-8-7-15-15-15s-15 7-15 15 7 15 15 15 15-7 15-15z"/><path d="M510 327V163l-70-48-70-48-70 48-70 48v267h-60V319c0-84-3-110-12-106-13 4-37-20-38-38 0-6 14-19 30-28 26-16 30-24 30-63 0-44 0-44 35-44 24 0 35 5 35 15 0 21 4 20 63-20 28-19 55-35 59-35s63 39 132 86c125 85 126 85 110 109-9 14-22 21-30 18-12-4-14 15-14 115v121l-30 21-30 21V327z"/><path d="M340 406c0-7-9-16-21-19-14-4-19-12-17-24 3-13 12-17 35-16 43 4 52-15 14-28-57-20-66-63-21-109 32-33 55-38 64-15 3 8 12 15 19 15 10 0 13 8 10 24-5 22-9 24-41 19-42-7-38 8 8 27 47 20 54 91 9 105-10 4-19 13-19 21s-9 14-20 14-20-6-20-14z"/></g></svg>