<svg version="1.0" xmlns="http://www.w3.org/2000/svg" width="79" height="61" viewBox="0 0 790 610"><g fill="#f26522"><path d="M0 512v-98l65-47c48-35 65-53 65-70 0-19 28-45 131-121 72-53 134-96 138-94s64 45 134 97c100 74 127 99 127 118 0 17 17 35 65 70l65 47v196H0v-98zm130-37c0-52-3-95-6-95s-24 14-45 31c-38 30-39 32-39 95v64h90v-95zm210 40v-55h110v110h170V433l-1-138-108-80c-59-44-111-80-116-80s-57 36-116 80l-108 80-1 138v137h170v-55zm70 20c0-24-5-35-15-35s-15 11-15 35 5 35 15 35 15-11 15-35zm340-29c0-63-1-65-39-95-21-17-42-31-45-31s-6 43-6 95v95h90v-64z"/><path d="M3 304c-3-8-2-19 3-24C41 248 385 0 394 0c24 0 391 280 391 298 0 9-7 16-16 16-9-1-96-62-195-136L395 43 211 182C110 258 23 320 18 320s-11-7-15-16z"/></g></svg>