<svg xmlns="http://www.w3.org/2000/svg" width="32" height="30"><path fill="#d9d9d9" d="M32 29.136a.82.82 0 01-.819.822L.845 30H.844a.819.819 0 01-.82-.82L0 11.384l.001-.014a.82.82 0 01.353-.664L4.957 7.52V4.14a.82.82 0 01.82-.82h5.246L15.536.195a.817.817 0 01.933.001l4.484 3.123h5.27a.82.82 0 01.82.82v3.42l4.58 3.19a.818.818 0 01.322.456c.02.042.03.115.03.163zm-4.957-15.93l2.618-1.824-2.618-1.823zM13.907 3.319h4.175l-2.081-1.45zM6.596 14.384l6.32 4.376 2.594-2.015a.818.818 0 01.993-.008l.011.008 2.575 2 6.315-4.397V4.96H6.596zM2.26 11.382l2.697 1.867V9.515zm-.599 16.124l9.897-7.69L1.64 12.95zm27.075.814l-12.724-9.888-12.77 9.923zm1.622-.818l-.02-14.592-9.892 6.89zm-7.99-18.436a.82.82 0 01-.82.82H10.452a.82.82 0 010-1.641h11.096a.82.82 0 01.82.82zm0 4.269a.82.82 0 01-.82.82H10.452a.82.82 0 010-1.641h11.096a.82.82 0 01.82.82z"/></svg>