<!DOCTYPE svg PUBLIC "-//W3C//DTD SVG 20010904//EN" "http://www.w3.org/TR/2001/REC-SVG-20010904/DTD/svg10.dtd">
<svg version="1.0" xmlns="http://www.w3.org/2000/svg" width="350px" height="116px" viewBox="0 0 3500 1160" preserveAspectRatio="xMidYMid meet">
<g id="layer101" fill="#030303" stroke="none">
 <path d="M0 580 l0 -580 1750 0 1750 0 0 580 0 580 -1750 0 -1750 0 0 -580z"/>
 </g>
<g id="layer102" fill="#202120" stroke="none">
 <path d="M0 580 l0 -580 1750 0 1750 0 0 580 0 580 -1750 0 -1750 0 0 -580z m1717 113 c-4 -3 -10 -3 -14 0 -3 4 0 7 7 7 7 0 10 -3 7 -7z m343 -27 c0 -26 -4 -33 -17 -32 -14 1 -18 -6 -16 -26 1 -20 -2 -25 -14 -21 -13 5 -14 3 -3 -16 9 -18 9 -26 -2 -39 -11 -13 -11 -15 5 -9 25 9 47 -2 47 -24 0 -21 -20 -25 -38 -7 -6 6 -15 9 -19 5 -4 -4 -1 -13 5 -19 9 -9 9 -15 -1 -27 -10 -12 -9 -14 7 -8 16 6 17 4 11 -20 -5 -23 -4 -26 6 -15 21 20 29 14 29 -25 0 -37 -1 -38 -35 -38 -22 0 -34 4 -31 11 3 8 -3 10 -16 6 -14 -3 -19 -1 -14 6 4 7 1 12 -7 12 -10 0 -13 7 -10 20 4 16 2 19 -11 14 -14 -5 -16 6 -16 101 0 94 2 106 16 101 13 -5 15 -1 9 21 -6 24 -5 25 11 12 16 -12 17 -12 11 4 -6 15 -3 17 13 12 15 -5 18 -3 14 9 -4 11 3 16 28 19 18 2 34 5 36 5 1 1 2 -13 2 -32z m360 -2 c0 -29 -3 -35 -16 -30 -8 3 -12 2 -9 -4 3 -6 0 -10 -8 -10 -10 0 -13 -7 -10 -20 4 -16 2 -19 -13 -14 -16 6 -17 5 -6 -7 14 -16 16 -115 2 -124 -6 -4 -8 -11 -4 -16 3 -5 10 -6 16 -3 7 4 8 -2 3 -17 -7 -21 -6 -22 8 -11 23 19 37 6 37 -33 0 -34 -1 -34 -32 -28 -18 3 -34 9 -36 14 -2 4 -12 4 -24 1 -13 -3 -19 -1 -15 5 4 6 0 13 -8 17 -9 3 -12 12 -8 22 4 12 3 15 -5 10 -9 -5 -12 20 -12 98 0 87 2 104 14 100 11 -4 13 0 9 17 -5 17 -3 20 7 14 10 -6 12 -4 7 9 -5 14 -3 16 12 11 11 -3 21 0 24 9 5 12 15 17 60 25 4 0 7 -15 7 -35z m1025 26 c-4 -7 2 -9 19 -4 24 6 26 4 26 -26 0 -32 -1 -33 -40 -27 -40 5 -74 -13 -50 -28 13 -8 14 -320 0 -346 -8 -14 -21 -19 -54 -19 l-43 0 5 57 5 56 -32 -6 c-27 -6 -31 -4 -31 14 0 11 5 29 10 40 9 15 15 17 30 9 19 -10 20 -7 20 90 0 55 4 100 9 100 4 0 6 12 3 26 -3 19 -1 25 7 20 6 -4 11 -1 11 9 0 9 4 13 10 10 6 -3 7 1 4 9 -8 20 36 22 54 4 9 -9 12 -8 12 5 0 9 7 17 16 17 8 0 12 -5 9 -10z m-2511 -6 c18 -7 21 -49 4 -60 -7 -5 -8 -3 -3 7 7 12 6 12 -7 1 -9 -8 -14 -20 -11 -28 3 -8 1 -14 -3 -14 -5 0 -9 -36 -9 -79 0 -47 4 -79 10 -78 6 1 8 -7 7 -17 -3 -17 -2 -18 12 -7 21 18 25 13 19 -26 -4 -23 -11 -33 -23 -33 -10 0 -27 -3 -37 -7 -16 -6 -17 -5 -3 12 14 17 13 17 -8 11 -16 -5 -22 -4 -20 6 2 7 -3 12 -10 10 -10 -2 -11 4 -6 20 6 19 4 21 -7 11 -12 -10 -14 6 -14 98 0 86 3 108 13 104 10 -3 11 1 7 16 -5 15 -4 19 4 15 6 -4 11 0 11 9 0 12 6 15 21 10 14 -5 19 -3 15 3 -3 6 0 13 6 15 7 3 14 6 15 6 1 1 8 -2 17 -5z m100 0 c9 -3 13 -11 9 -17 -4 -6 0 -8 9 -4 10 3 15 0 14 -11 -1 -11 6 -16 17 -15 14 1 17 -4 14 -18 -3 -11 0 -19 6 -19 9 0 11 -25 9 -85 -2 -47 -7 -85 -12 -85 -4 0 -6 -9 -3 -19 3 -14 0 -19 -14 -18 -12 1 -17 -4 -16 -16 1 -14 -4 -17 -18 -14 -10 3 -19 1 -19 -4 0 -5 -8 -9 -19 -9 -13 0 -20 9 -24 33 -5 37 -2 44 15 29 10 -8 12 8 10 84 -3 63 0 99 8 109 9 11 7 17 -9 27 -21 13 -28 38 -14 51 8 9 17 9 37 1z m317 -28 c8 -27 7 -28 -21 -23 -32 7 -57 -12 -39 -30 6 -6 9 -59 7 -133 l-3 -122 -53 -2 -52 -1 0 147 c0 136 1 147 18 141 14 -5 15 -3 5 8 -21 21 -15 32 13 25 15 -4 23 -3 20 3 -9 13 13 20 58 18 34 -2 41 -6 47 -31z m139 -142 c0 -157 -2 -175 -16 -170 -9 3 -31 6 -50 6 l-34 0 0 163 c0 90 3 167 7 170 3 4 26 7 50 7 l43 0 0 -176z m164 170 c18 -7 21 -49 4 -60 -7 -5 -8 -3 -3 7 5 8 -1 5 -13 -5 -16 -13 -20 -26 -16 -43 6 -23 5 -24 -46 -21 -35 2 -55 8 -58 17 -3 10 0 12 12 8 12 -5 16 -1 16 17 0 13 7 27 16 30 10 4 14 12 10 22 -5 13 -1 15 20 10 15 -4 23 -3 20 3 -3 5 0 12 6 14 7 3 14 6 15 6 1 1 8 -2 17 -5z m132 -10 c-4 -12 -1 -14 14 -9 16 5 19 3 13 -12 -6 -16 -5 -16 11 -4 16 13 17 12 11 -12 -6 -22 -4 -26 9 -21 12 5 16 0 16 -21 0 -21 -4 -26 -16 -21 -11 4 -15 2 -11 -8 3 -8 -1 -17 -9 -20 -10 -4 -12 -2 -8 6 4 7 3 8 -4 4 -7 -4 -12 -14 -12 -22 0 -11 -6 -13 -22 -8 -21 6 -21 5 -9 -10 13 -16 12 -17 -12 -11 -22 6 -26 4 -21 -9 7 -18 -20 -23 -31 -6 -10 16 -28 11 -21 -6 4 -11 1 -14 -13 -9 -21 6 -49 -19 -31 -30 6 -4 8 -16 4 -28 -6 -20 -5 -20 10 -8 21 18 25 13 19 -26 -4 -25 -10 -32 -34 -35 -23 -4 -29 -1 -24 10 3 9 0 12 -9 9 -10 -4 -13 -1 -10 8 4 10 0 12 -17 8 -19 -5 -21 -3 -17 20 3 15 2 27 -2 27 -4 0 -11 7 -14 16 -4 12 -2 15 9 10 17 -6 21 9 4 20 -7 4 -8 9 0 17 7 7 15 6 27 -4 16 -12 17 -12 11 3 -4 13 -2 15 10 11 11 -4 14 -2 9 5 -7 12 4 16 38 12 12 -1 16 2 11 11 -6 9 -1 11 19 7 14 -3 26 -2 26 3 0 4 10 9 23 11 19 3 22 9 22 43 0 37 -2 40 -26 37 -23 -2 -26 1 -22 22 5 25 19 33 62 35 17 1 22 -3 17 -15z m378 0 c4 -10 2 -13 -7 -8 -8 5 -8 2 2 -9 7 -9 18 -14 24 -10 6 3 7 1 3 -5 -4 -7 -2 -12 4 -12 7 0 10 -7 6 -15 -3 -9 0 -15 8 -15 15 0 28 -24 19 -34 -8 -8 -98 -8 -106 0 -3 3 -2 17 3 30 8 19 6 24 -6 24 -8 0 -12 4 -9 10 3 6 -1 7 -9 4 -23 -9 -21 32 2 45 26 15 59 13 66 -5z m342 0 c-3 -8 -2 -12 4 -9 6 3 10 -1 10 -10 0 -8 7 -18 15 -21 8 -4 15 -15 15 -25 0 -10 6 -18 12 -17 7 2 14 -7 16 -19 3 -22 0 -23 -53 -23 l-57 0 4 43 c2 35 0 42 -14 41 -13 -1 -18 5 -18 21 0 25 11 33 49 34 17 1 22 -3 17 -15z m278 4 c11 -33 16 -72 9 -62 -28 38 -83 14 -83 -37 0 -23 3 -27 18 -22 15 6 16 5 2 -12 -14 -17 -13 -17 8 -11 16 5 22 4 20 -6 -2 -7 4 -12 13 -10 11 1 18 -7 21 -23 5 -23 2 -25 -28 -25 -27 0 -32 3 -27 16 5 13 2 15 -17 9 -15 -5 -20 -4 -16 4 4 7 -1 11 -12 11 -11 0 -22 7 -26 15 -3 8 -12 15 -21 15 -11 0 -15 12 -15 50 0 43 2 49 18 43 14 -5 15 -3 5 8 -21 21 -15 32 13 25 15 -4 23 -3 20 3 -8 12 11 19 57 20 22 1 39 -4 41 -11z m140 6 c9 -3 16 -13 16 -21 0 -8 -3 -12 -7 -10 -5 3 -7 -56 -5 -130 3 -122 2 -135 -13 -129 -9 3 -13 2 -10 -4 3 -6 -1 -10 -10 -10 -9 0 -13 -5 -9 -11 4 -8 0 -9 -15 -4 -15 4 -19 3 -16 -7 4 -10 -12 -13 -70 -13 -52 0 -74 3 -71 11 3 8 -3 10 -16 6 -14 -3 -19 -1 -14 6 4 7 1 12 -9 12 -9 0 -13 4 -10 10 3 6 -1 7 -9 4 -25 -10 -20 33 5 46 25 14 73 5 63 -12 -5 -7 -2 -9 9 -5 12 4 14 2 10 -11 -5 -14 -3 -15 8 -5 18 18 32 16 25 -3 -5 -12 0 -15 22 -12 l27 3 3 118 c1 64 7 117 11 117 5 0 7 9 4 21 -9 32 36 50 81 33z m188 -161 c-2 -92 -4 -168 -5 -169 -1 -1 -23 -4 -49 -6 l-48 -6 0 174 0 174 53 0 52 0 -3 -167z m-905 -1 c6 -4 12 -27 14 -52 3 -40 1 -45 -16 -42 -16 3 -18 1 -7 -9 17 -18 15 -32 -4 -25 -8 3 -12 2 -9 -4 3 -6 -1 -10 -10 -10 -9 0 -13 -5 -9 -11 4 -8 0 -9 -15 -4 -15 4 -19 3 -16 -7 4 -9 -4 -13 -25 -14 -27 -1 -30 2 -30 32 0 36 14 51 33 36 9 -8 12 1 12 38 0 38 -3 46 -13 38 -9 -8 -16 -8 -25 1 -27 28 81 58 120 33z m371 -77 c3 -22 0 -26 -12 -22 -11 5 -16 1 -16 -13 0 -10 -5 -22 -12 -26 -7 -5 -8 -3 -3 6 5 9 4 11 -3 6 -7 -4 -12 -14 -12 -22 0 -11 -6 -13 -22 -8 -20 6 -21 5 -10 -8 10 -13 8 -15 -18 -14 -28 1 -30 4 -30 39 0 38 8 45 28 25 8 -8 10 -2 7 28 l-5 39 52 -1 c50 -1 53 -3 56 -29z m-742 -25 c-1 -16 -7 -32 -14 -35 -8 -3 -10 0 -6 7 4 7 3 8 -4 4 -7 -4 -12 -14 -12 -22 0 -11 -6 -13 -22 -8 -20 6 -21 5 -9 -10 12 -14 10 -15 -20 -10 -41 8 -35 3 -42 42 -5 26 -3 32 11 32 10 0 24 -6 31 -12 10 -11 11 -8 6 15 -7 26 -6 27 37 27 44 0 45 -1 44 -30z m1382 -42 c3 -32 0 -37 -17 -35 -12 1 -21 7 -21 13 0 7 -8 10 -20 7 -15 -4 -19 -1 -15 11 3 9 7 23 10 32 3 10 14 14 32 12 24 -3 28 -8 31 -40z m252 4 c0 -31 -4 -38 -20 -38 -16 0 -20 7 -20 38 0 31 4 38 20 38 16 0 20 -7 20 -38z"/>
 </g>
<g id="layer103" fill="#211f24" stroke="none">
 <path d="M0 580 l0 -580 1750 0 1750 0 0 580 0 580 -1750 0 -1749 0 -1 -580z m1724 109 c-3 -6 5 -7 21 -3 36 9 97 -24 89 -48 -3 -12 0 -18 10 -18 24 0 19 -43 -7 -68 -13 -12 -27 -19 -32 -15 -4 5 -5 3 -1 -4 8 -15 -27 -35 -48 -27 -11 4 -16 1 -16 -10 0 -9 -6 -16 -14 -16 -8 0 -27 -5 -43 -12 -15 -6 -31 -11 -35 -10 -10 2 -10 -2 -2 -22 3 -9 11 -16 18 -16 7 0 11 -16 11 -39 0 -38 0 -38 -36 -36 -37 2 -79 33 -79 58 0 7 -5 18 -11 24 -21 21 2 63 45 81 22 9 45 15 50 14 5 -2 12 1 15 5 13 17 51 32 66 27 9 -4 15 -3 14 2 -1 5 1 17 5 26 8 17 -13 48 -32 48 -5 0 -8 17 -6 38 2 46 2 44 14 37 6 -4 8 -11 4 -16z m-768 -21 c-2 -39 -13 -61 -28 -52 -6 4 -8 -1 -3 -16 5 -17 4 -22 -6 -18 -11 5 -13 -9 -9 -71 4 -64 8 -77 25 -85 15 -7 20 -18 20 -46 0 -37 0 -37 -40 -35 -46 1 -68 12 -59 27 4 6 2 8 -4 4 -20 -12 -25 16 -24 136 0 103 3 122 19 136 26 25 70 42 88 36 8 -4 15 -1 15 5 0 6 2 11 3 11 2 0 3 -15 3 -32z m720 0 c-2 -38 -13 -61 -27 -52 -5 3 -9 2 -8 -3 1 -4 -2 -18 -6 -31 -7 -21 -13 -23 -58 -20 -29 2 -52 8 -55 16 -2 6 4 12 13 12 10 0 15 7 14 18 -4 24 19 62 36 62 8 0 15 5 15 11 0 8 12 10 35 6 19 -3 35 -2 35 4 0 5 2 9 3 9 2 0 3 -15 3 -32z m379 -35 c-3 -15 -11 -23 -19 -20 -9 4 -12 0 -9 -13 3 -10 0 -21 -5 -24 -16 -9 -2 -46 17 -46 24 0 30 -8 24 -31 -3 -10 -14 -19 -24 -19 -21 0 -22 -4 -13 -37 4 -13 13 -23 20 -23 10 0 14 -12 14 -38 0 -38 -1 -39 -34 -38 -39 2 -86 33 -79 53 3 7 -2 13 -11 13 -14 0 -16 15 -16 105 0 89 2 105 16 105 10 0 13 6 10 18 -4 13 3 22 27 34 70 37 98 23 82 -39z m365 31 c0 -29 -3 -35 -16 -30 -8 3 -12 2 -9 -4 3 -6 1 -10 -4 -10 -6 0 -11 -9 -11 -21 0 -11 -3 -18 -7 -16 -5 3 -8 -28 -8 -68 0 -70 1 -75 28 -90 21 -12 27 -24 27 -50 0 -32 -1 -33 -37 -31 -51 4 -90 24 -97 50 -10 35 -7 236 3 236 5 0 13 9 16 21 5 14 13 19 25 16 12 -3 17 0 13 8 -3 9 6 15 29 18 18 2 36 5 41 5 4 1 7 -14 7 -34z m1048 30 c16 -5 22 -14 22 -35 0 -25 -4 -29 -28 -29 -49 0 -52 -11 -52 -188 0 -93 -4 -172 -10 -183 -8 -14 -21 -19 -54 -19 l-43 0 5 57 5 56 -32 -6 c-27 -6 -31 -4 -31 14 0 35 18 58 41 52 20 -6 20 -3 17 91 -2 53 0 96 5 96 4 0 7 11 7 25 0 14 4 25 9 25 5 0 11 10 14 21 5 19 11 21 41 16 20 -3 36 -2 36 4 0 10 15 11 48 3z m-2407 -27 c19 -12 35 -33 37 -45 2 -12 6 -22 10 -22 12 0 5 -174 -8 -201 -13 -29 -50 -51 -90 -54 -23 -2 -25 1 -25 36 0 25 4 39 12 39 18 0 18 181 1 198 -7 7 -13 26 -14 42 -1 25 2 30 21 30 12 0 37 -10 56 -23z m296 -6 c0 -25 -5 -30 -31 -35 l-31 -6 0 -136 0 -136 -52 -2 -53 -1 0 140 c0 77 3 149 6 160 7 29 40 42 105 44 55 1 56 1 56 -28z m133 -143 l0 -173 -52 0 -53 0 0 173 0 172 53 0 52 0 0 -172z m666 156 c-3 -9 -2 -12 5 -9 13 9 38 -13 52 -45 21 -50 16 -55 -43 -55 -53 0 -55 1 -52 26 2 20 -2 28 -17 32 -26 6 -28 42 -3 56 28 17 65 14 58 -5z m361 -1 c4 -10 15 -24 24 -31 10 -7 16 -19 12 -28 -3 -9 0 -14 8 -12 9 2 15 -8 17 -24 3 -28 3 -28 -53 -28 l-57 0 4 34 c3 26 1 33 -11 28 -10 -4 -13 -1 -8 12 4 10 3 15 -3 11 -6 -3 -10 5 -10 19 0 13 6 27 13 29 27 11 58 6 64 -10z m279 -23 c0 -22 -3 -35 -7 -29 -8 13 -47 3 -66 -17 -15 -14 -18 -58 -4 -49 5 3 25 -3 44 -12 26 -14 34 -24 34 -45 0 -25 -4 -28 -34 -28 -41 0 -76 17 -67 32 4 6 -1 8 -15 3 -18 -5 -24 -2 -28 14 -3 12 -9 21 -14 21 -10 0 -12 73 -3 105 7 29 40 42 105 44 l55 1 0 -40z m129 32 c7 -4 9 -61 7 -150 -3 -122 -6 -144 -20 -150 -10 -3 -22 -12 -28 -20 -15 -21 -169 -21 -193 0 -9 8 -25 17 -34 21 -25 10 -21 46 7 58 20 9 34 8 70 -7 25 -11 46 -25 46 -31 0 -17 18 -16 36 2 12 11 15 38 14 117 -1 57 1 110 5 119 3 9 5 20 4 25 -1 5 -1 12 0 17 1 9 73 9 86 -1z m190 -164 l0 -173 -52 0 -53 0 0 173 0 172 53 0 52 0 0 -172z m-908 4 c16 -10 20 -98 4 -94 -8 2 -10 -4 -6 -18 4 -14 1 -22 -12 -27 -10 -4 -23 -13 -29 -21 -6 -8 -27 -16 -47 -17 -36 -3 -37 -2 -37 30 0 24 6 38 20 45 27 14 25 44 -2 64 -23 15 -23 16 -4 31 20 15 92 20 113 7z m371 -77 c3 -23 0 -27 -13 -21 -13 5 -16 2 -11 -10 8 -20 -12 -47 -27 -37 -6 3 -7 1 -3 -5 8 -14 -21 -30 -56 -30 -26 0 -28 4 -28 39 0 28 4 39 15 39 10 0 15 10 15 28 0 26 2 27 53 26 49 0 52 -2 55 -29z m-742 -22 c-2 -35 -14 -55 -28 -47 -6 4 -8 2 -4 -4 9 -15 -13 -26 -59 -27 l-40 -2 0 39 c0 33 3 38 22 38 14 0 23 6 23 15 0 11 12 15 44 15 41 0 44 -1 42 -27z m1349 -8 c27 0 30 -3 33 -37 3 -32 0 -37 -17 -35 -12 1 -21 5 -21 9 0 4 -8 8 -18 8 -14 0 -18 8 -18 35 0 19 2 31 6 27 3 -4 19 -7 35 -7z m285 -35 c0 -33 -3 -40 -20 -40 -17 0 -20 7 -20 40 0 33 3 40 20 40 17 0 20 -7 20 -40z"/>
 </g>
<g id="layer104" fill="#f9930e" stroke="none">
 <path d="M0 580 l0 -580 1750 0 1750 0 0 580 0 580 -1750 0 -1749 0 -1 -580z m1756 110 c49 0 104 -53 104 -100 0 -34 -83 -94 -160 -115 -14 -4 -31 -12 -37 -17 -18 -14 -16 -38 2 -38 11 0 15 -11 15 -40 0 -39 -1 -40 -34 -40 -19 0 -41 6 -48 13 -7 7 -21 16 -31 20 -10 4 -15 12 -12 17 4 6 1 17 -5 25 -18 22 -2 75 26 85 13 5 24 14 24 20 0 5 11 10 24 10 14 0 28 5 31 10 4 6 10 8 14 5 12 -7 71 24 78 41 5 15 -19 44 -36 44 -12 0 -15 62 -4 74 4 3 11 2 17 -4 5 -5 20 -10 32 -10z m1734 -32 c0 -24 -4 -28 -28 -28 -50 0 -52 -10 -52 -207 l0 -183 -55 0 -55 0 0 50 c0 47 -2 50 -25 50 -23 0 -25 4 -25 41 0 36 2 40 23 37 21 -3 22 0 25 92 2 52 7 99 12 104 6 6 10 17 10 25 0 24 32 51 61 51 15 0 30 4 33 9 4 5 20 5 41 -2 29 -9 35 -15 35 -39z m-2544 -37 c-9 -10 -16 -23 -16 -29 0 -7 -4 -12 -10 -12 -6 0 -10 -28 -10 -65 0 -37 4 -65 10 -65 6 0 10 -7 10 -15 0 -8 7 -15 15 -15 11 0 15 -11 15 -40 l0 -40 -41 0 c-31 0 -47 6 -70 29 -28 29 -29 32 -29 136 0 111 15 165 45 165 8 0 15 4 15 9 0 6 17 11 38 13 34 3 37 1 40 -25 2 -16 -4 -37 -12 -46z m710 -10 c-14 -15 -26 -32 -26 -39 0 -15 -96 -17 -105 -2 -3 5 0 19 6 32 7 13 15 29 19 37 3 8 15 19 26 25 10 6 21 14 24 18 3 3 21 8 40 10 32 3 35 1 38 -26 2 -20 -4 -36 -22 -55z m404 55 c0 -19 -6 -41 -12 -48 -37 -40 -41 -88 -9 -88 24 0 30 -8 24 -31 -3 -10 -14 -19 -24 -19 -21 0 -22 -4 -13 -37 4 -13 13 -23 20 -23 10 0 14 -13 14 -40 0 -37 -2 -40 -29 -40 -40 0 -80 23 -97 55 -18 34 -19 200 -2 237 13 27 56 54 98 61 14 2 26 5 28 6 1 0 2 -14 2 -33z m360 3 c0 -19 -10 -43 -25 -61 -21 -25 -25 -40 -25 -93 0 -54 3 -66 25 -86 16 -16 25 -35 25 -56 0 -31 -2 -33 -34 -33 -42 0 -93 28 -100 55 -8 27 -7 215 0 243 4 12 17 25 30 28 13 3 24 10 24 14 0 5 15 11 33 13 17 2 35 5 40 5 4 1 7 -12 7 -29z m-1332 -23 c30 -41 32 -47 32 -129 0 -61 -5 -94 -17 -114 -19 -34 -64 -63 -99 -63 -21 0 -24 4 -24 40 0 29 4 40 15 40 12 0 15 17 15 94 0 71 -4 97 -15 106 -8 7 -15 25 -15 41 0 27 3 29 38 29 32 -1 41 -7 70 -44z m272 14 c0 -23 -5 -30 -19 -30 -34 0 -40 -23 -43 -156 l-3 -129 -52 -3 -53 -3 0 143 c0 79 3 152 6 163 7 29 40 42 107 44 57 1 57 1 57 -29z m130 -145 l0 -175 -55 0 -55 0 0 175 0 175 55 0 55 0 0 -175z m692 148 c26 -29 41 -57 42 -83 1 -12 -11 -15 -54 -15 -45 0 -55 3 -52 16 1 9 -7 24 -18 34 -11 10 -20 31 -20 47 0 26 3 28 38 28 29 0 44 -7 64 -27z m349 0 c32 -37 49 -69 49 -93 0 -18 -7 -20 -55 -20 -54 0 -55 0 -55 30 0 17 -4 30 -10 30 -10 0 -30 60 -23 73 2 4 19 7 37 7 23 0 39 -8 57 -27z m269 -14 c0 -36 -2 -40 -15 -29 -13 11 -20 9 -40 -10 -34 -32 -31 -44 15 -66 32 -15 40 -24 40 -46 0 -25 -3 -28 -36 -28 -34 0 -79 19 -116 49 -13 10 -18 28 -18 60 0 92 17 108 113 110 l57 1 0 -41z m140 21 c-2 -8 -7 -76 -10 -150 l-5 -134 -34 -23 c-27 -18 -48 -23 -103 -23 -92 0 -148 31 -148 82 0 27 2 28 50 28 28 0 50 -4 50 -9 0 -5 13 -16 29 -24 44 -22 51 -7 51 114 0 66 4 110 11 114 6 4 8 13 5 20 -8 21 5 26 59 23 39 -2 49 -6 45 -18z m180 -155 l0 -175 -55 0 -55 0 0 175 0 175 55 0 55 0 0 -175z m-897 -35 c-1 -25 -6 -57 -12 -72 -13 -34 -66 -68 -103 -68 -25 0 -28 4 -28 35 0 24 6 37 20 45 11 6 20 19 20 30 0 11 -9 24 -20 30 -11 6 -20 20 -20 31 0 18 6 20 71 17 l72 -3 0 -45z m355 -32 c2 -16 -1 -28 -7 -28 -6 0 -11 -6 -11 -14 0 -23 -59 -66 -91 -66 -27 0 -29 2 -29 40 0 29 4 40 15 40 10 0 15 10 15 31 l0 30 53 -3 c48 -3 52 -5 55 -30z m-738 -27 c0 -42 -49 -81 -101 -81 -39 0 -39 0 -39 40 0 36 3 40 25 40 16 0 25 6 25 15 0 11 12 15 45 15 43 0 45 -1 45 -29z m1378 -44 c3 -33 1 -37 -20 -37 -35 1 -58 24 -58 57 0 29 1 30 38 24 34 -6 37 -9 40 -44z m252 3 c0 -33 -3 -40 -20 -40 -17 0 -20 7 -20 40 0 33 3 40 20 40 17 0 20 -7 20 -40z"/>
 </g>
<g id="layer105" fill="#f69e2e" stroke="none">
 <path d="M1 948 c1 -117 4 -206 6 -197 3 14 16 16 66 15 103 -4 97 -12 97 134 l0 128 25 6 c14 4 30 4 34 2 12 -8 21 -156 12 -203 -4 -23 -5 -47 -1 -53 5 -8 62 -12 179 -13 l173 -1 1 197 2 197 -298 0 -298 0 2 -212z"/>
 <path d="M670 962 l0 -197 872 3 c494 2 880 8 890 13 18 10 1006 13 1031 3 9 -3 13 -13 10 -25 -5 -19 -27 -19 -1172 -19 -641 0 -1271 -3 -1398 -7 l-233 -6 0 -214 0 -214 -37 3 -38 3 0 213 0 212 -177 0 -178 0 0 -214 0 -214 -35 -4 -35 -4 0 218 0 219 -83 -3 -82 -3 -3 -362 -2 -363 1750 0 1750 0 0 580 0 580 -1415 0 -1415 0 0 -198z m1086 -272 c49 0 104 -53 104 -100 0 -34 -83 -94 -160 -115 -14 -4 -31 -12 -37 -17 -18 -14 -16 -38 2 -38 11 0 15 -11 15 -40 0 -39 -1 -40 -34 -40 -19 0 -41 6 -48 13 -7 7 -21 16 -31 20 -10 4 -15 12 -12 17 4 6 1 17 -5 25 -18 22 -2 75 26 85 13 5 24 14 24 20 0 5 11 10 24 10 14 0 28 5 31 10 4 6 10 8 14 5 12 -7 71 24 78 41 5 15 -19 44 -36 44 -12 0 -15 62 -4 74 4 3 11 2 17 -4 5 -5 20 -10 32 -10z m1734 -32 c0 -24 -4 -28 -28 -28 -50 0 -52 -10 -52 -207 l0 -183 -55 0 -55 0 0 50 c0 47 -2 50 -25 50 -23 0 -25 4 -25 41 0 36 2 40 23 37 21 -3 22 0 25 92 2 52 7 99 12 104 6 6 10 17 10 25 0 24 32 51 61 51 15 0 30 4 33 9 4 5 20 5 41 -2 29 -9 35 -15 35 -39z m-2544 -37 c-9 -10 -16 -23 -16 -29 0 -7 -4 -12 -10 -12 -6 0 -10 -28 -10 -65 0 -37 4 -65 10 -65 6 0 10 -7 10 -15 0 -8 7 -15 15 -15 11 0 15 -11 15 -40 l0 -40 -41 0 c-31 0 -47 6 -70 29 -28 29 -29 32 -29 136 0 111 15 165 45 165 8 0 15 4 15 9 0 6 17 11 38 13 34 3 37 1 40 -25 2 -16 -4 -37 -12 -46z m710 -10 c-14 -15 -26 -32 -26 -39 0 -15 -96 -17 -105 -2 -3 5 0 19 6 32 7 13 15 29 19 37 3 8 15 19 26 25 10 6 21 14 24 18 3 3 21 8 40 10 32 3 35 1 38 -26 2 -20 -4 -36 -22 -55z m404 55 c0 -19 -6 -41 -12 -48 -37 -40 -41 -88 -9 -88 24 0 30 -8 24 -31 -3 -10 -14 -19 -24 -19 -21 0 -22 -4 -13 -37 4 -13 13 -23 20 -23 10 0 14 -13 14 -40 0 -37 -2 -40 -29 -40 -40 0 -80 23 -97 55 -18 34 -19 200 -2 237 13 27 56 54 98 61 14 2 26 5 28 6 1 0 2 -14 2 -33z m360 3 c0 -19 -10 -43 -25 -61 -21 -25 -25 -40 -25 -93 0 -54 3 -66 25 -86 16 -16 25 -35 25 -56 0 -31 -2 -33 -34 -33 -42 0 -93 28 -100 55 -8 27 -7 215 0 243 4 12 17 25 30 28 13 3 24 10 24 14 0 5 15 11 33 13 17 2 35 5 40 5 4 1 7 -12 7 -29z m-1332 -23 c30 -41 32 -47 32 -129 0 -61 -5 -94 -17 -114 -19 -34 -64 -63 -99 -63 -21 0 -24 4 -24 40 0 29 4 40 15 40 12 0 15 17 15 94 0 71 -4 97 -15 106 -8 7 -15 25 -15 41 0 27 3 29 38 29 32 -1 41 -7 70 -44z m272 14 c0 -23 -5 -30 -19 -30 -34 0 -40 -23 -43 -156 l-3 -129 -52 -3 -53 -3 0 143 c0 79 3 152 6 163 7 29 40 42 107 44 57 1 57 1 57 -29z m130 -145 l0 -175 -55 0 -55 0 0 175 0 175 55 0 55 0 0 -175z m692 148 c26 -29 41 -57 42 -83 1 -12 -11 -15 -54 -15 -45 0 -55 3 -52 16 1 9 -7 24 -18 34 -11 10 -20 31 -20 47 0 26 3 28 38 28 29 0 44 -7 64 -27z m349 0 c32 -37 49 -69 49 -93 0 -18 -7 -20 -55 -20 -54 0 -55 0 -55 30 0 17 -4 30 -10 30 -10 0 -30 60 -23 73 2 4 19 7 37 7 23 0 39 -8 57 -27z m269 -14 c0 -36 -2 -40 -15 -29 -13 11 -20 9 -40 -10 -34 -32 -31 -44 15 -66 32 -15 40 -24 40 -46 0 -25 -3 -28 -36 -28 -34 0 -79 19 -116 49 -13 10 -18 28 -18 60 0 92 17 108 113 110 l57 1 0 -41z m140 21 c-2 -8 -7 -76 -10 -150 l-5 -134 -34 -23 c-27 -18 -48 -23 -103 -23 -92 0 -148 31 -148 82 0 27 2 28 50 28 28 0 50 -4 50 -9 0 -5 13 -16 29 -24 44 -22 51 -7 51 114 0 66 4 110 11 114 6 4 8 13 5 20 -8 21 5 26 59 23 39 -2 49 -6 45 -18z m180 -155 l0 -175 -55 0 -55 0 0 175 0 175 55 0 55 0 0 -175z m-897 -35 c-1 -25 -6 -57 -12 -72 -13 -34 -66 -68 -103 -68 -25 0 -28 4 -28 35 0 24 6 37 20 45 11 6 20 19 20 30 0 11 -9 24 -20 30 -11 6 -20 20 -20 31 0 18 6 20 71 17 l72 -3 0 -45z m355 -32 c2 -16 -1 -28 -7 -28 -6 0 -11 -6 -11 -14 0 -23 -59 -66 -91 -66 -27 0 -29 2 -29 40 0 29 4 40 15 40 10 0 15 10 15 31 l0 30 53 -3 c48 -3 52 -5 55 -30z m-738 -27 c0 -42 -49 -81 -101 -81 -39 0 -39 0 -39 40 0 36 3 40 25 40 16 0 25 6 25 15 0 11 12 15 45 15 43 0 45 -1 45 -29z m1378 -44 c3 -33 1 -37 -20 -37 -35 1 -58 24 -58 57 0 29 1 30 38 24 34 -6 37 -9 40 -44z m252 3 c0 -33 -3 -40 -20 -40 -17 0 -20 7 -20 40 0 33 3 40 20 40 17 0 20 -7 20 -40z m-3010 -90 c25 -46 -23 -88 -61 -54 -10 9 -19 25 -19 34 0 40 61 55 80 20z m-295 -20 c3 -5 4 -10 1 -10 -3 0 -8 5 -11 10 -3 6 -4 10 -1 10 3 0 8 -4 11 -10z m535 6 c0 -3 -5 -8 -12 -12 -7 -4 -8 -3 -4 4 7 12 16 16 16 8z"/>
 </g>
<g id="layer106" fill="#f7b255" stroke="none">
 <path d="M1 948 c1 -117 4 -205 6 -195 4 17 9 18 94 22 26 1 52 5 58 9 7 5 11 50 11 132 l0 124 35 0 35 0 2 -57 c1 -32 2 -92 3 -133 l0 -75 173 0 173 0 2 193 2 192 -298 0 -298 0 2 -212z"/>
 <path d="M670 981 c0 -99 2 -185 5 -193 4 -10 42 -13 173 -12 92 0 714 4 1382 8 669 4 1223 4 1233 0 9 -3 17 -15 17 -25 0 -18 -21 -19 -547 -24 -302 -4 -928 -7 -1393 -8 -465 -1 -851 -6 -857 -10 -10 -6 -13 -61 -13 -218 l0 -210 -37 3 -38 3 -1 215 -1 215 -154 3 c-85 1 -164 0 -176 -3 -23 -5 -23 -6 -23 -220 l0 -215 -35 0 -35 0 -2 218 -3 217 -80 0 -80 0 -3 -362 -2 -363 1750 0 1750 0 0 580 0 580 -1415 0 -1415 0 0 -179z m1086 -291 c49 0 104 -53 104 -100 0 -34 -83 -94 -160 -115 -14 -4 -31 -12 -37 -17 -18 -14 -16 -38 2 -38 11 0 15 -11 15 -40 0 -39 -1 -40 -34 -40 -19 0 -41 6 -48 13 -7 7 -21 16 -31 20 -10 4 -15 12 -12 17 4 6 1 17 -5 25 -18 22 -2 75 26 85 13 5 24 14 24 20 0 5 11 10 24 10 14 0 28 5 31 10 4 6 10 8 14 5 12 -7 71 24 78 41 5 15 -19 44 -36 44 -12 0 -15 62 -4 74 4 3 11 2 17 -4 5 -5 20 -10 32 -10z m1734 -32 c0 -24 -4 -28 -28 -28 -50 0 -52 -10 -52 -207 l0 -183 -55 0 -55 0 0 50 c0 47 -2 50 -25 50 -23 0 -25 4 -25 41 0 36 2 40 23 37 21 -3 22 0 25 92 2 52 7 99 12 104 6 6 10 17 10 25 0 24 32 51 61 51 15 0 30 4 33 9 4 5 20 5 41 -2 29 -9 35 -15 35 -39z m-2544 -37 c-9 -10 -16 -23 -16 -29 0 -7 -4 -12 -10 -12 -6 0 -10 -28 -10 -65 0 -37 4 -65 10 -65 6 0 10 -7 10 -15 0 -8 7 -15 15 -15 11 0 15 -11 15 -40 l0 -40 -41 0 c-31 0 -47 6 -70 29 -28 29 -29 32 -29 136 0 111 15 165 45 165 8 0 15 4 15 9 0 6 17 11 38 13 34 3 37 1 40 -25 2 -16 -4 -37 -12 -46z m710 -10 c-14 -15 -26 -32 -26 -39 0 -15 -96 -17 -105 -2 -3 5 0 19 6 32 7 13 15 29 19 37 3 8 15 19 26 25 10 6 21 14 24 18 3 3 21 8 40 10 32 3 35 1 38 -26 2 -20 -4 -36 -22 -55z m404 55 c0 -19 -6 -41 -12 -48 -37 -40 -41 -88 -9 -88 24 0 30 -8 24 -31 -3 -10 -14 -19 -24 -19 -21 0 -22 -4 -13 -37 4 -13 13 -23 20 -23 10 0 14 -13 14 -40 0 -37 -2 -40 -29 -40 -40 0 -80 23 -97 55 -18 34 -19 200 -2 237 13 27 56 54 98 61 14 2 26 5 28 6 1 0 2 -14 2 -33z m360 3 c0 -19 -10 -43 -25 -61 -21 -25 -25 -40 -25 -93 0 -54 3 -66 25 -86 16 -16 25 -35 25 -56 0 -31 -2 -33 -34 -33 -42 0 -93 28 -100 55 -8 27 -7 215 0 243 4 12 17 25 30 28 13 3 24 10 24 14 0 5 15 11 33 13 17 2 35 5 40 5 4 1 7 -12 7 -29z m-1332 -23 c30 -41 32 -47 32 -129 0 -61 -5 -94 -17 -114 -19 -34 -64 -63 -99 -63 -21 0 -24 4 -24 40 0 29 4 40 15 40 12 0 15 17 15 94 0 71 -4 97 -15 106 -8 7 -15 25 -15 41 0 27 3 29 38 29 32 -1 41 -7 70 -44z m272 14 c0 -23 -5 -30 -19 -30 -34 0 -40 -23 -43 -156 l-3 -129 -52 -3 -53 -3 0 143 c0 79 3 152 6 163 7 29 40 42 107 44 57 1 57 1 57 -29z m130 -145 l0 -175 -55 0 -55 0 0 175 0 175 55 0 55 0 0 -175z m692 148 c26 -29 41 -57 42 -83 1 -12 -11 -15 -54 -15 -45 0 -55 3 -52 16 1 9 -7 24 -18 34 -11 10 -20 31 -20 47 0 26 3 28 38 28 29 0 44 -7 64 -27z m349 0 c32 -37 49 -69 49 -93 0 -18 -7 -20 -55 -20 -54 0 -55 0 -55 30 0 17 -4 30 -10 30 -10 0 -30 60 -23 73 2 4 19 7 37 7 23 0 39 -8 57 -27z m269 -14 c0 -36 -2 -40 -15 -29 -13 11 -20 9 -40 -10 -34 -32 -31 -44 15 -66 32 -15 40 -24 40 -46 0 -25 -3 -28 -36 -28 -34 0 -79 19 -116 49 -13 10 -18 28 -18 60 0 92 17 108 113 110 l57 1 0 -41z m140 21 c-2 -8 -7 -76 -10 -150 l-5 -134 -34 -23 c-27 -18 -48 -23 -103 -23 -92 0 -148 31 -148 82 0 27 2 28 50 28 28 0 50 -4 50 -9 0 -5 13 -16 29 -24 44 -22 51 -7 51 114 0 66 4 110 11 114 6 4 8 13 5 20 -8 21 5 26 59 23 39 -2 49 -6 45 -18z m180 -155 l0 -175 -55 0 -55 0 0 175 0 175 55 0 55 0 0 -175z m-897 -35 c-1 -25 -6 -57 -12 -72 -13 -34 -66 -68 -103 -68 -25 0 -28 4 -28 35 0 24 6 37 20 45 11 6 20 19 20 30 0 11 -9 24 -20 30 -11 6 -20 20 -20 31 0 18 6 20 71 17 l72 -3 0 -45z m355 -32 c2 -16 -1 -28 -7 -28 -6 0 -11 -6 -11 -14 0 -23 -59 -66 -91 -66 -27 0 -29 2 -29 40 0 29 4 40 15 40 10 0 15 10 15 31 l0 30 53 -3 c48 -3 52 -5 55 -30z m-738 -27 c0 -42 -49 -81 -101 -81 -39 0 -39 0 -39 40 0 36 3 40 25 40 16 0 25 6 25 15 0 11 12 15 45 15 43 0 45 -1 45 -29z m1378 -44 c3 -33 1 -37 -20 -37 -35 1 -58 24 -58 57 0 29 1 30 38 24 34 -6 37 -9 40 -44z m252 3 c0 -33 -3 -40 -20 -40 -17 0 -20 7 -20 40 0 33 3 40 20 40 17 0 20 -7 20 -40z m-3268 -132 c23 -18 47 -39 54 -45 7 -7 16 -13 19 -13 4 0 22 -12 40 -27 117 -98 112 -96 160 -56 18 16 46 38 61 50 16 12 43 33 59 48 17 14 39 31 50 37 20 11 20 11 0 -11 -11 -13 -53 -48 -94 -79 -40 -32 -84 -65 -96 -75 -23 -17 -24 -17 -57 5 -51 36 -149 109 -192 145 -22 18 -43 33 -47 33 -4 0 -23 14 -41 30 l-33 30 38 -19 c21 -11 57 -35 79 -53z m256 49 c26 -27 20 -59 -14 -77 -21 -12 -27 -11 -49 10 -30 28 -31 43 -7 69 23 26 44 25 70 -2z m272 -6 c-32 -31 -60 -46 -60 -31 0 9 68 58 82 59 3 1 -6 -12 -22 -28z m71 -49 c-19 -15 -45 -36 -57 -47 -24 -22 -75 -54 -58 -36 24 26 130 109 139 110 6 0 -5 -12 -24 -27z m124 -2 c-10 -11 -20 -18 -22 -16 -6 5 30 44 36 39 2 -1 -4 -12 -14 -23z m-47 -39 c-7 -11 -22 -24 -35 -30 -13 -6 -26 -18 -29 -26 -4 -8 -10 -15 -16 -15 -9 0 -81 -53 -103 -75 -5 -6 -19 -18 -30 -25 -19 -15 -19 -15 0 12 11 15 30 31 43 37 12 6 22 15 22 21 0 5 5 10 11 10 7 0 22 11 35 25 13 14 28 25 33 25 6 0 14 6 18 13 7 10 51 45 61 46 1 1 -3 -8 -10 -18z m-244 -92 c-22 -16 -43 -35 -49 -42 -14 -17 -69 -51 -60 -38 10 16 128 110 139 111 5 0 -9 -14 -30 -31z"/>
 </g>
<g id="layer107" fill="#afafaf" stroke="none">
 <path d="M0 971 c0 -172 2 -190 17 -194 15 -4 66 -3 135 2 4 1 9 58 10 129 l3 127 40 3 40 3 -1 -121 c-1 -89 3 -125 12 -135 10 -10 51 -13 163 -13 82 0 153 3 159 7 6 4 12 78 14 194 l3 187 -297 0 -298 0 0 -189z"/>
 <path d="M686 1153 c-11 -12 -6 -362 6 -369 10 -7 297 -14 308 -8 13 6 2441 14 2465 8 19 -5 25 -12 23 -28 l-3 -21 -540 -4 c-297 -3 -924 -6 -1394 -8 -675 -2 -856 -5 -863 -15 -5 -7 -8 -98 -7 -203 0 -104 0 -196 0 -203 -1 -9 -14 -12 -43 -10 l-43 3 -1 210 -1 210 -169 0 -169 0 -3 -212 -2 -213 -40 0 c-22 0 -40 -3 -40 -7 0 -10 48 -49 168 -137 l92 -68 53 41 c28 23 85 67 125 97 39 31 72 60 72 65 0 5 6 9 13 9 7 0 20 9 30 20 10 12 22 18 28 14 12 -7 -24 -43 -87 -87 -23 -15 -64 -46 -92 -70 -96 -78 -134 -107 -144 -107 -5 0 -54 35 -110 78 -56 42 -126 94 -157 115 -31 21 -62 45 -70 52 -24 23 -6 27 22 5 14 -11 30 -20 36 -20 8 0 11 66 11 215 l0 215 -80 0 -80 0 0 -360 0 -360 1750 0 1750 0 0 580 0 580 -1403 0 c-772 0 -1407 -3 -1411 -7z m1070 -463 c49 0 104 -53 104 -100 0 -34 -83 -94 -160 -115 -14 -4 -31 -12 -37 -17 -18 -14 -16 -38 2 -38 11 0 15 -11 15 -40 0 -39 -1 -40 -34 -40 -19 0 -41 6 -48 13 -7 7 -21 16 -31 20 -10 4 -15 12 -12 17 4 6 1 17 -5 25 -18 22 -2 75 26 85 13 5 24 14 24 20 0 5 11 10 24 10 14 0 28 5 31 10 4 6 10 8 14 5 12 -7 71 24 78 41 5 15 -19 44 -36 44 -12 0 -15 62 -4 74 4 3 11 2 17 -4 5 -5 20 -10 32 -10z m1734 -32 c0 -24 -4 -28 -28 -28 -50 0 -52 -10 -52 -207 l0 -183 -55 0 -55 0 0 50 c0 47 -2 50 -25 50 -23 0 -25 4 -25 41 0 36 2 40 23 37 21 -3 22 0 25 92 2 52 7 99 12 104 6 6 10 17 10 25 0 24 32 51 61 51 15 0 30 4 33 9 4 5 20 5 41 -2 29 -9 35 -15 35 -39z m-2544 -37 c-9 -10 -16 -23 -16 -29 0 -7 -4 -12 -10 -12 -6 0 -10 -28 -10 -65 0 -37 4 -65 10 -65 6 0 10 -7 10 -15 0 -8 7 -15 15 -15 11 0 15 -11 15 -40 l0 -40 -41 0 c-31 0 -47 6 -70 29 -28 29 -29 32 -29 136 0 111 15 165 45 165 8 0 15 4 15 9 0 6 17 11 38 13 34 3 37 1 40 -25 2 -16 -4 -37 -12 -46z m710 -10 c-14 -15 -26 -32 -26 -39 0 -15 -96 -17 -105 -2 -3 5 0 19 6 32 7 13 15 29 19 37 3 8 15 19 26 25 10 6 21 14 24 18 3 3 21 8 40 10 32 3 35 1 38 -26 2 -20 -4 -36 -22 -55z m404 55 c0 -19 -6 -41 -12 -48 -37 -40 -41 -88 -9 -88 24 0 30 -8 24 -31 -3 -10 -14 -19 -24 -19 -21 0 -22 -4 -13 -37 4 -13 13 -23 20 -23 10 0 14 -13 14 -40 0 -37 -2 -40 -29 -40 -40 0 -80 23 -97 55 -18 34 -19 200 -2 237 13 27 56 54 98 61 14 2 26 5 28 6 1 0 2 -14 2 -33z m360 3 c0 -19 -10 -43 -25 -61 -21 -25 -25 -40 -25 -93 0 -54 3 -66 25 -86 16 -16 25 -35 25 -56 0 -31 -2 -33 -34 -33 -42 0 -93 28 -100 55 -8 27 -7 215 0 243 4 12 17 25 30 28 13 3 24 10 24 14 0 5 15 11 33 13 17 2 35 5 40 5 4 1 7 -12 7 -29z m-1332 -23 c30 -41 32 -47 32 -129 0 -61 -5 -94 -17 -114 -19 -34 -64 -63 -99 -63 -21 0 -24 4 -24 40 0 29 4 40 15 40 12 0 15 17 15 94 0 71 -4 97 -15 106 -8 7 -15 25 -15 41 0 27 3 29 38 29 32 -1 41 -7 70 -44z m272 14 c0 -23 -5 -30 -19 -30 -34 0 -40 -23 -43 -156 l-3 -129 -52 -3 -53 -3 0 143 c0 79 3 152 6 163 7 29 40 42 107 44 57 1 57 1 57 -29z m130 -145 l0 -175 -55 0 -55 0 0 175 0 175 55 0 55 0 0 -175z m692 148 c26 -29 41 -57 42 -83 1 -12 -11 -15 -54 -15 -45 0 -55 3 -52 16 1 9 -7 24 -18 34 -11 10 -20 31 -20 47 0 26 3 28 38 28 29 0 44 -7 64 -27z m349 0 c32 -37 49 -69 49 -93 0 -18 -7 -20 -55 -20 -54 0 -55 0 -55 30 0 17 -4 30 -10 30 -10 0 -30 60 -23 73 2 4 19 7 37 7 23 0 39 -8 57 -27z m269 -14 c0 -36 -2 -40 -15 -29 -13 11 -20 9 -40 -10 -34 -32 -31 -44 15 -66 32 -15 40 -24 40 -46 0 -25 -3 -28 -36 -28 -34 0 -79 19 -116 49 -13 10 -18 28 -18 60 0 92 17 108 113 110 l57 1 0 -41z m140 21 c-2 -8 -7 -76 -10 -150 l-5 -134 -34 -23 c-27 -18 -48 -23 -103 -23 -92 0 -148 31 -148 82 0 27 2 28 50 28 28 0 50 -4 50 -9 0 -5 13 -16 29 -24 44 -22 51 -7 51 114 0 66 4 110 11 114 6 4 8 13 5 20 -8 21 5 26 59 23 39 -2 49 -6 45 -18z m180 -155 l0 -175 -55 0 -55 0 0 175 0 175 55 0 55 0 0 -175z m-897 -35 c-1 -25 -6 -57 -12 -72 -13 -34 -66 -68 -103 -68 -25 0 -28 4 -28 35 0 24 6 37 20 45 11 6 20 19 20 30 0 11 -9 24 -20 30 -11 6 -20 20 -20 31 0 18 6 20 71 17 l72 -3 0 -45z m355 -32 c2 -16 -1 -28 -7 -28 -6 0 -11 -6 -11 -14 0 -23 -59 -66 -91 -66 -27 0 -29 2 -29 40 0 29 4 40 15 40 10 0 15 10 15 31 l0 30 53 -3 c48 -3 52 -5 55 -30z m-738 -27 c0 -42 -49 -81 -101 -81 -39 0 -39 0 -39 40 0 36 3 40 25 40 16 0 25 6 25 15 0 11 12 15 45 15 43 0 45 -1 45 -29z m1378 -44 c3 -33 1 -37 -20 -37 -35 1 -58 24 -58 57 0 29 1 30 38 24 34 -6 37 -9 40 -44z m252 3 c0 -33 -3 -40 -20 -40 -17 0 -20 7 -20 40 0 33 3 40 20 40 17 0 20 -7 20 -40z m-3008 -77 c22 -20 23 -42 2 -71 -15 -22 -64 -31 -64 -12 0 6 -7 10 -15 10 -10 0 -15 10 -15 31 0 52 54 77 92 42z m313 -89 c-33 -30 -63 -54 -67 -54 -3 0 -44 -31 -90 -70 -77 -65 -105 -82 -96 -62 3 10 129 118 168 145 14 9 50 37 80 61 30 24 57 42 60 39 3 -3 -22 -29 -55 -59z m148 17 c-43 -37 -72 -61 -123 -101 -25 -19 -47 -37 -50 -40 -3 -3 -22 -16 -42 -30 -21 -14 -38 -28 -38 -32 0 -5 -7 -8 -16 -8 -25 0 -5 20 114 113 58 45 119 94 136 109 17 14 35 24 40 21 5 -4 -4 -18 -21 -32z"/>
 </g>
<g id="layer108" fill="#f1c260" stroke="none">
 <path d="M0 971 c0 -172 2 -190 17 -194 15 -4 66 -3 135 2 4 1 9 58 10 129 l3 127 40 3 40 3 -1 -121 c-1 -89 3 -125 12 -135 10 -10 51 -13 163 -13 82 0 153 3 159 7 6 4 12 78 14 194 l3 187 -297 0 -298 0 0 -189z"/>
 <path d="M686 1153 c-11 -12 -6 -362 6 -369 10 -7 297 -14 308 -8 13 6 2441 14 2465 8 19 -5 25 -12 23 -28 l-3 -21 -540 -4 c-297 -3 -924 -6 -1394 -8 -675 -2 -856 -5 -863 -15 -5 -7 -8 -98 -7 -203 0 -104 0 -196 0 -203 -1 -9 -14 -12 -43 -10 l-43 3 -1 210 -1 210 -169 0 -169 0 -3 -212 -2 -213 -40 0 c-22 0 -40 -3 -40 -7 0 -10 48 -49 168 -137 l92 -68 53 41 c28 23 85 67 125 97 39 31 72 60 72 65 0 5 6 9 13 9 7 0 20 9 30 20 10 12 22 18 28 14 12 -7 -24 -43 -87 -87 -23 -15 -64 -46 -92 -70 -96 -78 -134 -107 -144 -107 -5 0 -54 35 -110 78 -56 42 -126 94 -157 115 -31 21 -62 45 -70 52 -24 23 -6 27 22 5 14 -11 30 -20 36 -20 8 0 11 66 11 215 l0 215 -80 0 -80 0 0 -360 0 -360 1750 0 1750 0 0 580 0 580 -1403 0 c-772 0 -1407 -3 -1411 -7z m276 -491 c-2 -20 -10 -42 -17 -48 -27 -20 -40 -96 -25 -148 7 -26 19 -46 26 -46 10 0 14 -13 14 -40 0 -40 0 -40 -39 -40 -28 0 -49 7 -68 24 -27 23 -28 28 -33 139 -3 69 -1 123 5 133 17 31 34 46 45 39 5 -3 10 -1 10 4 0 6 16 11 35 11 20 0 35 5 35 12 0 6 3 8 7 4 4 -4 6 -24 5 -44z m803 28 c32 0 75 -28 75 -49 0 -6 5 -11 10 -11 6 0 10 -16 10 -35 0 -29 -6 -40 -42 -65 -22 -16 -47 -30 -55 -30 -7 0 -13 -4 -13 -10 0 -5 -9 -10 -19 -10 -26 0 -81 -32 -81 -47 0 -7 7 -13 15 -13 11 0 15 -11 15 -39 0 -37 -2 -39 -36 -43 -25 -3 -39 1 -47 12 -7 9 -20 19 -30 23 -10 4 -16 11 -13 16 3 5 -1 21 -8 36 -13 24 -13 31 1 51 8 13 22 24 29 24 8 0 17 7 20 15 4 8 17 15 29 15 13 0 26 4 30 10 3 5 11 7 18 5 7 -3 25 5 41 18 22 18 27 28 22 45 -4 12 -14 22 -22 22 -9 0 -14 11 -14 33 0 38 9 52 24 37 5 -5 24 -10 41 -10z m301 4 c-3 -9 -6 -26 -6 -39 0 -13 -6 -30 -12 -37 -38 -41 -41 -85 -6 -90 13 -2 22 -12 24 -25 3 -19 -1 -23 -21 -23 -16 0 -25 -6 -25 -15 0 -8 5 -15 11 -15 6 0 9 -7 5 -15 -3 -10 1 -15 12 -15 15 0 18 -8 16 -42 l-2 -43 -38 4 c-82 7 -104 46 -104 187 0 63 4 104 10 104 6 0 10 5 10 11 0 22 43 49 77 49 18 0 33 5 33 10 0 6 5 10 11 10 6 0 8 -7 5 -16z m1394 5 c0 -5 7 -9 15 -9 11 0 15 -11 15 -36 0 -28 -3 -35 -15 -30 -8 3 -26 0 -40 -6 l-25 -11 0 -184 0 -183 -55 0 -55 0 0 50 c0 47 -2 50 -25 50 -23 0 -25 4 -25 41 0 36 2 40 23 37 21 -3 22 0 25 91 1 52 8 101 13 108 6 6 8 17 5 22 -12 19 27 51 61 51 17 0 34 4 37 8 7 11 46 12 46 1z m-1799 -91 c-12 -10 -21 -25 -21 -33 0 -11 -13 -15 -54 -15 -56 0 -77 13 -57 33 6 6 11 18 11 27 0 23 36 63 49 55 6 -3 11 -2 11 4 0 5 17 11 38 13 35 3 37 2 40 -31 2 -24 -3 -39 -17 -53z m759 59 c0 -21 -8 -41 -20 -52 -11 -10 -17 -21 -15 -26 3 -4 1 -10 -5 -14 -5 -3 -10 -32 -10 -65 0 -49 4 -62 25 -81 16 -16 25 -35 25 -56 0 -31 -2 -33 -34 -33 -38 0 -96 28 -96 47 0 6 -3 13 -7 15 -5 2 -6 57 -3 124 6 149 11 155 133 173 4 1 7 -14 7 -32z m-1343 -3 c15 -14 28 -30 28 -34 0 -5 3 -12 8 -16 4 -4 7 -47 7 -95 0 -63 -5 -95 -17 -116 -19 -34 -64 -63 -99 -63 -21 0 -24 4 -24 40 0 29 4 40 15 40 12 0 15 17 15 94 0 74 -3 95 -15 100 -9 3 -15 19 -15 41 0 33 2 35 34 35 24 0 44 -8 63 -26z m283 -3 c0 -22 -6 -31 -30 -41 l-30 -12 0 -133 c0 -72 -2 -134 -4 -136 -2 -2 -27 -2 -55 -1 l-51 4 0 138 c0 157 6 197 29 203 9 3 44 5 79 6 62 1 62 1 62 -28z m130 -146 l0 -175 -55 0 -55 0 0 175 0 175 55 0 55 0 0 -175z m692 148 c26 -29 41 -57 42 -83 1 -12 -11 -15 -54 -15 -45 0 -55 3 -52 16 1 9 -7 24 -18 34 -11 10 -20 31 -20 47 0 26 3 28 38 28 29 0 44 -7 64 -27z m348 9 c34 -39 50 -73 50 -103 0 -24 -3 -30 -16 -25 -9 3 -32 6 -53 6 -37 0 -37 1 -58 63 -11 34 -19 65 -16 70 9 15 78 7 93 -11z m270 -23 c0 -35 -3 -40 -18 -35 -19 6 -62 -23 -62 -41 0 -5 18 -18 40 -29 32 -15 40 -24 40 -46 0 -26 -3 -28 -38 -28 -36 0 -101 28 -128 54 -6 7 -10 23 -8 37 2 13 6 45 9 71 7 53 10 55 103 57 l62 1 0 -41z m146 14 c2 -13 -1 -23 -6 -23 -6 0 -10 -50 -10 -128 0 -110 -2 -130 -18 -143 -30 -26 -54 -31 -132 -29 -63 1 -80 5 -107 26 -24 18 -33 33 -33 55 0 28 1 29 49 29 34 0 51 -4 55 -15 3 -8 15 -15 26 -15 11 0 20 -5 20 -11 0 -8 5 -8 15 1 12 10 15 37 15 121 0 66 4 110 11 114 6 4 8 13 5 20 -8 21 5 26 58 23 42 -3 50 -6 52 -25z m174 -147 l0 -174 -51 -4 c-28 -1 -53 -1 -55 1 -2 2 -4 82 -4 178 l0 173 55 0 55 0 0 -174z m-897 -41 c0 -27 -4 -59 -8 -70 -17 -41 -66 -72 -107 -67 -24 3 -28 8 -28 37 0 24 6 38 20 45 11 6 20 19 20 30 0 11 -9 24 -20 30 -11 6 -20 20 -20 31 0 18 6 20 71 17 l71 -3 1 -50z m357 -26 c0 -16 -4 -29 -10 -29 -5 0 -10 -9 -10 -19 0 -23 -52 -58 -94 -63 -27 -3 -28 -1 -30 40 -2 28 2 42 10 42 7 0 15 13 19 29 6 27 10 30 53 33 60 4 62 3 62 -33z m-740 -33 c0 -28 -6 -38 -34 -55 -18 -12 -50 -21 -70 -21 -35 0 -36 1 -36 40 0 36 3 40 25 40 18 0 23 4 19 15 -5 12 4 15 45 15 l51 0 0 -34z m1378 -39 c3 -33 1 -37 -20 -37 -35 1 -58 24 -58 57 0 29 1 30 38 24 34 -6 37 -9 40 -44z m258 27 c-3 -9 -6 -27 -6 -40 0 -19 -5 -24 -25 -24 -22 0 -25 4 -25 33 0 40 6 47 38 47 18 0 23 -4 18 -16z m-3014 -101 c22 -20 23 -42 2 -71 -15 -22 -64 -31 -64 -12 0 6 -7 10 -15 10 -10 0 -15 10 -15 31 0 52 54 77 92 42z m313 -89 c-33 -30 -63 -54 -67 -54 -3 0 -44 -31 -90 -70 -77 -65 -105 -82 -96 -62 3 10 129 118 168 145 14 9 50 37 80 61 30 24 57 42 60 39 3 -3 -22 -29 -55 -59z m148 17 c-43 -37 -72 -61 -123 -101 -25 -19 -47 -37 -50 -40 -3 -3 -22 -16 -42 -30 -21 -14 -38 -28 -38 -32 0 -5 -7 -8 -16 -8 -25 0 -5 20 114 113 58 45 119 94 136 109 17 14 35 24 40 21 5 -4 -4 -18 -21 -32z"/>
 </g>
<g id="layer109" fill="#f6c082" stroke="none">
 <path d="M0 971 c0 -172 2 -190 17 -194 15 -4 66 -3 135 2 4 1 9 58 10 129 l3 127 40 3 40 3 3 -128 c1 -82 6 -130 14 -134 14 -9 302 -9 316 0 6 4 12 78 14 194 l3 187 -297 0 -298 0 0 -189z"/>
 <path d="M686 1153 c-10 -10 -6 -356 4 -368 5 -6 68 -10 157 -9 982 8 2597 13 2617 8 25 -6 36 -36 18 -48 -5 -3 -634 -8 -1398 -12 -1001 -5 -1391 -10 -1397 -18 -4 -6 -7 -96 -6 -201 0 -104 0 -196 0 -203 -1 -9 -14 -12 -43 -10 l-43 3 -1 210 -1 210 -169 0 -169 0 -3 -212 -2 -213 -40 0 c-22 0 -40 -3 -40 -7 0 -10 47 -48 168 -136 l94 -68 51 41 c29 23 75 58 102 79 28 21 63 50 78 65 15 14 31 26 35 26 4 0 15 9 25 20 10 12 22 18 28 14 12 -7 -24 -43 -90 -89 -24 -16 -45 -35 -48 -42 -3 -7 -9 -13 -14 -13 -5 0 -37 -23 -71 -51 -101 -82 -90 -83 -214 10 -260 192 -243 178 -228 194 4 3 15 -5 26 -18 11 -14 26 -25 34 -25 12 0 14 35 14 215 l0 215 -80 0 -80 0 0 -360 0 -360 1750 0 1750 0 0 580 0 580 -1403 0 c-772 0 -1407 -3 -1411 -7z m276 -491 c-2 -20 -10 -42 -17 -48 -27 -20 -40 -96 -25 -148 7 -26 19 -46 26 -46 10 0 14 -13 14 -40 0 -40 0 -40 -39 -40 -28 0 -49 7 -68 24 -27 23 -28 28 -33 139 -3 69 -1 123 5 133 17 31 34 46 45 39 5 -3 10 -1 10 4 0 6 16 11 35 11 20 0 35 5 35 12 0 6 3 8 7 4 4 -4 6 -24 5 -44z m803 28 c32 0 75 -28 75 -49 0 -6 5 -11 10 -11 6 0 10 -16 10 -35 0 -29 -6 -40 -42 -65 -22 -16 -47 -30 -55 -30 -7 0 -13 -4 -13 -10 0 -5 -9 -10 -19 -10 -26 0 -81 -32 -81 -47 0 -7 7 -13 15 -13 11 0 15 -11 15 -39 0 -37 -2 -39 -36 -43 -25 -3 -39 1 -47 12 -7 9 -20 19 -30 23 -10 4 -16 11 -13 16 3 5 -1 21 -8 36 -13 24 -13 31 1 51 8 13 22 24 29 24 8 0 17 7 20 15 4 8 17 15 29 15 13 0 26 4 30 10 3 5 11 7 18 5 7 -3 25 5 41 18 22 18 27 28 22 45 -4 12 -14 22 -22 22 -9 0 -14 11 -14 33 0 38 9 52 24 37 5 -5 24 -10 41 -10z m301 4 c-3 -9 -6 -26 -6 -39 0 -13 -6 -30 -12 -37 -38 -41 -41 -85 -6 -90 13 -2 22 -12 24 -25 3 -19 -1 -23 -21 -23 -16 0 -25 -6 -25 -15 0 -8 5 -15 11 -15 6 0 9 -7 5 -15 -3 -10 1 -15 12 -15 15 0 18 -8 16 -42 l-2 -43 -38 4 c-82 7 -104 46 -104 187 0 63 4 104 10 104 6 0 10 5 10 11 0 22 43 49 77 49 18 0 33 5 33 10 0 6 5 10 11 10 6 0 8 -7 5 -16z m1394 5 c0 -5 7 -9 15 -9 11 0 15 -11 15 -36 0 -28 -3 -35 -15 -30 -8 3 -26 0 -40 -6 l-25 -11 0 -184 0 -183 -55 0 -55 0 0 50 c0 47 -2 50 -25 50 -23 0 -25 4 -25 41 0 36 2 40 23 37 21 -3 22 0 25 91 1 52 8 101 13 108 6 6 8 17 5 22 -12 19 27 51 61 51 17 0 34 4 37 8 7 11 46 12 46 1z m-1799 -91 c-12 -10 -21 -25 -21 -33 0 -11 -13 -15 -54 -15 -56 0 -77 13 -57 33 6 6 11 18 11 27 0 23 36 63 49 55 6 -3 11 -2 11 4 0 5 17 11 38 13 35 3 37 2 40 -31 2 -24 -3 -39 -17 -53z m759 59 c0 -21 -8 -41 -20 -52 -11 -10 -17 -21 -15 -26 3 -4 1 -10 -5 -14 -5 -3 -10 -32 -10 -65 0 -49 4 -62 25 -81 16 -16 25 -35 25 -56 0 -31 -2 -33 -34 -33 -38 0 -96 28 -96 47 0 6 -3 13 -7 15 -5 2 -6 57 -3 124 6 149 11 155 133 173 4 1 7 -14 7 -32z m-1343 -3 c15 -14 28 -30 28 -34 0 -5 3 -12 8 -16 4 -4 7 -47 7 -95 0 -63 -5 -95 -17 -116 -19 -34 -64 -63 -99 -63 -21 0 -24 4 -24 40 0 29 4 40 15 40 12 0 15 17 15 94 0 74 -3 95 -15 100 -9 3 -15 19 -15 41 0 33 2 35 34 35 24 0 44 -8 63 -26z m283 -3 c0 -22 -6 -31 -30 -41 l-30 -12 0 -133 c0 -72 -2 -134 -4 -136 -2 -2 -27 -2 -55 -1 l-51 4 0 138 c0 157 6 197 29 203 9 3 44 5 79 6 62 1 62 1 62 -28z m130 -146 l0 -175 -55 0 -55 0 0 175 0 175 55 0 55 0 0 -175z m692 148 c26 -29 41 -57 42 -83 1 -12 -11 -15 -54 -15 -45 0 -55 3 -52 16 1 9 -7 24 -18 34 -11 10 -20 31 -20 47 0 26 3 28 38 28 29 0 44 -7 64 -27z m348 9 c34 -39 50 -73 50 -103 0 -24 -3 -30 -16 -25 -9 3 -32 6 -53 6 -37 0 -37 1 -58 63 -11 34 -19 65 -16 70 9 15 78 7 93 -11z m270 -23 c0 -35 -3 -40 -18 -35 -19 6 -62 -23 -62 -41 0 -5 18 -18 40 -29 32 -15 40 -24 40 -46 0 -26 -3 -28 -38 -28 -36 0 -101 28 -128 54 -6 7 -10 23 -8 37 2 13 6 45 9 71 7 53 10 55 103 57 l62 1 0 -41z m146 14 c2 -13 -1 -23 -6 -23 -6 0 -10 -50 -10 -128 0 -110 -2 -130 -18 -143 -30 -26 -54 -31 -132 -29 -63 1 -80 5 -107 26 -24 18 -33 33 -33 55 0 28 1 29 49 29 34 0 51 -4 55 -15 3 -8 15 -15 26 -15 11 0 20 -5 20 -11 0 -8 5 -8 15 1 12 10 15 37 15 121 0 66 4 110 11 114 6 4 8 13 5 20 -8 21 5 26 58 23 42 -3 50 -6 52 -25z m174 -147 l0 -174 -51 -4 c-28 -1 -53 -1 -55 1 -2 2 -4 82 -4 178 l0 173 55 0 55 0 0 -174z m-897 -41 c0 -27 -4 -59 -8 -70 -17 -41 -66 -72 -107 -67 -24 3 -28 8 -28 37 0 24 6 38 20 45 11 6 20 19 20 30 0 11 -9 24 -20 30 -11 6 -20 20 -20 31 0 18 6 20 71 17 l71 -3 1 -50z m357 -26 c0 -16 -4 -29 -10 -29 -5 0 -10 -9 -10 -19 0 -23 -52 -58 -94 -63 -27 -3 -28 -1 -30 40 -2 28 2 42 10 42 7 0 15 13 19 29 6 27 10 30 53 33 60 4 62 3 62 -33z m-740 -33 c0 -28 -6 -38 -34 -55 -18 -12 -50 -21 -70 -21 -35 0 -36 1 -36 40 0 36 3 40 25 40 18 0 23 4 19 15 -5 12 4 15 45 15 l51 0 0 -34z m1378 -39 c3 -33 1 -37 -20 -37 -35 1 -58 24 -58 57 0 29 1 30 38 24 34 -6 37 -9 40 -44z m258 27 c-3 -9 -6 -27 -6 -40 0 -19 -5 -24 -25 -24 -22 0 -25 4 -25 33 0 40 6 47 38 47 18 0 23 -4 18 -16z m-3011 -104 c15 -16 17 -26 9 -47 -13 -37 -37 -49 -71 -37 -22 7 -29 17 -31 43 -6 55 56 82 93 41z m349 -51 c-10 -12 -48 -44 -84 -72 -36 -28 -95 -75 -131 -104 -63 -51 -85 -63 -77 -45 3 10 129 118 168 145 14 9 50 37 80 61 56 45 78 52 44 15z m109 -18 c-50 -43 -136 -113 -178 -143 -5 -4 -26 -21 -46 -38 -40 -32 -72 -42 -49 -15 7 9 60 53 118 98 58 45 119 94 136 109 17 14 35 24 40 21 5 -4 -4 -18 -21 -32z"/>
 </g>
<g id="layer110" fill="#cbcbcb" stroke="none">
 <path d="M0 970 c0 -104 3 -190 8 -191 10 -1 124 -1 140 0 9 1 12 34 12 131 l0 130 43 0 42 0 3 -127 c1 -70 7 -130 12 -133 15 -9 175 -12 258 -4 l72 6 0 189 0 189 -295 0 -295 0 0 -190z"/>
 <path d="M686 1153 c-10 -10 -6 -356 4 -368 5 -6 66 -10 152 -9 78 1 707 4 1395 8 l1253 7 0 -30 0 -31 -112 0 c-1024 0 -2684 -15 -2691 -24 -4 -6 -7 -96 -6 -201 0 -104 0 -196 0 -203 -1 -9 -14 -12 -43 -10 l-43 3 -3 213 -2 212 -168 -2 -167 -3 -3 -212 -2 -213 -35 0 c-22 0 -35 -5 -34 -12 0 -7 57 -54 125 -105 l125 -92 130 104 c71 58 132 105 137 105 4 0 15 9 25 20 9 11 21 20 26 20 30 0 10 -24 -76 -90 -53 -41 -114 -90 -137 -109 -22 -18 -55 -45 -73 -58 l-32 -25 -48 36 c-26 20 -100 75 -163 123 -139 103 -144 108 -136 122 5 7 17 2 34 -14 15 -14 30 -25 34 -25 5 0 8 97 8 215 l0 215 -80 0 -80 0 0 -360 0 -360 1750 0 1750 0 0 580 0 580 -1403 0 c-772 0 -1407 -3 -1411 -7z m276 -491 c-2 -20 -10 -42 -17 -48 -27 -20 -40 -96 -25 -148 7 -26 19 -46 26 -46 10 0 14 -13 14 -40 0 -40 0 -40 -39 -40 -28 0 -49 7 -68 24 -27 23 -28 28 -33 139 -3 69 -1 123 5 133 17 31 34 46 45 39 5 -3 10 -1 10 4 0 6 16 11 35 11 20 0 35 5 35 12 0 6 3 8 7 4 4 -4 6 -24 5 -44z m803 28 c32 0 75 -28 75 -49 0 -6 5 -11 10 -11 6 0 10 -16 10 -35 0 -29 -6 -40 -42 -65 -22 -16 -47 -30 -55 -30 -7 0 -13 -4 -13 -10 0 -5 -9 -10 -19 -10 -26 0 -81 -32 -81 -47 0 -7 7 -13 15 -13 11 0 15 -11 15 -39 0 -37 -2 -39 -36 -43 -25 -3 -39 1 -47 12 -7 9 -20 19 -30 23 -10 4 -16 11 -13 16 3 5 -1 21 -8 36 -13 24 -13 31 1 51 8 13 22 24 29 24 8 0 17 7 20 15 4 8 17 15 29 15 13 0 26 4 30 10 3 5 11 7 18 5 7 -3 25 5 41 18 22 18 27 28 22 45 -4 12 -14 22 -22 22 -9 0 -14 11 -14 33 0 38 9 52 24 37 5 -5 24 -10 41 -10z m301 4 c-3 -9 -6 -26 -6 -39 0 -13 -6 -30 -12 -37 -38 -41 -41 -85 -6 -90 13 -2 22 -12 24 -25 3 -19 -1 -23 -21 -23 -16 0 -25 -6 -25 -15 0 -8 5 -15 11 -15 6 0 9 -7 5 -15 -3 -10 1 -15 12 -15 15 0 18 -8 16 -42 l-2 -43 -38 4 c-82 7 -104 46 -104 187 0 63 4 104 10 104 6 0 10 5 10 11 0 22 43 49 77 49 18 0 33 5 33 10 0 6 5 10 11 10 6 0 8 -7 5 -16z m1394 5 c0 -5 7 -9 15 -9 11 0 15 -11 15 -36 0 -28 -3 -35 -15 -30 -8 3 -26 0 -40 -6 l-25 -11 0 -184 0 -183 -55 0 -55 0 0 50 c0 47 -2 50 -25 50 -23 0 -25 4 -25 41 0 36 2 40 23 37 21 -3 22 0 25 91 1 52 8 101 13 108 6 6 8 17 5 22 -12 19 27 51 61 51 17 0 34 4 37 8 7 11 46 12 46 1z m-1799 -91 c-12 -10 -21 -25 -21 -33 0 -11 -13 -15 -54 -15 -56 0 -77 13 -57 33 6 6 11 18 11 27 0 23 36 63 49 55 6 -3 11 -2 11 4 0 5 17 11 38 13 35 3 37 2 40 -31 2 -24 -3 -39 -17 -53z m759 59 c0 -21 -8 -41 -20 -52 -11 -10 -17 -21 -15 -26 3 -4 1 -10 -5 -14 -5 -3 -10 -32 -10 -65 0 -49 4 -62 25 -81 16 -16 25 -35 25 -56 0 -31 -2 -33 -34 -33 -38 0 -96 28 -96 47 0 6 -3 13 -7 15 -5 2 -6 57 -3 124 6 149 11 155 133 173 4 1 7 -14 7 -32z m-1343 -3 c15 -14 28 -30 28 -34 0 -5 3 -12 8 -16 4 -4 7 -47 7 -95 0 -63 -5 -95 -17 -116 -19 -34 -64 -63 -99 -63 -21 0 -24 4 -24 40 0 29 4 40 15 40 12 0 15 17 15 94 0 74 -3 95 -15 100 -9 3 -15 19 -15 41 0 33 2 35 34 35 24 0 44 -8 63 -26z m283 -3 c0 -22 -6 -31 -30 -41 l-30 -12 0 -133 c0 -72 -2 -134 -4 -136 -2 -2 -27 -2 -55 -1 l-51 4 0 138 c0 157 6 197 29 203 9 3 44 5 79 6 62 1 62 1 62 -28z m130 -146 l0 -175 -55 0 -55 0 0 175 0 175 55 0 55 0 0 -175z m692 148 c26 -29 41 -57 42 -83 1 -12 -11 -15 -54 -15 -45 0 -55 3 -52 16 1 9 -7 24 -18 34 -11 10 -20 31 -20 47 0 26 3 28 38 28 29 0 44 -7 64 -27z m348 9 c34 -39 50 -73 50 -103 0 -24 -3 -30 -16 -25 -9 3 -32 6 -53 6 -37 0 -37 1 -58 63 -11 34 -19 65 -16 70 9 15 78 7 93 -11z m270 -23 c0 -35 -3 -40 -18 -35 -19 6 -62 -23 -62 -41 0 -5 18 -18 40 -29 32 -15 40 -24 40 -46 0 -26 -3 -28 -38 -28 -36 0 -101 28 -128 54 -6 7 -10 23 -8 37 2 13 6 45 9 71 7 53 10 55 103 57 l62 1 0 -41z m146 14 c2 -13 -1 -23 -6 -23 -6 0 -10 -50 -10 -128 0 -110 -2 -130 -18 -143 -30 -26 -54 -31 -132 -29 -63 1 -80 5 -107 26 -24 18 -33 33 -33 55 0 28 1 29 49 29 34 0 51 -4 55 -15 3 -8 15 -15 26 -15 11 0 20 -5 20 -11 0 -8 5 -8 15 1 12 10 15 37 15 121 0 66 4 110 11 114 6 4 8 13 5 20 -8 21 5 26 58 23 42 -3 50 -6 52 -25z m174 -147 l0 -174 -51 -4 c-28 -1 -53 -1 -55 1 -2 2 -4 82 -4 178 l0 173 55 0 55 0 0 -174z m-897 -41 c0 -27 -4 -59 -8 -70 -17 -41 -66 -72 -107 -67 -24 3 -28 8 -28 37 0 24 6 38 20 45 11 6 20 19 20 30 0 11 -9 24 -20 30 -11 6 -20 20 -20 31 0 18 6 20 71 17 l71 -3 1 -50z m357 -26 c0 -16 -4 -29 -10 -29 -5 0 -10 -9 -10 -19 0 -23 -52 -58 -94 -63 -27 -3 -28 -1 -30 40 -2 28 2 42 10 42 7 0 15 13 19 29 6 27 10 30 53 33 60 4 62 3 62 -33z m-740 -33 c0 -28 -6 -38 -34 -55 -18 -12 -50 -21 -70 -21 -35 0 -36 1 -36 40 0 36 3 40 25 40 18 0 23 4 19 15 -5 12 4 15 45 15 l51 0 0 -34z m1378 -39 c3 -33 1 -37 -20 -37 -35 1 -58 24 -58 57 0 29 1 30 38 24 34 -6 37 -9 40 -44z m258 27 c-3 -9 -6 -27 -6 -40 0 -19 -5 -24 -25 -24 -22 0 -25 4 -25 33 0 40 6 47 38 47 18 0 23 -4 18 -16z m-3011 -104 c15 -16 17 -26 9 -47 -13 -37 -37 -49 -71 -37 -22 7 -29 17 -31 43 -6 55 56 82 93 41z m375 -29 c0 -4 -50 -48 -112 -97 -162 -130 -199 -156 -206 -149 -8 7 29 41 149 135 45 36 98 79 118 97 33 29 51 34 51 14z m83 -40 c-43 -37 -72 -61 -123 -101 -25 -19 -47 -37 -50 -40 -3 -3 -24 -20 -47 -39 -58 -44 -78 -34 -22 12 201 166 253 206 262 200 6 -3 -3 -18 -20 -32z"/>
 </g>
<g id="layer111" fill="#fbe3ba" stroke="none">
 <path d="M0 970 c0 -104 3 -190 8 -191 10 -1 124 -1 140 0 9 1 12 34 12 131 l0 130 43 0 42 0 3 -127 c1 -70 7 -130 12 -133 15 -9 175 -12 258 -4 l72 6 0 189 0 189 -295 0 -295 0 0 -190z"/>
 <path d="M686 1153 c-10 -10 -6 -356 4 -368 5 -6 66 -10 152 -9 78 1 707 4 1395 8 l1253 7 0 -30 0 -31 -112 0 c-1024 0 -2684 -15 -2691 -24 -4 -6 -7 -96 -6 -201 0 -104 0 -196 0 -203 -1 -9 -14 -12 -43 -10 l-43 3 -3 213 -2 212 -168 -2 -167 -3 -3 -212 -2 -213 -35 0 c-22 0 -35 -5 -34 -12 0 -7 57 -54 125 -105 l125 -92 130 104 c71 58 132 105 137 105 4 0 15 9 25 20 9 11 21 20 26 20 30 0 10 -24 -76 -90 -53 -41 -114 -90 -137 -109 -22 -18 -55 -45 -73 -58 l-32 -25 -48 36 c-26 20 -100 75 -163 123 -139 103 -144 108 -136 122 5 7 17 2 34 -14 15 -14 30 -25 34 -25 5 0 8 97 8 215 l0 215 -80 0 -80 0 0 -360 0 -360 1750 0 1750 0 0 580 0 580 -1403 0 c-772 0 -1407 -3 -1411 -7z m284 -456 c0 -9 12 -11 39 -9 31 3 44 -1 67 -23 16 -15 28 -31 26 -36 -1 -5 5 -12 13 -15 12 -5 15 -25 15 -95 0 -104 -16 -140 -76 -175 -23 -13 -174 -17 -174 -5 0 5 -9 11 -21 14 -11 3 -23 15 -26 26 -3 12 -9 21 -14 21 -14 0 -11 207 4 232 19 35 36 50 47 43 5 -3 10 -1 10 4 0 6 14 11 30 11 17 0 30 5 30 10 0 6 7 10 15 10 8 0 15 -6 15 -13z m770 1 c8 -4 30 -9 48 -12 44 -8 63 -28 69 -77 5 -34 2 -44 -22 -70 -16 -16 -35 -29 -42 -29 -7 0 -13 -4 -13 -10 0 -5 -17 -12 -37 -16 -21 -4 -40 -10 -43 -13 -3 -3 -14 -11 -24 -17 -44 -24 -20 -46 41 -37 22 4 30 9 26 19 -4 11 7 14 51 14 54 0 56 -1 56 -27 0 -28 -35 -73 -57 -73 -7 0 -13 -4 -13 -9 0 -6 -39 -10 -86 -9 -80 0 -89 2 -113 26 -14 14 -25 29 -24 33 1 4 -4 13 -12 19 -8 7 -15 19 -15 27 0 21 31 63 46 63 8 0 17 7 20 15 4 8 14 15 24 15 11 0 22 5 25 11 4 6 13 8 20 5 8 -3 19 2 25 10 7 8 18 14 26 14 18 0 26 17 19 39 -4 12 -14 19 -28 19 -26 -2 -67 -35 -67 -55 0 -11 -14 -13 -57 -11 l-58 3 3 35 c3 37 44 86 62 75 6 -3 10 -1 10 4 0 6 14 11 30 11 17 0 30 4 30 9 0 9 56 8 80 -1z m325 -33 c0 -35 -4 -47 -18 -51 -11 -3 -16 -12 -13 -20 3 -7 1 -16 -4 -19 -19 -12 -11 -44 12 -47 13 -2 22 -12 24 -25 3 -19 -1 -23 -21 -23 -16 0 -25 -6 -25 -15 0 -8 5 -15 11 -15 6 0 9 -7 5 -15 -3 -10 1 -15 12 -15 15 0 18 -8 16 -42 -1 -39 -4 -43 -29 -46 -16 -2 -40 2 -54 10 -55 28 -56 32 -56 173 0 150 6 163 76 172 22 3 42 10 45 14 12 20 19 6 19 -36z m1395 34 c0 -5 7 -9 15 -9 11 0 15 -11 15 -36 0 -29 -3 -35 -16 -30 -9 4 -27 -1 -40 -9 -24 -15 -24 -17 -24 -195 l0 -180 -60 0 -60 0 0 45 c0 38 -3 45 -20 45 -17 0 -20 7 -20 45 0 38 3 45 20 45 19 0 20 7 20 94 0 77 3 95 16 100 9 4 14 13 10 21 -8 23 24 55 56 55 15 0 29 4 32 9 3 5 17 9 31 9 14 0 25 -4 25 -9z m-1040 -37 c0 -27 -6 -41 -20 -50 -12 -7 -18 -17 -15 -22 3 -5 1 -11 -5 -15 -5 -3 -10 -28 -10 -56 0 -49 14 -87 38 -102 6 -4 12 -26 12 -47 0 -39 -1 -40 -33 -40 -46 0 -86 21 -93 48 -4 12 -9 22 -13 22 -3 0 -6 52 -6 115 0 63 3 115 6 115 4 0 10 11 13 25 5 19 15 26 44 30 20 4 44 8 52 10 8 1 18 3 23 4 4 0 7 -16 7 -37z m-930 -152 l0 -181 -57 3 -58 3 -5 145 c-3 87 -9 145 -15 145 -5 -1 -20 -4 -32 -9 -22 -7 -23 -11 -23 -147 l0 -140 -56 3 -55 3 0 150 c1 164 5 192 30 198 9 3 73 5 144 6 l127 1 0 -180z m695 158 c29 -33 44 -65 41 -85 -2 -15 -13 -18 -57 -18 -45 0 -54 3 -51 17 1 10 -6 23 -18 30 -13 9 -20 23 -20 45 0 32 1 33 43 33 32 0 48 -6 62 -22z m359 -8 c19 -20 30 -42 33 -72 l5 -43 -59 0 c-59 0 -60 0 -60 29 0 16 -6 34 -14 40 -12 9 -17 51 -10 74 1 1 18 2 39 2 28 0 44 -8 66 -30z m266 4 c0 -22 2 -24 15 -14 8 6 13 17 12 23 -1 8 17 12 52 12 48 0 54 -2 57 -22 2 -13 -1 -23 -6 -23 -6 0 -10 -50 -10 -128 0 -137 0 -136 -58 -169 -28 -17 -146 -17 -174 0 -46 26 -58 42 -58 74 0 33 1 33 46 33 29 0 51 -6 58 -14 6 -8 22 -16 36 -18 21 -2 26 2 28 24 3 26 2 27 -42 24 -25 -1 -46 1 -46 5 0 4 -13 10 -29 14 -46 10 -66 42 -64 100 4 99 7 102 116 104 66 1 67 1 67 -25z m320 -104 c0 -111 2 -129 15 -124 8 4 15 1 15 -4 0 -6 12 -12 28 -14 24 -3 27 -7 30 -45 3 -40 1 -43 -22 -43 -13 0 -26 5 -28 12 -6 17 -36 18 -42 2 -4 -10 -22 -14 -61 -14 l-55 0 0 180 0 180 60 0 60 0 0 -130z m-907 -85 c0 -27 -4 -59 -8 -70 -16 -38 -69 -75 -110 -75 -22 0 -25 4 -25 40 0 29 5 42 20 50 11 6 20 19 20 30 0 11 -9 24 -20 30 -11 6 -20 20 -20 31 0 18 6 20 71 17 l71 -3 1 -50z m357 -24 c0 -42 -39 -101 -66 -101 -8 0 -14 -5 -14 -11 0 -6 -14 -9 -31 -7 -29 3 -31 6 -33 46 -2 29 2 42 11 42 7 0 14 8 15 18 0 9 2 22 3 27 2 6 3 13 4 18 0 4 26 7 56 7 l55 0 0 -39z m894 -73 c-2 -38 -5 -43 -25 -43 -21 0 -24 5 -27 43 -3 40 -2 42 26 42 27 0 28 -2 26 -42z m-3009 -78 c15 -16 17 -26 9 -47 -13 -37 -37 -49 -71 -37 -22 7 -29 17 -31 43 -6 55 56 82 93 41z m375 -29 c0 -4 -50 -48 -112 -97 -162 -130 -199 -156 -206 -149 -8 7 29 41 149 135 45 36 98 79 118 97 33 29 51 34 51 14z m83 -40 c-43 -37 -72 -61 -123 -101 -25 -19 -47 -37 -50 -40 -3 -3 -24 -20 -47 -39 -58 -44 -78 -34 -22 12 201 166 253 206 262 200 6 -3 -3 -18 -20 -32z"/>
 <path d="M948 613 c-37 -45 -45 -92 -27 -154 12 -39 33 -51 69 -42 18 5 20 14 20 93 0 71 -3 90 -18 103 -23 21 -26 21 -44 0z"/>
 <path d="M2746 605 c-25 -26 -19 -41 24 -64 l40 -21 0 45 c0 25 -4 45 -9 45 -5 0 -16 3 -24 6 -8 3 -22 -2 -31 -11z"/>
 </g>
<g id="layer112" fill="#fbddc3" stroke="none">
 <path d="M0 972 l0 -188 46 2 c25 2 56 -1 68 -6 40 -15 45 -1 48 135 l3 130 31 3 c56 5 65 -15 63 -143 0 -63 2 -118 5 -124 8 -12 281 -9 309 3 15 7 17 26 17 192 l0 184 -295 0 -295 0 0 -188z"/>
 <path d="M686 1153 c-4 -4 -6 -84 -6 -177 1 -140 4 -174 17 -188 12 -14 19 -15 30 -6 8 7 17 8 23 2 5 -5 50 -7 100 -4 50 3 95 1 100 -4 4 -4 12 -6 17 -3 5 3 575 9 1266 12 l1257 6 0 -33 0 -33 -1398 -4 c-1021 -2 -1399 -7 -1405 -15 -4 -6 -7 -96 -6 -201 0 -104 0 -196 0 -203 -1 -9 -14 -12 -43 -10 l-43 3 -3 213 -2 212 -168 -2 -167 -3 0 -213 c0 -134 -4 -212 -10 -213 -5 -1 -22 0 -37 1 -20 1 -28 -3 -28 -14 0 -9 4 -16 9 -16 4 0 24 -12 43 -27 20 -16 46 -35 58 -43 43 -29 95 -70 117 -92 l22 -21 45 39 c24 21 68 57 96 79 29 22 67 52 85 67 18 16 37 28 42 28 5 0 16 9 26 20 20 24 47 26 47 5 0 -8 -5 -15 -10 -15 -6 0 -80 -56 -165 -125 -85 -69 -159 -125 -165 -125 -5 0 -25 14 -43 30 -19 16 -38 30 -42 30 -4 0 -22 12 -41 28 -18 15 -51 41 -74 57 -22 17 -57 45 -78 62 -20 18 -42 33 -49 33 -11 0 -33 30 -33 44 0 13 23 4 48 -19 15 -14 30 -25 34 -25 5 0 8 97 8 215 l0 215 -80 0 -80 0 0 -360 0 -360 1750 0 1750 0 0 580 0 580 -1403 0 c-772 0 -1407 -3 -1411 -7z m284 -456 c0 -9 12 -11 39 -9 31 3 44 -1 67 -23 16 -15 28 -31 26 -36 -1 -5 5 -12 13 -15 12 -5 15 -25 15 -95 0 -104 -16 -140 -76 -175 -23 -13 -174 -17 -174 -5 0 5 -9 11 -21 14 -11 3 -23 15 -26 26 -3 12 -9 21 -14 21 -14 0 -11 207 4 232 19 35 36 50 47 43 5 -3 10 -1 10 4 0 6 14 11 30 11 17 0 30 5 30 10 0 6 7 10 15 10 8 0 15 -6 15 -13z m770 1 c8 -4 30 -9 48 -12 44 -8 63 -28 69 -77 5 -34 2 -44 -22 -70 -16 -16 -35 -29 -42 -29 -7 0 -13 -4 -13 -10 0 -5 -17 -12 -37 -16 -21 -4 -40 -10 -43 -13 -3 -3 -14 -11 -24 -17 -44 -24 -20 -46 41 -37 22 4 30 9 26 19 -4 11 7 14 51 14 54 0 56 -1 56 -27 0 -28 -35 -73 -57 -73 -7 0 -13 -4 -13 -9 0 -6 -39 -10 -86 -9 -80 0 -89 2 -113 26 -14 14 -25 29 -24 33 1 4 -4 13 -12 19 -8 7 -15 19 -15 27 0 21 31 63 46 63 8 0 17 7 20 15 4 8 14 15 24 15 11 0 22 5 25 11 4 6 13 8 20 5 8 -3 19 2 25 10 7 8 18 14 26 14 18 0 26 17 19 39 -4 12 -14 19 -28 19 -26 -2 -67 -35 -67 -55 0 -11 -14 -13 -57 -11 l-58 3 3 35 c3 37 44 86 62 75 6 -3 10 -1 10 4 0 6 14 11 30 11 17 0 30 4 30 9 0 9 56 8 80 -1z m325 -33 c0 -35 -4 -47 -18 -51 -11 -3 -16 -12 -13 -20 3 -7 1 -16 -4 -19 -19 -12 -11 -44 12 -47 13 -2 22 -12 24 -25 3 -19 -1 -23 -21 -23 -16 0 -25 -6 -25 -15 0 -8 5 -15 11 -15 6 0 9 -7 5 -15 -3 -10 1 -15 12 -15 15 0 18 -8 16 -42 -1 -39 -4 -43 -29 -46 -16 -2 -40 2 -54 10 -55 28 -56 32 -56 173 0 150 6 163 76 172 22 3 42 10 45 14 12 20 19 6 19 -36z m1395 34 c0 -5 7 -9 15 -9 11 0 15 -11 15 -36 0 -29 -3 -35 -16 -30 -9 4 -27 -1 -40 -9 -24 -15 -24 -17 -24 -195 l0 -180 -60 0 -60 0 0 45 c0 38 -3 45 -20 45 -17 0 -20 7 -20 45 0 38 3 45 20 45 19 0 20 7 20 94 0 77 3 95 16 100 9 4 14 13 10 21 -8 23 24 55 56 55 15 0 29 4 32 9 3 5 17 9 31 9 14 0 25 -4 25 -9z m-1040 -37 c0 -27 -6 -41 -20 -50 -12 -7 -18 -17 -15 -22 3 -5 1 -11 -5 -15 -5 -3 -10 -28 -10 -56 0 -49 14 -87 38 -102 6 -4 12 -26 12 -47 0 -39 -1 -40 -33 -40 -46 0 -86 21 -93 48 -4 12 -9 22 -13 22 -3 0 -6 52 -6 115 0 63 3 115 6 115 4 0 10 11 13 25 5 19 15 26 44 30 20 4 44 8 52 10 8 1 18 3 23 4 4 0 7 -16 7 -37z m-930 -152 l0 -181 -57 3 -58 3 -5 145 c-3 87 -9 145 -15 145 -5 -1 -20 -4 -32 -9 -22 -7 -23 -11 -23 -147 l0 -140 -56 3 -55 3 0 150 c1 164 5 192 30 198 9 3 73 5 144 6 l127 1 0 -180z m695 158 c29 -33 44 -65 41 -85 -2 -15 -13 -18 -57 -18 -45 0 -54 3 -51 17 1 10 -6 23 -18 30 -13 9 -20 23 -20 45 0 32 1 33 43 33 32 0 48 -6 62 -22z m359 -8 c19 -20 30 -42 33 -72 l5 -43 -59 0 c-59 0 -60 0 -60 29 0 16 -6 34 -14 40 -12 9 -17 51 -10 74 1 1 18 2 39 2 28 0 44 -8 66 -30z m266 4 c0 -22 2 -24 15 -14 8 6 13 17 12 23 -1 8 17 12 52 12 48 0 54 -2 57 -22 2 -13 -1 -23 -6 -23 -6 0 -10 -50 -10 -128 0 -137 0 -136 -58 -169 -28 -17 -146 -17 -174 0 -46 26 -58 42 -58 74 0 33 1 33 46 33 29 0 51 -6 58 -14 6 -8 22 -16 36 -18 21 -2 26 2 28 24 3 26 2 27 -42 24 -25 -1 -46 1 -46 5 0 4 -13 10 -29 14 -46 10 -66 42 -64 100 4 99 7 102 116 104 66 1 67 1 67 -25z m320 -104 c0 -111 2 -129 15 -124 8 4 15 1 15 -4 0 -6 12 -12 28 -14 24 -3 27 -7 30 -45 3 -40 1 -43 -22 -43 -13 0 -26 5 -28 12 -6 17 -36 18 -42 2 -4 -10 -22 -14 -61 -14 l-55 0 0 180 0 180 60 0 60 0 0 -130z m-907 -85 c0 -27 -4 -59 -8 -70 -16 -38 -69 -75 -110 -75 -22 0 -25 4 -25 40 0 29 5 42 20 50 11 6 20 19 20 30 0 11 -9 24 -20 30 -11 6 -20 20 -20 31 0 18 6 20 71 17 l71 -3 1 -50z m357 -24 c0 -42 -39 -101 -66 -101 -8 0 -14 -5 -14 -11 0 -6 -14 -9 -31 -7 -29 3 -31 6 -33 46 -2 29 2 42 11 42 7 0 14 8 15 18 0 9 2 22 3 27 2 6 3 13 4 18 0 4 26 7 56 7 l55 0 0 -39z m894 -73 c-2 -38 -5 -43 -25 -43 -21 0 -24 5 -27 43 -3 40 -2 42 26 42 27 0 28 -2 26 -42z m-3013 -69 c35 -35 14 -98 -34 -99 -57 0 -79 64 -34 101 29 24 42 24 68 -2z m383 -34 c3 -9 -3 -19 -17 -26 -28 -15 -119 -90 -130 -106 -4 -7 -12 -13 -17 -13 -5 0 -28 -18 -52 -40 -24 -22 -48 -40 -54 -40 -6 0 -18 -10 -27 -23 -11 -16 -18 -19 -26 -11 -9 8 -1 20 31 47 24 20 57 48 73 62 17 14 49 40 73 57 23 18 42 36 42 40 0 4 4 8 9 8 6 0 25 14 43 30 37 34 44 36 52 15z m95 -33 c-6 -9 -28 -28 -50 -42 -21 -13 -39 -28 -39 -32 0 -4 -17 -19 -38 -32 -41 -26 -44 -28 -110 -91 -28 -26 -45 -36 -52 -29 -7 7 5 24 34 52 24 23 47 42 50 42 4 0 50 36 103 80 88 73 128 94 102 52z"/>
 <path d="M948 613 c-37 -45 -45 -92 -27 -154 12 -39 33 -51 69 -42 18 5 20 14 20 93 0 71 -3 90 -18 103 -23 21 -26 21 -44 0z"/>
 <path d="M2746 605 c-25 -26 -19 -41 24 -64 l40 -21 0 45 c0 25 -4 45 -9 45 -5 0 -16 3 -24 6 -8 3 -22 -2 -31 -11z"/>
 </g>
<g id="layer113" fill="#faeace" stroke="none">
 <path d="M0 972 l0 -188 28 2 c15 1 51 3 80 3 l52 1 0 125 c0 139 2 143 65 131 l34 -7 3 -125 3 -125 150 0 c83 0 156 0 163 0 9 1 12 45 12 186 l0 185 -295 0 -295 0 0 -188z"/>
 <path d="M686 1153 c-12 -13 -6 -351 8 -362 7 -6 491 -8 1404 -6 l1392 4 0 -32 0 -32 -1398 -4 c-1021 -2 -1399 -7 -1405 -15 -4 -6 -7 -96 -6 -201 0 -104 0 -196 0 -203 -1 -9 -14 -12 -43 -10 l-43 3 -3 213 -2 212 -168 -2 -167 -3 0 -213 c0 -134 -4 -212 -10 -213 -5 -1 -22 0 -37 1 -20 1 -28 -3 -28 -14 0 -9 5 -16 11 -16 6 0 30 -15 53 -32 55 -44 55 -44 101 -78 22 -16 50 -39 62 -52 l22 -21 45 39 c24 21 68 57 96 79 29 22 67 52 85 67 18 16 37 28 42 28 5 0 16 9 26 20 20 24 47 26 47 5 0 -8 -5 -15 -10 -15 -6 0 -80 -56 -165 -125 -85 -69 -159 -125 -164 -125 -6 0 -26 14 -44 30 -19 16 -38 30 -42 30 -4 0 -22 12 -41 28 -18 15 -51 41 -74 57 -23 17 -49 37 -59 46 -10 8 -25 18 -34 22 -9 3 -17 11 -17 17 0 5 -7 10 -15 10 -8 0 -19 9 -25 19 -13 26 -13 31 5 31 8 0 15 -3 15 -7 0 -5 14 -16 30 -25 l30 -17 0 214 0 215 -80 0 -80 0 0 -360 0 -360 1750 0 1750 0 0 580 0 580 -1403 0 c-772 0 -1407 -3 -1411 -7z m284 -456 c0 -9 12 -11 39 -9 31 3 44 -1 67 -23 16 -15 28 -31 26 -36 -1 -5 5 -12 13 -15 12 -5 15 -25 15 -95 0 -104 -16 -140 -76 -175 -23 -13 -174 -17 -174 -5 0 5 -9 11 -21 14 -11 3 -23 15 -26 26 -3 12 -9 21 -14 21 -14 0 -11 207 4 232 19 35 36 50 47 43 5 -3 10 -1 10 4 0 6 14 11 30 11 17 0 30 5 30 10 0 6 7 10 15 10 8 0 15 -6 15 -13z m770 1 c8 -4 30 -9 48 -12 44 -8 63 -28 69 -77 5 -34 2 -44 -22 -70 -16 -16 -35 -29 -42 -29 -7 0 -13 -4 -13 -10 0 -5 -17 -12 -37 -16 -21 -4 -40 -10 -43 -13 -3 -3 -14 -11 -24 -17 -44 -24 -20 -46 41 -37 22 4 30 9 26 19 -4 11 7 14 51 14 54 0 56 -1 56 -27 0 -28 -35 -73 -57 -73 -7 0 -13 -4 -13 -9 0 -6 -39 -10 -86 -9 -80 0 -89 2 -113 26 -14 14 -25 29 -24 33 1 4 -4 13 -12 19 -8 7 -15 19 -15 27 0 21 31 63 46 63 8 0 17 7 20 15 4 8 14 15 24 15 11 0 22 5 25 11 4 6 13 8 20 5 8 -3 19 2 25 10 7 8 18 14 26 14 18 0 26 17 19 39 -4 12 -14 19 -28 19 -26 -2 -67 -35 -67 -55 0 -11 -14 -13 -57 -11 l-58 3 3 35 c3 37 44 86 62 75 6 -3 10 -1 10 4 0 6 14 11 30 11 17 0 30 4 30 9 0 9 56 8 80 -1z m325 -33 c0 -35 -4 -47 -18 -51 -11 -3 -16 -12 -13 -20 3 -7 1 -16 -4 -19 -19 -12 -11 -44 12 -47 13 -2 22 -12 24 -25 3 -19 -1 -23 -21 -23 -16 0 -25 -6 -25 -15 0 -8 5 -15 11 -15 6 0 9 -7 5 -15 -3 -10 1 -15 12 -15 15 0 18 -8 16 -42 -1 -39 -4 -43 -29 -46 -16 -2 -40 2 -54 10 -55 28 -56 32 -56 173 0 150 6 163 76 172 22 3 42 10 45 14 12 20 19 6 19 -36z m1395 34 c0 -5 7 -9 15 -9 11 0 15 -11 15 -36 0 -29 -3 -35 -16 -30 -9 4 -27 -1 -40 -9 -24 -15 -24 -17 -24 -195 l0 -180 -60 0 -60 0 0 45 c0 38 -3 45 -20 45 -17 0 -20 7 -20 45 0 38 3 45 20 45 19 0 20 7 20 94 0 77 3 95 16 100 9 4 14 13 10 21 -8 23 24 55 56 55 15 0 29 4 32 9 3 5 17 9 31 9 14 0 25 -4 25 -9z m-1040 -37 c0 -27 -6 -41 -20 -50 -12 -7 -18 -17 -15 -22 3 -5 1 -11 -5 -15 -5 -3 -10 -28 -10 -56 0 -49 14 -87 38 -102 6 -4 12 -26 12 -47 0 -39 -1 -40 -33 -40 -46 0 -86 21 -93 48 -4 12 -9 22 -13 22 -3 0 -6 52 -6 115 0 63 3 115 6 115 4 0 10 11 13 25 5 19 15 26 44 30 20 4 44 8 52 10 8 1 18 3 23 4 4 0 7 -16 7 -37z m-930 -152 l0 -181 -57 3 -58 3 -5 145 c-3 87 -9 145 -15 145 -5 -1 -20 -4 -32 -9 -22 -7 -23 -11 -23 -147 l0 -140 -56 3 -55 3 0 150 c1 164 5 192 30 198 9 3 73 5 144 6 l127 1 0 -180z m695 158 c29 -33 44 -65 41 -85 -2 -15 -13 -18 -57 -18 -45 0 -54 3 -51 17 1 10 -6 23 -18 30 -13 9 -20 23 -20 45 0 32 1 33 43 33 32 0 48 -6 62 -22z m359 -8 c19 -20 30 -42 33 -72 l5 -43 -59 0 c-59 0 -60 0 -60 29 0 16 -6 34 -14 40 -12 9 -17 51 -10 74 1 1 18 2 39 2 28 0 44 -8 66 -30z m266 4 c0 -22 2 -24 15 -14 8 6 13 17 12 23 -1 8 17 12 52 12 48 0 54 -2 57 -22 2 -13 -1 -23 -6 -23 -6 0 -10 -50 -10 -128 0 -137 0 -136 -58 -169 -28 -17 -146 -17 -174 0 -46 26 -58 42 -58 74 0 33 1 33 46 33 29 0 51 -6 58 -14 6 -8 22 -16 36 -18 21 -2 26 2 28 24 3 26 2 27 -42 24 -25 -1 -46 1 -46 5 0 4 -13 10 -29 14 -46 10 -66 42 -64 100 4 99 7 102 116 104 66 1 67 1 67 -25z m320 -104 c0 -111 2 -129 15 -124 8 4 15 1 15 -4 0 -6 12 -12 28 -14 24 -3 27 -7 30 -45 3 -40 1 -43 -22 -43 -13 0 -26 5 -28 12 -6 17 -36 18 -42 2 -4 -10 -22 -14 -61 -14 l-55 0 0 180 0 180 60 0 60 0 0 -130z m-907 -85 c0 -27 -4 -59 -8 -70 -16 -38 -69 -75 -110 -75 -22 0 -25 4 -25 40 0 29 5 42 20 50 11 6 20 19 20 30 0 11 -9 24 -20 30 -11 6 -20 20 -20 31 0 18 6 20 71 17 l71 -3 1 -50z m357 -24 c0 -42 -39 -101 -66 -101 -8 0 -14 -5 -14 -11 0 -6 -14 -9 -31 -7 -29 3 -31 6 -33 46 -2 29 2 42 11 42 7 0 14 8 15 18 0 9 2 22 3 27 2 6 3 13 4 18 0 4 26 7 56 7 l55 0 0 -39z m894 -73 c-2 -38 -5 -43 -25 -43 -21 0 -24 5 -27 43 -3 40 -2 42 26 42 27 0 28 -2 26 -42z m-3022 -60 c62 -50 14 -132 -58 -99 -32 14 -33 65 -1 92 26 22 38 23 59 7z m392 -43 c4 -10 -3 -20 -19 -27 -14 -6 -25 -14 -25 -18 0 -4 -21 -22 -47 -40 -27 -19 -52 -40 -56 -47 -4 -7 -12 -13 -17 -13 -5 0 -28 -18 -52 -40 -24 -22 -48 -40 -54 -40 -6 0 -18 -10 -27 -23 -11 -16 -18 -19 -26 -11 -9 8 -1 20 31 47 24 20 61 52 83 71 22 19 56 48 76 65 20 17 39 31 42 31 3 0 21 14 39 30 37 34 44 36 52 15z m86 -46 c-14 -10 -32 -26 -41 -34 -9 -8 -21 -15 -27 -15 -7 0 -12 -4 -12 -10 0 -5 -17 -21 -38 -34 -41 -26 -44 -28 -110 -91 -28 -26 -45 -36 -52 -29 -6 6 -1 18 15 34 14 14 33 33 43 43 9 9 20 17 24 17 5 0 52 36 105 80 69 57 100 77 107 69 8 -7 4 -16 -14 -30z"/>
 <path d="M948 613 c-37 -45 -45 -92 -27 -154 12 -39 33 -51 69 -42 18 5 20 14 20 93 0 71 -3 90 -18 103 -23 21 -26 21 -44 0z"/>
 <path d="M2746 605 c-25 -26 -19 -41 24 -64 l40 -21 0 45 c0 25 -4 45 -9 45 -5 0 -16 3 -24 6 -8 3 -22 -2 -31 -11z"/>
 </g>
<g id="layer114" fill="#fffffe" stroke="none">
 <path d="M0 975 l0 -185 80 0 80 0 0 131 0 130 48 -3 47 -3 3 -127 3 -128 164 0 165 0 0 185 0 185 -295 0 -295 0 0 -185z"/>
 <path d="M684 1146 c-3 -7 -4 -89 -2 -182 l3 -169 175 -6 c96 -3 727 -4 1403 -2 l1227 4 0 -33 0 -33 -1398 -4 c-1021 -2 -1399 -7 -1405 -15 -9 -14 -7 -364 2 -389 6 -17 8 -17 34 3 27 21 47 20 47 -3 0 -7 -17 -23 -37 -37 -20 -14 -46 -34 -58 -45 -11 -11 -57 -48 -101 -82 -45 -35 -91 -72 -104 -83 -13 -11 -31 -20 -40 -20 -15 0 -52 23 -86 55 -6 5 -73 55 -148 110 -75 54 -136 103 -136 107 0 20 34 19 60 -1 16 -11 32 -21 35 -21 3 0 4 93 3 208 l-3 207 -77 3 -78 3 0 -361 0 -360 321 0 c300 0 320 1 315 18 -3 12 10 29 46 57 28 22 70 56 94 75 95 79 161 130 168 130 3 0 6 -9 6 -19 0 -11 -19 -34 -41 -53 -23 -18 -60 -49 -83 -68 -23 -19 -59 -48 -81 -65 -21 -16 -50 -40 -64 -52 l-26 -22 1423 -1 1422 0 0 313 0 314 -30 -2 c-17 -1 -36 -7 -41 -12 -7 -7 -11 -80 -12 -189 l-2 -179 -62 -3 -63 -3 0 45 c0 39 -3 45 -22 48 -20 3 -23 9 -23 43 0 34 3 40 23 43 21 3 22 8 22 97 0 75 3 94 16 99 9 4 13 13 10 24 -8 25 36 66 64 59 11 -3 22 -1 25 3 4 7 60 7 60 0 0 -1 8 -3 18 -5 16 -3 17 13 17 231 l0 234 -1405 0 c-1173 0 -1406 -2 -1411 -14z m286 -444 c0 -4 17 -6 38 -4 30 3 43 -2 70 -27 18 -17 30 -36 27 -41 -3 -6 1 -13 9 -16 13 -5 16 -24 16 -95 0 -104 -16 -140 -76 -175 -23 -13 -174 -17 -174 -5 0 5 -9 11 -21 14 -11 3 -23 15 -26 26 -3 12 -9 21 -14 21 -5 0 -9 52 -9 115 0 63 3 115 8 115 4 0 12 10 17 23 6 12 17 22 25 22 8 0 20 6 26 14 6 8 20 12 33 8 11 -3 21 -1 21 4 0 5 7 9 15 9 8 0 15 -3 15 -8z m765 -3 c3 -4 13 -5 21 -2 16 6 59 -12 82 -35 8 -7 16 -31 19 -53 5 -34 2 -44 -22 -70 -16 -16 -35 -29 -42 -29 -7 0 -13 -4 -13 -10 0 -5 -17 -12 -37 -16 -21 -4 -40 -10 -43 -13 -3 -3 -13 -11 -24 -16 -30 -17 -20 -30 28 -33 37 -3 44 0 42 15 -1 15 7 18 49 18 49 0 50 -1 53 -33 3 -24 -3 -38 -20 -52 -13 -11 -29 -19 -35 -20 -7 0 -13 -4 -13 -9 0 -6 -39 -10 -87 -9 -74 0 -90 3 -104 20 -10 10 -21 20 -26 21 -4 1 -8 7 -8 14 0 7 -6 18 -13 25 -6 6 -12 21 -12 32 0 23 79 99 97 92 7 -3 15 -1 19 5 3 6 12 8 19 5 8 -3 19 2 25 10 7 8 18 14 26 14 18 0 26 17 19 39 -4 12 -14 19 -28 19 -26 -2 -67 -35 -67 -55 0 -11 -14 -13 -57 -11 l-58 3 3 35 c3 37 38 84 58 76 7 -3 15 2 18 11 4 10 15 14 31 11 14 -3 25 -2 25 2 0 11 69 10 75 -1z m330 -34 c0 -35 -4 -47 -18 -51 -12 -4 -16 -12 -12 -25 4 -11 2 -19 -5 -19 -6 0 -10 -8 -8 -17 2 -10 12 -18 23 -18 14 0 20 -8 22 -27 1 -24 -2 -28 -23 -28 -25 0 -32 -14 -13 -25 6 -4 8 -13 5 -21 -3 -9 1 -14 12 -14 14 0 17 -9 17 -45 l0 -45 -42 0 c-24 0 -43 5 -43 10 0 6 -5 10 -11 10 -6 0 -18 8 -27 17 -24 23 -25 272 -2 294 25 24 68 42 84 36 8 -3 18 -2 21 3 13 21 20 8 20 -35z m355 -5 c0 -29 -5 -42 -20 -50 -11 -6 -17 -16 -14 -25 4 -8 2 -15 -2 -15 -11 0 -9 -97 2 -125 4 -11 13 -24 21 -28 7 -4 13 -25 13 -47 0 -39 -1 -40 -35 -40 -35 0 -66 13 -93 38 -7 6 -11 12 -7 12 3 0 3 5 0 11 -10 15 -11 239 -2 239 5 0 6 3 3 8 -12 20 61 69 88 59 8 -3 18 -2 21 4 12 19 25 -3 25 -41z m-925 -145 l0 -180 -60 0 -60 0 -5 146 c-5 133 -7 146 -23 143 -43 -6 -47 -20 -47 -160 l0 -134 -57 0 -58 0 0 160 c0 88 3 160 8 160 4 0 7 6 7 13 0 25 46 34 170 33 l125 -1 0 -180z m686 158 c14 -16 27 -32 28 -38 2 -5 7 -15 11 -20 5 -6 8 -20 6 -30 -2 -17 -11 -20 -57 -20 -45 0 -54 3 -51 17 1 9 -7 22 -18 28 -14 7 -20 21 -20 44 0 40 5 46 44 46 21 0 40 -9 57 -27z m358 -7 c24 -25 35 -46 38 -78 l5 -43 -59 0 c-59 0 -60 0 -60 29 0 16 -6 34 -14 40 -12 9 -17 53 -10 81 0 3 16 5 34 5 25 0 42 -9 66 -34z m271 -1 c4 -24 7 -27 15 -15 5 8 10 22 10 30 0 11 13 15 55 15 52 0 55 -2 56 -25 1 -14 -1 -29 -3 -33 -3 -5 -5 -61 -4 -124 2 -107 0 -117 -20 -139 -12 -13 -28 -24 -36 -24 -7 0 -13 -4 -13 -10 0 -6 -35 -10 -85 -10 -50 0 -85 4 -85 10 0 6 -5 10 -10 10 -6 0 -20 9 -31 19 -29 27 -23 85 10 89 31 5 66 -5 84 -22 26 -26 52 -24 55 6 3 26 2 27 -42 24 -25 -1 -46 1 -46 5 0 4 -13 10 -29 14 -47 10 -64 37 -65 105 -1 33 2 60 7 60 4 0 7 6 7 13 0 21 43 35 105 33 58 -1 60 -2 65 -31z m318 -102 c2 -111 5 -131 17 -127 8 4 15 1 15 -4 0 -6 12 -12 28 -14 24 -3 27 -7 30 -45 3 -40 1 -43 -21 -43 -14 0 -27 7 -31 15 -6 17 -26 16 -41 -3 -7 -9 -29 -12 -65 -10 l-55 3 -3 174 c-2 133 1 177 10 183 7 4 36 7 63 6 l50 -3 3 -132z m-904 -90 c1 -35 -2 -63 -8 -63 -5 0 -6 -3 -3 -7 9 -9 -33 -53 -50 -53 -7 0 -13 -4 -13 -10 0 -5 -16 -10 -35 -10 -34 0 -35 1 -35 40 0 29 5 42 20 50 11 6 20 19 20 30 0 11 -9 24 -20 30 -20 11 -27 40 -13 54 4 4 36 6 72 4 l64 -3 1 -62z m354 -33 c-5 -49 -34 -89 -65 -90 -7 0 -13 -4 -13 -10 0 -5 -15 -10 -32 -10 -32 0 -33 1 -33 45 0 29 4 45 13 45 12 0 17 18 14 53 -2 14 7 17 59 17 l62 0 -5 -50z m897 -65 c0 -43 -2 -46 -25 -43 -22 3 -25 9 -28 46 -3 40 -2 42 25 42 27 0 28 -2 28 -45z m-2630 -104 c0 -8 -8 -19 -19 -25 -10 -6 -30 -22 -45 -36 -30 -28 -56 -50 -121 -100 -25 -19 -47 -37 -50 -40 -14 -17 -78 -60 -88 -60 -38 0 5 48 141 157 143 114 182 137 182 104z"/>
 <path d="M945 610 c-10 -11 -15 -20 -11 -20 3 0 -1 -11 -10 -25 -18 -28 -14 -102 6 -115 6 -4 11 -11 11 -16 -1 -5 13 -9 30 -9 l31 0 0 88 c0 110 -18 140 -57 97z"/>
 <path d="M2746 601 c-27 -30 -11 -51 52 -66 8 -2 12 10 12 36 0 22 -4 38 -9 34 -5 -3 -12 -1 -16 5 -9 15 -20 12 -39 -9z"/>
 <path d="M255 710 c-3 -5 -5 -103 -4 -217 l1 -208 -32 -5 -32 -5 24 -20 c13 -11 67 -52 120 -92 l96 -72 30 22 c52 38 156 120 184 147 l28 25 -38 0 -37 0 -5 215 -5 215 -162 3 c-101 1 -164 -1 -168 -8z m212 -402 c29 -28 29 -49 -2 -82 -30 -32 -45 -33 -79 -1 -29 27 -31 37 -15 68 23 43 60 49 96 15z"/>
 </g>

</svg>